<?xml version="1.0" encoding="utf-8" standalone="no"?>
<!DOCTYPE svg PUBLIC "-//W3C//DTD SVG 1.1//EN"
  "http://www.w3.org/Graphics/SVG/1.1/DTD/svg11.dtd">
<svg xmlns:xlink="http://www.w3.org/1999/xlink" width="278.234062pt" height="205.909131pt" viewBox="0 0 278.234062 205.909131" xmlns="http://www.w3.org/2000/svg" version="1.1">
 <metadata>
  <rdf:RDF xmlns:dc="http://purl.org/dc/elements/1.1/" xmlns:cc="http://creativecommons.org/ns#" xmlns:rdf="http://www.w3.org/1999/02/22-rdf-syntax-ns#">
   <cc:Work>
    <dc:type rdf:resource="http://purl.org/dc/dcmitype/StillImage"/>
    <dc:date>2026-02-09T02:45:27.910719</dc:date>
    <dc:format>image/svg+xml</dc:format>
    <dc:creator>
     <cc:Agent>
      <dc:title>Matplotlib v3.10.7, https://matplotlib.org/</dc:title>
     </cc:Agent>
    </dc:creator>
   </cc:Work>
  </rdf:RDF>
 </metadata>
 <defs>
  <style type="text/css">*{stroke-linejoin: round; stroke-linecap: butt}</style>
 </defs>
 <g id="figure_1">
  <g id="patch_1">
   <path d="M 0 205.909131 
L 278.234062 205.909131 
L 278.234062 0 
L 0 0 
z
" style="fill: #ffffff"/>
  </g>
  <g id="axes_1">
   <g id="patch_2">
    <path d="M 50.749063 166.930069 
L 261.464063 166.930069 
L 261.464063 10.422606 
L 50.749063 10.422606 
z
" style="fill: #ffffff"/>
   </g>
   <g id="matplotlib.axis_1">
    <g id="xtick_1">
     <g id="line2d_1">
      <path d="M 50.749063 166.930069 
L 50.749063 10.422606 
" clip-path="url(#p37075beb33)" style="fill: none; stroke-dasharray: 3.7,1.6; stroke-dashoffset: 0; stroke: #b0b0b0; stroke-opacity: 0.3"/>
     </g>
     <g id="line2d_2"/>
     <g id="text_1">
      <!-- 0 -->
      <g style="fill: #333333" transform="translate(47.559063 181.932569) scale(0.11 -0.11)">
       <defs>
        <path id="Lato-Light-30" d="M 3478 2266 
Q 3478 1670 3350 1235 
Q 3222 800 3001 515 
Q 2781 230 2485 91 
Q 2189 -48 1853 -48 
Q 1517 -48 1222 91 
Q 928 230 707 515 
Q 486 800 360 1235 
Q 234 1670 234 2266 
Q 234 2861 360 3296 
Q 486 3731 707 4016 
Q 928 4301 1222 4440 
Q 1517 4579 1853 4579 
Q 2189 4579 2485 4440 
Q 2781 4301 3001 4016 
Q 3222 3731 3350 3296 
Q 3478 2861 3478 2266 
z
M 3158 2266 
Q 3158 2816 3052 3206 
Q 2947 3597 2769 3845 
Q 2592 4093 2353 4208 
Q 2115 4323 1853 4323 
Q 1590 4323 1353 4208 
Q 1117 4093 937 3845 
Q 758 3597 652 3206 
Q 547 2816 547 2266 
Q 547 1712 652 1323 
Q 758 934 937 686 
Q 1117 438 1353 324 
Q 1590 211 1853 211 
Q 2115 211 2353 324 
Q 2592 438 2769 686 
Q 2947 934 3052 1323 
Q 3158 1712 3158 2266 
z
" transform="scale(0.015625)"/>
       </defs>
       <use xlink:href="#Lato-Light-30"/>
      </g>
     </g>
    </g>
    <g id="xtick_2">
     <g id="line2d_3">
      <path d="M 92.892063 166.930069 
L 92.892063 10.422606 
" clip-path="url(#p37075beb33)" style="fill: none; stroke-dasharray: 3.7,1.6; stroke-dashoffset: 0; stroke: #b0b0b0; stroke-opacity: 0.3"/>
     </g>
     <g id="line2d_4"/>
     <g id="text_2">
      <!-- 100 -->
      <g style="fill: #333333" transform="translate(83.322063 181.932569) scale(0.11 -0.11)">
       <defs>
        <path id="Lato-Light-31" d="M 854 237 
L 1894 237 
L 1894 3910 
Q 1894 4019 1904 4141 
L 906 3254 
Q 861 3216 816 3225 
Q 771 3235 746 3264 
L 653 3392 
L 1962 4547 
L 2202 4547 
L 2202 237 
L 3190 237 
L 3190 0 
L 854 0 
L 854 237 
z
" transform="scale(0.015625)"/>
       </defs>
       <use xlink:href="#Lato-Light-31"/>
       <use xlink:href="#Lato-Light-30" transform="translate(58 0)"/>
       <use xlink:href="#Lato-Light-30" transform="translate(116 0)"/>
      </g>
     </g>
    </g>
    <g id="xtick_3">
     <g id="line2d_5">
      <path d="M 135.035063 166.930069 
L 135.035063 10.422606 
" clip-path="url(#p37075beb33)" style="fill: none; stroke-dasharray: 3.7,1.6; stroke-dashoffset: 0; stroke: #b0b0b0; stroke-opacity: 0.3"/>
     </g>
     <g id="line2d_6"/>
     <g id="text_3">
      <!-- 200 -->
      <g style="fill: #333333" transform="translate(125.465063 181.932569) scale(0.11 -0.11)">
       <defs>
        <path id="Lato-Light-32" d="M 1882 4579 
Q 2141 4579 2376 4504 
Q 2611 4429 2792 4277 
Q 2973 4125 3078 3896 
Q 3184 3667 3184 3360 
Q 3184 3104 3105 2885 
Q 3027 2666 2892 2464 
Q 2758 2262 2580 2072 
Q 2403 1882 2208 1683 
L 790 237 
Q 893 262 1003 275 
Q 1114 288 1226 288 
L 3181 288 
Q 3232 288 3261 257 
Q 3290 227 3290 179 
L 3290 0 
L 368 0 
L 368 109 
Q 368 144 385 181 
Q 403 218 432 243 
L 1978 1808 
Q 2170 2003 2333 2185 
Q 2496 2368 2616 2553 
Q 2736 2739 2803 2934 
Q 2870 3130 2870 3350 
Q 2870 3600 2787 3784 
Q 2704 3968 2566 4086 
Q 2429 4205 2246 4262 
Q 2064 4320 1869 4320 
Q 1654 4320 1473 4254 
Q 1293 4189 1153 4072 
Q 1014 3955 923 3793 
Q 832 3632 797 3440 
Q 774 3370 737 3347 
Q 701 3325 637 3331 
L 480 3357 
Q 522 3648 640 3875 
Q 758 4102 940 4259 
Q 1123 4416 1363 4497 
Q 1603 4579 1882 4579 
z
" transform="scale(0.015625)"/>
       </defs>
       <use xlink:href="#Lato-Light-32"/>
       <use xlink:href="#Lato-Light-30" transform="translate(58 0)"/>
       <use xlink:href="#Lato-Light-30" transform="translate(116 0)"/>
      </g>
     </g>
    </g>
    <g id="xtick_4">
     <g id="line2d_7">
      <path d="M 177.178063 166.930069 
L 177.178063 10.422606 
" clip-path="url(#p37075beb33)" style="fill: none; stroke-dasharray: 3.7,1.6; stroke-dashoffset: 0; stroke: #b0b0b0; stroke-opacity: 0.3"/>
     </g>
     <g id="line2d_8"/>
     <g id="text_4">
      <!-- 300 -->
      <g style="fill: #333333" transform="translate(167.608063 181.932569) scale(0.11 -0.11)">
       <defs>
        <path id="Lato-Light-33" d="M 1901 4579 
Q 2160 4579 2390 4507 
Q 2621 4435 2795 4291 
Q 2970 4147 3070 3932 
Q 3171 3718 3171 3437 
Q 3171 3216 3102 3038 
Q 3034 2861 2914 2726 
Q 2794 2592 2630 2501 
Q 2467 2410 2275 2362 
Q 2774 2269 3030 1976 
Q 3286 1683 3286 1245 
Q 3286 966 3174 728 
Q 3062 490 2867 317 
Q 2672 144 2406 46 
Q 2141 -51 1830 -51 
Q 1443 -51 1185 53 
Q 928 157 761 323 
Q 595 490 502 696 
Q 410 902 352 1107 
L 474 1158 
Q 525 1181 581 1171 
Q 637 1162 662 1098 
Q 678 1059 705 977 
Q 733 896 784 797 
Q 835 698 916 594 
Q 998 490 1121 403 
Q 1245 317 1417 262 
Q 1590 208 1827 208 
Q 2115 208 2331 304 
Q 2547 400 2692 549 
Q 2838 698 2910 882 
Q 2982 1066 2982 1238 
Q 2982 1446 2916 1625 
Q 2851 1805 2697 1934 
Q 2544 2064 2293 2139 
Q 2042 2214 1674 2214 
L 1674 2435 
Q 1968 2442 2192 2514 
Q 2416 2586 2566 2710 
Q 2717 2835 2793 3008 
Q 2870 3181 2870 3389 
Q 2870 3629 2790 3805 
Q 2710 3981 2576 4096 
Q 2442 4211 2262 4265 
Q 2083 4320 1888 4320 
Q 1674 4320 1491 4254 
Q 1309 4189 1169 4072 
Q 1030 3955 937 3793 
Q 845 3632 810 3440 
Q 790 3370 755 3347 
Q 720 3325 656 3331 
L 499 3357 
Q 541 3648 659 3875 
Q 778 4102 960 4259 
Q 1142 4416 1382 4497 
Q 1622 4579 1901 4579 
z
" transform="scale(0.015625)"/>
       </defs>
       <use xlink:href="#Lato-Light-33"/>
       <use xlink:href="#Lato-Light-30" transform="translate(58 0)"/>
       <use xlink:href="#Lato-Light-30" transform="translate(116 0)"/>
      </g>
     </g>
    </g>
    <g id="xtick_5">
     <g id="line2d_9">
      <path d="M 219.321063 166.930069 
L 219.321063 10.422606 
" clip-path="url(#p37075beb33)" style="fill: none; stroke-dasharray: 3.7,1.6; stroke-dashoffset: 0; stroke: #b0b0b0; stroke-opacity: 0.3"/>
     </g>
     <g id="line2d_10"/>
     <g id="text_5">
      <!-- 400 -->
      <g style="fill: #333333" transform="translate(209.751063 181.932569) scale(0.11 -0.11)">
       <defs>
        <path id="Lato-Light-34" d="M 2678 1542 
L 3507 1542 
L 3507 1376 
Q 3507 1341 3486 1320 
Q 3466 1299 3421 1299 
L 2678 1299 
L 2678 0 
L 2410 0 
L 2410 1299 
L 269 1299 
Q 221 1299 195 1320 
Q 170 1341 160 1376 
L 131 1526 
L 2406 4534 
L 2678 4534 
L 2678 1542 
z
M 2410 3914 
Q 2410 3968 2414 4032 
Q 2419 4096 2426 4163 
L 464 1542 
L 2410 1542 
L 2410 3914 
z
" transform="scale(0.015625)"/>
       </defs>
       <use xlink:href="#Lato-Light-34"/>
       <use xlink:href="#Lato-Light-30" transform="translate(58 0)"/>
       <use xlink:href="#Lato-Light-30" transform="translate(116 0)"/>
      </g>
     </g>
    </g>
    <g id="xtick_6">
     <g id="line2d_11">
      <path d="M 261.464063 166.930069 
L 261.464063 10.422606 
" clip-path="url(#p37075beb33)" style="fill: none; stroke-dasharray: 3.7,1.6; stroke-dashoffset: 0; stroke: #b0b0b0; stroke-opacity: 0.3"/>
     </g>
     <g id="line2d_12"/>
     <g id="text_6">
      <!-- 500 -->
      <g style="fill: #333333" transform="translate(251.894063 181.932569) scale(0.11 -0.11)">
       <defs>
        <path id="Lato-Light-35" d="M 3078 4397 
Q 3078 4333 3035 4289 
Q 2992 4246 2899 4246 
L 1261 4246 
L 989 2736 
Q 1203 2790 1395 2814 
Q 1587 2838 1760 2838 
Q 2115 2838 2384 2737 
Q 2653 2637 2833 2456 
Q 3014 2275 3105 2025 
Q 3197 1776 3197 1482 
Q 3197 1123 3073 840 
Q 2950 557 2736 358 
Q 2522 160 2237 54 
Q 1952 -51 1632 -51 
Q 1446 -51 1275 -17 
Q 1104 16 955 72 
Q 806 128 680 201 
Q 554 275 458 352 
L 550 477 
Q 579 525 640 525 
Q 682 525 760 477 
Q 838 429 961 371 
Q 1085 314 1254 266 
Q 1424 218 1648 218 
Q 1910 218 2137 302 
Q 2365 387 2531 547 
Q 2698 707 2792 942 
Q 2886 1178 2886 1475 
Q 2886 1718 2814 1923 
Q 2742 2128 2596 2273 
Q 2451 2419 2228 2500 
Q 2006 2582 1706 2582 
Q 1523 2582 1318 2553 
Q 1114 2525 883 2461 
L 688 2522 
L 1040 4528 
L 3078 4528 
L 3078 4397 
z
" transform="scale(0.015625)"/>
       </defs>
       <use xlink:href="#Lato-Light-35"/>
       <use xlink:href="#Lato-Light-30" transform="translate(58 0)"/>
       <use xlink:href="#Lato-Light-30" transform="translate(116 0)"/>
      </g>
     </g>
    </g>
    <g id="text_7">
     <!-- Epoch -->
     <g style="fill: #333333" transform="translate(139.945 196.597881) scale(0.12 -0.12)">
      <defs>
       <path id="Lato-Light-45" d="M 3382 4528 
L 3382 4256 
L 998 4256 
L 998 2426 
L 2982 2426 
L 2982 2160 
L 998 2160 
L 998 272 
L 3389 272 
L 3382 0 
L 669 0 
L 669 4528 
L 3382 4528 
z
" transform="scale(0.015625)"/>
       <path id="Lato-Light-70" d="M 525 -1126 
L 525 3184 
L 694 3184 
Q 774 3184 787 3104 
L 816 2611 
Q 1027 2899 1312 3068 
Q 1597 3238 1949 3238 
Q 2534 3238 2862 2832 
Q 3190 2426 3190 1613 
Q 3190 1264 3099 961 
Q 3008 659 2830 436 
Q 2653 214 2395 86 
Q 2138 -42 1802 -42 
Q 1478 -42 1241 76 
Q 1005 195 832 426 
L 832 -1126 
L 525 -1126 
z
M 1862 2992 
Q 1546 2992 1290 2829 
Q 1034 2666 832 2374 
L 832 694 
Q 1014 419 1235 308 
Q 1456 198 1744 198 
Q 2026 198 2237 300 
Q 2448 403 2590 590 
Q 2733 778 2805 1038 
Q 2877 1299 2877 1613 
Q 2877 2323 2614 2657 
Q 2352 2992 1862 2992 
z
" transform="scale(0.015625)"/>
       <path id="Lato-Light-6f" d="M 1786 3235 
Q 2128 3235 2398 3118 
Q 2669 3002 2854 2787 
Q 3040 2573 3137 2270 
Q 3235 1968 3235 1594 
Q 3235 1219 3137 918 
Q 3040 618 2854 403 
Q 2669 189 2398 73 
Q 2128 -42 1786 -42 
Q 1443 -42 1172 73 
Q 902 189 715 403 
Q 528 618 430 918 
Q 333 1219 333 1594 
Q 333 1968 430 2270 
Q 528 2573 715 2787 
Q 902 3002 1172 3118 
Q 1443 3235 1786 3235 
z
M 1786 198 
Q 2070 198 2283 296 
Q 2496 394 2638 576 
Q 2781 758 2851 1016 
Q 2922 1274 2922 1594 
Q 2922 1910 2851 2169 
Q 2781 2429 2638 2613 
Q 2496 2797 2283 2896 
Q 2070 2995 1786 2995 
Q 1501 2995 1288 2896 
Q 1075 2797 932 2613 
Q 790 2429 718 2169 
Q 646 1910 646 1594 
Q 646 1274 718 1016 
Q 790 758 932 576 
Q 1075 394 1288 296 
Q 1501 198 1786 198 
z
" transform="scale(0.015625)"/>
       <path id="Lato-Light-63" d="M 2666 2758 
Q 2650 2742 2635 2731 
Q 2621 2720 2595 2720 
Q 2563 2720 2508 2763 
Q 2454 2806 2361 2857 
Q 2269 2909 2129 2952 
Q 1990 2995 1792 2995 
Q 1517 2995 1304 2897 
Q 1091 2800 944 2617 
Q 797 2435 721 2176 
Q 646 1917 646 1594 
Q 646 1258 724 998 
Q 803 739 947 561 
Q 1091 384 1296 291 
Q 1501 198 1750 198 
Q 1981 198 2136 252 
Q 2291 307 2392 371 
Q 2493 435 2550 489 
Q 2608 544 2646 544 
Q 2685 544 2710 512 
L 2790 410 
Q 2717 314 2605 230 
Q 2493 147 2352 86 
Q 2211 26 2046 -8 
Q 1882 -42 1702 -42 
Q 1398 -42 1147 68 
Q 896 179 715 388 
Q 534 598 433 902 
Q 333 1206 333 1594 
Q 333 1958 429 2259 
Q 525 2560 710 2777 
Q 896 2995 1163 3115 
Q 1430 3235 1776 3235 
Q 2086 3235 2326 3136 
Q 2566 3037 2746 2867 
L 2666 2758 
z
" transform="scale(0.015625)"/>
       <path id="Lato-Light-68" d="M 525 0 
L 525 4656 
L 832 4656 
L 832 2643 
Q 1053 2915 1336 3075 
Q 1619 3235 1971 3235 
Q 2234 3235 2434 3152 
Q 2634 3069 2765 2912 
Q 2896 2755 2963 2534 
Q 3030 2314 3030 2035 
L 3030 0 
L 2723 0 
L 2723 2035 
Q 2723 2483 2518 2737 
Q 2314 2992 1894 2992 
Q 1581 2992 1312 2833 
Q 1043 2675 832 2394 
L 832 0 
L 525 0 
z
" transform="scale(0.015625)"/>
      </defs>
      <use xlink:href="#Lato-Light-45"/>
      <use xlink:href="#Lato-Light-70" transform="translate(56.25 0)"/>
      <use xlink:href="#Lato-Light-6f" transform="translate(111.400009 0)"/>
      <use xlink:href="#Lato-Light-63" transform="translate(167.200012 0)"/>
      <use xlink:href="#Lato-Light-68" transform="translate(214.350021 0)"/>
     </g>
    </g>
   </g>
   <g id="matplotlib.axis_2">
    <g id="ytick_1">
     <g id="line2d_13">
      <path d="M 50.749063 166.930069 
L 261.464063 166.930069 
" clip-path="url(#p37075beb33)" style="fill: none; stroke-dasharray: 3.7,1.6; stroke-dashoffset: 0; stroke: #b0b0b0; stroke-opacity: 0.3"/>
     </g>
     <g id="line2d_14"/>
     <g id="text_8">
      <!-- 0 -->
      <g style="fill: #333333" transform="translate(37.369062 170.931319) scale(0.11 -0.11)">
       <use xlink:href="#Lato-Light-30"/>
      </g>
     </g>
    </g>
    <g id="ytick_2">
     <g id="line2d_15">
      <path d="M 50.749063 135.784305 
L 261.464063 135.784305 
" clip-path="url(#p37075beb33)" style="fill: none; stroke-dasharray: 3.7,1.6; stroke-dashoffset: 0; stroke: #b0b0b0; stroke-opacity: 0.3"/>
     </g>
     <g id="line2d_16"/>
     <g id="text_9">
      <!-- 0.20 -->
      <g style="fill: #333333" transform="translate(22.04125 139.785555) scale(0.11 -0.11)">
       <defs>
        <path id="Lato-Light-2e" d="M 451 246 
Q 451 307 473 361 
Q 496 416 536 456 
Q 576 496 629 520 
Q 682 544 746 544 
Q 806 544 860 520 
Q 915 496 955 456 
Q 995 416 1019 361 
Q 1043 307 1043 246 
Q 1043 182 1019 129 
Q 995 77 955 37 
Q 915 -3 860 -25 
Q 806 -48 746 -48 
Q 621 -48 536 37 
Q 451 122 451 246 
z
" transform="scale(0.015625)"/>
       </defs>
       <use xlink:href="#Lato-Light-30"/>
       <use xlink:href="#Lato-Light-2e" transform="translate(58 0)"/>
       <use xlink:href="#Lato-Light-32" transform="translate(81.350006 0)"/>
       <use xlink:href="#Lato-Light-30" transform="translate(139.350006 0)"/>
      </g>
     </g>
    </g>
    <g id="ytick_3">
     <g id="line2d_17">
      <path d="M 50.749063 104.638541 
L 261.464063 104.638541 
" clip-path="url(#p37075beb33)" style="fill: none; stroke-dasharray: 3.7,1.6; stroke-dashoffset: 0; stroke: #b0b0b0; stroke-opacity: 0.3"/>
     </g>
     <g id="line2d_18"/>
     <g id="text_10">
      <!-- 0.40 -->
      <g style="fill: #333333" transform="translate(22.04125 108.639791) scale(0.11 -0.11)">
       <use xlink:href="#Lato-Light-30"/>
       <use xlink:href="#Lato-Light-2e" transform="translate(58 0)"/>
       <use xlink:href="#Lato-Light-34" transform="translate(81.350006 0)"/>
       <use xlink:href="#Lato-Light-30" transform="translate(139.350006 0)"/>
      </g>
     </g>
    </g>
    <g id="ytick_4">
     <g id="line2d_19">
      <path d="M 50.749063 73.492777 
L 261.464063 73.492777 
" clip-path="url(#p37075beb33)" style="fill: none; stroke-dasharray: 3.7,1.6; stroke-dashoffset: 0; stroke: #b0b0b0; stroke-opacity: 0.3"/>
     </g>
     <g id="line2d_20"/>
     <g id="text_11">
      <!-- 0.60 -->
      <g style="fill: #333333" transform="translate(22.04125 77.494027) scale(0.11 -0.11)">
       <defs>
        <path id="Lato-Light-36" d="M 1328 2765 
Q 1229 2634 1145 2518 
Q 1062 2403 995 2291 
Q 1184 2486 1443 2596 
Q 1702 2707 2010 2707 
Q 2301 2707 2547 2611 
Q 2794 2515 2971 2340 
Q 3149 2166 3249 1918 
Q 3350 1670 3350 1363 
Q 3350 1056 3240 797 
Q 3130 538 2933 349 
Q 2736 160 2461 54 
Q 2186 -51 1856 -51 
Q 1539 -51 1276 51 
Q 1014 154 827 346 
Q 640 538 537 814 
Q 435 1091 435 1440 
Q 435 1706 569 2040 
Q 704 2374 1011 2790 
L 2246 4454 
Q 2301 4528 2410 4528 
L 2678 4528 
L 1328 2765 
z
M 733 1366 
Q 733 1114 811 899 
Q 890 685 1034 529 
Q 1178 374 1386 288 
Q 1594 202 1853 202 
Q 2128 202 2349 288 
Q 2570 374 2725 526 
Q 2880 678 2963 888 
Q 3046 1098 3046 1344 
Q 3046 1603 2964 1812 
Q 2883 2022 2734 2168 
Q 2586 2314 2381 2392 
Q 2176 2470 1926 2470 
Q 1645 2470 1422 2372 
Q 1200 2275 1046 2120 
Q 893 1965 813 1766 
Q 733 1568 733 1366 
z
" transform="scale(0.015625)"/>
       </defs>
       <use xlink:href="#Lato-Light-30"/>
       <use xlink:href="#Lato-Light-2e" transform="translate(58 0)"/>
       <use xlink:href="#Lato-Light-36" transform="translate(81.350006 0)"/>
       <use xlink:href="#Lato-Light-30" transform="translate(139.350006 0)"/>
      </g>
     </g>
    </g>
    <g id="ytick_5">
     <g id="line2d_21">
      <path d="M 50.749063 42.347014 
L 261.464063 42.347014 
" clip-path="url(#p37075beb33)" style="fill: none; stroke-dasharray: 3.7,1.6; stroke-dashoffset: 0; stroke: #b0b0b0; stroke-opacity: 0.3"/>
     </g>
     <g id="line2d_22"/>
     <g id="text_12">
      <!-- 0.80 -->
      <g style="fill: #333333" transform="translate(22.04125 46.348264) scale(0.11 -0.11)">
       <defs>
        <path id="Lato-Light-38" d="M 1856 -51 
Q 1530 -51 1259 35 
Q 989 122 795 285 
Q 602 448 493 678 
Q 384 909 384 1197 
Q 384 1446 456 1641 
Q 528 1837 659 1981 
Q 790 2125 971 2221 
Q 1152 2317 1370 2365 
Q 1171 2422 1017 2521 
Q 864 2621 760 2758 
Q 656 2896 601 3064 
Q 547 3232 547 3424 
Q 547 3664 638 3875 
Q 730 4086 899 4243 
Q 1069 4400 1310 4489 
Q 1552 4579 1856 4579 
Q 2157 4579 2398 4489 
Q 2640 4400 2811 4243 
Q 2982 4086 3073 3875 
Q 3165 3664 3165 3424 
Q 3165 3232 3110 3064 
Q 3056 2896 2950 2758 
Q 2845 2621 2691 2521 
Q 2538 2422 2339 2365 
Q 2557 2317 2737 2221 
Q 2918 2125 3049 1981 
Q 3181 1837 3254 1641 
Q 3328 1446 3328 1197 
Q 3328 909 3219 678 
Q 3110 448 2916 285 
Q 2723 122 2452 35 
Q 2182 -51 1856 -51 
z
M 1856 192 
Q 2115 192 2328 264 
Q 2541 336 2694 469 
Q 2848 602 2931 787 
Q 3014 973 3014 1200 
Q 3014 1498 2905 1696 
Q 2797 1894 2627 2012 
Q 2458 2131 2253 2180 
Q 2048 2230 1856 2230 
Q 1664 2230 1459 2180 
Q 1254 2131 1084 2012 
Q 915 1894 806 1696 
Q 698 1498 698 1200 
Q 698 973 781 787 
Q 864 602 1016 469 
Q 1168 336 1382 264 
Q 1597 192 1856 192 
z
M 1856 2477 
Q 2115 2477 2305 2555 
Q 2496 2634 2621 2766 
Q 2746 2899 2805 3068 
Q 2864 3238 2864 3421 
Q 2864 3616 2797 3784 
Q 2730 3952 2600 4077 
Q 2470 4202 2283 4272 
Q 2096 4342 1856 4342 
Q 1616 4342 1427 4272 
Q 1238 4202 1108 4077 
Q 979 3952 912 3784 
Q 845 3616 845 3421 
Q 845 3238 904 3068 
Q 963 2899 1088 2766 
Q 1213 2634 1403 2555 
Q 1594 2477 1856 2477 
z
" transform="scale(0.015625)"/>
       </defs>
       <use xlink:href="#Lato-Light-30"/>
       <use xlink:href="#Lato-Light-2e" transform="translate(58 0)"/>
       <use xlink:href="#Lato-Light-38" transform="translate(81.350006 0)"/>
       <use xlink:href="#Lato-Light-30" transform="translate(139.350006 0)"/>
      </g>
     </g>
    </g>
    <g id="ytick_6">
     <g id="line2d_23">
      <path d="M 50.749063 11.20125 
L 261.464063 11.20125 
" clip-path="url(#p37075beb33)" style="fill: none; stroke-dasharray: 3.7,1.6; stroke-dashoffset: 0; stroke: #b0b0b0; stroke-opacity: 0.3"/>
     </g>
     <g id="line2d_24"/>
     <g id="text_13">
      <!-- 1 -->
      <g style="fill: #333333" transform="translate(37.369062 15.2025) scale(0.11 -0.11)">
       <use xlink:href="#Lato-Light-31"/>
      </g>
     </g>
    </g>
    <g id="text_14">
     <!-- Accuracy -->
     <g style="fill: #333333" transform="translate(15.93 112.226337) rotate(-90) scale(0.12 -0.12)">
      <defs>
       <path id="Lato-Light-41" d="M 4112 0 
L 3859 0 
Q 3814 0 3785 24 
Q 3757 48 3741 86 
L 3210 1402 
L 986 1402 
L 454 86 
Q 442 51 410 25 
Q 378 0 333 0 
L 83 0 
L 1936 4528 
L 2259 4528 
L 4112 0 
z
M 1082 1645 
L 3110 1645 
L 2189 3933 
Q 2141 4045 2096 4202 
Q 2074 4125 2051 4054 
Q 2029 3984 2006 3930 
L 1082 1645 
z
" transform="scale(0.015625)"/>
       <path id="Lato-Light-75" d="M 797 3184 
L 797 1149 
Q 797 701 1001 446 
Q 1206 192 1626 192 
Q 1936 192 2205 350 
Q 2474 509 2688 790 
L 2688 3184 
L 2995 3184 
L 2995 0 
L 2826 0 
Q 2746 0 2733 83 
L 2704 557 
Q 2483 282 2193 115 
Q 1904 -51 1549 -51 
Q 1283 -51 1084 32 
Q 886 115 755 272 
Q 624 429 557 649 
Q 490 870 490 1149 
L 490 3184 
L 797 3184 
z
" transform="scale(0.015625)"/>
       <path id="Lato-Light-72" d="M 525 0 
L 525 3184 
L 688 3184 
Q 742 3184 764 3161 
Q 787 3139 794 3085 
L 816 2416 
Q 890 2611 984 2763 
Q 1078 2915 1201 3020 
Q 1325 3126 1477 3182 
Q 1629 3238 1814 3238 
Q 1914 3238 2010 3220 
Q 2106 3203 2179 3158 
L 2154 2947 
Q 2138 2896 2093 2896 
Q 2054 2896 1976 2918 
Q 1898 2941 1770 2941 
Q 1584 2941 1440 2883 
Q 1296 2826 1184 2715 
Q 1072 2605 987 2440 
Q 902 2275 832 2061 
L 832 0 
L 525 0 
z
" transform="scale(0.015625)"/>
       <path id="Lato-Light-61" d="M 2483 0 
Q 2387 0 2365 90 
L 2320 496 
Q 2189 368 2059 265 
Q 1930 163 1789 92 
Q 1648 22 1485 -14 
Q 1322 -51 1126 -51 
Q 963 -51 809 -3 
Q 656 45 536 144 
Q 416 243 344 398 
Q 272 554 272 771 
Q 272 973 387 1145 
Q 502 1318 748 1446 
Q 995 1574 1380 1651 
Q 1766 1728 2307 1741 
L 2307 2074 
Q 2307 2515 2116 2753 
Q 1926 2992 1552 2992 
Q 1322 2992 1160 2928 
Q 998 2864 886 2787 
Q 774 2710 704 2646 
Q 634 2582 586 2582 
Q 550 2582 528 2598 
Q 506 2614 490 2640 
L 435 2733 
Q 685 2982 960 3110 
Q 1235 3238 1584 3238 
Q 1840 3238 2032 3156 
Q 2224 3075 2350 2923 
Q 2477 2771 2541 2555 
Q 2605 2339 2605 2074 
L 2605 0 
L 2483 0 
z
M 1203 170 
Q 1389 170 1544 210 
Q 1699 250 1832 322 
Q 1965 394 2080 493 
Q 2195 592 2307 707 
L 2307 1536 
Q 1853 1523 1523 1467 
Q 1194 1411 981 1315 
Q 768 1219 667 1086 
Q 566 954 566 784 
Q 566 624 619 507 
Q 672 390 760 315 
Q 848 240 963 205 
Q 1078 170 1203 170 
z
" transform="scale(0.015625)"/>
       <path id="Lato-Light-79" d="M 1267 -1024 
Q 1248 -1069 1217 -1097 
Q 1187 -1126 1130 -1126 
L 912 -1126 
L 1472 118 
L 125 3184 
L 378 3184 
Q 426 3184 454 3160 
Q 483 3136 493 3107 
L 1565 630 
Q 1584 582 1598 532 
Q 1613 483 1626 432 
Q 1642 483 1659 532 
Q 1677 582 1696 630 
L 2755 3107 
Q 2771 3142 2800 3163 
Q 2829 3184 2864 3184 
L 3098 3184 
L 1267 -1024 
z
" transform="scale(0.015625)"/>
      </defs>
      <use xlink:href="#Lato-Light-41"/>
      <use xlink:href="#Lato-Light-63" transform="translate(64.175003 0)"/>
      <use xlink:href="#Lato-Light-63" transform="translate(110.325012 0)"/>
      <use xlink:href="#Lato-Light-75" transform="translate(157.475021 0)"/>
      <use xlink:href="#Lato-Light-72" transform="translate(212.425034 0)"/>
      <use xlink:href="#Lato-Light-61" transform="translate(246.77504 0)"/>
      <use xlink:href="#Lato-Light-63" transform="translate(295.175049 0)"/>
      <use xlink:href="#Lato-Light-79" transform="translate(342.325058 0)"/>
     </g>
    </g>
   </g>
   <g id="line2d_25">
    <path d="M 51.170493 164.749865 
L 51.591923 164.594136 
L 52.013353 163.815492 
L 52.434783 162.413933 
L 52.856212 160.545187 
L 53.277642 159.455085 
L 53.699072 159.922272 
L 54.541933 154.627492 
L 54.963363 155.094678 
L 55.384793 153.693119 
L 55.806223 153.693119 
L 56.227653 149.955627 
L 56.649082 149.64417 
L 57.070512 149.021254 
L 57.491943 145.750949 
L 57.913373 146.373865 
L 58.334803 141.546271 
L 58.756233 143.570746 
L 59.177663 137.80878 
L 59.599092 137.964508 
L 60.020522 130.956711 
L 60.441952 130.178067 
L 60.863383 130.800983 
L 61.706243 125.506203 
L 62.127673 119.432779 
L 62.970533 112.113524 
L 63.391963 111.646338 
L 63.813392 104.79427 
L 64.234823 106.195829 
L 64.656253 100.433863 
L 65.077683 88.754202 
L 65.499112 82.680778 
L 65.920542 70.53393 
L 66.341972 68.665184 
L 66.763402 63.99332 
L 67.184832 65.23915 
L 68.027693 52.0022 
L 68.870553 47.797522 
L 69.291983 48.887624 
L 69.713413 41.101183 
L 70.134843 41.412641 
L 70.556273 39.699624 
L 70.977703 34.404844 
L 71.399133 36.740776 
L 71.820562 33.314742 
L 72.241993 28.175691 
L 72.663422 26.618403 
L 73.506282 30.823081 
L 73.927712 26.306945 
L 74.349142 20.544979 
L 74.770573 19.299149 
L 75.192003 19.766335 
L 75.613433 17.897589 
L 76.034863 20.544979 
L 76.877723 16.651759 
L 77.299153 16.028843 
L 78.142013 16.028843 
L 78.563443 14.627284 
L 78.984872 14.471555 
L 79.406303 14.471555 
L 79.827732 14.004369 
L 80.249163 14.783013 
L 80.670592 14.160098 
L 81.092022 14.627284 
L 81.513452 14.315826 
L 81.934883 13.069996 
L 82.356313 16.184572 
L 82.777743 18.053318 
L 83.199173 18.364776 
L 83.620603 17.274674 
L 84.042033 18.831962 
L 84.463463 17.897589 
L 84.884893 15.561657 
L 85.727753 16.651759 
L 86.149182 16.49603 
L 87.834902 14.004369 
L 88.256333 13.069996 
L 89.099193 13.069996 
L 89.520623 12.758538 
L 89.942053 12.914267 
L 90.363483 12.602809 
L 90.784913 12.914267 
L 91.206343 14.004369 
L 91.627773 12.758538 
L 92.049203 12.135623 
L 92.470632 12.914267 
L 92.892063 12.291352 
L 93.313492 12.447081 
L 93.734923 12.135623 
L 94.156352 12.291352 
L 94.577783 13.225725 
L 94.999212 12.602809 
L 95.420643 12.291352 
L 97.106363 11.668436 
L 97.527793 11.356979 
L 97.949223 11.668436 
L 98.370653 11.824165 
L 98.792083 11.356979 
L 99.213513 11.668436 
L 99.634942 11.20125 
L 100.056373 11.824165 
L 100.477802 11.512708 
L 100.899233 12.291352 
L 101.320662 12.135623 
L 102.163522 12.135623 
L 102.584953 12.291352 
L 103.006383 11.979894 
L 104.270673 13.225725 
L 104.692103 12.914267 
L 105.113533 13.069996 
L 106.377823 16.028843 
L 106.799252 19.14342 
L 107.220683 20.544979 
L 107.642112 26.774132 
L 108.063543 22.880911 
L 108.484972 22.257996 
L 108.906403 21.323623 
L 109.327832 24.126742 
L 109.749263 24.4382 
L 110.170693 26.929861 
L 110.592123 23.971013 
L 111.013553 22.880911 
L 111.434983 18.831962 
L 111.856413 20.077793 
L 112.277843 20.700708 
L 112.699273 16.184572 
L 113.120703 15.561657 
L 113.542133 15.561657 
L 113.963562 16.028843 
L 114.384993 14.004369 
L 114.806422 15.405928 
L 115.227853 12.914267 
L 115.649282 12.914267 
L 116.070713 13.381453 
L 116.492142 11.668436 
L 116.913573 11.668436 
L 117.335003 11.824165 
L 117.756433 11.668436 
L 118.599293 11.668436 
L 119.020723 11.20125 
L 126.185033 11.20125 
L 126.606462 11.356979 
L 127.027893 11.356979 
L 127.870753 11.668436 
L 128.713613 11.356979 
L 131.242193 11.356979 
L 131.663623 11.512708 
L 132.506483 11.20125 
L 132.927913 11.668436 
L 133.349343 11.356979 
L 134.613632 11.824165 
L 135.035063 12.135623 
L 135.456492 11.824165 
L 135.877923 11.668436 
L 136.720783 11.668436 
L 137.142212 11.356979 
L 137.563643 11.668436 
L 137.985073 11.824165 
L 138.406503 11.356979 
L 138.827933 11.668436 
L 139.670793 11.668436 
L 140.092223 11.356979 
L 140.935082 11.356979 
L 141.356513 11.824165 
L 142.199373 12.135623 
L 142.620802 12.447081 
L 143.042233 11.979894 
L 143.463662 12.135623 
L 143.885093 11.824165 
L 144.306522 11.979894 
L 144.727953 12.447081 
L 145.149383 13.381453 
L 145.570813 13.537182 
L 145.992243 14.471555 
L 146.413673 14.783013 
L 146.835103 16.184572 
L 147.256533 16.028843 
L 147.677963 15.250199 
L 148.099392 17.74186 
L 148.520823 17.586132 
L 148.942252 16.963216 
L 149.363683 18.209047 
L 149.785112 17.74186 
L 150.206543 17.586132 
L 150.627972 16.807487 
L 151.049403 19.610606 
L 151.470833 18.520504 
L 151.892263 21.323623 
L 152.313693 22.413725 
L 152.735123 20.233521 
L 153.577983 17.897589 
L 153.999413 17.274674 
L 154.420843 16.028843 
L 154.842273 14.315826 
L 155.263702 14.315826 
L 156.106562 13.381453 
L 156.527993 12.135623 
L 156.949422 12.291352 
L 157.370853 12.135623 
L 158.213713 11.512708 
L 158.635143 11.668436 
L 159.056573 11.668436 
L 159.478003 11.512708 
L 159.899433 11.668436 
L 160.320863 11.668436 
L 160.742293 11.356979 
L 161.585153 11.356979 
L 162.849443 11.824165 
L 163.270872 11.668436 
L 163.692303 11.20125 
L 164.113732 11.512708 
L 164.535163 11.356979 
L 165.378023 11.356979 
L 165.799453 11.668436 
L 167.063743 11.668436 
L 167.485173 11.356979 
L 167.906603 11.512708 
L 168.328033 11.512708 
L 168.749463 11.356979 
L 169.170893 11.356979 
L 169.592322 11.512708 
L 170.013753 11.512708 
L 171.278042 11.979894 
L 171.699473 12.291352 
L 172.120902 11.979894 
L 172.542333 12.758538 
L 172.963763 13.069996 
L 173.385193 12.602809 
L 173.806623 12.602809 
L 174.649483 11.824165 
L 175.070913 11.979894 
L 175.492343 11.824165 
L 175.913773 12.291352 
L 176.335203 13.692911 
L 176.756632 12.135623 
L 177.178063 12.914267 
L 177.599492 13.381453 
L 178.020923 12.447081 
L 178.442352 12.291352 
L 178.863783 11.668436 
L 179.285213 12.447081 
L 179.706643 11.979894 
L 180.128073 12.291352 
L 180.549503 12.447081 
L 180.970933 12.447081 
L 181.392363 13.692911 
L 181.813793 12.291352 
L 182.235223 11.979894 
L 182.656653 12.602809 
L 183.078083 13.537182 
L 183.920943 13.225725 
L 184.342373 12.447081 
L 184.763803 13.381453 
L 185.185233 12.291352 
L 185.606663 12.602809 
L 186.028093 11.668436 
L 186.449523 11.979894 
L 186.870953 11.512708 
L 187.292383 11.824165 
L 187.713813 11.356979 
L 188.135243 11.512708 
L 188.556673 11.20125 
L 188.978103 11.512708 
L 189.399533 11.356979 
L 189.820963 11.356979 
L 190.242393 11.824165 
L 190.663823 11.512708 
L 191.085253 11.668436 
L 191.506683 11.512708 
L 191.928113 11.668436 
L 192.349543 11.512708 
L 193.192403 11.824165 
L 193.613833 11.512708 
L 194.035263 11.356979 
L 195.720983 11.356979 
L 196.142413 11.20125 
L 196.563843 11.356979 
L 196.985273 11.20125 
L 197.406703 11.20125 
L 197.828133 11.356979 
L 198.670993 11.356979 
L 199.092423 11.512708 
L 199.513853 11.20125 
L 199.935283 11.512708 
L 200.356713 11.20125 
L 200.778143 11.356979 
L 201.199573 11.20125 
L 214.263903 11.20125 
L 214.685333 11.356979 
L 215.106763 11.20125 
L 215.528193 11.356979 
L 215.949623 11.20125 
L 221.849643 11.20125 
L 222.271073 11.356979 
L 223.113933 11.356979 
L 223.535363 11.668436 
L 223.956793 11.356979 
L 224.378223 12.602809 
L 224.799653 14.627284 
L 225.221083 15.405928 
L 225.642513 16.807487 
L 226.063943 16.49603 
L 226.485373 17.897589 
L 227.328233 28.487149 
L 227.749663 30.044437 
L 228.171093 34.404844 
L 228.592523 29.110064 
L 229.013953 27.397047 
L 229.856813 18.831962 
L 230.699673 15.405928 
L 231.121103 15.561657 
L 231.542533 16.028843 
L 231.963963 16.028843 
L 232.385393 15.250199 
L 232.806823 13.84864 
L 233.228253 13.225725 
L 233.649683 13.225725 
L 234.071113 13.069996 
L 234.492543 11.512708 
L 235.335403 12.447081 
L 236.178263 11.668436 
L 236.599693 12.291352 
L 237.021123 12.135623 
L 237.442553 11.824165 
L 237.863983 11.979894 
L 238.285413 11.512708 
L 238.706843 11.512708 
L 239.128273 11.824165 
L 239.549703 11.668436 
L 239.971133 11.824165 
L 240.813993 11.512708 
L 241.235423 11.20125 
L 242.921143 11.20125 
L 243.342573 11.356979 
L 243.764003 11.356979 
L 244.185433 11.20125 
L 261.042633 11.20125 
L 261.464063 11.356979 
L 261.885492 11.20125 
L 261.885492 11.20125 
" clip-path="url(#p37075beb33)" style="fill: none; stroke: #808080; stroke-width: 1.5; stroke-linecap: round"/>
   </g>
   <g id="line2d_26">
    <path d="M 51.170493 165.217052 
L 51.591923 161.012373 
L 52.013353 154.627492 
L 52.434783 152.135831 
L 52.856212 147.308237 
L 53.277642 147.619695 
L 53.699072 139.677525 
L 54.541933 131.423898 
L 54.963363 124.104643 
L 55.384793 121.612982 
L 55.806223 114.449457 
L 57.491943 94.048981 
L 57.913373 85.483896 
L 58.334803 81.12349 
L 59.177663 65.083421 
L 59.599092 60.255828 
L 60.441952 43.125658 
L 60.863383 39.855353 
L 61.284813 32.068912 
L 61.706243 27.552776 
L 62.127673 26.462674 
L 62.970533 19.766335 
L 63.391963 16.028843 
L 63.813392 15.717386 
L 64.234823 13.537182 
L 64.656253 13.537182 
L 65.077683 13.225725 
L 65.499112 12.135623 
L 65.920542 11.512708 
L 66.341972 11.668436 
L 66.763402 11.668436 
L 67.184832 11.356979 
L 67.606262 11.20125 
L 171.699473 11.20125 
L 172.120902 11.824165 
L 172.963763 59.009997 
L 173.385193 53.248031 
L 174.228053 28.642878 
L 175.070913 16.340301 
L 175.492343 13.069996 
L 175.913773 12.135623 
L 176.756632 11.356979 
L 177.178063 11.20125 
L 177.599492 11.356979 
L 178.020923 11.20125 
L 178.863783 11.20125 
L 179.285213 11.356979 
L 179.706643 11.20125 
L 261.885492 11.20125 
L 261.885492 11.20125 
" clip-path="url(#p37075beb33)" style="fill: none; stroke-dasharray: 5.55,2.4; stroke-dashoffset: 0; stroke: #808080; stroke-width: 1.5"/>
   </g>
   <g id="line2d_27">
    <path d="M 59.177663 154.440617 
L 67.606262 151.48177 
L 76.034863 151.092448 
L 84.463463 150.313804 
L 92.892063 149.519587 
L 101.320662 149.363858 
L 109.749263 150.843282 
L 118.177863 149.021254 
L 126.606462 148.647505 
L 135.035063 148.538495 
L 143.463662 149.831044 
L 151.892263 151.263749 
L 160.320863 148.304902 
L 168.749463 148.678651 
L 177.178063 149.317139 
L 185.606663 149.270421 
L 194.035263 148.554068 
L 202.463863 148.180319 
L 210.892463 147.853288 
L 219.321063 147.635268 
L 227.749663 152.50958 
L 236.178263 150.064638 
L 244.606863 148.071309 
L 253.035463 147.074644 
L 261.464063 146.872197 
L 269.892663 147.261519 
L 278.321262 147.417248 
L 279.234062 147.383517 
" clip-path="url(#p37075beb33)" style="fill: none; stroke: #368dff; stroke-width: 1.5; stroke-linecap: round"/>
   </g>
   <g id="line2d_28">
    <path d="M 59.177663 137.497322 
L 67.606262 133.479518 
L 76.034863 131.859939 
L 84.463463 131.532908 
L 92.892063 131.735356 
L 101.320662 131.019003 
L 109.749263 131.159159 
L 118.177863 131.299315 
L 126.606462 130.396088 
L 135.035063 130.6764 
L 143.463662 130.224786 
L 151.892263 130.411661 
L 160.320863 130.240359 
L 168.749463 130.505098 
L 177.178063 135.659722 
L 185.606663 132.482854 
L 194.035263 132.077959 
L 202.463863 131.906657 
L 210.892463 131.782074 
L 219.321063 130.925566 
L 227.749663 130.800983 
L 236.178263 130.956711 
L 244.606863 130.6764 
L 253.035463 130.505098 
L 261.464063 130.536244 
L 269.892663 130.442806 
L 278.321262 146.732041 
L 279.234062 145.382832 
" clip-path="url(#p37075beb33)" style="fill: none; stroke-dasharray: 5.55,2.4; stroke-dashoffset: 0; stroke: #368dff; stroke-width: 1.5"/>
   </g>
   <g id="legend_1">
    <g id="line2d_29">
     <path d="M 93.366875 64.703212 
L 104.366875 64.703212 
L 115.366875 64.703212 
" style="fill: none; stroke: #808080; stroke-width: 1.5; stroke-linecap: round"/>
    </g>
    <g id="text_15">
     <!-- (r, M)=(1, 1), train_acc -->
     <g style="fill: #333333" transform="translate(124.166875 68.553212) scale(0.11 -0.11)">
      <defs>
       <path id="Lato-Light-28" d="M 621 2016 
Q 621 1299 814 641 
Q 1008 -16 1392 -627 
Q 1424 -682 1409 -715 
Q 1395 -749 1370 -765 
L 1235 -848 
Q 989 -470 821 -116 
Q 653 237 549 587 
Q 445 938 398 1290 
Q 352 1642 352 2016 
Q 352 2390 398 2744 
Q 445 3098 549 3448 
Q 653 3798 821 4152 
Q 989 4506 1235 4883 
L 1370 4800 
Q 1395 4784 1409 4750 
Q 1424 4717 1392 4662 
Q 1008 4051 814 3393 
Q 621 2736 621 2016 
z
" transform="scale(0.015625)"/>
       <path id="Lato-Light-2c" d="M 426 272 
Q 426 384 502 464 
Q 579 544 704 544 
Q 842 544 917 449 
Q 992 355 992 202 
Q 992 70 958 -66 
Q 925 -202 861 -333 
Q 797 -464 707 -585 
Q 618 -707 509 -810 
L 461 -762 
Q 445 -749 440 -736 
Q 435 -723 435 -707 
Q 435 -688 461 -656 
Q 490 -624 539 -561 
Q 589 -499 641 -414 
Q 694 -330 736 -224 
Q 778 -118 790 0 
Q 771 -6 747 -9 
Q 723 -13 694 -13 
Q 576 -13 501 67 
Q 426 147 426 272 
z
" transform="scale(0.015625)"/>
       <path id="Lato-Light-20" transform="scale(0.015625)"/>
       <path id="Lato-Light-4d" d="M 2845 1318 
Q 2893 1229 2928 1126 
Q 2947 1174 2969 1225 
Q 2992 1277 3018 1322 
L 4794 4467 
Q 4819 4509 4846 4518 
Q 4874 4528 4918 4528 
L 5142 4528 
L 5142 0 
L 4858 0 
L 4858 3859 
Q 4858 3898 4859 3942 
Q 4861 3987 4864 4032 
L 3085 870 
Q 3040 787 2957 787 
L 2906 787 
Q 2822 787 2778 870 
L 947 4038 
Q 957 3946 957 3859 
L 957 0 
L 669 0 
L 669 4528 
L 896 4528 
Q 941 4528 966 4518 
Q 992 4509 1018 4467 
L 2845 1318 
L 2845 1318 
z
" transform="scale(0.015625)"/>
       <path id="Lato-Light-29" d="M 1030 2016 
Q 1030 2736 836 3393 
Q 643 4051 259 4662 
Q 227 4717 241 4750 
Q 256 4784 282 4800 
L 416 4883 
Q 662 4506 830 4152 
Q 998 3798 1102 3448 
Q 1206 3098 1252 2744 
Q 1299 2390 1299 2016 
Q 1299 1642 1252 1290 
Q 1206 938 1102 587 
Q 998 237 830 -116 
Q 662 -470 416 -848 
L 282 -765 
Q 256 -749 241 -715 
Q 227 -682 259 -627 
Q 643 -16 836 641 
Q 1030 1299 1030 2016 
z
" transform="scale(0.015625)"/>
       <path id="Lato-Light-3d" d="M 531 1779 
L 3181 1779 
L 3181 1542 
L 531 1542 
L 531 1779 
z
M 531 2781 
L 3181 2781 
L 3181 2544 
L 531 2544 
L 531 2781 
z
" transform="scale(0.015625)"/>
       <path id="Lato-Light-74" d="M 1395 -51 
Q 1072 -51 891 128 
Q 710 307 710 682 
L 710 2858 
L 253 2858 
Q 218 2858 195 2877 
Q 173 2896 173 2931 
L 173 3050 
L 717 3088 
L 794 4227 
Q 800 4256 819 4278 
Q 838 4301 874 4301 
L 1018 4301 
L 1018 3085 
L 2022 3085 
L 2022 2858 
L 1018 2858 
L 1018 698 
Q 1018 566 1051 472 
Q 1085 378 1144 317 
Q 1203 256 1283 227 
Q 1363 198 1456 198 
Q 1571 198 1654 232 
Q 1738 266 1798 306 
Q 1859 346 1897 379 
Q 1936 413 1958 413 
Q 1984 413 2010 381 
L 2093 246 
Q 1971 112 1784 30 
Q 1597 -51 1395 -51 
z
" transform="scale(0.015625)"/>
       <path id="Lato-Light-69" d="M 864 3184 
L 864 0 
L 560 0 
L 560 3184 
L 864 3184 
z
M 995 4282 
Q 995 4224 971 4174 
Q 947 4125 908 4086 
Q 870 4048 819 4025 
Q 768 4003 710 4003 
Q 653 4003 601 4025 
Q 550 4048 512 4086 
Q 474 4125 451 4174 
Q 429 4224 429 4282 
Q 429 4339 451 4392 
Q 474 4445 512 4483 
Q 550 4522 601 4544 
Q 653 4566 710 4566 
Q 768 4566 819 4544 
Q 870 4522 908 4483 
Q 947 4445 971 4392 
Q 995 4339 995 4282 
z
" transform="scale(0.015625)"/>
       <path id="Lato-Light-6e" d="M 525 0 
L 525 3184 
L 694 3184 
Q 774 3184 787 3104 
L 816 2624 
Q 1037 2902 1325 3068 
Q 1613 3235 1971 3235 
Q 2234 3235 2434 3152 
Q 2634 3069 2765 2912 
Q 2896 2755 2963 2534 
Q 3030 2314 3030 2035 
L 3030 0 
L 2723 0 
L 2723 2035 
Q 2723 2483 2518 2737 
Q 2314 2992 1894 2992 
Q 1581 2992 1312 2833 
Q 1043 2675 832 2394 
L 832 0 
L 525 0 
z
" transform="scale(0.015625)"/>
       <path id="Lato-Light-5f" d="M 2701 -656 
L 2701 -874 
L 179 -874 
L 179 -656 
L 2701 -656 
z
" transform="scale(0.015625)"/>
      </defs>
      <use xlink:href="#Lato-Light-28"/>
      <use xlink:href="#Lato-Light-72" transform="translate(24.550003 0)"/>
      <use xlink:href="#Lato-Light-2c" transform="translate(55.775009 0)"/>
      <use xlink:href="#Lato-Light-20" transform="translate(77.675003 0)"/>
      <use xlink:href="#Lato-Light-4d" transform="translate(104.824997 0)"/>
      <use xlink:href="#Lato-Light-29" transform="translate(195.625015 0)"/>
      <use xlink:href="#Lato-Light-3d" transform="translate(221.425018 0)"/>
      <use xlink:href="#Lato-Light-28" transform="translate(279.425018 0)"/>
      <use xlink:href="#Lato-Light-31" transform="translate(305.225021 0)"/>
      <use xlink:href="#Lato-Light-2c" transform="translate(363.225021 0)"/>
      <use xlink:href="#Lato-Light-20" transform="translate(385.125015 0)"/>
      <use xlink:href="#Lato-Light-31" transform="translate(412.275009 0)"/>
      <use xlink:href="#Lato-Light-29" transform="translate(470.275009 0)"/>
      <use xlink:href="#Lato-Light-2c" transform="translate(496.075012 0)"/>
      <use xlink:href="#Lato-Light-20" transform="translate(517.975006 0)"/>
      <use xlink:href="#Lato-Light-74" transform="translate(545.125 0)"/>
      <use xlink:href="#Lato-Light-72" transform="translate(579.375 0)"/>
      <use xlink:href="#Lato-Light-61" transform="translate(613.725006 0)"/>
      <use xlink:href="#Lato-Light-69" transform="translate(662.125015 0)"/>
      <use xlink:href="#Lato-Light-6e" transform="translate(684.375015 0)"/>
      <use xlink:href="#Lato-Light-5f" transform="translate(739.375015 0)"/>
      <use xlink:href="#Lato-Light-61" transform="translate(784.425018 0)"/>
      <use xlink:href="#Lato-Light-63" transform="translate(832.825027 0)"/>
      <use xlink:href="#Lato-Light-63" transform="translate(878.975037 0)"/>
     </g>
    </g>
    <g id="line2d_30">
     <path d="M 93.366875 80.141025 
L 104.366875 80.141025 
L 115.366875 80.141025 
" style="fill: none; stroke-dasharray: 5.55,2.4; stroke-dashoffset: 0; stroke: #808080; stroke-width: 1.5"/>
    </g>
    <g id="text_16">
     <!-- (r, M)=(32, 1024), train_acc -->
     <g style="fill: #333333" transform="translate(124.166875 83.991025) scale(0.11 -0.11)">
      <use xlink:href="#Lato-Light-28"/>
      <use xlink:href="#Lato-Light-72" transform="translate(24.550003 0)"/>
      <use xlink:href="#Lato-Light-2c" transform="translate(55.775009 0)"/>
      <use xlink:href="#Lato-Light-20" transform="translate(77.675003 0)"/>
      <use xlink:href="#Lato-Light-4d" transform="translate(104.824997 0)"/>
      <use xlink:href="#Lato-Light-29" transform="translate(195.625015 0)"/>
      <use xlink:href="#Lato-Light-3d" transform="translate(221.425018 0)"/>
      <use xlink:href="#Lato-Light-28" transform="translate(279.425018 0)"/>
      <use xlink:href="#Lato-Light-33" transform="translate(305.225021 0)"/>
      <use xlink:href="#Lato-Light-32" transform="translate(363.225021 0)"/>
      <use xlink:href="#Lato-Light-2c" transform="translate(421.225021 0)"/>
      <use xlink:href="#Lato-Light-20" transform="translate(443.125015 0)"/>
      <use xlink:href="#Lato-Light-31" transform="translate(470.275009 0)"/>
      <use xlink:href="#Lato-Light-30" transform="translate(528.275009 0)"/>
      <use xlink:href="#Lato-Light-32" transform="translate(586.275009 0)"/>
      <use xlink:href="#Lato-Light-34" transform="translate(644.275009 0)"/>
      <use xlink:href="#Lato-Light-29" transform="translate(702.275009 0)"/>
      <use xlink:href="#Lato-Light-2c" transform="translate(728.075012 0)"/>
      <use xlink:href="#Lato-Light-20" transform="translate(749.975006 0)"/>
      <use xlink:href="#Lato-Light-74" transform="translate(777.125 0)"/>
      <use xlink:href="#Lato-Light-72" transform="translate(811.375 0)"/>
      <use xlink:href="#Lato-Light-61" transform="translate(845.725006 0)"/>
      <use xlink:href="#Lato-Light-69" transform="translate(894.125015 0)"/>
      <use xlink:href="#Lato-Light-6e" transform="translate(916.375015 0)"/>
      <use xlink:href="#Lato-Light-5f" transform="translate(971.375015 0)"/>
      <use xlink:href="#Lato-Light-61" transform="translate(1016.425018 0)"/>
      <use xlink:href="#Lato-Light-63" transform="translate(1064.825027 0)"/>
      <use xlink:href="#Lato-Light-63" transform="translate(1110.975037 0)"/>
     </g>
    </g>
    <g id="line2d_31">
     <path d="M 93.366875 95.578837 
L 104.366875 95.578837 
L 115.366875 95.578837 
" style="fill: none; stroke: #368dff; stroke-width: 1.5; stroke-linecap: round"/>
    </g>
    <g id="text_17">
     <!-- (r, M)=(1, 1), test_acc -->
     <g style="fill: #333333" transform="translate(124.166875 99.428837) scale(0.11 -0.11)">
      <defs>
       <path id="Lato-Light-65" d="M 1770 3235 
Q 2038 3235 2268 3142 
Q 2499 3050 2668 2872 
Q 2838 2694 2936 2435 
Q 3034 2176 3034 1840 
Q 3034 1770 3014 1744 
Q 2995 1718 2950 1718 
L 634 1718 
L 634 1658 
Q 634 1299 717 1027 
Q 800 755 953 571 
Q 1107 387 1324 294 
Q 1542 202 1811 202 
Q 2051 202 2227 254 
Q 2403 307 2523 372 
Q 2643 438 2713 491 
Q 2784 544 2816 544 
Q 2858 544 2880 512 
L 2963 410 
Q 2886 314 2760 230 
Q 2634 147 2478 88 
Q 2323 29 2145 -6 
Q 1968 -42 1789 -42 
Q 1462 -42 1193 72 
Q 925 186 733 403 
Q 541 621 437 936 
Q 333 1251 333 1658 
Q 333 2000 430 2289 
Q 528 2579 712 2788 
Q 896 2998 1163 3116 
Q 1430 3235 1770 3235 
z
M 1773 3008 
Q 1526 3008 1331 2931 
Q 1136 2854 993 2710 
Q 851 2566 763 2364 
Q 675 2163 646 1914 
L 2758 1914 
Q 2758 2170 2686 2373 
Q 2614 2576 2483 2717 
Q 2352 2858 2171 2933 
Q 1990 3008 1773 3008 
z
" transform="scale(0.015625)"/>
       <path id="Lato-Light-73" d="M 2275 2790 
Q 2250 2746 2202 2746 
Q 2166 2746 2112 2786 
Q 2058 2826 1966 2875 
Q 1875 2925 1740 2965 
Q 1606 3005 1414 3005 
Q 1242 3005 1099 2955 
Q 957 2906 856 2822 
Q 755 2739 700 2628 
Q 646 2518 646 2397 
Q 646 2246 723 2147 
Q 800 2048 923 1977 
Q 1046 1907 1206 1856 
Q 1366 1805 1531 1753 
Q 1696 1702 1856 1640 
Q 2016 1578 2139 1485 
Q 2262 1392 2339 1257 
Q 2416 1123 2416 931 
Q 2416 723 2342 544 
Q 2269 365 2126 233 
Q 1984 102 1776 25 
Q 1568 -51 1299 -51 
Q 963 -51 720 56 
Q 477 163 285 336 
L 355 445 
Q 371 470 392 483 
Q 413 496 448 496 
Q 490 496 549 445 
Q 608 394 707 334 
Q 806 275 952 224 
Q 1098 173 1312 173 
Q 1514 173 1667 229 
Q 1821 285 1923 381 
Q 2026 477 2078 606 
Q 2131 736 2131 880 
Q 2131 1040 2054 1145 
Q 1978 1251 1853 1324 
Q 1728 1398 1569 1449 
Q 1411 1501 1244 1552 
Q 1078 1603 920 1664 
Q 762 1725 637 1817 
Q 512 1910 435 2043 
Q 358 2176 358 2374 
Q 358 2544 432 2701 
Q 506 2858 642 2976 
Q 778 3094 973 3164 
Q 1168 3235 1411 3235 
Q 1702 3235 1928 3152 
Q 2154 3069 2339 2896 
L 2275 2790 
z
" transform="scale(0.015625)"/>
      </defs>
      <use xlink:href="#Lato-Light-28"/>
      <use xlink:href="#Lato-Light-72" transform="translate(24.550003 0)"/>
      <use xlink:href="#Lato-Light-2c" transform="translate(55.775009 0)"/>
      <use xlink:href="#Lato-Light-20" transform="translate(77.675003 0)"/>
      <use xlink:href="#Lato-Light-4d" transform="translate(104.824997 0)"/>
      <use xlink:href="#Lato-Light-29" transform="translate(195.625015 0)"/>
      <use xlink:href="#Lato-Light-3d" transform="translate(221.425018 0)"/>
      <use xlink:href="#Lato-Light-28" transform="translate(279.425018 0)"/>
      <use xlink:href="#Lato-Light-31" transform="translate(305.225021 0)"/>
      <use xlink:href="#Lato-Light-2c" transform="translate(363.225021 0)"/>
      <use xlink:href="#Lato-Light-20" transform="translate(385.125015 0)"/>
      <use xlink:href="#Lato-Light-31" transform="translate(412.275009 0)"/>
      <use xlink:href="#Lato-Light-29" transform="translate(470.275009 0)"/>
      <use xlink:href="#Lato-Light-2c" transform="translate(496.075012 0)"/>
      <use xlink:href="#Lato-Light-20" transform="translate(517.975006 0)"/>
      <use xlink:href="#Lato-Light-74" transform="translate(545.125 0)"/>
      <use xlink:href="#Lato-Light-65" transform="translate(579.25 0)"/>
      <use xlink:href="#Lato-Light-73" transform="translate(631.400009 0)"/>
      <use xlink:href="#Lato-Light-74" transform="translate(673.900009 0)"/>
      <use xlink:href="#Lato-Light-5f" transform="translate(708.150009 0)"/>
      <use xlink:href="#Lato-Light-61" transform="translate(753.200012 0)"/>
      <use xlink:href="#Lato-Light-63" transform="translate(801.600021 0)"/>
      <use xlink:href="#Lato-Light-63" transform="translate(847.750031 0)"/>
     </g>
    </g>
    <g id="line2d_32">
     <path d="M 93.366875 111.01665 
L 104.366875 111.01665 
L 115.366875 111.01665 
" style="fill: none; stroke-dasharray: 5.55,2.4; stroke-dashoffset: 0; stroke: #368dff; stroke-width: 1.5"/>
    </g>
    <g id="text_18">
     <!-- (r, M)=(32, 1024), test_acc -->
     <g style="fill: #333333" transform="translate(124.166875 114.86665) scale(0.11 -0.11)">
      <use xlink:href="#Lato-Light-28"/>
      <use xlink:href="#Lato-Light-72" transform="translate(24.550003 0)"/>
      <use xlink:href="#Lato-Light-2c" transform="translate(55.775009 0)"/>
      <use xlink:href="#Lato-Light-20" transform="translate(77.675003 0)"/>
      <use xlink:href="#Lato-Light-4d" transform="translate(104.824997 0)"/>
      <use xlink:href="#Lato-Light-29" transform="translate(195.625015 0)"/>
      <use xlink:href="#Lato-Light-3d" transform="translate(221.425018 0)"/>
      <use xlink:href="#Lato-Light-28" transform="translate(279.425018 0)"/>
      <use xlink:href="#Lato-Light-33" transform="translate(305.225021 0)"/>
      <use xlink:href="#Lato-Light-32" transform="translate(363.225021 0)"/>
      <use xlink:href="#Lato-Light-2c" transform="translate(421.225021 0)"/>
      <use xlink:href="#Lato-Light-20" transform="translate(443.125015 0)"/>
      <use xlink:href="#Lato-Light-31" transform="translate(470.275009 0)"/>
      <use xlink:href="#Lato-Light-30" transform="translate(528.275009 0)"/>
      <use xlink:href="#Lato-Light-32" transform="translate(586.275009 0)"/>
      <use xlink:href="#Lato-Light-34" transform="translate(644.275009 0)"/>
      <use xlink:href="#Lato-Light-29" transform="translate(702.275009 0)"/>
      <use xlink:href="#Lato-Light-2c" transform="translate(728.075012 0)"/>
      <use xlink:href="#Lato-Light-20" transform="translate(749.975006 0)"/>
      <use xlink:href="#Lato-Light-74" transform="translate(777.125 0)"/>
      <use xlink:href="#Lato-Light-65" transform="translate(811.25 0)"/>
      <use xlink:href="#Lato-Light-73" transform="translate(863.400009 0)"/>
      <use xlink:href="#Lato-Light-74" transform="translate(905.900009 0)"/>
      <use xlink:href="#Lato-Light-5f" transform="translate(940.150009 0)"/>
      <use xlink:href="#Lato-Light-61" transform="translate(985.200012 0)"/>
      <use xlink:href="#Lato-Light-63" transform="translate(1033.600021 0)"/>
      <use xlink:href="#Lato-Light-63" transform="translate(1079.750031 0)"/>
     </g>
    </g>
   </g>
  </g>
 </g>
 <defs>
  <clipPath id="p37075beb33">
   <rect x="50.749063" y="10.422606" width="210.715" height="156.507463"/>
  </clipPath>
 </defs>
</svg>
