<?xml version="1.0" encoding="utf-8" standalone="no"?>
<!DOCTYPE svg PUBLIC "-//W3C//DTD SVG 1.1//EN"
  "http://www.w3.org/Graphics/SVG/1.1/DTD/svg11.dtd">
<svg xmlns:xlink="http://www.w3.org/1999/xlink" width="173.78pt" height="213.4025pt" viewBox="0 0 173.78 213.4025" xmlns="http://www.w3.org/2000/svg" version="1.1">
 <metadata>
  <rdf:RDF xmlns:dc="http://purl.org/dc/elements/1.1/" xmlns:cc="http://creativecommons.org/ns#" xmlns:rdf="http://www.w3.org/1999/02/22-rdf-syntax-ns#">
   <cc:Work>
    <dc:type rdf:resource="http://purl.org/dc/dcmitype/StillImage"/>
    <dc:date>2026-02-12T13:23:36.506280</dc:date>
    <dc:format>image/svg+xml</dc:format>
    <dc:creator>
     <cc:Agent>
      <dc:title>Matplotlib v3.10.7, https://matplotlib.org/</dc:title>
     </cc:Agent>
    </dc:creator>
   </cc:Work>
  </rdf:RDF>
 </metadata>
 <defs>
  <style type="text/css">*{stroke-linejoin: round; stroke-linecap: butt}</style>
 </defs>
 <g id="figure_1">
  <g id="patch_1">
   <path d="M 0 213.4025 
L 173.78 213.4025 
L 173.78 0 
L 0 0 
z
" style="fill: #ffffff"/>
  </g>
  <g id="axes_1">
   <g id="patch_2">
    <path d="M 82.88 173.52 
L 166.58 173.52 
L 166.58 7.2 
L 82.88 7.2 
z
" style="fill: #ffffff"/>
   </g>
   <g id="QuadMesh_1">
    <path d="M 82.88 7.2 
L 124.73 7.2 
L 124.73 48.78 
L 82.88 48.78 
L 82.88 7.2 
" clip-path="url(#pcb92197c0d)" style="fill: #d3e4f3"/>
    <path d="M 124.73 7.2 
L 166.58 7.2 
L 166.58 48.78 
L 124.73 48.78 
L 124.73 7.2 
" clip-path="url(#pcb92197c0d)" style="fill: #f7fbff"/>
    <path d="M 82.88 48.78 
L 124.73 48.78 
L 124.73 90.36 
L 82.88 90.36 
L 82.88 48.78 
" clip-path="url(#pcb92197c0d)" style="fill: #bcd7eb"/>
    <path d="M 124.73 48.78 
L 166.58 48.78 
L 166.58 90.36 
L 124.73 90.36 
L 124.73 48.78 
" clip-path="url(#pcb92197c0d)" style="fill: #4997c9"/>
    <path d="M 82.88 90.36 
L 124.73 90.36 
L 124.73 131.94 
L 82.88 131.94 
L 82.88 90.36 
" clip-path="url(#pcb92197c0d)" style="fill: #4695c8"/>
    <path d="M 124.73 90.36 
L 166.58 90.36 
L 166.58 131.94 
L 124.73 131.94 
L 124.73 90.36 
" clip-path="url(#pcb92197c0d)" style="fill: #4a98c9"/>
    <path d="M 82.88 131.94 
L 124.73 131.94 
L 124.73 173.52 
L 82.88 173.52 
L 82.88 131.94 
" clip-path="url(#pcb92197c0d)" style="fill: #08306b"/>
    <path d="M 124.73 131.94 
L 166.58 131.94 
L 166.58 173.52 
L 124.73 173.52 
L 124.73 131.94 
" clip-path="url(#pcb92197c0d)" style="fill: #08509b"/>
   </g>
   <g id="matplotlib.axis_1">
    <g id="xtick_1">
     <g id="line2d_1"/>
     <g id="text_1">
      <!-- 5 -->
      <g style="fill: #333333" transform="translate(100.325 189.25) scale(0.12 -0.12)">
       <defs>
        <path id="Lato-Light-35" d="M 3078 4397 
Q 3078 4333 3035 4289 
Q 2992 4246 2899 4246 
L 1261 4246 
L 989 2736 
Q 1203 2790 1395 2814 
Q 1587 2838 1760 2838 
Q 2115 2838 2384 2737 
Q 2653 2637 2833 2456 
Q 3014 2275 3105 2025 
Q 3197 1776 3197 1482 
Q 3197 1123 3073 840 
Q 2950 557 2736 358 
Q 2522 160 2237 54 
Q 1952 -51 1632 -51 
Q 1446 -51 1275 -17 
Q 1104 16 955 72 
Q 806 128 680 201 
Q 554 275 458 352 
L 550 477 
Q 579 525 640 525 
Q 682 525 760 477 
Q 838 429 961 371 
Q 1085 314 1254 266 
Q 1424 218 1648 218 
Q 1910 218 2137 302 
Q 2365 387 2531 547 
Q 2698 707 2792 942 
Q 2886 1178 2886 1475 
Q 2886 1718 2814 1923 
Q 2742 2128 2596 2273 
Q 2451 2419 2228 2500 
Q 2006 2582 1706 2582 
Q 1523 2582 1318 2553 
Q 1114 2525 883 2461 
L 688 2522 
L 1040 4528 
L 3078 4528 
L 3078 4397 
z
" transform="scale(0.015625)"/>
       </defs>
       <use xlink:href="#Lato-Light-35"/>
      </g>
     </g>
    </g>
    <g id="xtick_2">
     <g id="line2d_2"/>
     <g id="text_2">
      <!-- 10 -->
      <g style="fill: #333333" transform="translate(138.695 189.25) scale(0.12 -0.12)">
       <defs>
        <path id="Lato-Light-31" d="M 854 237 
L 1894 237 
L 1894 3910 
Q 1894 4019 1904 4141 
L 906 3254 
Q 861 3216 816 3225 
Q 771 3235 746 3264 
L 653 3392 
L 1962 4547 
L 2202 4547 
L 2202 237 
L 3190 237 
L 3190 0 
L 854 0 
L 854 237 
z
" transform="scale(0.015625)"/>
        <path id="Lato-Light-30" d="M 3478 2266 
Q 3478 1670 3350 1235 
Q 3222 800 3001 515 
Q 2781 230 2485 91 
Q 2189 -48 1853 -48 
Q 1517 -48 1222 91 
Q 928 230 707 515 
Q 486 800 360 1235 
Q 234 1670 234 2266 
Q 234 2861 360 3296 
Q 486 3731 707 4016 
Q 928 4301 1222 4440 
Q 1517 4579 1853 4579 
Q 2189 4579 2485 4440 
Q 2781 4301 3001 4016 
Q 3222 3731 3350 3296 
Q 3478 2861 3478 2266 
z
M 3158 2266 
Q 3158 2816 3052 3206 
Q 2947 3597 2769 3845 
Q 2592 4093 2353 4208 
Q 2115 4323 1853 4323 
Q 1590 4323 1353 4208 
Q 1117 4093 937 3845 
Q 758 3597 652 3206 
Q 547 2816 547 2266 
Q 547 1712 652 1323 
Q 758 934 937 686 
Q 1117 438 1353 324 
Q 1590 211 1853 211 
Q 2115 211 2353 324 
Q 2592 438 2769 686 
Q 2947 934 3052 1323 
Q 3158 1712 3158 2266 
z
" transform="scale(0.015625)"/>
       </defs>
       <use xlink:href="#Lato-Light-31"/>
       <use xlink:href="#Lato-Light-30" transform="translate(58 0)"/>
      </g>
     </g>
    </g>
    <g id="text_3">
     <!-- IPC -->
     <g style="fill: #333333" transform="translate(115.64375 204.09125) scale(0.12 -0.12)">
      <defs>
       <path id="Lato-Light-49" d="M 998 0 
L 669 0 
L 669 4528 
L 998 4528 
L 998 0 
z
" transform="scale(0.015625)"/>
       <path id="Lato-Light-50" d="M 998 1824 
L 998 0 
L 669 0 
L 669 4528 
L 1840 4528 
Q 2637 4528 3041 4179 
Q 3446 3830 3446 3184 
Q 3446 2886 3334 2636 
Q 3222 2387 3014 2206 
Q 2806 2026 2508 1925 
Q 2211 1824 1840 1824 
L 998 1824 
z
M 998 2086 
L 1840 2086 
Q 2138 2086 2374 2169 
Q 2611 2253 2776 2400 
Q 2941 2547 3029 2747 
Q 3117 2947 3117 3184 
Q 3117 3706 2797 3987 
Q 2477 4269 1840 4269 
L 998 4269 
L 998 2086 
z
" transform="scale(0.015625)"/>
       <path id="Lato-Light-43" d="M 3936 762 
Q 3968 762 3990 739 
L 4118 602 
Q 3978 451 3813 331 
Q 3648 211 3451 126 
Q 3254 42 3019 -4 
Q 2784 -51 2502 -51 
Q 2032 -51 1640 113 
Q 1248 278 966 580 
Q 685 883 529 1312 
Q 374 1741 374 2266 
Q 374 2781 534 3206 
Q 694 3632 982 3937 
Q 1270 4243 1673 4411 
Q 2077 4579 2563 4579 
Q 3027 4579 3385 4435 
Q 3744 4291 4038 4029 
L 3939 3885 
Q 3914 3846 3859 3846 
Q 3821 3846 3734 3916 
Q 3648 3987 3494 4072 
Q 3341 4157 3112 4227 
Q 2883 4298 2563 4298 
Q 2154 4298 1813 4157 
Q 1472 4016 1227 3753 
Q 982 3491 844 3113 
Q 707 2736 707 2266 
Q 707 1786 846 1408 
Q 986 1030 1229 769 
Q 1472 509 1803 369 
Q 2134 230 2518 230 
Q 2762 230 2952 262 
Q 3142 294 3302 358 
Q 3462 422 3600 515 
Q 3738 608 3872 733 
Q 3888 746 3904 754 
Q 3920 762 3936 762 
z
" transform="scale(0.015625)"/>
      </defs>
      <use xlink:href="#Lato-Light-49"/>
      <use xlink:href="#Lato-Light-50" transform="translate(26.050003 0)"/>
      <use xlink:href="#Lato-Light-43" transform="translate(83.850006 0)"/>
     </g>
    </g>
   </g>
   <g id="matplotlib.axis_2">
    <g id="ytick_1">
     <g id="line2d_3"/>
     <g id="text_4">
      <!-- (1, 1) -->
      <g style="fill: #333333" transform="translate(49.88125 31.299375) scale(0.12 -0.12)">
       <defs>
        <path id="Lato-Light-28" d="M 621 2016 
Q 621 1299 814 641 
Q 1008 -16 1392 -627 
Q 1424 -682 1409 -715 
Q 1395 -749 1370 -765 
L 1235 -848 
Q 989 -470 821 -116 
Q 653 237 549 587 
Q 445 938 398 1290 
Q 352 1642 352 2016 
Q 352 2390 398 2744 
Q 445 3098 549 3448 
Q 653 3798 821 4152 
Q 989 4506 1235 4883 
L 1370 4800 
Q 1395 4784 1409 4750 
Q 1424 4717 1392 4662 
Q 1008 4051 814 3393 
Q 621 2736 621 2016 
z
" transform="scale(0.015625)"/>
        <path id="Lato-Light-2c" d="M 426 272 
Q 426 384 502 464 
Q 579 544 704 544 
Q 842 544 917 449 
Q 992 355 992 202 
Q 992 70 958 -66 
Q 925 -202 861 -333 
Q 797 -464 707 -585 
Q 618 -707 509 -810 
L 461 -762 
Q 445 -749 440 -736 
Q 435 -723 435 -707 
Q 435 -688 461 -656 
Q 490 -624 539 -561 
Q 589 -499 641 -414 
Q 694 -330 736 -224 
Q 778 -118 790 0 
Q 771 -6 747 -9 
Q 723 -13 694 -13 
Q 576 -13 501 67 
Q 426 147 426 272 
z
" transform="scale(0.015625)"/>
        <path id="Lato-Light-20" transform="scale(0.015625)"/>
        <path id="Lato-Light-29" d="M 1030 2016 
Q 1030 2736 836 3393 
Q 643 4051 259 4662 
Q 227 4717 241 4750 
Q 256 4784 282 4800 
L 416 4883 
Q 662 4506 830 4152 
Q 998 3798 1102 3448 
Q 1206 3098 1252 2744 
Q 1299 2390 1299 2016 
Q 1299 1642 1252 1290 
Q 1206 938 1102 587 
Q 998 237 830 -116 
Q 662 -470 416 -848 
L 282 -765 
Q 256 -749 241 -715 
Q 227 -682 259 -627 
Q 643 -16 836 641 
Q 1030 1299 1030 2016 
z
" transform="scale(0.015625)"/>
       </defs>
       <use xlink:href="#Lato-Light-28"/>
       <use xlink:href="#Lato-Light-31" transform="translate(25.800003 0)"/>
       <use xlink:href="#Lato-Light-2c" transform="translate(83.800003 0)"/>
       <use xlink:href="#Lato-Light-20" transform="translate(105.699997 0)"/>
       <use xlink:href="#Lato-Light-31" transform="translate(132.849991 0)"/>
       <use xlink:href="#Lato-Light-29" transform="translate(190.849991 0)"/>
      </g>
     </g>
    </g>
    <g id="ytick_2">
     <g id="line2d_4"/>
     <g id="text_5">
      <!-- (4, 16) -->
      <g style="fill: #333333" transform="translate(42.92125 72.879375) scale(0.12 -0.12)">
       <defs>
        <path id="Lato-Light-34" d="M 2678 1542 
L 3507 1542 
L 3507 1376 
Q 3507 1341 3486 1320 
Q 3466 1299 3421 1299 
L 2678 1299 
L 2678 0 
L 2410 0 
L 2410 1299 
L 269 1299 
Q 221 1299 195 1320 
Q 170 1341 160 1376 
L 131 1526 
L 2406 4534 
L 2678 4534 
L 2678 1542 
z
M 2410 3914 
Q 2410 3968 2414 4032 
Q 2419 4096 2426 4163 
L 464 1542 
L 2410 1542 
L 2410 3914 
z
" transform="scale(0.015625)"/>
        <path id="Lato-Light-36" d="M 1328 2765 
Q 1229 2634 1145 2518 
Q 1062 2403 995 2291 
Q 1184 2486 1443 2596 
Q 1702 2707 2010 2707 
Q 2301 2707 2547 2611 
Q 2794 2515 2971 2340 
Q 3149 2166 3249 1918 
Q 3350 1670 3350 1363 
Q 3350 1056 3240 797 
Q 3130 538 2933 349 
Q 2736 160 2461 54 
Q 2186 -51 1856 -51 
Q 1539 -51 1276 51 
Q 1014 154 827 346 
Q 640 538 537 814 
Q 435 1091 435 1440 
Q 435 1706 569 2040 
Q 704 2374 1011 2790 
L 2246 4454 
Q 2301 4528 2410 4528 
L 2678 4528 
L 1328 2765 
z
M 733 1366 
Q 733 1114 811 899 
Q 890 685 1034 529 
Q 1178 374 1386 288 
Q 1594 202 1853 202 
Q 2128 202 2349 288 
Q 2570 374 2725 526 
Q 2880 678 2963 888 
Q 3046 1098 3046 1344 
Q 3046 1603 2964 1812 
Q 2883 2022 2734 2168 
Q 2586 2314 2381 2392 
Q 2176 2470 1926 2470 
Q 1645 2470 1422 2372 
Q 1200 2275 1046 2120 
Q 893 1965 813 1766 
Q 733 1568 733 1366 
z
" transform="scale(0.015625)"/>
       </defs>
       <use xlink:href="#Lato-Light-28"/>
       <use xlink:href="#Lato-Light-34" transform="translate(25.800003 0)"/>
       <use xlink:href="#Lato-Light-2c" transform="translate(83.800003 0)"/>
       <use xlink:href="#Lato-Light-20" transform="translate(105.699997 0)"/>
       <use xlink:href="#Lato-Light-31" transform="translate(132.849991 0)"/>
       <use xlink:href="#Lato-Light-36" transform="translate(190.849991 0)"/>
       <use xlink:href="#Lato-Light-29" transform="translate(248.849991 0)"/>
      </g>
     </g>
    </g>
    <g id="ytick_3">
     <g id="line2d_5"/>
     <g id="text_6">
      <!-- (16, 256) -->
      <g style="fill: #333333" transform="translate(29.00125 114.459375) scale(0.12 -0.12)">
       <defs>
        <path id="Lato-Light-32" d="M 1882 4579 
Q 2141 4579 2376 4504 
Q 2611 4429 2792 4277 
Q 2973 4125 3078 3896 
Q 3184 3667 3184 3360 
Q 3184 3104 3105 2885 
Q 3027 2666 2892 2464 
Q 2758 2262 2580 2072 
Q 2403 1882 2208 1683 
L 790 237 
Q 893 262 1003 275 
Q 1114 288 1226 288 
L 3181 288 
Q 3232 288 3261 257 
Q 3290 227 3290 179 
L 3290 0 
L 368 0 
L 368 109 
Q 368 144 385 181 
Q 403 218 432 243 
L 1978 1808 
Q 2170 2003 2333 2185 
Q 2496 2368 2616 2553 
Q 2736 2739 2803 2934 
Q 2870 3130 2870 3350 
Q 2870 3600 2787 3784 
Q 2704 3968 2566 4086 
Q 2429 4205 2246 4262 
Q 2064 4320 1869 4320 
Q 1654 4320 1473 4254 
Q 1293 4189 1153 4072 
Q 1014 3955 923 3793 
Q 832 3632 797 3440 
Q 774 3370 737 3347 
Q 701 3325 637 3331 
L 480 3357 
Q 522 3648 640 3875 
Q 758 4102 940 4259 
Q 1123 4416 1363 4497 
Q 1603 4579 1882 4579 
z
" transform="scale(0.015625)"/>
       </defs>
       <use xlink:href="#Lato-Light-28"/>
       <use xlink:href="#Lato-Light-31" transform="translate(25.800003 0)"/>
       <use xlink:href="#Lato-Light-36" transform="translate(83.800003 0)"/>
       <use xlink:href="#Lato-Light-2c" transform="translate(141.800003 0)"/>
       <use xlink:href="#Lato-Light-20" transform="translate(163.699997 0)"/>
       <use xlink:href="#Lato-Light-32" transform="translate(190.849991 0)"/>
       <use xlink:href="#Lato-Light-35" transform="translate(248.849991 0)"/>
       <use xlink:href="#Lato-Light-36" transform="translate(306.849991 0)"/>
       <use xlink:href="#Lato-Light-29" transform="translate(364.849991 0)"/>
      </g>
     </g>
    </g>
    <g id="ytick_4">
     <g id="line2d_6"/>
     <g id="text_7">
      <!-- (32, 1024) -->
      <g style="fill: #333333" transform="translate(22.04125 156.039375) scale(0.12 -0.12)">
       <defs>
        <path id="Lato-Light-33" d="M 1901 4579 
Q 2160 4579 2390 4507 
Q 2621 4435 2795 4291 
Q 2970 4147 3070 3932 
Q 3171 3718 3171 3437 
Q 3171 3216 3102 3038 
Q 3034 2861 2914 2726 
Q 2794 2592 2630 2501 
Q 2467 2410 2275 2362 
Q 2774 2269 3030 1976 
Q 3286 1683 3286 1245 
Q 3286 966 3174 728 
Q 3062 490 2867 317 
Q 2672 144 2406 46 
Q 2141 -51 1830 -51 
Q 1443 -51 1185 53 
Q 928 157 761 323 
Q 595 490 502 696 
Q 410 902 352 1107 
L 474 1158 
Q 525 1181 581 1171 
Q 637 1162 662 1098 
Q 678 1059 705 977 
Q 733 896 784 797 
Q 835 698 916 594 
Q 998 490 1121 403 
Q 1245 317 1417 262 
Q 1590 208 1827 208 
Q 2115 208 2331 304 
Q 2547 400 2692 549 
Q 2838 698 2910 882 
Q 2982 1066 2982 1238 
Q 2982 1446 2916 1625 
Q 2851 1805 2697 1934 
Q 2544 2064 2293 2139 
Q 2042 2214 1674 2214 
L 1674 2435 
Q 1968 2442 2192 2514 
Q 2416 2586 2566 2710 
Q 2717 2835 2793 3008 
Q 2870 3181 2870 3389 
Q 2870 3629 2790 3805 
Q 2710 3981 2576 4096 
Q 2442 4211 2262 4265 
Q 2083 4320 1888 4320 
Q 1674 4320 1491 4254 
Q 1309 4189 1169 4072 
Q 1030 3955 937 3793 
Q 845 3632 810 3440 
Q 790 3370 755 3347 
Q 720 3325 656 3331 
L 499 3357 
Q 541 3648 659 3875 
Q 778 4102 960 4259 
Q 1142 4416 1382 4497 
Q 1622 4579 1901 4579 
z
" transform="scale(0.015625)"/>
       </defs>
       <use xlink:href="#Lato-Light-28"/>
       <use xlink:href="#Lato-Light-33" transform="translate(25.800003 0)"/>
       <use xlink:href="#Lato-Light-32" transform="translate(83.800003 0)"/>
       <use xlink:href="#Lato-Light-2c" transform="translate(141.800003 0)"/>
       <use xlink:href="#Lato-Light-20" transform="translate(163.699997 0)"/>
       <use xlink:href="#Lato-Light-31" transform="translate(190.849991 0)"/>
       <use xlink:href="#Lato-Light-30" transform="translate(248.849991 0)"/>
       <use xlink:href="#Lato-Light-32" transform="translate(306.849991 0)"/>
       <use xlink:href="#Lato-Light-34" transform="translate(364.849991 0)"/>
       <use xlink:href="#Lato-Light-29" transform="translate(422.849991 0)"/>
      </g>
     </g>
    </g>
    <g id="text_8">
     <!-- (r, M) -->
     <g style="fill: #333333" transform="translate(15.93 103.645313) rotate(-90) scale(0.12 -0.12)">
      <defs>
       <path id="Lato-Light-72" d="M 525 0 
L 525 3184 
L 688 3184 
Q 742 3184 764 3161 
Q 787 3139 794 3085 
L 816 2416 
Q 890 2611 984 2763 
Q 1078 2915 1201 3020 
Q 1325 3126 1477 3182 
Q 1629 3238 1814 3238 
Q 1914 3238 2010 3220 
Q 2106 3203 2179 3158 
L 2154 2947 
Q 2138 2896 2093 2896 
Q 2054 2896 1976 2918 
Q 1898 2941 1770 2941 
Q 1584 2941 1440 2883 
Q 1296 2826 1184 2715 
Q 1072 2605 987 2440 
Q 902 2275 832 2061 
L 832 0 
L 525 0 
z
" transform="scale(0.015625)"/>
       <path id="Lato-Light-4d" d="M 2845 1318 
Q 2893 1229 2928 1126 
Q 2947 1174 2969 1225 
Q 2992 1277 3018 1322 
L 4794 4467 
Q 4819 4509 4846 4518 
Q 4874 4528 4918 4528 
L 5142 4528 
L 5142 0 
L 4858 0 
L 4858 3859 
Q 4858 3898 4859 3942 
Q 4861 3987 4864 4032 
L 3085 870 
Q 3040 787 2957 787 
L 2906 787 
Q 2822 787 2778 870 
L 947 4038 
Q 957 3946 957 3859 
L 957 0 
L 669 0 
L 669 4528 
L 896 4528 
Q 941 4528 966 4518 
Q 992 4509 1018 4467 
L 2845 1318 
L 2845 1318 
z
" transform="scale(0.015625)"/>
      </defs>
      <use xlink:href="#Lato-Light-28"/>
      <use xlink:href="#Lato-Light-72" transform="translate(24.550003 0)"/>
      <use xlink:href="#Lato-Light-2c" transform="translate(55.775009 0)"/>
      <use xlink:href="#Lato-Light-20" transform="translate(77.675003 0)"/>
      <use xlink:href="#Lato-Light-4d" transform="translate(104.824997 0)"/>
      <use xlink:href="#Lato-Light-29" transform="translate(195.625015 0)"/>
     </g>
    </g>
   </g>
   <g id="text_9">
    <!-- 24.63 -->
    <g style="fill: #262626" transform="translate(88.469375 31.392188) scale(0.12 -0.12)">
     <defs>
      <path id="Lato-Medium-32" d="M 1894 4643 
Q 2192 4643 2445 4555 
Q 2698 4467 2883 4302 
Q 3069 4138 3174 3899 
Q 3280 3661 3280 3360 
Q 3280 3104 3205 2885 
Q 3130 2666 3000 2467 
Q 2870 2269 2699 2080 
Q 2528 1891 2336 1699 
L 1155 496 
Q 1286 531 1420 553 
Q 1555 576 1677 576 
L 3155 576 
Q 3254 576 3312 518 
Q 3370 461 3370 368 
L 3370 0 
L 291 0 
L 291 208 
Q 291 272 318 341 
Q 346 410 403 464 
L 1859 1930 
Q 2042 2115 2189 2284 
Q 2336 2454 2441 2624 
Q 2547 2794 2603 2968 
Q 2659 3142 2659 3341 
Q 2659 3536 2598 3683 
Q 2538 3830 2430 3929 
Q 2323 4029 2176 4077 
Q 2029 4125 1859 4125 
Q 1690 4125 1549 4075 
Q 1408 4026 1297 3938 
Q 1187 3850 1112 3730 
Q 1037 3610 1005 3466 
Q 963 3347 894 3307 
Q 826 3267 701 3286 
L 381 3344 
Q 429 3661 558 3904 
Q 688 4147 886 4312 
Q 1085 4477 1341 4560 
Q 1597 4643 1894 4643 
z
" transform="scale(0.015625)"/>
      <path id="Lato-Medium-34" d="M 2858 1670 
L 3533 1670 
L 3533 1318 
Q 3533 1264 3499 1227 
Q 3466 1190 3402 1190 
L 2858 1190 
L 2858 0 
L 2326 0 
L 2326 1190 
L 304 1190 
Q 237 1190 189 1228 
Q 141 1267 128 1328 
L 67 1638 
L 2291 4595 
L 2858 4595 
L 2858 1670 
z
M 2326 3494 
Q 2326 3581 2332 3683 
Q 2339 3786 2355 3894 
L 723 1670 
L 2326 1670 
L 2326 3494 
z
" transform="scale(0.015625)"/>
      <path id="Lato-Medium-2e" d="M 342 368 
Q 342 454 374 529 
Q 406 605 460 662 
Q 515 720 592 752 
Q 669 784 755 784 
Q 842 784 917 752 
Q 992 720 1048 662 
Q 1104 605 1136 529 
Q 1168 454 1168 368 
Q 1168 278 1136 203 
Q 1104 128 1048 72 
Q 992 16 917 -16 
Q 842 -48 755 -48 
Q 669 -48 592 -16 
Q 515 16 460 72 
Q 406 128 374 203 
Q 342 278 342 368 
z
" transform="scale(0.015625)"/>
      <path id="Lato-Medium-36" d="M 1542 2880 
Q 1485 2806 1430 2739 
Q 1376 2672 1328 2605 
Q 1485 2707 1675 2764 
Q 1866 2822 2086 2822 
Q 2362 2822 2608 2732 
Q 2854 2643 3041 2468 
Q 3229 2294 3337 2038 
Q 3446 1782 3446 1453 
Q 3446 1136 3331 861 
Q 3216 586 3006 384 
Q 2797 182 2505 65 
Q 2214 -51 1862 -51 
Q 1510 -51 1228 61 
Q 947 173 747 379 
Q 547 586 440 877 
Q 333 1168 333 1526 
Q 333 1830 465 2171 
Q 598 2512 886 2899 
L 2042 4445 
Q 2086 4509 2172 4550 
Q 2259 4592 2365 4592 
L 2906 4592 
L 1542 2880 
z
M 915 1421 
Q 915 1206 977 1028 
Q 1040 851 1160 723 
Q 1280 595 1454 524 
Q 1629 454 1850 454 
Q 2074 454 2256 526 
Q 2438 598 2568 726 
Q 2698 854 2768 1028 
Q 2838 1203 2838 1408 
Q 2838 1629 2769 1806 
Q 2701 1984 2574 2105 
Q 2448 2227 2273 2292 
Q 2099 2358 1888 2358 
Q 1664 2358 1483 2283 
Q 1302 2208 1176 2078 
Q 1050 1949 982 1779 
Q 915 1610 915 1421 
z
" transform="scale(0.015625)"/>
      <path id="Lato-Medium-33" d="M 1917 4643 
Q 2214 4643 2460 4558 
Q 2707 4474 2884 4318 
Q 3062 4163 3161 3947 
Q 3261 3731 3261 3469 
Q 3261 3248 3206 3077 
Q 3152 2906 3049 2778 
Q 2947 2650 2801 2562 
Q 2656 2474 2474 2416 
Q 2918 2294 3140 2019 
Q 3363 1744 3363 1325 
Q 3363 1002 3241 747 
Q 3120 493 2912 315 
Q 2704 138 2424 43 
Q 2144 -51 1827 -51 
Q 1466 -51 1206 38 
Q 947 128 764 286 
Q 582 445 464 665 
Q 346 886 266 1149 
L 528 1261 
Q 630 1306 726 1286 
Q 822 1267 867 1174 
Q 912 1082 976 960 
Q 1040 838 1145 728 
Q 1251 618 1412 542 
Q 1574 467 1821 467 
Q 2054 467 2230 544 
Q 2406 621 2523 742 
Q 2640 864 2697 1013 
Q 2755 1162 2755 1309 
Q 2755 1491 2708 1641 
Q 2662 1792 2536 1901 
Q 2410 2010 2184 2070 
Q 1958 2131 1600 2131 
L 1600 2573 
Q 1894 2576 2097 2635 
Q 2301 2694 2429 2798 
Q 2557 2902 2613 3046 
Q 2669 3190 2669 3363 
Q 2669 3555 2609 3697 
Q 2550 3840 2444 3934 
Q 2339 4029 2195 4077 
Q 2051 4125 1882 4125 
Q 1712 4125 1569 4075 
Q 1427 4026 1316 3938 
Q 1206 3850 1131 3730 
Q 1056 3610 1024 3466 
Q 979 3347 913 3307 
Q 848 3267 723 3286 
L 403 3344 
Q 448 3661 579 3904 
Q 710 4147 908 4312 
Q 1107 4477 1363 4560 
Q 1619 4643 1917 4643 
z
" transform="scale(0.015625)"/>
     </defs>
     <use xlink:href="#Lato-Medium-32"/>
     <use xlink:href="#Lato-Medium-34" transform="translate(58 0)"/>
     <use xlink:href="#Lato-Medium-2e" transform="translate(116 0)"/>
     <use xlink:href="#Lato-Medium-36" transform="translate(139.600006 0)"/>
     <use xlink:href="#Lato-Medium-33" transform="translate(197.600006 0)"/>
    </g>
   </g>
   <g id="text_10">
    <!-- 33.28 -->
    <g style="fill: #262626" transform="translate(130.319375 31.392188) scale(0.12 -0.12)">
     <defs>
      <path id="Lato-Medium-38" d="M 1856 -51 
Q 1510 -51 1224 41 
Q 938 134 733 305 
Q 528 477 414 718 
Q 301 960 301 1261 
Q 301 1699 526 1984 
Q 752 2269 1181 2394 
Q 822 2528 640 2795 
Q 458 3062 458 3434 
Q 458 3690 558 3910 
Q 659 4131 843 4294 
Q 1027 4458 1284 4550 
Q 1542 4643 1856 4643 
Q 2170 4643 2427 4550 
Q 2685 4458 2869 4294 
Q 3053 4131 3153 3910 
Q 3254 3690 3254 3434 
Q 3254 3062 3070 2795 
Q 2886 2528 2528 2394 
Q 2957 2269 3184 1984 
Q 3411 1699 3411 1261 
Q 3411 960 3297 718 
Q 3184 477 2979 305 
Q 2774 134 2488 41 
Q 2202 -51 1856 -51 
z
M 1856 432 
Q 2077 432 2249 494 
Q 2422 557 2542 669 
Q 2662 781 2724 934 
Q 2787 1088 2787 1274 
Q 2787 1501 2712 1664 
Q 2637 1827 2509 1931 
Q 2381 2035 2211 2084 
Q 2042 2134 1856 2134 
Q 1667 2134 1499 2084 
Q 1331 2035 1203 1931 
Q 1075 1827 1000 1664 
Q 925 1501 925 1274 
Q 925 1088 987 934 
Q 1050 781 1170 669 
Q 1290 557 1462 494 
Q 1635 432 1856 432 
z
M 1856 2621 
Q 2077 2621 2229 2688 
Q 2381 2755 2477 2867 
Q 2573 2979 2616 3123 
Q 2659 3267 2659 3421 
Q 2659 3574 2609 3712 
Q 2560 3850 2459 3954 
Q 2358 4058 2208 4117 
Q 2058 4176 1856 4176 
Q 1654 4176 1504 4117 
Q 1354 4058 1253 3954 
Q 1152 3850 1102 3712 
Q 1053 3574 1053 3421 
Q 1053 3267 1096 3123 
Q 1139 2979 1235 2867 
Q 1331 2755 1483 2688 
Q 1635 2621 1856 2621 
z
" transform="scale(0.015625)"/>
     </defs>
     <use xlink:href="#Lato-Medium-33"/>
     <use xlink:href="#Lato-Medium-33" transform="translate(58 0)"/>
     <use xlink:href="#Lato-Medium-2e" transform="translate(116 0)"/>
     <use xlink:href="#Lato-Medium-32" transform="translate(139.600006 0)"/>
     <use xlink:href="#Lato-Medium-38" transform="translate(197.600006 0)"/>
    </g>
   </g>
   <g id="text_11">
    <!-- 25.71 -->
    <g style="fill: #262626" transform="translate(88.469375 72.972188) scale(0.12 -0.12)">
     <defs>
      <path id="Lato-Medium-35" d="M 3152 4330 
Q 3152 4198 3070 4115 
Q 2989 4032 2797 4032 
L 1382 4032 
L 1181 2870 
Q 1530 2947 1827 2947 
Q 2186 2947 2461 2840 
Q 2736 2733 2921 2545 
Q 3107 2358 3201 2104 
Q 3296 1850 3296 1555 
Q 3296 1190 3168 892 
Q 3040 595 2817 385 
Q 2595 176 2291 62 
Q 1987 -51 1635 -51 
Q 1430 -51 1243 -11 
Q 1056 29 893 97 
Q 730 166 592 256 
Q 454 346 346 442 
L 531 704 
Q 592 790 691 790 
Q 758 790 838 740 
Q 918 691 1032 630 
Q 1146 570 1301 520 
Q 1456 470 1667 470 
Q 1901 470 2089 545 
Q 2278 621 2411 760 
Q 2544 899 2614 1094 
Q 2685 1290 2685 1526 
Q 2685 1738 2622 1906 
Q 2560 2074 2438 2194 
Q 2317 2314 2131 2378 
Q 1946 2442 1702 2442 
Q 1360 2442 970 2320 
L 589 2432 
L 960 4592 
L 3152 4592 
L 3152 4330 
z
" transform="scale(0.015625)"/>
      <path id="Lato-Medium-37" d="M 3466 4592 
L 3466 4323 
Q 3466 4205 3440 4131 
Q 3414 4058 3389 4003 
L 1514 214 
Q 1469 125 1392 62 
Q 1315 0 1184 0 
L 749 0 
L 2653 3738 
Q 2736 3904 2845 4032 
L 483 4032 
Q 422 4032 379 4077 
Q 336 4122 336 4179 
L 336 4592 
L 3466 4592 
z
" transform="scale(0.015625)"/>
      <path id="Lato-Medium-31" d="M 790 464 
L 1766 464 
L 1766 3514 
Q 1766 3654 1776 3805 
L 986 3130 
Q 941 3094 897 3084 
Q 854 3075 816 3083 
Q 778 3091 746 3110 
Q 714 3130 698 3152 
L 509 3418 
L 1882 4602 
L 2374 4602 
L 2374 464 
L 3267 464 
L 3267 0 
L 790 0 
L 790 464 
z
" transform="scale(0.015625)"/>
     </defs>
     <use xlink:href="#Lato-Medium-32"/>
     <use xlink:href="#Lato-Medium-35" transform="translate(58 0)"/>
     <use xlink:href="#Lato-Medium-2e" transform="translate(116 0)"/>
     <use xlink:href="#Lato-Medium-37" transform="translate(139.600006 0)"/>
     <use xlink:href="#Lato-Medium-31" transform="translate(197.600006 0)"/>
    </g>
   </g>
   <g id="text_12">
    <!-- 40.79 -->
    <g style="fill: #ffffff" transform="translate(130.319375 72.972188) scale(0.12 -0.12)">
     <defs>
      <path id="Lato-Medium-30" d="M 3526 2298 
Q 3526 1696 3396 1254 
Q 3267 813 3041 523 
Q 2816 234 2510 93 
Q 2205 -48 1853 -48 
Q 1501 -48 1197 93 
Q 893 234 667 523 
Q 442 813 314 1254 
Q 186 1696 186 2298 
Q 186 2899 314 3340 
Q 442 3782 667 4072 
Q 893 4362 1197 4502 
Q 1501 4643 1853 4643 
Q 2205 4643 2510 4502 
Q 2816 4362 3041 4072 
Q 3267 3782 3396 3340 
Q 3526 2899 3526 2298 
z
M 2896 2298 
Q 2896 2816 2809 3168 
Q 2723 3520 2579 3734 
Q 2435 3949 2246 4040 
Q 2058 4131 1853 4131 
Q 1648 4131 1459 4040 
Q 1270 3949 1126 3734 
Q 982 3520 897 3168 
Q 813 2816 813 2298 
Q 813 1776 897 1424 
Q 982 1072 1126 859 
Q 1270 646 1459 555 
Q 1648 464 1853 464 
Q 2058 464 2246 555 
Q 2435 646 2579 859 
Q 2723 1072 2809 1424 
Q 2896 1776 2896 2298 
z
" transform="scale(0.015625)"/>
      <path id="Lato-Medium-39" d="M 2214 1821 
Q 2278 1907 2337 1987 
Q 2397 2067 2451 2144 
Q 2278 2010 2062 1942 
Q 1846 1875 1606 1875 
Q 1350 1875 1118 1961 
Q 886 2048 710 2216 
Q 534 2384 428 2630 
Q 323 2877 323 3194 
Q 323 3494 435 3760 
Q 547 4026 750 4221 
Q 954 4416 1235 4529 
Q 1517 4643 1853 4643 
Q 2186 4643 2458 4534 
Q 2730 4426 2922 4229 
Q 3114 4032 3219 3758 
Q 3325 3485 3325 3155 
Q 3325 2954 3288 2773 
Q 3251 2592 3182 2421 
Q 3114 2250 3014 2082 
Q 2915 1914 2790 1738 
L 1683 144 
Q 1642 80 1558 40 
Q 1475 0 1373 0 
L 813 0 
L 2214 1821 
z
M 2742 3226 
Q 2742 3437 2675 3605 
Q 2608 3773 2489 3891 
Q 2371 4010 2204 4074 
Q 2038 4138 1843 4138 
Q 1638 4138 1470 4070 
Q 1302 4003 1182 3884 
Q 1062 3766 996 3600 
Q 931 3434 931 3238 
Q 931 2810 1164 2576 
Q 1398 2342 1811 2342 
Q 2035 2342 2208 2414 
Q 2381 2486 2499 2608 
Q 2618 2730 2680 2890 
Q 2742 3050 2742 3226 
z
" transform="scale(0.015625)"/>
     </defs>
     <use xlink:href="#Lato-Medium-34"/>
     <use xlink:href="#Lato-Medium-30" transform="translate(58 0)"/>
     <use xlink:href="#Lato-Medium-2e" transform="translate(116 0)"/>
     <use xlink:href="#Lato-Medium-37" transform="translate(139.600006 0)"/>
     <use xlink:href="#Lato-Medium-39" transform="translate(197.600006 0)"/>
    </g>
   </g>
   <g id="text_13">
    <!-- 29.04 -->
    <g style="fill: #ffffff" transform="translate(88.469375 114.552188) scale(0.12 -0.12)">
     <use xlink:href="#Lato-Medium-32"/>
     <use xlink:href="#Lato-Medium-39" transform="translate(58 0)"/>
     <use xlink:href="#Lato-Medium-2e" transform="translate(116 0)"/>
     <use xlink:href="#Lato-Medium-30" transform="translate(139.600006 0)"/>
     <use xlink:href="#Lato-Medium-34" transform="translate(197.600006 0)"/>
    </g>
   </g>
   <g id="text_14">
    <!-- 40.73 -->
    <g style="fill: #ffffff" transform="translate(130.319375 114.552188) scale(0.12 -0.12)">
     <use xlink:href="#Lato-Medium-34"/>
     <use xlink:href="#Lato-Medium-30" transform="translate(58 0)"/>
     <use xlink:href="#Lato-Medium-2e" transform="translate(116 0)"/>
     <use xlink:href="#Lato-Medium-37" transform="translate(139.600006 0)"/>
     <use xlink:href="#Lato-Medium-33" transform="translate(197.600006 0)"/>
    </g>
   </g>
   <g id="text_15">
    <!-- 32.99 -->
    <g style="fill: #ffffff" transform="translate(88.469375 156.132188) scale(0.12 -0.12)">
     <use xlink:href="#Lato-Medium-33"/>
     <use xlink:href="#Lato-Medium-32" transform="translate(58 0)"/>
     <use xlink:href="#Lato-Medium-2e" transform="translate(116 0)"/>
     <use xlink:href="#Lato-Medium-39" transform="translate(139.600006 0)"/>
     <use xlink:href="#Lato-Medium-39" transform="translate(197.600006 0)"/>
    </g>
   </g>
   <g id="text_16">
    <!-- 44.18 -->
    <g style="fill: #ffffff" transform="translate(130.319375 156.132188) scale(0.12 -0.12)">
     <use xlink:href="#Lato-Medium-34"/>
     <use xlink:href="#Lato-Medium-34" transform="translate(58 0)"/>
     <use xlink:href="#Lato-Medium-2e" transform="translate(116 0)"/>
     <use xlink:href="#Lato-Medium-31" transform="translate(139.600006 0)"/>
     <use xlink:href="#Lato-Medium-38" transform="translate(197.600006 0)"/>
    </g>
   </g>
  </g>
 </g>
 <defs>
  <clipPath id="pcb92197c0d">
   <rect x="82.88" y="7.2" width="83.7" height="166.32"/>
  </clipPath>
 </defs>
</svg>
