<?xml version="1.0" encoding="utf-8" standalone="no"?>
<!DOCTYPE svg PUBLIC "-//W3C//DTD SVG 1.1//EN"
  "http://www.w3.org/Graphics/SVG/1.1/DTD/svg11.dtd">
<svg xmlns:xlink="http://www.w3.org/1999/xlink" width="408.274375pt" height="255.597666pt" viewBox="0 0 408.274375 255.597666" xmlns="http://www.w3.org/2000/svg" version="1.1">
 <metadata>
  <rdf:RDF xmlns:dc="http://purl.org/dc/elements/1.1/" xmlns:cc="http://creativecommons.org/ns#" xmlns:rdf="http://www.w3.org/1999/02/22-rdf-syntax-ns#">
   <cc:Work>
    <dc:type rdf:resource="http://purl.org/dc/dcmitype/StillImage"/>
    <dc:date>2026-02-16T12:39:24.632386</dc:date>
    <dc:format>image/svg+xml</dc:format>
    <dc:creator>
     <cc:Agent>
      <dc:title>Matplotlib v3.10.7, https://matplotlib.org/</dc:title>
     </cc:Agent>
    </dc:creator>
   </cc:Work>
  </rdf:RDF>
 </metadata>
 <defs>
  <style type="text/css">*{stroke-linejoin: round; stroke-linecap: butt}</style>
 </defs>
 <g id="figure_1">
  <g id="patch_1">
   <path d="M 0 255.597666 
L 408.274375 255.597666 
L 408.274375 0 
L 0 0 
z
" style="fill: #ffffff"/>
  </g>
  <g id="axes_1">
   <g id="patch_2">
    <path d="M 69.584375 168.5403 
L 396.894375 168.5403 
L 396.894375 7.2 
L 69.584375 7.2 
z
" style="fill: #ffffff"/>
   </g>
   <g id="matplotlib.axis_1">
    <g id="xtick_1">
     <g id="line2d_1">
      <path d="M 114.217557 168.5403 
L 114.217557 7.2 
" clip-path="url(#pe863ffa268)" style="fill: none; stroke-dasharray: 3.7,1.6; stroke-dashoffset: 0; stroke: #b0b0b0; stroke-opacity: 0.3"/>
     </g>
     <g id="line2d_2"/>
     <g id="text_1">
      <!-- 0.96 -->
      <g style="fill: #333333" transform="translate(103.561307 183.5428) scale(0.11 -0.11)">
       <defs>
        <path id="Lato-Light-30" d="M 3478 2266 
Q 3478 1670 3350 1235 
Q 3222 800 3001 515 
Q 2781 230 2485 91 
Q 2189 -48 1853 -48 
Q 1517 -48 1222 91 
Q 928 230 707 515 
Q 486 800 360 1235 
Q 234 1670 234 2266 
Q 234 2861 360 3296 
Q 486 3731 707 4016 
Q 928 4301 1222 4440 
Q 1517 4579 1853 4579 
Q 2189 4579 2485 4440 
Q 2781 4301 3001 4016 
Q 3222 3731 3350 3296 
Q 3478 2861 3478 2266 
z
M 3158 2266 
Q 3158 2816 3052 3206 
Q 2947 3597 2769 3845 
Q 2592 4093 2353 4208 
Q 2115 4323 1853 4323 
Q 1590 4323 1353 4208 
Q 1117 4093 937 3845 
Q 758 3597 652 3206 
Q 547 2816 547 2266 
Q 547 1712 652 1323 
Q 758 934 937 686 
Q 1117 438 1353 324 
Q 1590 211 1853 211 
Q 2115 211 2353 324 
Q 2592 438 2769 686 
Q 2947 934 3052 1323 
Q 3158 1712 3158 2266 
z
" transform="scale(0.015625)"/>
        <path id="Lato-Light-2e" d="M 336 246 
Q 336 307 358 361 
Q 381 416 421 456 
Q 461 496 513 520 
Q 566 544 630 544 
Q 691 544 745 520 
Q 800 496 840 456 
Q 880 416 904 361 
Q 928 307 928 246 
Q 928 182 904 129 
Q 880 77 840 37 
Q 800 -3 745 -25 
Q 691 -48 630 -48 
Q 506 -48 421 37 
Q 336 122 336 246 
z
" transform="scale(0.015625)"/>
        <path id="Lato-Light-39" d="M 1834 1926 
Q 1555 1926 1320 2017 
Q 1085 2109 913 2278 
Q 742 2448 646 2686 
Q 550 2925 550 3219 
Q 550 3510 657 3758 
Q 765 4006 957 4188 
Q 1149 4371 1413 4475 
Q 1677 4579 1990 4579 
Q 2291 4579 2542 4476 
Q 2794 4374 2974 4187 
Q 3155 4000 3256 3739 
Q 3357 3478 3357 3158 
Q 3357 2982 3320 2822 
Q 3283 2662 3211 2502 
Q 3139 2342 3036 2174 
Q 2934 2006 2803 1814 
L 1616 74 
Q 1568 0 1459 0 
L 1184 0 
L 2522 1869 
Q 2618 2003 2699 2123 
Q 2781 2243 2848 2355 
Q 2662 2150 2398 2038 
Q 2134 1926 1834 1926 
z
M 3062 3216 
Q 3062 3462 2982 3667 
Q 2902 3872 2758 4017 
Q 2614 4163 2417 4244 
Q 2221 4326 1987 4326 
Q 1738 4326 1528 4246 
Q 1318 4166 1169 4022 
Q 1021 3878 937 3678 
Q 854 3478 854 3238 
Q 854 2989 931 2789 
Q 1008 2589 1147 2449 
Q 1286 2310 1483 2236 
Q 1680 2163 1920 2163 
Q 2192 2163 2405 2256 
Q 2618 2349 2765 2499 
Q 2912 2650 2987 2837 
Q 3062 3024 3062 3216 
z
" transform="scale(0.015625)"/>
        <path id="Lato-Light-36" d="M 2010 2707 
Q 2301 2707 2547 2611 
Q 2794 2515 2971 2340 
Q 3149 2166 3249 1918 
Q 3350 1670 3350 1363 
Q 3350 1056 3240 797 
Q 3130 538 2933 349 
Q 2736 160 2461 54 
Q 2186 -51 1856 -51 
Q 1539 -51 1276 51 
Q 1014 154 827 346 
Q 640 538 537 814 
Q 435 1091 435 1440 
Q 435 1706 569 2040 
Q 704 2374 1011 2790 
L 2246 4454 
Q 2301 4528 2410 4528 
L 2678 4528 
L 1328 2765 
Q 1229 2634 1145 2518 
Q 1062 2403 995 2291 
Q 1184 2486 1443 2596 
Q 1702 2707 2010 2707 
z
M 733 1366 
Q 733 1114 811 899 
Q 890 685 1034 529 
Q 1178 374 1386 288 
Q 1594 202 1853 202 
Q 2128 202 2349 288 
Q 2570 374 2725 526 
Q 2880 678 2963 888 
Q 3046 1098 3046 1344 
Q 3046 1603 2964 1812 
Q 2883 2022 2734 2168 
Q 2586 2314 2381 2392 
Q 2176 2470 1926 2470 
Q 1645 2470 1422 2372 
Q 1200 2275 1046 2120 
Q 893 1965 813 1766 
Q 733 1568 733 1366 
z
" transform="scale(0.015625)"/>
       </defs>
       <use xlink:href="#Lato-Light-30"/>
       <use xlink:href="#Lato-Light-2e" transform="translate(58 0)"/>
       <use xlink:href="#Lato-Light-39" transform="translate(77.75 0)"/>
       <use xlink:href="#Lato-Light-36" transform="translate(135.75 0)"/>
      </g>
     </g>
    </g>
    <g id="xtick_2">
     <g id="line2d_3">
      <path d="M 173.728466 168.5403 
L 173.728466 7.2 
" clip-path="url(#pe863ffa268)" style="fill: none; stroke-dasharray: 3.7,1.6; stroke-dashoffset: 0; stroke: #b0b0b0; stroke-opacity: 0.3"/>
     </g>
     <g id="line2d_4"/>
     <g id="text_2">
      <!-- 0.98 -->
      <g style="fill: #333333" transform="translate(163.072216 183.5428) scale(0.11 -0.11)">
       <defs>
        <path id="Lato-Light-38" d="M 1856 -51 
Q 1530 -51 1259 35 
Q 989 122 795 285 
Q 602 448 493 678 
Q 384 909 384 1197 
Q 384 1446 456 1641 
Q 528 1837 659 1981 
Q 790 2125 971 2221 
Q 1152 2317 1370 2365 
Q 1171 2422 1017 2521 
Q 864 2621 760 2758 
Q 656 2896 601 3064 
Q 547 3232 547 3424 
Q 547 3664 638 3875 
Q 730 4086 899 4243 
Q 1069 4400 1310 4489 
Q 1552 4579 1856 4579 
Q 2157 4579 2398 4489 
Q 2640 4400 2811 4243 
Q 2982 4086 3073 3875 
Q 3165 3664 3165 3424 
Q 3165 3232 3110 3064 
Q 3056 2896 2950 2758 
Q 2845 2621 2691 2521 
Q 2538 2422 2339 2365 
Q 2557 2317 2737 2221 
Q 2918 2125 3049 1981 
Q 3181 1837 3254 1641 
Q 3328 1446 3328 1197 
Q 3328 909 3219 678 
Q 3110 448 2916 285 
Q 2723 122 2452 35 
Q 2182 -51 1856 -51 
z
M 1856 192 
Q 2115 192 2328 264 
Q 2541 336 2694 469 
Q 2848 602 2931 787 
Q 3014 973 3014 1200 
Q 3014 1498 2905 1696 
Q 2797 1894 2627 2012 
Q 2458 2131 2253 2180 
Q 2048 2230 1856 2230 
Q 1664 2230 1459 2180 
Q 1254 2131 1084 2012 
Q 915 1894 806 1696 
Q 698 1498 698 1200 
Q 698 973 781 787 
Q 864 602 1016 469 
Q 1168 336 1382 264 
Q 1597 192 1856 192 
z
M 1856 2477 
Q 2115 2477 2305 2555 
Q 2496 2634 2621 2766 
Q 2746 2899 2805 3068 
Q 2864 3238 2864 3421 
Q 2864 3616 2797 3784 
Q 2730 3952 2600 4077 
Q 2470 4202 2283 4272 
Q 2096 4342 1856 4342 
Q 1616 4342 1427 4272 
Q 1238 4202 1108 4077 
Q 979 3952 912 3784 
Q 845 3616 845 3421 
Q 845 3238 904 3068 
Q 963 2899 1088 2766 
Q 1213 2634 1403 2555 
Q 1594 2477 1856 2477 
z
" transform="scale(0.015625)"/>
       </defs>
       <use xlink:href="#Lato-Light-30"/>
       <use xlink:href="#Lato-Light-2e" transform="translate(58 0)"/>
       <use xlink:href="#Lato-Light-39" transform="translate(77.75 0)"/>
       <use xlink:href="#Lato-Light-38" transform="translate(135.75 0)"/>
      </g>
     </g>
    </g>
    <g id="xtick_3">
     <g id="line2d_5">
      <path d="M 233.239375 168.5403 
L 233.239375 7.2 
" clip-path="url(#pe863ffa268)" style="fill: none; stroke-dasharray: 3.7,1.6; stroke-dashoffset: 0; stroke: #b0b0b0; stroke-opacity: 0.3"/>
     </g>
     <g id="line2d_6"/>
     <g id="text_3">
      <!-- 1.00 -->
      <g style="fill: #333333" transform="translate(222.583125 183.5428) scale(0.11 -0.11)">
       <defs>
        <path id="Lato-Light-31" d="M 989 237 
L 2029 237 
L 2029 3910 
Q 2029 4019 2038 4141 
L 1040 3254 
Q 1008 3226 963 3226 
Q 909 3226 880 3264 
L 787 3392 
L 2096 4547 
L 2333 4547 
L 2333 237 
L 3322 237 
L 3322 0 
L 989 0 
L 989 237 
z
" transform="scale(0.015625)"/>
       </defs>
       <use xlink:href="#Lato-Light-31"/>
       <use xlink:href="#Lato-Light-2e" transform="translate(58 0)"/>
       <use xlink:href="#Lato-Light-30" transform="translate(77.75 0)"/>
       <use xlink:href="#Lato-Light-30" transform="translate(135.75 0)"/>
      </g>
     </g>
    </g>
    <g id="xtick_4">
     <g id="line2d_7">
      <path d="M 292.750284 168.5403 
L 292.750284 7.2 
" clip-path="url(#pe863ffa268)" style="fill: none; stroke-dasharray: 3.7,1.6; stroke-dashoffset: 0; stroke: #b0b0b0; stroke-opacity: 0.3"/>
     </g>
     <g id="line2d_8"/>
     <g id="text_4">
      <!-- 1.02 -->
      <g style="fill: #333333" transform="translate(282.094034 183.5428) scale(0.11 -0.11)">
       <defs>
        <path id="Lato-Light-32" d="M 1926 4579 
Q 2186 4579 2421 4504 
Q 2656 4429 2835 4277 
Q 3014 4125 3120 3896 
Q 3226 3667 3226 3360 
Q 3226 3104 3147 2885 
Q 3069 2666 2934 2464 
Q 2800 2262 2622 2072 
Q 2445 1882 2250 1683 
L 832 237 
Q 934 262 1044 275 
Q 1155 288 1267 288 
L 3222 288 
Q 3274 288 3304 257 
Q 3334 227 3334 179 
L 3334 0 
L 413 0 
L 413 109 
Q 413 144 430 181 
Q 448 218 474 243 
L 2019 1808 
Q 2211 2003 2374 2185 
Q 2538 2368 2658 2553 
Q 2778 2739 2846 2934 
Q 2915 3130 2915 3350 
Q 2915 3600 2832 3784 
Q 2749 3968 2609 4086 
Q 2470 4205 2289 4262 
Q 2109 4320 1910 4320 
Q 1696 4320 1515 4254 
Q 1334 4189 1195 4072 
Q 1056 3955 965 3793 
Q 874 3632 838 3440 
Q 806 3328 710 3328 
Q 704 3328 694 3329 
Q 685 3331 678 3331 
L 525 3357 
Q 563 3648 683 3875 
Q 803 4102 985 4259 
Q 1168 4416 1408 4497 
Q 1648 4579 1926 4579 
z
" transform="scale(0.015625)"/>
       </defs>
       <use xlink:href="#Lato-Light-31"/>
       <use xlink:href="#Lato-Light-2e" transform="translate(58 0)"/>
       <use xlink:href="#Lato-Light-30" transform="translate(77.75 0)"/>
       <use xlink:href="#Lato-Light-32" transform="translate(135.75 0)"/>
      </g>
     </g>
    </g>
    <g id="xtick_5">
     <g id="line2d_9">
      <path d="M 352.261193 168.5403 
L 352.261193 7.2 
" clip-path="url(#pe863ffa268)" style="fill: none; stroke-dasharray: 3.7,1.6; stroke-dashoffset: 0; stroke: #b0b0b0; stroke-opacity: 0.3"/>
     </g>
     <g id="line2d_10"/>
     <g id="text_5">
      <!-- 1.04 -->
      <g style="fill: #333333" transform="translate(341.604943 183.5428) scale(0.11 -0.11)">
       <defs>
        <path id="Lato-Light-34" d="M 2749 1542 
L 3578 1542 
L 3578 1376 
Q 3578 1341 3557 1320 
Q 3536 1299 3491 1299 
L 2749 1299 
L 2749 0 
L 2474 0 
L 2474 1299 
L 339 1299 
Q 291 1299 265 1320 
Q 240 1341 230 1376 
L 202 1526 
L 2477 4534 
L 2749 4534 
L 2749 1542 
z
M 2474 3914 
Q 2474 3968 2477 4029 
Q 2480 4090 2490 4154 
L 534 1542 
L 2474 1542 
L 2474 3914 
z
" transform="scale(0.015625)"/>
       </defs>
       <use xlink:href="#Lato-Light-31"/>
       <use xlink:href="#Lato-Light-2e" transform="translate(58 0)"/>
       <use xlink:href="#Lato-Light-30" transform="translate(77.75 0)"/>
       <use xlink:href="#Lato-Light-34" transform="translate(135.75 0)"/>
      </g>
     </g>
    </g>
    <g id="text_6">
     <!-- # of Ensemble Members -->
     <g style="fill: #333333" transform="translate(154.549141 200.52655) scale(0.15 -0.15)">
      <defs>
       <path id="Lato-Regular-23" d="M 2528 1354 
L 2259 0 
L 2000 0 
Q 1926 0 1875 54 
Q 1824 109 1824 195 
Q 1824 208 1825 219 
Q 1827 230 1830 246 
L 2058 1354 
L 1267 1354 
L 1040 218 
Q 1014 99 942 49 
Q 870 0 778 0 
L 525 0 
L 797 1354 
L 330 1354 
Q 256 1354 214 1390 
Q 173 1427 173 1517 
Q 173 1533 174 1552 
Q 176 1571 179 1590 
L 205 1773 
L 858 1773 
L 1066 2816 
L 323 2816 
L 365 3053 
Q 381 3146 438 3190 
Q 496 3235 621 3235 
L 1126 3235 
L 1357 4381 
Q 1376 4477 1445 4531 
Q 1514 4586 1610 4586 
L 1866 4586 
L 1597 3235 
L 2387 3235 
L 2656 4586 
L 2909 4586 
Q 2989 4586 3041 4538 
Q 3094 4490 3094 4413 
Q 3094 4387 3091 4371 
L 2858 3235 
L 3536 3235 
L 3494 2995 
Q 3478 2902 3419 2859 
Q 3360 2816 3238 2816 
L 2797 2816 
L 2589 1773 
L 3162 1773 
Q 3238 1773 3280 1736 
Q 3322 1699 3322 1606 
Q 3322 1590 3320 1572 
Q 3318 1555 3315 1536 
L 3286 1354 
L 2528 1354 
z
M 1328 1773 
L 2118 1773 
L 2326 2816 
L 1536 2816 
L 1328 1773 
z
" transform="scale(0.015625)"/>
       <path id="Lato-Regular-20" transform="scale(0.015625)"/>
       <path id="Lato-Regular-6f" d="M 1779 3293 
Q 2134 3293 2420 3174 
Q 2707 3056 2907 2838 
Q 3107 2621 3214 2312 
Q 3322 2003 3322 1622 
Q 3322 1238 3214 931 
Q 3107 624 2907 406 
Q 2707 189 2420 72 
Q 2134 -45 1779 -45 
Q 1424 -45 1137 72 
Q 851 189 649 406 
Q 448 624 339 931 
Q 230 1238 230 1622 
Q 230 2003 339 2312 
Q 448 2621 649 2838 
Q 851 3056 1137 3174 
Q 1424 3293 1779 3293 
z
M 1779 400 
Q 2259 400 2496 721 
Q 2733 1043 2733 1619 
Q 2733 2198 2496 2521 
Q 2259 2845 1779 2845 
Q 1536 2845 1357 2761 
Q 1178 2678 1058 2521 
Q 938 2365 878 2136 
Q 819 1907 819 1619 
Q 819 1331 878 1104 
Q 938 877 1058 721 
Q 1178 566 1357 483 
Q 1536 400 1779 400 
z
" transform="scale(0.015625)"/>
       <path id="Lato-Regular-66" d="M 595 0 
L 595 2755 
L 237 2797 
Q 170 2813 126 2846 
Q 83 2880 83 2944 
L 83 3178 
L 595 3178 
L 595 3491 
Q 595 3770 673 3986 
Q 752 4202 897 4350 
Q 1043 4499 1248 4576 
Q 1453 4653 1709 4653 
Q 1926 4653 2112 4589 
L 2099 4304 
Q 2096 4240 2045 4227 
Q 1994 4214 1901 4214 
L 1802 4214 
Q 1654 4214 1534 4176 
Q 1414 4138 1328 4051 
Q 1242 3965 1195 3824 
Q 1149 3683 1149 3475 
L 1149 3178 
L 2086 3178 
L 2086 2765 
L 1168 2765 
L 1168 0 
L 595 0 
z
" transform="scale(0.015625)"/>
       <path id="Lato-Regular-45" d="M 3382 4586 
L 3382 4080 
L 1181 4080 
L 1181 2557 
L 2963 2557 
L 2963 2070 
L 1181 2070 
L 1181 506 
L 3382 506 
L 3382 0 
L 557 0 
L 557 4586 
L 3382 4586 
z
" transform="scale(0.015625)"/>
       <path id="Lato-Regular-6e" d="M 467 0 
L 467 3242 
L 806 3242 
Q 928 3242 960 3123 
L 1005 2771 
Q 1216 3005 1477 3149 
Q 1738 3293 2080 3293 
Q 2346 3293 2549 3205 
Q 2752 3117 2888 2955 
Q 3024 2794 3094 2566 
Q 3165 2339 3165 2064 
L 3165 0 
L 2595 0 
L 2595 2064 
Q 2595 2432 2427 2635 
Q 2259 2838 1914 2838 
Q 1661 2838 1441 2716 
Q 1222 2595 1037 2387 
L 1037 0 
L 467 0 
z
" transform="scale(0.015625)"/>
       <path id="Lato-Regular-73" d="M 2323 2707 
Q 2285 2637 2205 2637 
Q 2157 2637 2096 2672 
Q 2035 2707 1947 2750 
Q 1859 2794 1737 2830 
Q 1616 2867 1450 2867 
Q 1306 2867 1190 2830 
Q 1075 2794 993 2730 
Q 912 2666 869 2581 
Q 826 2496 826 2397 
Q 826 2272 898 2189 
Q 970 2106 1088 2045 
Q 1206 1984 1356 1937 
Q 1507 1891 1665 1838 
Q 1824 1786 1974 1722 
Q 2125 1658 2243 1562 
Q 2362 1466 2434 1326 
Q 2506 1187 2506 992 
Q 2506 768 2426 577 
Q 2346 387 2189 248 
Q 2032 109 1805 29 
Q 1578 -51 1280 -51 
Q 941 -51 665 59 
Q 390 170 198 342 
L 333 560 
Q 358 602 393 624 
Q 429 646 486 646 
Q 544 646 608 601 
Q 672 557 763 502 
Q 854 448 984 403 
Q 1114 358 1309 358 
Q 1475 358 1600 401 
Q 1725 445 1808 518 
Q 1891 592 1931 688 
Q 1971 784 1971 893 
Q 1971 1027 1899 1115 
Q 1827 1203 1708 1265 
Q 1590 1328 1438 1374 
Q 1286 1421 1128 1472 
Q 970 1523 818 1588 
Q 666 1654 547 1753 
Q 429 1853 357 1998 
Q 285 2144 285 2352 
Q 285 2538 361 2709 
Q 438 2880 585 3009 
Q 733 3139 947 3216 
Q 1162 3293 1437 3293 
Q 1757 3293 2011 3192 
Q 2266 3091 2451 2915 
L 2323 2707 
z
" transform="scale(0.015625)"/>
       <path id="Lato-Regular-65" d="M 1750 3293 
Q 2042 3293 2288 3195 
Q 2534 3098 2713 2914 
Q 2893 2730 2993 2459 
Q 3094 2189 3094 1843 
Q 3094 1709 3065 1664 
Q 3037 1619 2957 1619 
L 800 1619 
Q 806 1312 883 1085 
Q 960 858 1094 706 
Q 1229 554 1414 478 
Q 1600 403 1830 403 
Q 2045 403 2200 452 
Q 2355 502 2467 560 
Q 2579 618 2654 667 
Q 2730 717 2784 717 
Q 2854 717 2893 662 
L 3053 454 
Q 2947 326 2800 232 
Q 2653 138 2485 77 
Q 2317 16 2137 -14 
Q 1958 -45 1782 -45 
Q 1446 -45 1163 68 
Q 880 182 673 401 
Q 467 621 352 944 
Q 237 1267 237 1686 
Q 237 2026 341 2320 
Q 445 2614 640 2830 
Q 835 3046 1116 3169 
Q 1398 3293 1750 3293 
z
M 1763 2874 
Q 1350 2874 1113 2635 
Q 877 2397 819 1974 
L 2582 1974 
Q 2582 2173 2528 2337 
Q 2474 2502 2368 2622 
Q 2262 2742 2110 2808 
Q 1958 2874 1763 2874 
z
" transform="scale(0.015625)"/>
       <path id="Lato-Regular-6d" d="M 467 0 
L 467 3242 
L 806 3242 
Q 928 3242 960 3123 
L 1002 2790 
Q 1181 3011 1403 3152 
Q 1626 3293 1920 3293 
Q 2250 3293 2453 3110 
Q 2656 2928 2746 2618 
Q 2813 2794 2923 2922 
Q 3034 3050 3171 3133 
Q 3309 3216 3464 3254 
Q 3619 3293 3779 3293 
Q 4035 3293 4235 3211 
Q 4435 3130 4574 2973 
Q 4714 2816 4787 2587 
Q 4861 2358 4861 2064 
L 4861 0 
L 4291 0 
L 4291 2064 
Q 4291 2445 4124 2641 
Q 3958 2838 3642 2838 
Q 3501 2838 3374 2788 
Q 3248 2739 3152 2643 
Q 3056 2547 3000 2401 
Q 2944 2256 2944 2064 
L 2944 0 
L 2374 0 
L 2374 2064 
Q 2374 2454 2217 2646 
Q 2061 2838 1760 2838 
Q 1549 2838 1368 2724 
Q 1187 2611 1037 2416 
L 1037 0 
L 467 0 
z
" transform="scale(0.015625)"/>
       <path id="Lato-Regular-62" d="M 486 0 
L 486 4714 
L 1059 4714 
L 1059 2774 
Q 1261 3008 1521 3150 
Q 1782 3293 2118 3293 
Q 2400 3293 2627 3187 
Q 2854 3082 3014 2872 
Q 3174 2662 3260 2353 
Q 3347 2045 3347 1642 
Q 3347 1283 3251 974 
Q 3155 666 2974 440 
Q 2794 214 2533 84 
Q 2272 -45 1946 -45 
Q 1632 -45 1413 76 
Q 1194 198 1030 416 
L 1002 122 
Q 976 0 854 0 
L 486 0 
z
M 1933 2838 
Q 1654 2838 1444 2710 
Q 1235 2582 1059 2349 
L 1059 781 
Q 1213 570 1400 483 
Q 1587 397 1818 397 
Q 2272 397 2515 720 
Q 2758 1043 2758 1642 
Q 2758 1958 2702 2185 
Q 2646 2413 2540 2558 
Q 2435 2704 2281 2771 
Q 2128 2838 1933 2838 
z
" transform="scale(0.015625)"/>
       <path id="Lato-Regular-6c" d="M 1101 4714 
L 1101 0 
L 531 0 
L 531 4714 
L 1101 4714 
z
" transform="scale(0.015625)"/>
       <path id="Lato-Regular-4d" d="M 2813 1658 
Q 2858 1581 2891 1496 
Q 2925 1411 2957 1325 
Q 2989 1414 3024 1496 
Q 3059 1578 3104 1661 
L 4656 4480 
Q 4698 4554 4742 4570 
Q 4787 4586 4870 4586 
L 5328 4586 
L 5328 0 
L 4784 0 
L 4784 3370 
Q 4784 3437 4787 3513 
Q 4790 3590 4797 3670 
L 3226 803 
Q 3146 659 3002 659 
L 2912 659 
Q 2768 659 2688 803 
L 1082 3680 
Q 1091 3597 1096 3517 
Q 1101 3437 1101 3370 
L 1101 0 
L 557 0 
L 557 4586 
L 1014 4586 
Q 1098 4586 1142 4570 
Q 1187 4554 1229 4480 
L 2813 1658 
L 2813 1658 
z
" transform="scale(0.015625)"/>
       <path id="Lato-Regular-72" d="M 467 0 
L 467 3242 
L 794 3242 
Q 886 3242 921 3206 
Q 957 3171 970 3085 
L 1008 2579 
Q 1174 2918 1419 3108 
Q 1664 3299 1994 3299 
Q 2128 3299 2237 3268 
Q 2346 3238 2438 3184 
L 2365 2758 
Q 2342 2678 2266 2678 
Q 2221 2678 2128 2708 
Q 2035 2739 1869 2739 
Q 1571 2739 1371 2566 
Q 1171 2394 1037 2064 
L 1037 0 
L 467 0 
z
" transform="scale(0.015625)"/>
      </defs>
      <use xlink:href="#Lato-Regular-23"/>
      <use xlink:href="#Lato-Regular-20" transform="translate(58 0)"/>
      <use xlink:href="#Lato-Regular-6f" transform="translate(77.300003 0)"/>
      <use xlink:href="#Lato-Regular-66" transform="translate(132.900009 0)"/>
      <use xlink:href="#Lato-Regular-20" transform="translate(166.600006 0)"/>
      <use xlink:href="#Lato-Regular-45" transform="translate(185.900009 0)"/>
      <use xlink:href="#Lato-Regular-6e" transform="translate(244.000015 0)"/>
      <use xlink:href="#Lato-Regular-73" transform="translate(299.600021 0)"/>
      <use xlink:href="#Lato-Regular-65" transform="translate(343.000031 0)"/>
      <use xlink:href="#Lato-Regular-6d" transform="translate(395.40004 0)"/>
      <use xlink:href="#Lato-Regular-62" transform="translate(477.500046 0)"/>
      <use xlink:href="#Lato-Regular-6c" transform="translate(533.400055 0)"/>
      <use xlink:href="#Lato-Regular-65" transform="translate(559.000061 0)"/>
      <use xlink:href="#Lato-Regular-20" transform="translate(611.40007 0)"/>
      <use xlink:href="#Lato-Regular-4d" transform="translate(630.700073 0)"/>
      <use xlink:href="#Lato-Regular-65" transform="translate(722.700089 0)"/>
      <use xlink:href="#Lato-Regular-6d" transform="translate(775.100098 0)"/>
      <use xlink:href="#Lato-Regular-62" transform="translate(857.200104 0)"/>
      <use xlink:href="#Lato-Regular-65" transform="translate(913.100113 0)"/>
      <use xlink:href="#Lato-Regular-72" transform="translate(965.500122 0)"/>
      <use xlink:href="#Lato-Regular-73" transform="translate(1005.800125 0)"/>
     </g>
    </g>
   </g>
   <g id="matplotlib.axis_2">
    <g id="ytick_1">
     <g id="line2d_11">
      <path d="M 69.584375 137.743504 
L 396.894375 137.743504 
" clip-path="url(#pe863ffa268)" style="fill: none; stroke-dasharray: 3.7,1.6; stroke-dashoffset: 0; stroke: #b0b0b0; stroke-opacity: 0.3"/>
     </g>
     <g id="line2d_12"/>
     <g id="text_7">
      <!-- 0.125 -->
      <g style="fill: #333333" transform="translate(24.821875 143.199754) scale(0.15 -0.15)">
       <defs>
        <path id="Lato-Light-35" d="M 3091 4397 
Q 3091 4333 3048 4289 
Q 3005 4246 2912 4246 
L 1274 4246 
L 1002 2736 
Q 1216 2790 1408 2814 
Q 1600 2838 1776 2838 
Q 2128 2838 2397 2737 
Q 2666 2637 2846 2456 
Q 3027 2275 3120 2025 
Q 3213 1776 3213 1482 
Q 3213 1123 3088 840 
Q 2963 557 2750 358 
Q 2538 160 2253 54 
Q 1968 -51 1648 -51 
Q 1459 -51 1289 -17 
Q 1120 16 969 72 
Q 819 128 694 201 
Q 570 275 474 352 
L 563 477 
Q 595 525 656 525 
Q 698 525 776 477 
Q 854 429 977 371 
Q 1101 314 1269 266 
Q 1437 218 1661 218 
Q 1923 218 2150 302 
Q 2378 387 2546 547 
Q 2714 707 2808 942 
Q 2902 1178 2902 1475 
Q 2902 1718 2830 1923 
Q 2758 2128 2612 2273 
Q 2467 2419 2244 2500 
Q 2022 2582 1722 2582 
Q 1539 2582 1334 2553 
Q 1130 2525 899 2461 
L 701 2522 
L 1056 4528 
L 3091 4528 
L 3091 4397 
z
" transform="scale(0.015625)"/>
       </defs>
       <use xlink:href="#Lato-Light-30"/>
       <use xlink:href="#Lato-Light-2e" transform="translate(58 0)"/>
       <use xlink:href="#Lato-Light-31" transform="translate(77.75 0)"/>
       <use xlink:href="#Lato-Light-32" transform="translate(135.75 0)"/>
       <use xlink:href="#Lato-Light-35" transform="translate(193.75 0)"/>
      </g>
     </g>
    </g>
    <g id="ytick_2">
     <g id="line2d_13">
      <path d="M 69.584375 81.069238 
L 396.894375 81.069238 
" clip-path="url(#pe863ffa268)" style="fill: none; stroke-dasharray: 3.7,1.6; stroke-dashoffset: 0; stroke: #b0b0b0; stroke-opacity: 0.3"/>
     </g>
     <g id="line2d_14"/>
     <g id="text_8">
      <!-- 0.130 -->
      <g style="fill: #333333" transform="translate(24.821875 86.525488) scale(0.15 -0.15)">
       <defs>
        <path id="Lato-Light-33" d="M 1962 4579 
Q 2221 4579 2451 4507 
Q 2682 4435 2856 4291 
Q 3030 4147 3131 3932 
Q 3232 3718 3232 3437 
Q 3232 3216 3163 3038 
Q 3094 2861 2974 2726 
Q 2854 2592 2691 2501 
Q 2528 2410 2336 2362 
Q 2835 2269 3091 1976 
Q 3347 1683 3347 1245 
Q 3347 966 3235 728 
Q 3123 490 2928 317 
Q 2733 144 2467 46 
Q 2202 -51 1891 -51 
Q 1504 -51 1246 53 
Q 989 157 822 323 
Q 656 490 563 696 
Q 470 902 413 1107 
L 534 1158 
Q 573 1174 608 1174 
Q 643 1174 675 1158 
Q 707 1142 723 1098 
L 746 1034 
Q 765 976 800 891 
Q 835 806 891 715 
Q 947 624 1030 533 
Q 1114 442 1234 370 
Q 1354 298 1515 253 
Q 1677 208 1888 208 
Q 2176 208 2392 304 
Q 2608 400 2753 549 
Q 2899 698 2971 882 
Q 3043 1066 3043 1238 
Q 3043 1446 2977 1625 
Q 2912 1805 2758 1934 
Q 2605 2064 2353 2139 
Q 2102 2214 1734 2214 
L 1734 2435 
Q 2029 2442 2253 2514 
Q 2477 2586 2627 2710 
Q 2778 2835 2854 3008 
Q 2931 3181 2931 3389 
Q 2931 3629 2851 3805 
Q 2771 3981 2636 4096 
Q 2502 4211 2323 4265 
Q 2144 4320 1949 4320 
Q 1734 4320 1555 4256 
Q 1376 4192 1238 4077 
Q 1101 3962 1008 3800 
Q 915 3638 870 3440 
Q 845 3328 752 3328 
Q 730 3328 717 3331 
L 560 3357 
Q 602 3648 720 3875 
Q 838 4102 1020 4259 
Q 1203 4416 1443 4497 
Q 1683 4579 1962 4579 
z
" transform="scale(0.015625)"/>
       </defs>
       <use xlink:href="#Lato-Light-30"/>
       <use xlink:href="#Lato-Light-2e" transform="translate(58 0)"/>
       <use xlink:href="#Lato-Light-31" transform="translate(77.75 0)"/>
       <use xlink:href="#Lato-Light-33" transform="translate(135.75 0)"/>
       <use xlink:href="#Lato-Light-30" transform="translate(193.75 0)"/>
      </g>
     </g>
    </g>
    <g id="ytick_3">
     <g id="line2d_15">
      <path d="M 69.584375 24.394972 
L 396.894375 24.394972 
" clip-path="url(#pe863ffa268)" style="fill: none; stroke-dasharray: 3.7,1.6; stroke-dashoffset: 0; stroke: #b0b0b0; stroke-opacity: 0.3"/>
     </g>
     <g id="line2d_16"/>
     <g id="text_9">
      <!-- 0.135 -->
      <g style="fill: #333333" transform="translate(24.821875 29.851222) scale(0.15 -0.15)">
       <use xlink:href="#Lato-Light-30"/>
       <use xlink:href="#Lato-Light-2e" transform="translate(58 0)"/>
       <use xlink:href="#Lato-Light-31" transform="translate(77.75 0)"/>
       <use xlink:href="#Lato-Light-33" transform="translate(135.75 0)"/>
       <use xlink:href="#Lato-Light-35" transform="translate(193.75 0)"/>
      </g>
     </g>
    </g>
    <g id="text_10">
     <!-- Test Acc. -->
     <g style="fill: #333333" transform="translate(18.248437 117.421322) rotate(-90) scale(0.15 -0.15)">
      <defs>
       <path id="Lato-Regular-54" d="M 3680 4586 
L 3680 4064 
L 2198 4064 
L 2198 0 
L 1578 0 
L 1578 4064 
L 90 4064 
L 90 4586 
L 3680 4586 
z
" transform="scale(0.015625)"/>
       <path id="Lato-Regular-74" d="M 1450 -51 
Q 1066 -51 859 163 
Q 653 378 653 781 
L 653 2765 
L 262 2765 
Q 211 2765 176 2795 
Q 141 2826 141 2890 
L 141 3117 
L 672 3184 
L 803 4186 
Q 810 4234 845 4264 
Q 880 4294 934 4294 
L 1222 4294 
L 1222 3178 
L 2150 3178 
L 2150 2765 
L 1222 2765 
L 1222 819 
Q 1222 614 1321 515 
Q 1421 416 1578 416 
Q 1667 416 1732 440 
Q 1798 464 1846 493 
Q 1894 522 1928 546 
Q 1962 570 1987 570 
Q 2032 570 2067 515 
L 2234 243 
Q 2086 106 1878 27 
Q 1670 -51 1450 -51 
z
" transform="scale(0.015625)"/>
       <path id="Lato-Regular-41" d="M 4330 0 
L 3850 0 
Q 3766 0 3715 41 
Q 3664 83 3638 147 
L 3210 1254 
L 1152 1254 
L 723 147 
Q 701 90 646 45 
Q 592 0 512 0 
L 32 0 
L 1866 4586 
L 2496 4586 
L 4330 0 
z
M 1325 1702 
L 3037 1702 
L 2317 3568 
Q 2246 3741 2179 4000 
Q 2144 3869 2110 3758 
Q 2077 3648 2045 3565 
L 1325 1702 
z
" transform="scale(0.015625)"/>
       <path id="Lato-Regular-63" d="M 2678 2666 
Q 2653 2630 2627 2611 
Q 2602 2592 2554 2592 
Q 2506 2592 2450 2632 
Q 2394 2672 2307 2720 
Q 2221 2768 2097 2808 
Q 1974 2848 1795 2848 
Q 1558 2848 1376 2763 
Q 1194 2678 1070 2518 
Q 947 2358 884 2131 
Q 822 1904 822 1622 
Q 822 1328 889 1099 
Q 957 870 1078 715 
Q 1200 560 1374 478 
Q 1549 397 1766 397 
Q 1974 397 2108 446 
Q 2243 496 2332 557 
Q 2422 618 2480 667 
Q 2538 717 2595 717 
Q 2669 717 2704 662 
L 2864 454 
Q 2653 195 2336 75 
Q 2019 -45 1667 -45 
Q 1363 -45 1102 67 
Q 842 179 650 392 
Q 458 605 347 915 
Q 237 1226 237 1622 
Q 237 1984 337 2291 
Q 438 2598 632 2820 
Q 826 3043 1110 3168 
Q 1395 3293 1763 3293 
Q 2102 3293 2364 3182 
Q 2627 3072 2829 2870 
L 2678 2666 
z
" transform="scale(0.015625)"/>
       <path id="Lato-Regular-2e" d="M 282 352 
Q 282 435 312 508 
Q 342 582 395 636 
Q 448 691 521 723 
Q 595 755 678 755 
Q 762 755 835 723 
Q 909 691 963 636 
Q 1018 582 1048 508 
Q 1078 435 1078 352 
Q 1078 266 1048 194 
Q 1018 122 963 67 
Q 909 13 835 -17 
Q 762 -48 678 -48 
Q 595 -48 521 -17 
Q 448 13 395 67 
Q 342 122 312 194 
Q 282 266 282 352 
z
" transform="scale(0.015625)"/>
      </defs>
      <use xlink:href="#Lato-Regular-54"/>
      <use xlink:href="#Lato-Regular-65" transform="translate(59 0)"/>
      <use xlink:href="#Lato-Regular-73" transform="translate(111.400009 0)"/>
      <use xlink:href="#Lato-Regular-74" transform="translate(154.800018 0)"/>
      <use xlink:href="#Lato-Regular-20" transform="translate(192.100021 0)"/>
      <use xlink:href="#Lato-Regular-41" transform="translate(211.400024 0)"/>
      <use xlink:href="#Lato-Regular-63" transform="translate(279.40004 0)"/>
      <use xlink:href="#Lato-Regular-63" transform="translate(326.100037 0)"/>
      <use xlink:href="#Lato-Regular-2e" transform="translate(372.800034 0)"/>
     </g>
    </g>
   </g>
   <g id="line2d_17">
    <path d="M 233.239375 87.87015 
" clip-path="url(#pe863ffa268)" style="fill: none; stroke: #368dff; stroke-width: 1.5; stroke-linecap: round"/>
   </g>
   <g id="line2d_18">
    <path d="M 233.239375 87.87015 
" clip-path="url(#pe863ffa268)" style="fill: none; stroke: #ff6495; stroke-width: 1.5; stroke-linecap: round"/>
   </g>
   <g id="line2d_19">
    <path d="M 233.239375 87.87015 
" clip-path="url(#pe863ffa268)" style="fill: none; stroke: #3dd598; stroke-width: 1.5; stroke-linecap: round"/>
   </g>
   <g id="line2d_20">
    <path d="M 69.584375 87.87015 
L 396.894375 87.87015 
" clip-path="url(#pe863ffa268)" style="fill: none; stroke-dasharray: 1.5,2.475; stroke-dashoffset: 0; stroke: #ffa500; stroke-width: 1.5"/>
   </g>
   <g id="legend_1">
    <g id="line2d_21">
     <path d="M 70.204375 219.790791 
L 82.204375 219.790791 
L 94.204375 219.790791 
" style="fill: none; stroke: #368dff; stroke-width: 1.5; stroke-linecap: round"/>
    </g>
    <g id="text_11">
     <!-- Ascending (Worst First) -->
     <g style="fill: #333333" transform="translate(103.804375 223.990791) scale(0.12 -0.12)">
      <defs>
       <path id="Lato-Light-41" d="M 4080 0 
L 3827 0 
Q 3782 0 3753 24 
Q 3725 48 3709 86 
L 3174 1402 
L 950 1402 
L 419 86 
Q 406 51 374 25 
Q 342 0 298 0 
L 48 0 
L 1901 4528 
L 2227 4528 
L 4080 0 
z
M 1050 1645 
L 3078 1645 
L 2154 3933 
Q 2131 3987 2108 4056 
Q 2086 4125 2064 4202 
Q 2042 4125 2019 4056 
Q 1997 3987 1974 3930 
L 1050 1645 
z
" transform="scale(0.015625)"/>
       <path id="Lato-Light-73" d="M 2272 2790 
Q 2250 2746 2202 2746 
Q 2166 2746 2110 2786 
Q 2054 2826 1963 2875 
Q 1872 2925 1739 2965 
Q 1606 3005 1414 3005 
Q 1242 3005 1099 2955 
Q 957 2906 856 2822 
Q 755 2739 699 2628 
Q 643 2518 643 2397 
Q 643 2246 720 2147 
Q 797 2048 921 1977 
Q 1046 1907 1204 1856 
Q 1363 1805 1529 1753 
Q 1696 1702 1854 1640 
Q 2013 1578 2137 1485 
Q 2262 1392 2339 1257 
Q 2416 1123 2416 931 
Q 2416 723 2341 544 
Q 2266 365 2123 233 
Q 1981 102 1773 25 
Q 1565 -51 1299 -51 
Q 963 -51 720 56 
Q 477 163 285 336 
L 358 445 
Q 374 470 393 483 
Q 413 496 448 496 
Q 490 496 550 445 
Q 611 394 708 334 
Q 806 275 952 224 
Q 1098 173 1312 173 
Q 1514 173 1667 229 
Q 1821 285 1923 381 
Q 2026 477 2078 606 
Q 2131 736 2131 880 
Q 2131 1040 2054 1145 
Q 1978 1251 1853 1324 
Q 1728 1398 1569 1449 
Q 1411 1501 1243 1552 
Q 1075 1603 916 1664 
Q 758 1725 633 1817 
Q 509 1910 432 2043 
Q 355 2176 355 2374 
Q 355 2544 428 2701 
Q 502 2858 638 2976 
Q 774 3094 969 3164 
Q 1165 3235 1408 3235 
Q 1699 3235 1924 3152 
Q 2150 3069 2339 2896 
L 2272 2790 
z
" transform="scale(0.015625)"/>
       <path id="Lato-Light-63" d="M 2614 2758 
Q 2598 2742 2584 2731 
Q 2570 2720 2544 2720 
Q 2512 2720 2456 2763 
Q 2400 2806 2307 2857 
Q 2214 2909 2075 2952 
Q 1936 2995 1738 2995 
Q 1462 2995 1249 2897 
Q 1037 2800 891 2617 
Q 746 2435 669 2176 
Q 592 1917 592 1594 
Q 592 1258 670 998 
Q 749 739 893 561 
Q 1037 384 1241 291 
Q 1446 198 1696 198 
Q 1926 198 2081 252 
Q 2237 307 2337 371 
Q 2438 435 2497 489 
Q 2557 544 2592 544 
Q 2634 544 2656 512 
L 2739 410 
Q 2666 314 2554 230 
Q 2442 147 2301 86 
Q 2160 26 1995 -8 
Q 1830 -42 1651 -42 
Q 1347 -42 1096 68 
Q 845 179 664 388 
Q 483 598 382 902 
Q 282 1206 282 1594 
Q 282 1958 378 2259 
Q 474 2560 658 2777 
Q 842 2995 1109 3115 
Q 1376 3235 1722 3235 
Q 2032 3235 2273 3136 
Q 2515 3037 2694 2867 
L 2614 2758 
z
" transform="scale(0.015625)"/>
       <path id="Lato-Light-65" d="M 1718 3235 
Q 1987 3235 2216 3142 
Q 2445 3050 2613 2872 
Q 2781 2694 2875 2435 
Q 2970 2176 2970 1840 
Q 2970 1770 2949 1744 
Q 2928 1718 2883 1718 
L 582 1718 
L 582 1658 
Q 582 1299 665 1027 
Q 749 755 902 571 
Q 1056 387 1273 294 
Q 1491 202 1760 202 
Q 2000 202 2176 254 
Q 2352 307 2472 372 
Q 2592 438 2662 491 
Q 2733 544 2765 544 
Q 2806 544 2829 512 
L 2912 410 
Q 2835 314 2708 230 
Q 2582 147 2427 88 
Q 2272 29 2094 -6 
Q 1917 -42 1738 -42 
Q 1411 -42 1142 72 
Q 874 186 682 403 
Q 490 621 386 936 
Q 282 1251 282 1658 
Q 282 2000 379 2289 
Q 477 2579 661 2788 
Q 845 2998 1112 3116 
Q 1379 3235 1718 3235 
z
M 1722 3008 
Q 1475 3008 1280 2931 
Q 1085 2854 942 2710 
Q 800 2566 712 2364 
Q 624 2163 595 1914 
L 2694 1914 
Q 2694 2170 2624 2373 
Q 2554 2576 2426 2717 
Q 2298 2858 2118 2933 
Q 1939 3008 1722 3008 
z
" transform="scale(0.015625)"/>
       <path id="Lato-Light-6e" d="M 518 0 
L 518 3184 
L 685 3184 
Q 768 3184 781 3104 
L 810 2624 
Q 1027 2899 1316 3067 
Q 1606 3235 1962 3235 
Q 2224 3235 2424 3152 
Q 2624 3069 2755 2912 
Q 2886 2755 2953 2534 
Q 3021 2314 3021 2035 
L 3021 0 
L 2717 0 
L 2717 2035 
Q 2717 2483 2512 2737 
Q 2307 2992 1885 2992 
Q 1571 2992 1302 2830 
Q 1034 2669 822 2387 
L 822 0 
L 518 0 
z
" transform="scale(0.015625)"/>
       <path id="Lato-Light-64" d="M 2774 0 
Q 2694 0 2682 83 
L 2650 586 
Q 2438 298 2155 128 
Q 1872 -42 1520 -42 
Q 934 -42 606 364 
Q 278 771 278 1584 
Q 278 1933 369 2235 
Q 461 2538 638 2760 
Q 816 2982 1073 3110 
Q 1331 3238 1667 3238 
Q 1990 3238 2227 3118 
Q 2464 2998 2637 2768 
L 2637 4656 
L 2944 4656 
L 2944 0 
L 2774 0 
z
M 1606 205 
Q 1923 205 2179 368 
Q 2435 531 2637 822 
L 2637 2502 
Q 2451 2774 2228 2886 
Q 2006 2998 1725 2998 
Q 1443 2998 1232 2896 
Q 1021 2794 878 2606 
Q 736 2419 664 2158 
Q 592 1898 592 1584 
Q 592 874 854 539 
Q 1117 205 1606 205 
z
" transform="scale(0.015625)"/>
       <path id="Lato-Light-69" d="M 912 3184 
L 912 0 
L 608 0 
L 608 3184 
L 912 3184 
z
M 1046 4282 
Q 1046 4224 1022 4174 
Q 998 4125 960 4086 
Q 922 4048 870 4025 
Q 819 4003 762 4003 
Q 704 4003 653 4025 
Q 602 4048 563 4086 
Q 525 4125 502 4174 
Q 480 4224 480 4282 
Q 480 4339 502 4392 
Q 525 4445 563 4483 
Q 602 4522 653 4544 
Q 704 4566 762 4566 
Q 819 4566 870 4544 
Q 922 4522 960 4483 
Q 998 4445 1022 4392 
Q 1046 4339 1046 4282 
z
" transform="scale(0.015625)"/>
       <path id="Lato-Light-67" d="M 1568 3238 
Q 1776 3238 1953 3187 
Q 2131 3136 2272 3043 
L 3088 3043 
L 3088 2938 
Q 3088 2858 2998 2851 
L 2515 2816 
Q 2605 2694 2653 2542 
Q 2701 2390 2701 2218 
Q 2701 1987 2617 1800 
Q 2534 1613 2385 1480 
Q 2237 1347 2029 1273 
Q 1821 1200 1568 1200 
Q 1293 1200 1069 1283 
Q 934 1206 857 1100 
Q 781 995 781 896 
Q 781 758 877 684 
Q 973 611 1131 577 
Q 1290 544 1493 534 
Q 1696 525 1905 513 
Q 2115 502 2318 473 
Q 2522 445 2680 373 
Q 2838 301 2934 171 
Q 3030 42 3030 -173 
Q 3030 -371 2931 -553 
Q 2832 -736 2645 -877 
Q 2458 -1018 2192 -1102 
Q 1926 -1187 1597 -1187 
Q 1261 -1187 1008 -1118 
Q 755 -1050 584 -933 
Q 413 -816 326 -662 
Q 240 -509 240 -336 
Q 240 -83 406 99 
Q 573 282 864 381 
Q 704 435 609 537 
Q 515 640 515 822 
Q 515 890 540 963 
Q 566 1037 617 1109 
Q 669 1181 741 1245 
Q 813 1309 909 1360 
Q 682 1491 555 1708 
Q 429 1926 429 2218 
Q 429 2448 510 2635 
Q 592 2822 741 2956 
Q 890 3091 1101 3164 
Q 1312 3238 1568 3238 
z
M 2749 -214 
Q 2749 -64 2670 27 
Q 2592 118 2461 169 
Q 2330 221 2158 241 
Q 1987 262 1800 272 
Q 1613 282 1424 291 
Q 1235 301 1072 330 
Q 950 282 846 219 
Q 742 157 668 78 
Q 595 0 553 -94 
Q 512 -189 512 -301 
Q 512 -442 584 -562 
Q 656 -682 795 -770 
Q 934 -858 1136 -909 
Q 1338 -960 1600 -960 
Q 1843 -960 2052 -905 
Q 2262 -851 2417 -752 
Q 2573 -653 2661 -515 
Q 2749 -378 2749 -214 
z
M 1568 1408 
Q 1773 1408 1933 1467 
Q 2093 1526 2201 1632 
Q 2310 1738 2366 1885 
Q 2422 2032 2422 2211 
Q 2422 2390 2364 2539 
Q 2307 2688 2196 2793 
Q 2086 2899 1928 2956 
Q 1770 3014 1568 3014 
Q 1366 3014 1206 2956 
Q 1046 2899 936 2793 
Q 826 2688 768 2539 
Q 710 2390 710 2211 
Q 710 2032 768 1885 
Q 826 1738 936 1632 
Q 1046 1526 1206 1467 
Q 1366 1408 1568 1408 
z
" transform="scale(0.015625)"/>
       <path id="Lato-Light-20" transform="scale(0.015625)"/>
       <path id="Lato-Light-28" d="M 810 2016 
Q 810 1299 1003 641 
Q 1197 -16 1581 -627 
Q 1603 -662 1603 -694 
Q 1603 -742 1558 -765 
L 1424 -848 
Q 1178 -470 1010 -116 
Q 842 237 739 587 
Q 637 938 590 1290 
Q 544 1642 544 2016 
Q 544 2390 590 2744 
Q 637 3098 739 3448 
Q 842 3798 1010 4152 
Q 1178 4506 1424 4883 
L 1558 4800 
Q 1600 4778 1600 4733 
Q 1600 4701 1578 4666 
Q 1197 4051 1003 3393 
Q 810 2736 810 2016 
z
" transform="scale(0.015625)"/>
       <path id="Lato-Light-57" d="M 54 4528 
L 326 4528 
Q 419 4528 445 4442 
L 1587 720 
Q 1606 656 1620 582 
Q 1635 509 1651 429 
Q 1667 509 1683 582 
Q 1699 656 1722 720 
L 3002 4442 
Q 3014 4477 3046 4502 
Q 3078 4528 3123 4528 
L 3213 4528 
Q 3258 4528 3286 4504 
Q 3315 4480 3331 4442 
L 4611 720 
Q 4634 656 4651 585 
Q 4669 515 4685 435 
Q 4701 512 4713 584 
Q 4726 656 4746 720 
L 5888 4442 
Q 5898 4477 5931 4502 
Q 5965 4528 6010 4528 
L 6259 4528 
L 4835 0 
L 4541 0 
L 3203 3930 
Q 3178 4006 3158 4093 
Q 3139 4006 3114 3930 
L 1773 0 
L 1482 0 
L 54 4528 
z
" transform="scale(0.015625)"/>
       <path id="Lato-Light-6f" d="M 1731 3235 
Q 2074 3235 2344 3118 
Q 2614 3002 2800 2787 
Q 2986 2573 3083 2270 
Q 3181 1968 3181 1594 
Q 3181 1219 3083 918 
Q 2986 618 2800 403 
Q 2614 189 2344 73 
Q 2074 -42 1731 -42 
Q 1389 -42 1118 73 
Q 848 189 661 403 
Q 474 618 376 918 
Q 278 1219 278 1594 
Q 278 1968 376 2270 
Q 474 2573 661 2787 
Q 848 3002 1118 3118 
Q 1389 3235 1731 3235 
z
M 1731 198 
Q 2016 198 2229 296 
Q 2442 394 2584 576 
Q 2726 758 2796 1016 
Q 2867 1274 2867 1594 
Q 2867 1910 2796 2169 
Q 2726 2429 2584 2613 
Q 2442 2797 2229 2896 
Q 2016 2995 1731 2995 
Q 1446 2995 1233 2896 
Q 1021 2797 878 2613 
Q 736 2429 664 2169 
Q 592 1910 592 1594 
Q 592 1274 664 1016 
Q 736 758 878 576 
Q 1021 394 1233 296 
Q 1446 198 1731 198 
z
" transform="scale(0.015625)"/>
       <path id="Lato-Light-72" d="M 518 0 
L 518 3184 
L 678 3184 
Q 733 3184 757 3161 
Q 781 3139 784 3085 
L 810 2413 
Q 963 2800 1219 3019 
Q 1475 3238 1850 3238 
Q 1994 3238 2115 3208 
Q 2237 3178 2346 3120 
L 2304 2909 
Q 2294 2858 2240 2858 
Q 2221 2858 2185 2870 
Q 2150 2883 2097 2899 
Q 2045 2915 1968 2928 
Q 1891 2941 1792 2941 
Q 1430 2941 1198 2717 
Q 966 2493 822 2070 
L 822 0 
L 518 0 
z
" transform="scale(0.015625)"/>
       <path id="Lato-Light-74" d="M 1389 -51 
Q 1066 -51 885 128 
Q 704 307 704 682 
L 704 2858 
L 246 2858 
Q 211 2858 188 2877 
Q 166 2896 166 2931 
L 166 3050 
L 710 3088 
L 787 4227 
Q 790 4256 811 4278 
Q 832 4301 867 4301 
L 1011 4301 
L 1011 3085 
L 2013 3085 
L 2013 2858 
L 1011 2858 
L 1011 698 
Q 1011 566 1044 472 
Q 1078 378 1137 317 
Q 1197 256 1277 227 
Q 1357 198 1450 198 
Q 1565 198 1648 232 
Q 1731 266 1792 306 
Q 1853 346 1891 379 
Q 1930 413 1952 413 
Q 1978 413 2003 381 
L 2086 246 
Q 1965 112 1777 30 
Q 1590 -51 1389 -51 
z
" transform="scale(0.015625)"/>
       <path id="Lato-Light-46" d="M 3386 4528 
L 3386 4256 
L 1002 4256 
L 1002 2352 
L 3066 2352 
L 3066 2080 
L 1002 2080 
L 1002 0 
L 672 0 
L 672 4528 
L 3386 4528 
z
" transform="scale(0.015625)"/>
       <path id="Lato-Light-29" d="M 1107 2016 
Q 1107 2736 913 3393 
Q 720 4051 339 4666 
Q 317 4701 317 4733 
Q 317 4778 358 4800 
L 493 4883 
Q 736 4506 905 4152 
Q 1075 3798 1177 3448 
Q 1280 3098 1326 2744 
Q 1373 2390 1373 2016 
Q 1373 1642 1326 1290 
Q 1280 938 1177 587 
Q 1075 237 905 -116 
Q 736 -470 493 -848 
L 358 -765 
Q 314 -742 314 -694 
Q 314 -662 336 -627 
Q 720 -16 913 641 
Q 1107 1299 1107 2016 
z
" transform="scale(0.015625)"/>
      </defs>
      <use xlink:href="#Lato-Light-41"/>
      <use xlink:href="#Lato-Light-73" transform="translate(64.450012 0)"/>
      <use xlink:href="#Lato-Light-63" transform="translate(107.450012 0)"/>
      <use xlink:href="#Lato-Light-65" transform="translate(152.950012 0)"/>
      <use xlink:href="#Lato-Light-6e" transform="translate(204.050018 0)"/>
      <use xlink:href="#Lato-Light-64" transform="translate(258.150024 0)"/>
      <use xlink:href="#Lato-Light-69" transform="translate(312.750031 0)"/>
      <use xlink:href="#Lato-Light-6e" transform="translate(336.500031 0)"/>
      <use xlink:href="#Lato-Light-67" transform="translate(390.600037 0)"/>
      <use xlink:href="#Lato-Light-20" transform="translate(441.050049 0)"/>
      <use xlink:href="#Lato-Light-28" transform="translate(460.350052 0)"/>
      <use xlink:href="#Lato-Light-57" transform="translate(490.350052 0)"/>
      <use xlink:href="#Lato-Light-6f" transform="translate(589.050064 0)"/>
      <use xlink:href="#Lato-Light-72" transform="translate(643.15007 0)"/>
      <use xlink:href="#Lato-Light-73" transform="translate(682.850067 0)"/>
      <use xlink:href="#Lato-Light-74" transform="translate(725.850067 0)"/>
      <use xlink:href="#Lato-Light-20" transform="translate(761.500076 0)"/>
      <use xlink:href="#Lato-Light-46" transform="translate(780.800079 0)"/>
      <use xlink:href="#Lato-Light-69" transform="translate(838.000092 0)"/>
      <use xlink:href="#Lato-Light-72" transform="translate(861.750092 0)"/>
      <use xlink:href="#Lato-Light-73" transform="translate(901.450089 0)"/>
      <use xlink:href="#Lato-Light-74" transform="translate(944.450089 0)"/>
      <use xlink:href="#Lato-Light-29" transform="translate(980.100098 0)"/>
     </g>
    </g>
    <g id="line2d_22">
     <path d="M 70.204375 237.172041 
L 82.204375 237.172041 
L 94.204375 237.172041 
" style="fill: none; stroke: #ff6495; stroke-width: 1.5; stroke-linecap: round"/>
    </g>
    <g id="text_12">
     <!-- Descending (Best First) -->
     <g style="fill: #333333" transform="translate(103.804375 241.372041) scale(0.12 -0.12)">
      <defs>
       <path id="Lato-Light-44" d="M 4483 2266 
Q 4483 1741 4326 1321 
Q 4170 902 3885 608 
Q 3600 314 3203 157 
Q 2806 0 2323 0 
L 672 0 
L 672 4528 
L 2323 4528 
Q 2806 4528 3203 4371 
Q 3600 4214 3885 3920 
Q 4170 3626 4326 3206 
Q 4483 2787 4483 2266 
z
M 4144 2266 
Q 4144 2739 4013 3110 
Q 3882 3482 3643 3738 
Q 3405 3994 3069 4128 
Q 2733 4262 2323 4262 
L 1002 4262 
L 1002 266 
L 2323 266 
Q 2733 266 3069 400 
Q 3405 534 3643 790 
Q 3882 1046 4013 1417 
Q 4144 1789 4144 2266 
z
" transform="scale(0.015625)"/>
       <path id="Lato-Light-42" d="M 672 0 
L 672 4528 
L 1974 4528 
Q 2362 4528 2645 4451 
Q 2928 4374 3113 4225 
Q 3299 4077 3390 3862 
Q 3482 3648 3482 3376 
Q 3482 3197 3419 3030 
Q 3357 2864 3238 2723 
Q 3120 2582 2949 2478 
Q 2778 2374 2557 2320 
Q 3091 2240 3379 1965 
Q 3667 1690 3667 1238 
Q 3667 950 3564 720 
Q 3462 490 3267 330 
Q 3072 170 2787 85 
Q 2502 0 2141 0 
L 672 0 
z
M 998 2170 
L 998 262 
L 2134 262 
Q 2733 262 3037 520 
Q 3341 778 3341 1245 
Q 3341 1459 3259 1630 
Q 3178 1802 3024 1922 
Q 2870 2042 2646 2106 
Q 2422 2170 2138 2170 
L 998 2170 
z
M 998 2410 
L 1981 2410 
Q 2294 2410 2516 2490 
Q 2739 2570 2881 2701 
Q 3024 2832 3091 2998 
Q 3158 3165 3158 3341 
Q 3158 3798 2868 4033 
Q 2579 4269 1974 4269 
L 998 4269 
L 998 2410 
z
" transform="scale(0.015625)"/>
      </defs>
      <use xlink:href="#Lato-Light-44"/>
      <use xlink:href="#Lato-Light-65" transform="translate(76.000015 0)"/>
      <use xlink:href="#Lato-Light-73" transform="translate(127.100021 0)"/>
      <use xlink:href="#Lato-Light-63" transform="translate(170.100021 0)"/>
      <use xlink:href="#Lato-Light-65" transform="translate(215.600021 0)"/>
      <use xlink:href="#Lato-Light-6e" transform="translate(266.700027 0)"/>
      <use xlink:href="#Lato-Light-64" transform="translate(320.800034 0)"/>
      <use xlink:href="#Lato-Light-69" transform="translate(375.40004 0)"/>
      <use xlink:href="#Lato-Light-6e" transform="translate(399.15004 0)"/>
      <use xlink:href="#Lato-Light-67" transform="translate(453.250046 0)"/>
      <use xlink:href="#Lato-Light-20" transform="translate(503.700058 0)"/>
      <use xlink:href="#Lato-Light-28" transform="translate(523.000061 0)"/>
      <use xlink:href="#Lato-Light-42" transform="translate(553.000061 0)"/>
      <use xlink:href="#Lato-Light-65" transform="translate(617.100067 0)"/>
      <use xlink:href="#Lato-Light-73" transform="translate(668.200073 0)"/>
      <use xlink:href="#Lato-Light-74" transform="translate(711.200073 0)"/>
      <use xlink:href="#Lato-Light-20" transform="translate(746.850082 0)"/>
      <use xlink:href="#Lato-Light-46" transform="translate(766.150085 0)"/>
      <use xlink:href="#Lato-Light-69" transform="translate(823.350098 0)"/>
      <use xlink:href="#Lato-Light-72" transform="translate(847.100098 0)"/>
      <use xlink:href="#Lato-Light-73" transform="translate(886.800095 0)"/>
      <use xlink:href="#Lato-Light-74" transform="translate(929.800095 0)"/>
      <use xlink:href="#Lato-Light-29" transform="translate(965.450104 0)"/>
     </g>
    </g>
    <g id="line2d_23">
     <path d="M 249.015625 219.790791 
L 261.015625 219.790791 
L 273.015625 219.790791 
" style="fill: none; stroke: #3dd598; stroke-width: 1.5; stroke-linecap: round"/>
    </g>
    <g id="text_13">
     <!-- Original Order -->
     <g style="fill: #333333" transform="translate(282.615625 223.990791) scale(0.12 -0.12)">
      <defs>
       <path id="Lato-Light-4f" d="M 4710 2266 
Q 4710 1741 4553 1313 
Q 4397 886 4112 584 
Q 3827 282 3430 117 
Q 3034 -48 2550 -48 
Q 2074 -48 1677 117 
Q 1280 282 995 584 
Q 710 886 552 1313 
Q 394 1741 394 2266 
Q 394 2787 552 3214 
Q 710 3642 995 3944 
Q 1280 4246 1677 4412 
Q 2074 4579 2550 4579 
Q 3034 4579 3430 4414 
Q 3827 4250 4112 3946 
Q 4397 3642 4553 3214 
Q 4710 2787 4710 2266 
z
M 4371 2266 
Q 4371 2739 4240 3116 
Q 4109 3494 3870 3756 
Q 3632 4019 3296 4158 
Q 2960 4298 2550 4298 
Q 2147 4298 1812 4158 
Q 1478 4019 1236 3756 
Q 995 3494 862 3116 
Q 730 2739 730 2266 
Q 730 1789 862 1413 
Q 995 1037 1236 774 
Q 1478 512 1812 374 
Q 2147 237 2550 237 
Q 2960 237 3296 374 
Q 3632 512 3870 774 
Q 4109 1037 4240 1413 
Q 4371 1789 4371 2266 
z
" transform="scale(0.015625)"/>
       <path id="Lato-Light-61" d="M 2550 0 
Q 2454 0 2432 90 
L 2387 496 
Q 2256 368 2126 265 
Q 1997 163 1856 92 
Q 1715 22 1552 -14 
Q 1389 -51 1194 -51 
Q 1030 -51 876 -3 
Q 723 45 604 144 
Q 486 243 414 398 
Q 342 554 342 771 
Q 342 973 457 1145 
Q 573 1318 817 1446 
Q 1062 1574 1448 1651 
Q 1834 1728 2374 1741 
L 2374 2074 
Q 2374 2515 2184 2753 
Q 1994 2992 1619 2992 
Q 1389 2992 1227 2928 
Q 1066 2864 954 2787 
Q 842 2710 771 2646 
Q 701 2582 653 2582 
Q 589 2582 557 2640 
L 502 2733 
Q 752 2982 1027 3110 
Q 1302 3238 1651 3238 
Q 1907 3238 2099 3156 
Q 2291 3075 2417 2923 
Q 2544 2771 2608 2555 
Q 2672 2339 2672 2074 
L 2672 0 
L 2550 0 
z
M 1270 170 
Q 1456 170 1611 210 
Q 1766 250 1899 322 
Q 2032 394 2147 493 
Q 2262 592 2374 707 
L 2374 1536 
Q 1920 1523 1592 1467 
Q 1264 1411 1051 1315 
Q 838 1219 737 1086 
Q 637 954 637 784 
Q 637 624 689 507 
Q 742 390 828 315 
Q 915 240 1030 205 
Q 1146 170 1270 170 
z
" transform="scale(0.015625)"/>
       <path id="Lato-Light-6c" d="M 912 4656 
L 912 0 
L 608 0 
L 608 4656 
L 912 4656 
z
" transform="scale(0.015625)"/>
      </defs>
      <use xlink:href="#Lato-Light-4f"/>
      <use xlink:href="#Lato-Light-72" transform="translate(79.750015 0)"/>
      <use xlink:href="#Lato-Light-69" transform="translate(119.450012 0)"/>
      <use xlink:href="#Lato-Light-67" transform="translate(143.200012 0)"/>
      <use xlink:href="#Lato-Light-69" transform="translate(193.650024 0)"/>
      <use xlink:href="#Lato-Light-6e" transform="translate(217.400024 0)"/>
      <use xlink:href="#Lato-Light-61" transform="translate(271.500031 0)"/>
      <use xlink:href="#Lato-Light-6c" transform="translate(320.15004 0)"/>
      <use xlink:href="#Lato-Light-20" transform="translate(343.90004 0)"/>
      <use xlink:href="#Lato-Light-4f" transform="translate(363.200043 0)"/>
      <use xlink:href="#Lato-Light-72" transform="translate(442.950058 0)"/>
      <use xlink:href="#Lato-Light-64" transform="translate(482.650055 0)"/>
      <use xlink:href="#Lato-Light-65" transform="translate(537.250061 0)"/>
      <use xlink:href="#Lato-Light-72" transform="translate(588.350067 0)"/>
     </g>
    </g>
    <g id="line2d_24">
     <path d="M 249.015625 236.746416 
L 261.015625 236.746416 
L 273.015625 236.746416 
" style="fill: none; stroke-dasharray: 1.5,2.475; stroke-dashoffset: 0; stroke: #ffa500; stroke-width: 1.5"/>
    </g>
    <g id="text_14">
     <!-- Full Ensemble: 0.1294 -->
     <g style="fill: #333333" transform="translate(282.615625 240.946416) scale(0.12 -0.12)">
      <defs>
       <path id="Lato-Light-75" d="M 746 3184 
L 746 1149 
Q 746 701 950 446 
Q 1155 192 1574 192 
Q 1885 192 2153 350 
Q 2422 509 2637 790 
L 2637 3184 
L 2944 3184 
L 2944 0 
L 2774 0 
Q 2685 0 2682 83 
L 2653 557 
Q 2432 282 2142 115 
Q 1853 -51 1498 -51 
Q 1232 -51 1033 32 
Q 835 115 704 272 
Q 573 429 505 649 
Q 438 870 438 1149 
L 438 3184 
L 746 3184 
z
" transform="scale(0.015625)"/>
       <path id="Lato-Light-45" d="M 3386 4528 
L 3386 4256 
L 1002 4256 
L 1002 2426 
L 2986 2426 
L 2986 2160 
L 1002 2160 
L 1002 272 
L 3386 272 
L 3386 0 
L 672 0 
L 672 4528 
L 3386 4528 
z
" transform="scale(0.015625)"/>
       <path id="Lato-Light-6d" d="M 518 0 
L 518 3184 
L 685 3184 
Q 768 3184 781 3104 
L 810 2643 
Q 902 2774 1008 2883 
Q 1114 2992 1234 3070 
Q 1354 3149 1490 3192 
Q 1626 3235 1776 3235 
Q 2125 3235 2333 3032 
Q 2541 2829 2614 2467 
Q 2672 2666 2776 2810 
Q 2880 2954 3014 3048 
Q 3149 3142 3307 3188 
Q 3466 3235 3632 3235 
Q 3869 3235 4057 3156 
Q 4246 3078 4379 2924 
Q 4512 2771 4582 2547 
Q 4653 2323 4653 2035 
L 4653 0 
L 4346 0 
L 4346 2035 
Q 4346 2502 4144 2747 
Q 3942 2992 3568 2992 
Q 3402 2992 3250 2931 
Q 3098 2870 2981 2750 
Q 2864 2630 2795 2451 
Q 2726 2272 2726 2035 
L 2726 0 
L 2422 0 
L 2422 2035 
Q 2422 2499 2236 2745 
Q 2051 2992 1696 2992 
Q 1437 2992 1216 2837 
Q 995 2682 822 2406 
L 822 0 
L 518 0 
z
" transform="scale(0.015625)"/>
       <path id="Lato-Light-62" d="M 550 0 
L 550 4656 
L 858 4656 
L 858 2627 
Q 1069 2909 1347 3072 
Q 1626 3235 1974 3235 
Q 2560 3235 2888 2830 
Q 3216 2426 3216 1613 
Q 3216 1264 3125 961 
Q 3034 659 2856 436 
Q 2678 214 2420 86 
Q 2163 -42 1827 -42 
Q 1494 -42 1254 88 
Q 1014 218 842 470 
L 822 80 
Q 813 0 736 0 
L 550 0 
z
M 1888 2992 
Q 1571 2992 1315 2829 
Q 1059 2666 858 2374 
L 858 694 
Q 1040 419 1261 308 
Q 1482 198 1770 198 
Q 2051 198 2262 300 
Q 2474 403 2616 590 
Q 2758 778 2830 1038 
Q 2902 1299 2902 1613 
Q 2902 2323 2640 2657 
Q 2378 2992 1888 2992 
z
" transform="scale(0.015625)"/>
       <path id="Lato-Light-3a" d="M 464 246 
Q 464 307 486 361 
Q 509 416 549 456 
Q 589 496 641 520 
Q 694 544 758 544 
Q 819 544 873 520 
Q 928 496 968 456 
Q 1008 416 1032 361 
Q 1056 307 1056 246 
Q 1056 182 1032 129 
Q 1008 77 968 37 
Q 928 -3 873 -25 
Q 819 -48 758 -48 
Q 634 -48 549 37 
Q 464 122 464 246 
z
M 464 2797 
Q 464 2858 486 2912 
Q 509 2966 549 3006 
Q 589 3046 641 3070 
Q 694 3094 758 3094 
Q 819 3094 873 3070 
Q 928 3046 968 3006 
Q 1008 2966 1032 2912 
Q 1056 2858 1056 2797 
Q 1056 2733 1032 2680 
Q 1008 2627 968 2587 
Q 928 2547 873 2524 
Q 819 2502 758 2502 
Q 634 2502 549 2587 
Q 464 2672 464 2797 
z
" transform="scale(0.015625)"/>
      </defs>
      <use xlink:href="#Lato-Light-46"/>
      <use xlink:href="#Lato-Light-75" transform="translate(57.200012 0)"/>
      <use xlink:href="#Lato-Light-6c" transform="translate(111.300018 0)"/>
      <use xlink:href="#Lato-Light-6c" transform="translate(135.050018 0)"/>
      <use xlink:href="#Lato-Light-20" transform="translate(158.800018 0)"/>
      <use xlink:href="#Lato-Light-45" transform="translate(178.100021 0)"/>
      <use xlink:href="#Lato-Light-6e" transform="translate(237.200027 0)"/>
      <use xlink:href="#Lato-Light-73" transform="translate(291.300034 0)"/>
      <use xlink:href="#Lato-Light-65" transform="translate(334.300034 0)"/>
      <use xlink:href="#Lato-Light-6d" transform="translate(385.40004 0)"/>
      <use xlink:href="#Lato-Light-62" transform="translate(464.950058 0)"/>
      <use xlink:href="#Lato-Light-6c" transform="translate(519.550064 0)"/>
      <use xlink:href="#Lato-Light-65" transform="translate(543.300064 0)"/>
      <use xlink:href="#Lato-Light-3a" transform="translate(594.40007 0)"/>
      <use xlink:href="#Lato-Light-20" transform="translate(618.15007 0)"/>
      <use xlink:href="#Lato-Light-30" transform="translate(637.450073 0)"/>
      <use xlink:href="#Lato-Light-2e" transform="translate(695.450073 0)"/>
      <use xlink:href="#Lato-Light-31" transform="translate(715.200073 0)"/>
      <use xlink:href="#Lato-Light-32" transform="translate(773.200073 0)"/>
      <use xlink:href="#Lato-Light-39" transform="translate(831.200073 0)"/>
      <use xlink:href="#Lato-Light-34" transform="translate(889.200073 0)"/>
     </g>
    </g>
   </g>
  </g>
 </g>
 <defs>
  <clipPath id="pe863ffa268">
   <rect x="69.584375" y="7.2" width="327.31" height="161.3403"/>
  </clipPath>
 </defs>
</svg>
