<?xml version="1.0" encoding="utf-8" standalone="no"?>
<!DOCTYPE svg PUBLIC "-//W3C//DTD SVG 1.1//EN"
  "http://www.w3.org/Graphics/SVG/1.1/DTD/svg11.dtd">
<svg xmlns:xlink="http://www.w3.org/1999/xlink" width="233.128437pt" height="213.039063pt" viewBox="0 0 233.128437 213.039063" xmlns="http://www.w3.org/2000/svg" version="1.1">
 <metadata>
  <rdf:RDF xmlns:dc="http://purl.org/dc/elements/1.1/" xmlns:cc="http://creativecommons.org/ns#" xmlns:rdf="http://www.w3.org/1999/02/22-rdf-syntax-ns#">
   <cc:Work>
    <dc:type rdf:resource="http://purl.org/dc/dcmitype/StillImage"/>
    <dc:date>2026-02-09T02:32:31.962034</dc:date>
    <dc:format>image/svg+xml</dc:format>
    <dc:creator>
     <cc:Agent>
      <dc:title>Matplotlib v3.10.7, https://matplotlib.org/</dc:title>
     </cc:Agent>
    </dc:creator>
   </cc:Work>
  </rdf:RDF>
 </metadata>
 <defs>
  <style type="text/css">*{stroke-linejoin: round; stroke-linecap: butt}</style>
 </defs>
 <g id="figure_1">
  <g id="patch_1">
   <path d="M -0 213.039063 
L 233.128437 213.039063 
L 233.128437 0 
L -0 0 
z
" style="fill: #ffffff"/>
  </g>
  <g id="axes_1">
   <g id="patch_2">
    <path d="M 58.528438 173.52 
L 225.928438 173.52 
L 225.928438 7.2 
L 58.528438 7.2 
z
" style="fill: #ffffff"/>
   </g>
   <g id="QuadMesh_1">
    <path d="M 58.528438 7.2 
L 100.378438 7.2 
L 100.378438 48.78 
L 58.528438 48.78 
L 58.528438 7.2 
" clip-path="url(#pd0c7e6128d)" style="fill: #125da6"/>
    <path d="M 100.378438 7.2 
L 142.228438 7.2 
L 142.228438 48.78 
L 100.378438 48.78 
L 100.378438 7.2 
" clip-path="url(#pd0c7e6128d)" style="fill: #0c56a0"/>
    <path d="M 142.228438 7.2 
L 184.078438 7.2 
L 184.078438 48.78 
L 142.228438 48.78 
L 142.228438 7.2 
" clip-path="url(#pd0c7e6128d)" style="fill: #4d99ca"/>
    <path d="M 184.078438 7.2 
L 225.928438 7.2 
L 225.928438 48.78 
L 184.078438 48.78 
L 184.078438 7.2 
" clip-path="url(#pd0c7e6128d)" style="fill: #68acd5"/>
    <path d="M 58.528438 48.78 
L 100.378438 48.78 
L 100.378438 90.36 
L 58.528438 90.36 
L 58.528438 48.78 
" clip-path="url(#pd0c7e6128d)" style="fill: #125da6"/>
    <path d="M 100.378438 48.78 
L 142.228438 48.78 
L 142.228438 90.36 
L 100.378438 90.36 
L 100.378438 48.78 
" clip-path="url(#pd0c7e6128d)" style="fill: #0c56a0"/>
    <path d="M 142.228438 48.78 
L 184.078438 48.78 
L 184.078438 90.36 
L 142.228438 90.36 
L 142.228438 48.78 
" clip-path="url(#pd0c7e6128d)" style="fill: #4292c6"/>
    <path d="M 184.078438 48.78 
L 225.928438 48.78 
L 225.928438 90.36 
L 184.078438 90.36 
L 184.078438 48.78 
" clip-path="url(#pd0c7e6128d)" style="fill: #64a9d3"/>
    <path d="M 58.528438 90.36 
L 100.378438 90.36 
L 100.378438 131.94 
L 58.528438 131.94 
L 58.528438 90.36 
" clip-path="url(#pd0c7e6128d)" style="fill: #125ea6"/>
    <path d="M 100.378438 90.36 
L 142.228438 90.36 
L 142.228438 131.94 
L 100.378438 131.94 
L 100.378438 90.36 
" clip-path="url(#pd0c7e6128d)" style="fill: #084b93"/>
    <path d="M 142.228438 90.36 
L 184.078438 90.36 
L 184.078438 131.94 
L 142.228438 131.94 
L 142.228438 90.36 
" clip-path="url(#pd0c7e6128d)" style="fill: #3686c0"/>
    <path d="M 184.078438 90.36 
L 225.928438 90.36 
L 225.928438 131.94 
L 184.078438 131.94 
L 184.078438 90.36 
" clip-path="url(#pd0c7e6128d)" style="fill: #5aa2cf"/>
    <path d="M 58.528438 131.94 
L 100.378438 131.94 
L 100.378438 173.52 
L 58.528438 173.52 
L 58.528438 131.94 
" clip-path="url(#pd0c7e6128d)" style="fill: #0a549e"/>
    <path d="M 100.378438 131.94 
L 142.228438 131.94 
L 142.228438 173.52 
L 100.378438 173.52 
L 100.378438 131.94 
" clip-path="url(#pd0c7e6128d)" style="fill: #08306b"/>
    <path d="M 142.228438 131.94 
L 184.078438 131.94 
L 184.078438 173.52 
L 142.228438 173.52 
L 142.228438 131.94 
" clip-path="url(#pd0c7e6128d)" style="fill: #d5e5f4"/>
    <path d="M 184.078438 131.94 
L 225.928438 131.94 
L 225.928438 173.52 
L 184.078438 173.52 
L 184.078438 131.94 
" clip-path="url(#pd0c7e6128d)" style="fill: #f7fbff"/>
   </g>
   <g id="matplotlib.axis_1">
    <g id="xtick_1">
     <g id="line2d_1"/>
     <g id="text_1">
      <!-- 0.0005 -->
      <g style="fill: #333333" transform="translate(62.219531 188.5225) scale(0.11 -0.11)">
       <defs>
        <path id="Lato-Light-30" d="M 3478 2266 
Q 3478 1670 3350 1235 
Q 3222 800 3001 515 
Q 2781 230 2485 91 
Q 2189 -48 1853 -48 
Q 1517 -48 1222 91 
Q 928 230 707 515 
Q 486 800 360 1235 
Q 234 1670 234 2266 
Q 234 2861 360 3296 
Q 486 3731 707 4016 
Q 928 4301 1222 4440 
Q 1517 4579 1853 4579 
Q 2189 4579 2485 4440 
Q 2781 4301 3001 4016 
Q 3222 3731 3350 3296 
Q 3478 2861 3478 2266 
z
M 3158 2266 
Q 3158 2816 3052 3206 
Q 2947 3597 2769 3845 
Q 2592 4093 2353 4208 
Q 2115 4323 1853 4323 
Q 1590 4323 1353 4208 
Q 1117 4093 937 3845 
Q 758 3597 652 3206 
Q 547 2816 547 2266 
Q 547 1712 652 1323 
Q 758 934 937 686 
Q 1117 438 1353 324 
Q 1590 211 1853 211 
Q 2115 211 2353 324 
Q 2592 438 2769 686 
Q 2947 934 3052 1323 
Q 3158 1712 3158 2266 
z
" transform="scale(0.015625)"/>
        <path id="Lato-Light-2e" d="M 451 246 
Q 451 307 473 361 
Q 496 416 536 456 
Q 576 496 629 520 
Q 682 544 746 544 
Q 806 544 860 520 
Q 915 496 955 456 
Q 995 416 1019 361 
Q 1043 307 1043 246 
Q 1043 182 1019 129 
Q 995 77 955 37 
Q 915 -3 860 -25 
Q 806 -48 746 -48 
Q 621 -48 536 37 
Q 451 122 451 246 
z
" transform="scale(0.015625)"/>
        <path id="Lato-Light-35" d="M 3078 4397 
Q 3078 4333 3035 4289 
Q 2992 4246 2899 4246 
L 1261 4246 
L 989 2736 
Q 1203 2790 1395 2814 
Q 1587 2838 1760 2838 
Q 2115 2838 2384 2737 
Q 2653 2637 2833 2456 
Q 3014 2275 3105 2025 
Q 3197 1776 3197 1482 
Q 3197 1123 3073 840 
Q 2950 557 2736 358 
Q 2522 160 2237 54 
Q 1952 -51 1632 -51 
Q 1446 -51 1275 -17 
Q 1104 16 955 72 
Q 806 128 680 201 
Q 554 275 458 352 
L 550 477 
Q 579 525 640 525 
Q 682 525 760 477 
Q 838 429 961 371 
Q 1085 314 1254 266 
Q 1424 218 1648 218 
Q 1910 218 2137 302 
Q 2365 387 2531 547 
Q 2698 707 2792 942 
Q 2886 1178 2886 1475 
Q 2886 1718 2814 1923 
Q 2742 2128 2596 2273 
Q 2451 2419 2228 2500 
Q 2006 2582 1706 2582 
Q 1523 2582 1318 2553 
Q 1114 2525 883 2461 
L 688 2522 
L 1040 4528 
L 3078 4528 
L 3078 4397 
z
" transform="scale(0.015625)"/>
       </defs>
       <use xlink:href="#Lato-Light-30"/>
       <use xlink:href="#Lato-Light-2e" transform="translate(58 0)"/>
       <use xlink:href="#Lato-Light-30" transform="translate(81.350006 0)"/>
       <use xlink:href="#Lato-Light-30" transform="translate(139.350006 0)"/>
       <use xlink:href="#Lato-Light-30" transform="translate(197.350006 0)"/>
       <use xlink:href="#Lato-Light-35" transform="translate(255.350006 0)"/>
      </g>
     </g>
    </g>
    <g id="xtick_2">
     <g id="line2d_2"/>
     <g id="text_2">
      <!-- 0.005 -->
      <g style="fill: #333333" transform="translate(107.259531 188.5225) scale(0.11 -0.11)">
       <use xlink:href="#Lato-Light-30"/>
       <use xlink:href="#Lato-Light-2e" transform="translate(58 0)"/>
       <use xlink:href="#Lato-Light-30" transform="translate(81.350006 0)"/>
       <use xlink:href="#Lato-Light-30" transform="translate(139.350006 0)"/>
       <use xlink:href="#Lato-Light-35" transform="translate(197.350006 0)"/>
      </g>
     </g>
    </g>
    <g id="xtick_3">
     <g id="line2d_3"/>
     <g id="text_3">
      <!-- 0.05 -->
      <g style="fill: #333333" transform="translate(152.299531 188.5225) scale(0.11 -0.11)">
       <use xlink:href="#Lato-Light-30"/>
       <use xlink:href="#Lato-Light-2e" transform="translate(58 0)"/>
       <use xlink:href="#Lato-Light-30" transform="translate(81.350006 0)"/>
       <use xlink:href="#Lato-Light-35" transform="translate(139.350006 0)"/>
      </g>
     </g>
    </g>
    <g id="xtick_4">
     <g id="line2d_4"/>
     <g id="text_4">
      <!-- 0.5 -->
      <g style="fill: #333333" transform="translate(197.339531 188.5225) scale(0.11 -0.11)">
       <use xlink:href="#Lato-Light-30"/>
       <use xlink:href="#Lato-Light-2e" transform="translate(58 0)"/>
       <use xlink:href="#Lato-Light-35" transform="translate(81.350006 0)"/>
      </g>
     </g>
    </g>
    <g id="text_5">
     <!-- Learning Rate (η) -->
     <g style="fill: #333333" transform="translate(98.898125 203.613438) scale(0.12 -0.12)">
      <defs>
       <path id="Lato-Light-4c" d="M 998 278 
L 3142 278 
L 3142 0 
L 669 0 
L 669 4528 
L 998 4528 
L 998 278 
z
" transform="scale(0.015625)"/>
       <path id="Lato-Light-65" d="M 1770 3235 
Q 2038 3235 2268 3142 
Q 2499 3050 2668 2872 
Q 2838 2694 2936 2435 
Q 3034 2176 3034 1840 
Q 3034 1770 3014 1744 
Q 2995 1718 2950 1718 
L 634 1718 
L 634 1658 
Q 634 1299 717 1027 
Q 800 755 953 571 
Q 1107 387 1324 294 
Q 1542 202 1811 202 
Q 2051 202 2227 254 
Q 2403 307 2523 372 
Q 2643 438 2713 491 
Q 2784 544 2816 544 
Q 2858 544 2880 512 
L 2963 410 
Q 2886 314 2760 230 
Q 2634 147 2478 88 
Q 2323 29 2145 -6 
Q 1968 -42 1789 -42 
Q 1462 -42 1193 72 
Q 925 186 733 403 
Q 541 621 437 936 
Q 333 1251 333 1658 
Q 333 2000 430 2289 
Q 528 2579 712 2788 
Q 896 2998 1163 3116 
Q 1430 3235 1770 3235 
z
M 1773 3008 
Q 1526 3008 1331 2931 
Q 1136 2854 993 2710 
Q 851 2566 763 2364 
Q 675 2163 646 1914 
L 2758 1914 
Q 2758 2170 2686 2373 
Q 2614 2576 2483 2717 
Q 2352 2858 2171 2933 
Q 1990 3008 1773 3008 
z
" transform="scale(0.015625)"/>
       <path id="Lato-Light-61" d="M 2483 0 
Q 2387 0 2365 90 
L 2320 496 
Q 2189 368 2059 265 
Q 1930 163 1789 92 
Q 1648 22 1485 -14 
Q 1322 -51 1126 -51 
Q 963 -51 809 -3 
Q 656 45 536 144 
Q 416 243 344 398 
Q 272 554 272 771 
Q 272 973 387 1145 
Q 502 1318 748 1446 
Q 995 1574 1380 1651 
Q 1766 1728 2307 1741 
L 2307 2074 
Q 2307 2515 2116 2753 
Q 1926 2992 1552 2992 
Q 1322 2992 1160 2928 
Q 998 2864 886 2787 
Q 774 2710 704 2646 
Q 634 2582 586 2582 
Q 550 2582 528 2598 
Q 506 2614 490 2640 
L 435 2733 
Q 685 2982 960 3110 
Q 1235 3238 1584 3238 
Q 1840 3238 2032 3156 
Q 2224 3075 2350 2923 
Q 2477 2771 2541 2555 
Q 2605 2339 2605 2074 
L 2605 0 
L 2483 0 
z
M 1203 170 
Q 1389 170 1544 210 
Q 1699 250 1832 322 
Q 1965 394 2080 493 
Q 2195 592 2307 707 
L 2307 1536 
Q 1853 1523 1523 1467 
Q 1194 1411 981 1315 
Q 768 1219 667 1086 
Q 566 954 566 784 
Q 566 624 619 507 
Q 672 390 760 315 
Q 848 240 963 205 
Q 1078 170 1203 170 
z
" transform="scale(0.015625)"/>
       <path id="Lato-Light-72" d="M 525 0 
L 525 3184 
L 688 3184 
Q 742 3184 764 3161 
Q 787 3139 794 3085 
L 816 2416 
Q 890 2611 984 2763 
Q 1078 2915 1201 3020 
Q 1325 3126 1477 3182 
Q 1629 3238 1814 3238 
Q 1914 3238 2010 3220 
Q 2106 3203 2179 3158 
L 2154 2947 
Q 2138 2896 2093 2896 
Q 2054 2896 1976 2918 
Q 1898 2941 1770 2941 
Q 1584 2941 1440 2883 
Q 1296 2826 1184 2715 
Q 1072 2605 987 2440 
Q 902 2275 832 2061 
L 832 0 
L 525 0 
z
" transform="scale(0.015625)"/>
       <path id="Lato-Light-6e" d="M 525 0 
L 525 3184 
L 694 3184 
Q 774 3184 787 3104 
L 816 2624 
Q 1037 2902 1325 3068 
Q 1613 3235 1971 3235 
Q 2234 3235 2434 3152 
Q 2634 3069 2765 2912 
Q 2896 2755 2963 2534 
Q 3030 2314 3030 2035 
L 3030 0 
L 2723 0 
L 2723 2035 
Q 2723 2483 2518 2737 
Q 2314 2992 1894 2992 
Q 1581 2992 1312 2833 
Q 1043 2675 832 2394 
L 832 0 
L 525 0 
z
" transform="scale(0.015625)"/>
       <path id="Lato-Light-69" d="M 864 3184 
L 864 0 
L 560 0 
L 560 3184 
L 864 3184 
z
M 995 4282 
Q 995 4224 971 4174 
Q 947 4125 908 4086 
Q 870 4048 819 4025 
Q 768 4003 710 4003 
Q 653 4003 601 4025 
Q 550 4048 512 4086 
Q 474 4125 451 4174 
Q 429 4224 429 4282 
Q 429 4339 451 4392 
Q 474 4445 512 4483 
Q 550 4522 601 4544 
Q 653 4566 710 4566 
Q 768 4566 819 4544 
Q 870 4522 908 4483 
Q 947 4445 971 4392 
Q 995 4339 995 4282 
z
" transform="scale(0.015625)"/>
       <path id="Lato-Light-67" d="M 1565 3238 
Q 1776 3238 1952 3187 
Q 2128 3136 2272 3043 
L 3088 3043 
L 3088 2938 
Q 3088 2867 2998 2851 
L 2512 2816 
Q 2602 2694 2650 2542 
Q 2698 2390 2698 2218 
Q 2698 1987 2616 1800 
Q 2534 1613 2385 1480 
Q 2237 1347 2027 1273 
Q 1818 1200 1565 1200 
Q 1290 1200 1069 1283 
Q 934 1203 856 1099 
Q 778 995 778 896 
Q 778 758 875 684 
Q 973 611 1131 577 
Q 1290 544 1493 534 
Q 1696 525 1907 513 
Q 2118 502 2321 473 
Q 2525 445 2683 373 
Q 2842 301 2939 171 
Q 3037 42 3037 -173 
Q 3037 -371 2937 -553 
Q 2838 -736 2651 -877 
Q 2464 -1018 2198 -1102 
Q 1933 -1187 1603 -1187 
Q 1267 -1187 1014 -1118 
Q 762 -1050 590 -933 
Q 419 -816 332 -662 
Q 246 -509 246 -336 
Q 246 -83 412 97 
Q 579 278 867 381 
Q 704 435 608 537 
Q 512 640 512 822 
Q 512 890 537 963 
Q 563 1037 614 1109 
Q 666 1181 739 1245 
Q 813 1309 906 1360 
Q 678 1491 552 1708 
Q 426 1926 426 2218 
Q 426 2448 507 2635 
Q 589 2822 739 2956 
Q 890 3091 1099 3164 
Q 1309 3238 1565 3238 
z
M 2755 -214 
Q 2755 -64 2676 27 
Q 2598 118 2467 169 
Q 2336 221 2163 240 
Q 1990 259 1804 270 
Q 1619 282 1430 291 
Q 1242 301 1075 330 
Q 954 282 851 218 
Q 749 154 675 75 
Q 602 -3 560 -97 
Q 518 -192 518 -301 
Q 518 -442 590 -562 
Q 662 -682 801 -770 
Q 941 -858 1142 -909 
Q 1344 -960 1606 -960 
Q 1850 -960 2059 -905 
Q 2269 -851 2424 -752 
Q 2579 -653 2667 -515 
Q 2755 -378 2755 -214 
z
M 1565 1408 
Q 1770 1408 1930 1467 
Q 2090 1526 2198 1632 
Q 2307 1738 2364 1885 
Q 2422 2032 2422 2211 
Q 2422 2390 2363 2539 
Q 2304 2688 2193 2793 
Q 2083 2899 1924 2956 
Q 1766 3014 1565 3014 
Q 1363 3014 1204 2956 
Q 1046 2899 936 2793 
Q 826 2688 768 2539 
Q 710 2390 710 2211 
Q 710 2032 768 1885 
Q 826 1738 936 1632 
Q 1046 1526 1204 1467 
Q 1363 1408 1565 1408 
z
" transform="scale(0.015625)"/>
       <path id="Lato-Light-20" transform="scale(0.015625)"/>
       <path id="Lato-Light-52" d="M 998 2048 
L 998 0 
L 669 0 
L 669 4528 
L 1827 4528 
Q 2608 4528 2997 4225 
Q 3386 3923 3386 3338 
Q 3386 3078 3294 2864 
Q 3203 2650 3035 2488 
Q 2867 2326 2628 2222 
Q 2390 2118 2096 2086 
Q 2173 2038 2234 1958 
L 3792 0 
L 3510 0 
Q 3456 0 3419 17 
Q 3382 35 3350 83 
L 1898 1920 
Q 1872 1955 1845 1980 
Q 1818 2006 1784 2020 
Q 1750 2035 1704 2041 
Q 1658 2048 1590 2048 
L 998 2048 
z
M 998 2291 
L 1782 2291 
Q 2083 2291 2321 2363 
Q 2560 2435 2725 2569 
Q 2890 2704 2976 2893 
Q 3062 3082 3062 3318 
Q 3062 3802 2747 4035 
Q 2432 4269 1827 4269 
L 998 4269 
L 998 2291 
z
" transform="scale(0.015625)"/>
       <path id="Lato-Light-74" d="M 1395 -51 
Q 1072 -51 891 128 
Q 710 307 710 682 
L 710 2858 
L 253 2858 
Q 218 2858 195 2877 
Q 173 2896 173 2931 
L 173 3050 
L 717 3088 
L 794 4227 
Q 800 4256 819 4278 
Q 838 4301 874 4301 
L 1018 4301 
L 1018 3085 
L 2022 3085 
L 2022 2858 
L 1018 2858 
L 1018 698 
Q 1018 566 1051 472 
Q 1085 378 1144 317 
Q 1203 256 1283 227 
Q 1363 198 1456 198 
Q 1571 198 1654 232 
Q 1738 266 1798 306 
Q 1859 346 1897 379 
Q 1936 413 1958 413 
Q 1984 413 2010 381 
L 2093 246 
Q 1971 112 1784 30 
Q 1597 -51 1395 -51 
z
" transform="scale(0.015625)"/>
       <path id="Lato-Light-28" d="M 621 2016 
Q 621 1299 814 641 
Q 1008 -16 1392 -627 
Q 1424 -682 1409 -715 
Q 1395 -749 1370 -765 
L 1235 -848 
Q 989 -470 821 -116 
Q 653 237 549 587 
Q 445 938 398 1290 
Q 352 1642 352 2016 
Q 352 2390 398 2744 
Q 445 3098 549 3448 
Q 653 3798 821 4152 
Q 989 4506 1235 4883 
L 1370 4800 
Q 1395 4784 1409 4750 
Q 1424 4717 1392 4662 
Q 1008 4051 814 3393 
Q 621 2736 621 2016 
z
" transform="scale(0.015625)"/>
       <path id="Lato-Light-3b7" d="M 3168 -1126 
L 2864 -1126 
L 2864 2035 
Q 2864 2483 2659 2737 
Q 2454 2992 2032 2992 
Q 1718 2992 1449 2830 
Q 1181 2669 970 2387 
L 970 0 
L 666 0 
L 666 2422 
Q 666 2714 544 2846 
Q 422 2979 173 2979 
L 61 2979 
L 61 3104 
Q 61 3146 104 3179 
Q 147 3213 250 3213 
Q 525 3213 707 3072 
Q 890 2931 931 2624 
Q 1155 2902 1452 3068 
Q 1750 3235 2109 3235 
Q 2371 3235 2571 3152 
Q 2771 3069 2902 2912 
Q 3034 2755 3101 2534 
Q 3168 2314 3168 2035 
L 3168 -1126 
z
" transform="scale(0.015625)"/>
       <path id="Lato-Light-29" d="M 1030 2016 
Q 1030 2736 836 3393 
Q 643 4051 259 4662 
Q 227 4717 241 4750 
Q 256 4784 282 4800 
L 416 4883 
Q 662 4506 830 4152 
Q 998 3798 1102 3448 
Q 1206 3098 1252 2744 
Q 1299 2390 1299 2016 
Q 1299 1642 1252 1290 
Q 1206 938 1102 587 
Q 998 237 830 -116 
Q 662 -470 416 -848 
L 282 -765 
Q 256 -749 241 -715 
Q 227 -682 259 -627 
Q 643 -16 836 641 
Q 1030 1299 1030 2016 
z
" transform="scale(0.015625)"/>
      </defs>
      <use xlink:href="#Lato-Light-4c"/>
      <use xlink:href="#Lato-Light-65" transform="translate(45.725006 0)"/>
      <use xlink:href="#Lato-Light-61" transform="translate(97.875015 0)"/>
      <use xlink:href="#Lato-Light-72" transform="translate(146.275024 0)"/>
      <use xlink:href="#Lato-Light-6e" transform="translate(181.625031 0)"/>
      <use xlink:href="#Lato-Light-69" transform="translate(236.625031 0)"/>
      <use xlink:href="#Lato-Light-6e" transform="translate(258.875031 0)"/>
      <use xlink:href="#Lato-Light-67" transform="translate(313.875031 0)"/>
      <use xlink:href="#Lato-Light-20" transform="translate(364.925034 0)"/>
      <use xlink:href="#Lato-Light-52" transform="translate(392.075027 0)"/>
      <use xlink:href="#Lato-Light-61" transform="translate(452.02504 0)"/>
      <use xlink:href="#Lato-Light-74" transform="translate(499.925049 0)"/>
      <use xlink:href="#Lato-Light-65" transform="translate(534.050049 0)"/>
      <use xlink:href="#Lato-Light-20" transform="translate(586.200058 0)"/>
      <use xlink:href="#Lato-Light-28" transform="translate(613.350052 0)"/>
      <use xlink:href="#Lato-Light-3b7" transform="translate(639.150055 0)"/>
      <use xlink:href="#Lato-Light-29" transform="translate(696.350067 0)"/>
     </g>
    </g>
   </g>
   <g id="matplotlib.axis_2">
    <g id="ytick_1">
     <g id="line2d_5"/>
     <g id="text_6">
      <!-- 5e-07 -->
      <g style="fill: #333333" transform="translate(22.58125 31.023594) scale(0.11 -0.11)">
       <defs>
        <path id="Lato-Light-2d" d="M 442 2029 
L 1930 2029 
L 1930 1770 
L 442 1770 
L 442 2029 
z
" transform="scale(0.015625)"/>
        <path id="Lato-Light-37" d="M 3414 4528 
L 3414 4390 
Q 3414 4336 3401 4296 
Q 3389 4256 3373 4227 
L 1299 115 
Q 1274 64 1230 32 
Q 1187 0 1117 0 
L 906 0 
L 2998 4096 
Q 3021 4141 3045 4176 
Q 3069 4211 3094 4246 
L 486 4246 
Q 451 4246 425 4272 
Q 400 4298 400 4333 
L 400 4528 
L 3414 4528 
z
" transform="scale(0.015625)"/>
       </defs>
       <use xlink:href="#Lato-Light-35"/>
       <use xlink:href="#Lato-Light-65" transform="translate(58 0)"/>
       <use xlink:href="#Lato-Light-2d" transform="translate(110.150009 0)"/>
       <use xlink:href="#Lato-Light-30" transform="translate(147.150009 0)"/>
       <use xlink:href="#Lato-Light-37" transform="translate(205.150009 0)"/>
      </g>
     </g>
    </g>
    <g id="ytick_2">
     <g id="line2d_6"/>
     <g id="text_7">
      <!-- 5e-05 -->
      <g style="fill: #333333" transform="translate(22.58125 72.603594) scale(0.11 -0.11)">
       <use xlink:href="#Lato-Light-35"/>
       <use xlink:href="#Lato-Light-65" transform="translate(58 0)"/>
       <use xlink:href="#Lato-Light-2d" transform="translate(110.150009 0)"/>
       <use xlink:href="#Lato-Light-30" transform="translate(147.150009 0)"/>
       <use xlink:href="#Lato-Light-35" transform="translate(205.150009 0)"/>
      </g>
     </g>
    </g>
    <g id="ytick_3">
     <g id="line2d_7"/>
     <g id="text_8">
      <!-- 0.005 -->
      <g style="fill: #333333" transform="translate(23.440625 114.183594) scale(0.11 -0.11)">
       <use xlink:href="#Lato-Light-30"/>
       <use xlink:href="#Lato-Light-2e" transform="translate(58 0)"/>
       <use xlink:href="#Lato-Light-30" transform="translate(81.350006 0)"/>
       <use xlink:href="#Lato-Light-30" transform="translate(139.350006 0)"/>
       <use xlink:href="#Lato-Light-35" transform="translate(197.350006 0)"/>
      </g>
     </g>
    </g>
    <g id="ytick_4">
     <g id="line2d_8"/>
     <g id="text_9">
      <!-- 0.5 -->
      <g style="fill: #333333" transform="translate(36.200625 155.763594) scale(0.11 -0.11)">
       <use xlink:href="#Lato-Light-30"/>
       <use xlink:href="#Lato-Light-2e" transform="translate(58 0)"/>
       <use xlink:href="#Lato-Light-35" transform="translate(81.350006 0)"/>
      </g>
     </g>
    </g>
    <g id="text_10">
     <!-- Weight Decay (λ) -->
     <g style="fill: #333333" transform="translate(16.355625 134.699063) rotate(-90) scale(0.12 -0.12)">
      <defs>
       <path id="Lato-Light-57" d="M 150 4528 
L 422 4528 
Q 515 4528 541 4442 
L 1683 720 
Q 1718 592 1747 429 
Q 1763 509 1779 582 
Q 1795 656 1818 720 
L 3098 4442 
Q 3110 4477 3142 4502 
Q 3174 4528 3219 4528 
L 3309 4528 
Q 3354 4528 3382 4504 
Q 3411 4480 3427 4442 
L 4707 720 
Q 4730 656 4747 585 
Q 4765 515 4781 435 
Q 4797 512 4811 584 
Q 4826 656 4842 720 
L 5984 4442 
Q 5994 4477 6027 4502 
Q 6061 4528 6106 4528 
L 6355 4528 
L 4931 0 
L 4637 0 
L 3299 3930 
Q 3274 4006 3254 4093 
Q 3235 4006 3210 3930 
L 1869 0 
L 1578 0 
L 150 4528 
z
" transform="scale(0.015625)"/>
       <path id="Lato-Light-68" d="M 525 0 
L 525 4656 
L 832 4656 
L 832 2643 
Q 1053 2915 1336 3075 
Q 1619 3235 1971 3235 
Q 2234 3235 2434 3152 
Q 2634 3069 2765 2912 
Q 2896 2755 2963 2534 
Q 3030 2314 3030 2035 
L 3030 0 
L 2723 0 
L 2723 2035 
Q 2723 2483 2518 2737 
Q 2314 2992 1894 2992 
Q 1581 2992 1312 2833 
Q 1043 2675 832 2394 
L 832 0 
L 525 0 
z
" transform="scale(0.015625)"/>
       <path id="Lato-Light-44" d="M 4483 2266 
Q 4483 1741 4326 1321 
Q 4170 902 3885 608 
Q 3600 314 3201 157 
Q 2803 0 2323 0 
L 669 0 
L 669 4528 
L 2323 4528 
Q 2803 4528 3201 4371 
Q 3600 4214 3885 3920 
Q 4170 3626 4326 3206 
Q 4483 2787 4483 2266 
z
M 4144 2266 
Q 4144 2739 4013 3110 
Q 3882 3482 3642 3738 
Q 3402 3994 3066 4128 
Q 2730 4262 2323 4262 
L 998 4262 
L 998 266 
L 2323 266 
Q 2730 266 3066 400 
Q 3402 534 3642 790 
Q 3882 1046 4013 1417 
Q 4144 1789 4144 2266 
z
" transform="scale(0.015625)"/>
       <path id="Lato-Light-63" d="M 2666 2758 
Q 2650 2742 2635 2731 
Q 2621 2720 2595 2720 
Q 2563 2720 2508 2763 
Q 2454 2806 2361 2857 
Q 2269 2909 2129 2952 
Q 1990 2995 1792 2995 
Q 1517 2995 1304 2897 
Q 1091 2800 944 2617 
Q 797 2435 721 2176 
Q 646 1917 646 1594 
Q 646 1258 724 998 
Q 803 739 947 561 
Q 1091 384 1296 291 
Q 1501 198 1750 198 
Q 1981 198 2136 252 
Q 2291 307 2392 371 
Q 2493 435 2550 489 
Q 2608 544 2646 544 
Q 2685 544 2710 512 
L 2790 410 
Q 2717 314 2605 230 
Q 2493 147 2352 86 
Q 2211 26 2046 -8 
Q 1882 -42 1702 -42 
Q 1398 -42 1147 68 
Q 896 179 715 388 
Q 534 598 433 902 
Q 333 1206 333 1594 
Q 333 1958 429 2259 
Q 525 2560 710 2777 
Q 896 2995 1163 3115 
Q 1430 3235 1776 3235 
Q 2086 3235 2326 3136 
Q 2566 3037 2746 2867 
L 2666 2758 
z
" transform="scale(0.015625)"/>
       <path id="Lato-Light-79" d="M 1267 -1024 
Q 1248 -1069 1217 -1097 
Q 1187 -1126 1130 -1126 
L 912 -1126 
L 1472 118 
L 125 3184 
L 378 3184 
Q 426 3184 454 3160 
Q 483 3136 493 3107 
L 1565 630 
Q 1584 582 1598 532 
Q 1613 483 1626 432 
Q 1642 483 1659 532 
Q 1677 582 1696 630 
L 2755 3107 
Q 2771 3142 2800 3163 
Q 2829 3184 2864 3184 
L 3098 3184 
L 1267 -1024 
z
" transform="scale(0.015625)"/>
       <path id="Lato-Light-3bb" d="M 1472 2986 
L 1091 3981 
Q 1056 4077 1011 4144 
Q 966 4211 904 4254 
Q 842 4298 755 4318 
Q 669 4339 547 4339 
L 342 4339 
L 342 4454 
Q 342 4477 352 4499 
Q 362 4522 387 4538 
Q 413 4554 462 4563 
Q 512 4573 589 4573 
Q 870 4573 1060 4467 
Q 1251 4362 1347 4106 
L 2707 605 
Q 2790 384 2900 294 
Q 3011 205 3190 205 
L 3382 205 
L 3382 80 
Q 3382 19 3336 -5 
Q 3290 -29 3171 -29 
Q 3059 -29 2953 -8 
Q 2848 13 2755 72 
Q 2662 131 2582 235 
Q 2502 339 2442 506 
L 1674 2470 
Q 1638 2570 1622 2659 
Q 1610 2614 1597 2571 
Q 1584 2528 1565 2483 
L 579 80 
Q 570 51 539 25 
Q 509 0 464 0 
L 214 0 
L 1472 2986 
z
" transform="scale(0.015625)"/>
      </defs>
      <use xlink:href="#Lato-Light-57"/>
      <use xlink:href="#Lato-Light-65" transform="translate(96.700012 0)"/>
      <use xlink:href="#Lato-Light-69" transform="translate(148.850021 0)"/>
      <use xlink:href="#Lato-Light-67" transform="translate(171.100021 0)"/>
      <use xlink:href="#Lato-Light-68" transform="translate(222.150024 0)"/>
      <use xlink:href="#Lato-Light-74" transform="translate(276.525024 0)"/>
      <use xlink:href="#Lato-Light-20" transform="translate(310.775024 0)"/>
      <use xlink:href="#Lato-Light-44" transform="translate(337.925018 0)"/>
      <use xlink:href="#Lato-Light-65" transform="translate(413.175034 0)"/>
      <use xlink:href="#Lato-Light-63" transform="translate(465.325043 0)"/>
      <use xlink:href="#Lato-Light-61" transform="translate(512.475052 0)"/>
      <use xlink:href="#Lato-Light-79" transform="translate(560.000061 0)"/>
      <use xlink:href="#Lato-Light-20" transform="translate(607.65007 0)"/>
      <use xlink:href="#Lato-Light-28" transform="translate(634.800064 0)"/>
      <use xlink:href="#Lato-Light-3bb" transform="translate(660.600067 0)"/>
      <use xlink:href="#Lato-Light-29" transform="translate(713.15007 0)"/>
     </g>
    </g>
   </g>
   <g id="text_11">
    <!-- 14.27 -->
    <g style="fill: #ffffff" transform="translate(65.395781 31.108672) scale(0.11 -0.11)">
     <defs>
      <path id="Lato-Medium-31" d="M 790 464 
L 1766 464 
L 1766 3514 
Q 1766 3654 1776 3805 
L 986 3130 
Q 941 3094 897 3084 
Q 854 3075 816 3083 
Q 778 3091 746 3110 
Q 714 3130 698 3152 
L 509 3418 
L 1882 4602 
L 2374 4602 
L 2374 464 
L 3267 464 
L 3267 0 
L 790 0 
L 790 464 
z
" transform="scale(0.015625)"/>
      <path id="Lato-Medium-34" d="M 2858 1670 
L 3533 1670 
L 3533 1318 
Q 3533 1264 3499 1227 
Q 3466 1190 3402 1190 
L 2858 1190 
L 2858 0 
L 2326 0 
L 2326 1190 
L 304 1190 
Q 237 1190 189 1228 
Q 141 1267 128 1328 
L 67 1638 
L 2291 4595 
L 2858 4595 
L 2858 1670 
z
M 2326 3494 
Q 2326 3581 2332 3683 
Q 2339 3786 2355 3894 
L 723 1670 
L 2326 1670 
L 2326 3494 
z
" transform="scale(0.015625)"/>
      <path id="Lato-Medium-2e" d="M 342 368 
Q 342 454 374 529 
Q 406 605 460 662 
Q 515 720 592 752 
Q 669 784 755 784 
Q 842 784 917 752 
Q 992 720 1048 662 
Q 1104 605 1136 529 
Q 1168 454 1168 368 
Q 1168 278 1136 203 
Q 1104 128 1048 72 
Q 992 16 917 -16 
Q 842 -48 755 -48 
Q 669 -48 592 -16 
Q 515 16 460 72 
Q 406 128 374 203 
Q 342 278 342 368 
z
" transform="scale(0.015625)"/>
      <path id="Lato-Medium-32" d="M 1894 4643 
Q 2192 4643 2445 4555 
Q 2698 4467 2883 4302 
Q 3069 4138 3174 3899 
Q 3280 3661 3280 3360 
Q 3280 3104 3205 2885 
Q 3130 2666 3000 2467 
Q 2870 2269 2699 2080 
Q 2528 1891 2336 1699 
L 1155 496 
Q 1286 531 1420 553 
Q 1555 576 1677 576 
L 3155 576 
Q 3254 576 3312 518 
Q 3370 461 3370 368 
L 3370 0 
L 291 0 
L 291 208 
Q 291 272 318 341 
Q 346 410 403 464 
L 1859 1930 
Q 2042 2115 2189 2284 
Q 2336 2454 2441 2624 
Q 2547 2794 2603 2968 
Q 2659 3142 2659 3341 
Q 2659 3536 2598 3683 
Q 2538 3830 2430 3929 
Q 2323 4029 2176 4077 
Q 2029 4125 1859 4125 
Q 1690 4125 1549 4075 
Q 1408 4026 1297 3938 
Q 1187 3850 1112 3730 
Q 1037 3610 1005 3466 
Q 963 3347 894 3307 
Q 826 3267 701 3286 
L 381 3344 
Q 429 3661 558 3904 
Q 688 4147 886 4312 
Q 1085 4477 1341 4560 
Q 1597 4643 1894 4643 
z
" transform="scale(0.015625)"/>
      <path id="Lato-Medium-37" d="M 3466 4592 
L 3466 4323 
Q 3466 4205 3440 4131 
Q 3414 4058 3389 4003 
L 1514 214 
Q 1469 125 1392 62 
Q 1315 0 1184 0 
L 749 0 
L 2653 3738 
Q 2736 3904 2845 4032 
L 483 4032 
Q 422 4032 379 4077 
Q 336 4122 336 4179 
L 336 4592 
L 3466 4592 
z
" transform="scale(0.015625)"/>
     </defs>
     <use xlink:href="#Lato-Medium-31"/>
     <use xlink:href="#Lato-Medium-34" transform="translate(58 0)"/>
     <use xlink:href="#Lato-Medium-2e" transform="translate(116 0)"/>
     <use xlink:href="#Lato-Medium-32" transform="translate(139.600006 0)"/>
     <use xlink:href="#Lato-Medium-37" transform="translate(197.600006 0)"/>
    </g>
   </g>
   <g id="text_12">
    <!-- 14.73 -->
    <g style="fill: #ffffff" transform="translate(107.245781 31.108672) scale(0.11 -0.11)">
     <defs>
      <path id="Lato-Medium-33" d="M 1917 4643 
Q 2214 4643 2460 4558 
Q 2707 4474 2884 4318 
Q 3062 4163 3161 3947 
Q 3261 3731 3261 3469 
Q 3261 3248 3206 3077 
Q 3152 2906 3049 2778 
Q 2947 2650 2801 2562 
Q 2656 2474 2474 2416 
Q 2918 2294 3140 2019 
Q 3363 1744 3363 1325 
Q 3363 1002 3241 747 
Q 3120 493 2912 315 
Q 2704 138 2424 43 
Q 2144 -51 1827 -51 
Q 1466 -51 1206 38 
Q 947 128 764 286 
Q 582 445 464 665 
Q 346 886 266 1149 
L 528 1261 
Q 630 1306 726 1286 
Q 822 1267 867 1174 
Q 912 1082 976 960 
Q 1040 838 1145 728 
Q 1251 618 1412 542 
Q 1574 467 1821 467 
Q 2054 467 2230 544 
Q 2406 621 2523 742 
Q 2640 864 2697 1013 
Q 2755 1162 2755 1309 
Q 2755 1491 2708 1641 
Q 2662 1792 2536 1901 
Q 2410 2010 2184 2070 
Q 1958 2131 1600 2131 
L 1600 2573 
Q 1894 2576 2097 2635 
Q 2301 2694 2429 2798 
Q 2557 2902 2613 3046 
Q 2669 3190 2669 3363 
Q 2669 3555 2609 3697 
Q 2550 3840 2444 3934 
Q 2339 4029 2195 4077 
Q 2051 4125 1882 4125 
Q 1712 4125 1569 4075 
Q 1427 4026 1316 3938 
Q 1206 3850 1131 3730 
Q 1056 3610 1024 3466 
Q 979 3347 913 3307 
Q 848 3267 723 3286 
L 403 3344 
Q 448 3661 579 3904 
Q 710 4147 908 4312 
Q 1107 4477 1363 4560 
Q 1619 4643 1917 4643 
z
" transform="scale(0.015625)"/>
     </defs>
     <use xlink:href="#Lato-Medium-31"/>
     <use xlink:href="#Lato-Medium-34" transform="translate(58 0)"/>
     <use xlink:href="#Lato-Medium-2e" transform="translate(116 0)"/>
     <use xlink:href="#Lato-Medium-37" transform="translate(139.600006 0)"/>
     <use xlink:href="#Lato-Medium-33" transform="translate(197.600006 0)"/>
    </g>
   </g>
   <g id="text_13">
    <!-- 10.52 -->
    <g style="fill: #ffffff" transform="translate(149.095781 31.108672) scale(0.11 -0.11)">
     <defs>
      <path id="Lato-Medium-30" d="M 3526 2298 
Q 3526 1696 3396 1254 
Q 3267 813 3041 523 
Q 2816 234 2510 93 
Q 2205 -48 1853 -48 
Q 1501 -48 1197 93 
Q 893 234 667 523 
Q 442 813 314 1254 
Q 186 1696 186 2298 
Q 186 2899 314 3340 
Q 442 3782 667 4072 
Q 893 4362 1197 4502 
Q 1501 4643 1853 4643 
Q 2205 4643 2510 4502 
Q 2816 4362 3041 4072 
Q 3267 3782 3396 3340 
Q 3526 2899 3526 2298 
z
M 2896 2298 
Q 2896 2816 2809 3168 
Q 2723 3520 2579 3734 
Q 2435 3949 2246 4040 
Q 2058 4131 1853 4131 
Q 1648 4131 1459 4040 
Q 1270 3949 1126 3734 
Q 982 3520 897 3168 
Q 813 2816 813 2298 
Q 813 1776 897 1424 
Q 982 1072 1126 859 
Q 1270 646 1459 555 
Q 1648 464 1853 464 
Q 2058 464 2246 555 
Q 2435 646 2579 859 
Q 2723 1072 2809 1424 
Q 2896 1776 2896 2298 
z
" transform="scale(0.015625)"/>
      <path id="Lato-Medium-35" d="M 3152 4330 
Q 3152 4198 3070 4115 
Q 2989 4032 2797 4032 
L 1382 4032 
L 1181 2870 
Q 1530 2947 1827 2947 
Q 2186 2947 2461 2840 
Q 2736 2733 2921 2545 
Q 3107 2358 3201 2104 
Q 3296 1850 3296 1555 
Q 3296 1190 3168 892 
Q 3040 595 2817 385 
Q 2595 176 2291 62 
Q 1987 -51 1635 -51 
Q 1430 -51 1243 -11 
Q 1056 29 893 97 
Q 730 166 592 256 
Q 454 346 346 442 
L 531 704 
Q 592 790 691 790 
Q 758 790 838 740 
Q 918 691 1032 630 
Q 1146 570 1301 520 
Q 1456 470 1667 470 
Q 1901 470 2089 545 
Q 2278 621 2411 760 
Q 2544 899 2614 1094 
Q 2685 1290 2685 1526 
Q 2685 1738 2622 1906 
Q 2560 2074 2438 2194 
Q 2317 2314 2131 2378 
Q 1946 2442 1702 2442 
Q 1360 2442 970 2320 
L 589 2432 
L 960 4592 
L 3152 4592 
L 3152 4330 
z
" transform="scale(0.015625)"/>
     </defs>
     <use xlink:href="#Lato-Medium-31"/>
     <use xlink:href="#Lato-Medium-30" transform="translate(58 0)"/>
     <use xlink:href="#Lato-Medium-2e" transform="translate(116 0)"/>
     <use xlink:href="#Lato-Medium-35" transform="translate(139.600006 0)"/>
     <use xlink:href="#Lato-Medium-32" transform="translate(197.600006 0)"/>
    </g>
   </g>
   <g id="text_14">
    <!-- 9.21 -->
    <g style="fill: #ffffff" transform="translate(194.135781 31.108672) scale(0.11 -0.11)">
     <defs>
      <path id="Lato-Medium-39" d="M 2214 1821 
Q 2278 1907 2337 1987 
Q 2397 2067 2451 2144 
Q 2278 2010 2062 1942 
Q 1846 1875 1606 1875 
Q 1350 1875 1118 1961 
Q 886 2048 710 2216 
Q 534 2384 428 2630 
Q 323 2877 323 3194 
Q 323 3494 435 3760 
Q 547 4026 750 4221 
Q 954 4416 1235 4529 
Q 1517 4643 1853 4643 
Q 2186 4643 2458 4534 
Q 2730 4426 2922 4229 
Q 3114 4032 3219 3758 
Q 3325 3485 3325 3155 
Q 3325 2954 3288 2773 
Q 3251 2592 3182 2421 
Q 3114 2250 3014 2082 
Q 2915 1914 2790 1738 
L 1683 144 
Q 1642 80 1558 40 
Q 1475 0 1373 0 
L 813 0 
L 2214 1821 
z
M 2742 3226 
Q 2742 3437 2675 3605 
Q 2608 3773 2489 3891 
Q 2371 4010 2204 4074 
Q 2038 4138 1843 4138 
Q 1638 4138 1470 4070 
Q 1302 4003 1182 3884 
Q 1062 3766 996 3600 
Q 931 3434 931 3238 
Q 931 2810 1164 2576 
Q 1398 2342 1811 2342 
Q 2035 2342 2208 2414 
Q 2381 2486 2499 2608 
Q 2618 2730 2680 2890 
Q 2742 3050 2742 3226 
z
" transform="scale(0.015625)"/>
     </defs>
     <use xlink:href="#Lato-Medium-39"/>
     <use xlink:href="#Lato-Medium-2e" transform="translate(58 0)"/>
     <use xlink:href="#Lato-Medium-32" transform="translate(81.600006 0)"/>
     <use xlink:href="#Lato-Medium-31" transform="translate(139.600006 0)"/>
    </g>
   </g>
   <g id="text_15">
    <!-- 14.27 -->
    <g style="fill: #ffffff" transform="translate(65.395781 72.688672) scale(0.11 -0.11)">
     <use xlink:href="#Lato-Medium-31"/>
     <use xlink:href="#Lato-Medium-34" transform="translate(58 0)"/>
     <use xlink:href="#Lato-Medium-2e" transform="translate(116 0)"/>
     <use xlink:href="#Lato-Medium-32" transform="translate(139.600006 0)"/>
     <use xlink:href="#Lato-Medium-37" transform="translate(197.600006 0)"/>
    </g>
   </g>
   <g id="text_16">
    <!-- 14.68 -->
    <g style="fill: #ffffff" transform="translate(107.245781 72.688672) scale(0.11 -0.11)">
     <defs>
      <path id="Lato-Medium-36" d="M 1542 2880 
Q 1485 2806 1430 2739 
Q 1376 2672 1328 2605 
Q 1485 2707 1675 2764 
Q 1866 2822 2086 2822 
Q 2362 2822 2608 2732 
Q 2854 2643 3041 2468 
Q 3229 2294 3337 2038 
Q 3446 1782 3446 1453 
Q 3446 1136 3331 861 
Q 3216 586 3006 384 
Q 2797 182 2505 65 
Q 2214 -51 1862 -51 
Q 1510 -51 1228 61 
Q 947 173 747 379 
Q 547 586 440 877 
Q 333 1168 333 1526 
Q 333 1830 465 2171 
Q 598 2512 886 2899 
L 2042 4445 
Q 2086 4509 2172 4550 
Q 2259 4592 2365 4592 
L 2906 4592 
L 1542 2880 
z
M 915 1421 
Q 915 1206 977 1028 
Q 1040 851 1160 723 
Q 1280 595 1454 524 
Q 1629 454 1850 454 
Q 2074 454 2256 526 
Q 2438 598 2568 726 
Q 2698 854 2768 1028 
Q 2838 1203 2838 1408 
Q 2838 1629 2769 1806 
Q 2701 1984 2574 2105 
Q 2448 2227 2273 2292 
Q 2099 2358 1888 2358 
Q 1664 2358 1483 2283 
Q 1302 2208 1176 2078 
Q 1050 1949 982 1779 
Q 915 1610 915 1421 
z
" transform="scale(0.015625)"/>
      <path id="Lato-Medium-38" d="M 1856 -51 
Q 1510 -51 1224 41 
Q 938 134 733 305 
Q 528 477 414 718 
Q 301 960 301 1261 
Q 301 1699 526 1984 
Q 752 2269 1181 2394 
Q 822 2528 640 2795 
Q 458 3062 458 3434 
Q 458 3690 558 3910 
Q 659 4131 843 4294 
Q 1027 4458 1284 4550 
Q 1542 4643 1856 4643 
Q 2170 4643 2427 4550 
Q 2685 4458 2869 4294 
Q 3053 4131 3153 3910 
Q 3254 3690 3254 3434 
Q 3254 3062 3070 2795 
Q 2886 2528 2528 2394 
Q 2957 2269 3184 1984 
Q 3411 1699 3411 1261 
Q 3411 960 3297 718 
Q 3184 477 2979 305 
Q 2774 134 2488 41 
Q 2202 -51 1856 -51 
z
M 1856 432 
Q 2077 432 2249 494 
Q 2422 557 2542 669 
Q 2662 781 2724 934 
Q 2787 1088 2787 1274 
Q 2787 1501 2712 1664 
Q 2637 1827 2509 1931 
Q 2381 2035 2211 2084 
Q 2042 2134 1856 2134 
Q 1667 2134 1499 2084 
Q 1331 2035 1203 1931 
Q 1075 1827 1000 1664 
Q 925 1501 925 1274 
Q 925 1088 987 934 
Q 1050 781 1170 669 
Q 1290 557 1462 494 
Q 1635 432 1856 432 
z
M 1856 2621 
Q 2077 2621 2229 2688 
Q 2381 2755 2477 2867 
Q 2573 2979 2616 3123 
Q 2659 3267 2659 3421 
Q 2659 3574 2609 3712 
Q 2560 3850 2459 3954 
Q 2358 4058 2208 4117 
Q 2058 4176 1856 4176 
Q 1654 4176 1504 4117 
Q 1354 4058 1253 3954 
Q 1152 3850 1102 3712 
Q 1053 3574 1053 3421 
Q 1053 3267 1096 3123 
Q 1139 2979 1235 2867 
Q 1331 2755 1483 2688 
Q 1635 2621 1856 2621 
z
" transform="scale(0.015625)"/>
     </defs>
     <use xlink:href="#Lato-Medium-31"/>
     <use xlink:href="#Lato-Medium-34" transform="translate(58 0)"/>
     <use xlink:href="#Lato-Medium-2e" transform="translate(116 0)"/>
     <use xlink:href="#Lato-Medium-36" transform="translate(139.600006 0)"/>
     <use xlink:href="#Lato-Medium-38" transform="translate(197.600006 0)"/>
    </g>
   </g>
   <g id="text_17">
    <!-- 11.01 -->
    <g style="fill: #ffffff" transform="translate(149.095781 72.688672) scale(0.11 -0.11)">
     <use xlink:href="#Lato-Medium-31"/>
     <use xlink:href="#Lato-Medium-31" transform="translate(58 0)"/>
     <use xlink:href="#Lato-Medium-2e" transform="translate(116 0)"/>
     <use xlink:href="#Lato-Medium-30" transform="translate(139.600006 0)"/>
     <use xlink:href="#Lato-Medium-31" transform="translate(197.600006 0)"/>
    </g>
   </g>
   <g id="text_18">
    <!-- 9.37 -->
    <g style="fill: #ffffff" transform="translate(194.135781 72.688672) scale(0.11 -0.11)">
     <use xlink:href="#Lato-Medium-39"/>
     <use xlink:href="#Lato-Medium-2e" transform="translate(58 0)"/>
     <use xlink:href="#Lato-Medium-33" transform="translate(81.600006 0)"/>
     <use xlink:href="#Lato-Medium-37" transform="translate(139.600006 0)"/>
    </g>
   </g>
   <g id="text_19">
    <!-- 14.19 -->
    <g style="fill: #ffffff" transform="translate(65.395781 114.268672) scale(0.11 -0.11)">
     <use xlink:href="#Lato-Medium-31"/>
     <use xlink:href="#Lato-Medium-34" transform="translate(58 0)"/>
     <use xlink:href="#Lato-Medium-2e" transform="translate(116 0)"/>
     <use xlink:href="#Lato-Medium-31" transform="translate(139.600006 0)"/>
     <use xlink:href="#Lato-Medium-39" transform="translate(197.600006 0)"/>
    </g>
   </g>
   <g id="text_20">
    <!-- 15.39 -->
    <g style="fill: #ffffff" transform="translate(107.245781 114.268672) scale(0.11 -0.11)">
     <use xlink:href="#Lato-Medium-31"/>
     <use xlink:href="#Lato-Medium-35" transform="translate(58 0)"/>
     <use xlink:href="#Lato-Medium-2e" transform="translate(116 0)"/>
     <use xlink:href="#Lato-Medium-33" transform="translate(139.600006 0)"/>
     <use xlink:href="#Lato-Medium-39" transform="translate(197.600006 0)"/>
    </g>
   </g>
   <g id="text_21">
    <!-- 11.75 -->
    <g style="fill: #ffffff" transform="translate(149.095781 114.268672) scale(0.11 -0.11)">
     <use xlink:href="#Lato-Medium-31"/>
     <use xlink:href="#Lato-Medium-31" transform="translate(58 0)"/>
     <use xlink:href="#Lato-Medium-2e" transform="translate(116 0)"/>
     <use xlink:href="#Lato-Medium-37" transform="translate(139.600006 0)"/>
     <use xlink:href="#Lato-Medium-35" transform="translate(197.600006 0)"/>
    </g>
   </g>
   <g id="text_22">
    <!-- 9.90 -->
    <g style="fill: #ffffff" transform="translate(194.135781 114.268672) scale(0.11 -0.11)">
     <use xlink:href="#Lato-Medium-39"/>
     <use xlink:href="#Lato-Medium-2e" transform="translate(58 0)"/>
     <use xlink:href="#Lato-Medium-39" transform="translate(81.600006 0)"/>
     <use xlink:href="#Lato-Medium-30" transform="translate(139.600006 0)"/>
    </g>
   </g>
   <g id="text_23">
    <!-- 14.82 -->
    <g style="fill: #ffffff" transform="translate(65.395781 155.848672) scale(0.11 -0.11)">
     <use xlink:href="#Lato-Medium-31"/>
     <use xlink:href="#Lato-Medium-34" transform="translate(58 0)"/>
     <use xlink:href="#Lato-Medium-2e" transform="translate(116 0)"/>
     <use xlink:href="#Lato-Medium-38" transform="translate(139.600006 0)"/>
     <use xlink:href="#Lato-Medium-32" transform="translate(197.600006 0)"/>
    </g>
   </g>
   <g id="text_24">
    <!-- 17.05 -->
    <g style="fill: #ffffff" transform="translate(107.245781 155.848672) scale(0.11 -0.11)">
     <use xlink:href="#Lato-Medium-31"/>
     <use xlink:href="#Lato-Medium-37" transform="translate(58 0)"/>
     <use xlink:href="#Lato-Medium-2e" transform="translate(116 0)"/>
     <use xlink:href="#Lato-Medium-30" transform="translate(139.600006 0)"/>
     <use xlink:href="#Lato-Medium-35" transform="translate(197.600006 0)"/>
    </g>
   </g>
   <g id="text_25">
    <!-- 3.80 -->
    <g style="fill: #262626" transform="translate(152.285781 155.848672) scale(0.11 -0.11)">
     <use xlink:href="#Lato-Medium-33"/>
     <use xlink:href="#Lato-Medium-2e" transform="translate(58 0)"/>
     <use xlink:href="#Lato-Medium-38" transform="translate(81.600006 0)"/>
     <use xlink:href="#Lato-Medium-30" transform="translate(139.600006 0)"/>
    </g>
   </g>
   <g id="text_26">
    <!-- 1.00 -->
    <g style="fill: #262626" transform="translate(194.135781 155.848672) scale(0.11 -0.11)">
     <use xlink:href="#Lato-Medium-31"/>
     <use xlink:href="#Lato-Medium-2e" transform="translate(58 0)"/>
     <use xlink:href="#Lato-Medium-30" transform="translate(81.600006 0)"/>
     <use xlink:href="#Lato-Medium-30" transform="translate(139.600006 0)"/>
    </g>
   </g>
  </g>
 </g>
 <defs>
  <clipPath id="pd0c7e6128d">
   <rect x="58.528438" y="7.2" width="167.4" height="166.32"/>
  </clipPath>
 </defs>
</svg>
