<?xml version="1.0" encoding="utf-8" standalone="no"?>
<!DOCTYPE svg PUBLIC "-//W3C//DTD SVG 1.1//EN"
  "http://www.w3.org/Graphics/SVG/1.1/DTD/svg11.dtd">
<svg xmlns:xlink="http://www.w3.org/1999/xlink" width="423.41pt" height="258.232866pt" viewBox="0 0 423.41 258.232866" xmlns="http://www.w3.org/2000/svg" version="1.1">
 <metadata>
  <rdf:RDF xmlns:dc="http://purl.org/dc/elements/1.1/" xmlns:cc="http://creativecommons.org/ns#" xmlns:rdf="http://www.w3.org/1999/02/22-rdf-syntax-ns#">
   <cc:Work>
    <dc:type rdf:resource="http://purl.org/dc/dcmitype/StillImage"/>
    <dc:date>2026-03-20T17:06:56.069819</dc:date>
    <dc:format>image/svg+xml</dc:format>
    <dc:creator>
     <cc:Agent>
      <dc:title>Matplotlib v3.10.7, https://matplotlib.org/</dc:title>
     </cc:Agent>
    </dc:creator>
   </cc:Work>
  </rdf:RDF>
 </metadata>
 <defs>
  <style type="text/css">*{stroke-linejoin: round; stroke-linecap: butt}</style>
 </defs>
 <g id="figure_1">
  <g id="patch_1">
   <path d="M 0 258.232866 
L 423.41 258.232866 
L 423.41 0 
L 0 0 
z
" style="fill: #ffffff"/>
  </g>
  <g id="axes_1">
   <g id="patch_2">
    <path d="M 68.515 170.7003 
L 416.21 170.7003 
L 416.21 7.2 
L 68.515 7.2 
z
" style="fill: #ffffff"/>
   </g>
   <g id="matplotlib.axis_1">
    <g id="xtick_1">
     <g id="line2d_1">
      <path d="M 115.927955 170.7003 
L 115.927955 7.2 
" clip-path="url(#p8752097b2e)" style="fill: none; stroke-dasharray: 3.7,1.6; stroke-dashoffset: 0; stroke: #b0b0b0; stroke-opacity: 0.3"/>
     </g>
     <g id="line2d_2"/>
     <g id="text_1">
      <!-- 0.96 -->
      <g style="fill: #333333" transform="translate(104.08733 186.4303) scale(0.12 -0.12)">
       <defs>
        <path id="Lato-Light-30" d="M 3478 2266 
Q 3478 1670 3350 1235 
Q 3222 800 3001 515 
Q 2781 230 2485 91 
Q 2189 -48 1853 -48 
Q 1517 -48 1222 91 
Q 928 230 707 515 
Q 486 800 360 1235 
Q 234 1670 234 2266 
Q 234 2861 360 3296 
Q 486 3731 707 4016 
Q 928 4301 1222 4440 
Q 1517 4579 1853 4579 
Q 2189 4579 2485 4440 
Q 2781 4301 3001 4016 
Q 3222 3731 3350 3296 
Q 3478 2861 3478 2266 
z
M 3158 2266 
Q 3158 2816 3052 3206 
Q 2947 3597 2769 3845 
Q 2592 4093 2353 4208 
Q 2115 4323 1853 4323 
Q 1590 4323 1353 4208 
Q 1117 4093 937 3845 
Q 758 3597 652 3206 
Q 547 2816 547 2266 
Q 547 1712 652 1323 
Q 758 934 937 686 
Q 1117 438 1353 324 
Q 1590 211 1853 211 
Q 2115 211 2353 324 
Q 2592 438 2769 686 
Q 2947 934 3052 1323 
Q 3158 1712 3158 2266 
z
" transform="scale(0.015625)"/>
        <path id="Lato-Light-2e" d="M 451 246 
Q 451 307 473 361 
Q 496 416 536 456 
Q 576 496 629 520 
Q 682 544 746 544 
Q 806 544 860 520 
Q 915 496 955 456 
Q 995 416 1019 361 
Q 1043 307 1043 246 
Q 1043 182 1019 129 
Q 995 77 955 37 
Q 915 -3 860 -25 
Q 806 -48 746 -48 
Q 621 -48 536 37 
Q 451 122 451 246 
z
" transform="scale(0.015625)"/>
        <path id="Lato-Light-39" d="M 2394 1869 
Q 2493 2010 2576 2130 
Q 2659 2250 2726 2365 
Q 2538 2154 2272 2040 
Q 2006 1926 1706 1926 
Q 1427 1926 1192 2017 
Q 957 2109 784 2278 
Q 611 2448 515 2686 
Q 419 2925 419 3219 
Q 419 3510 528 3758 
Q 637 4006 829 4188 
Q 1021 4371 1285 4475 
Q 1549 4579 1862 4579 
Q 2163 4579 2414 4476 
Q 2666 4374 2846 4187 
Q 3027 4000 3128 3739 
Q 3229 3478 3229 3158 
Q 3229 2982 3192 2822 
Q 3155 2662 3083 2502 
Q 3011 2342 2908 2174 
Q 2806 2006 2675 1814 
L 1488 74 
Q 1440 0 1331 0 
L 1053 0 
L 2394 1869 
z
M 2934 3216 
Q 2934 3462 2854 3667 
Q 2774 3872 2630 4017 
Q 2486 4163 2289 4244 
Q 2093 4326 1859 4326 
Q 1606 4326 1398 4246 
Q 1190 4166 1041 4022 
Q 893 3878 809 3678 
Q 726 3478 726 3238 
Q 726 2989 801 2789 
Q 877 2589 1016 2449 
Q 1155 2310 1352 2236 
Q 1549 2163 1789 2163 
Q 2061 2163 2275 2256 
Q 2490 2349 2635 2499 
Q 2781 2650 2857 2837 
Q 2934 3024 2934 3216 
z
" transform="scale(0.015625)"/>
        <path id="Lato-Light-36" d="M 1328 2765 
Q 1229 2634 1145 2518 
Q 1062 2403 995 2291 
Q 1184 2486 1443 2596 
Q 1702 2707 2010 2707 
Q 2301 2707 2547 2611 
Q 2794 2515 2971 2340 
Q 3149 2166 3249 1918 
Q 3350 1670 3350 1363 
Q 3350 1056 3240 797 
Q 3130 538 2933 349 
Q 2736 160 2461 54 
Q 2186 -51 1856 -51 
Q 1539 -51 1276 51 
Q 1014 154 827 346 
Q 640 538 537 814 
Q 435 1091 435 1440 
Q 435 1706 569 2040 
Q 704 2374 1011 2790 
L 2246 4454 
Q 2301 4528 2410 4528 
L 2678 4528 
L 1328 2765 
z
M 733 1366 
Q 733 1114 811 899 
Q 890 685 1034 529 
Q 1178 374 1386 288 
Q 1594 202 1853 202 
Q 2128 202 2349 288 
Q 2570 374 2725 526 
Q 2880 678 2963 888 
Q 3046 1098 3046 1344 
Q 3046 1603 2964 1812 
Q 2883 2022 2734 2168 
Q 2586 2314 2381 2392 
Q 2176 2470 1926 2470 
Q 1645 2470 1422 2372 
Q 1200 2275 1046 2120 
Q 893 1965 813 1766 
Q 733 1568 733 1366 
z
" transform="scale(0.015625)"/>
       </defs>
       <use xlink:href="#Lato-Light-30"/>
       <use xlink:href="#Lato-Light-2e" transform="translate(58 0)"/>
       <use xlink:href="#Lato-Light-39" transform="translate(81.350006 0)"/>
       <use xlink:href="#Lato-Light-36" transform="translate(139.350006 0)"/>
      </g>
     </g>
    </g>
    <g id="xtick_2">
     <g id="line2d_3">
      <path d="M 179.145227 170.7003 
L 179.145227 7.2 
" clip-path="url(#p8752097b2e)" style="fill: none; stroke-dasharray: 3.7,1.6; stroke-dashoffset: 0; stroke: #b0b0b0; stroke-opacity: 0.3"/>
     </g>
     <g id="line2d_4"/>
     <g id="text_2">
      <!-- 0.98 -->
      <g style="fill: #333333" transform="translate(167.304602 186.4303) scale(0.12 -0.12)">
       <defs>
        <path id="Lato-Light-38" d="M 1856 -51 
Q 1530 -51 1259 35 
Q 989 122 795 285 
Q 602 448 493 678 
Q 384 909 384 1197 
Q 384 1446 456 1641 
Q 528 1837 659 1981 
Q 790 2125 971 2221 
Q 1152 2317 1370 2365 
Q 1171 2422 1017 2521 
Q 864 2621 760 2758 
Q 656 2896 601 3064 
Q 547 3232 547 3424 
Q 547 3664 638 3875 
Q 730 4086 899 4243 
Q 1069 4400 1310 4489 
Q 1552 4579 1856 4579 
Q 2157 4579 2398 4489 
Q 2640 4400 2811 4243 
Q 2982 4086 3073 3875 
Q 3165 3664 3165 3424 
Q 3165 3232 3110 3064 
Q 3056 2896 2950 2758 
Q 2845 2621 2691 2521 
Q 2538 2422 2339 2365 
Q 2557 2317 2737 2221 
Q 2918 2125 3049 1981 
Q 3181 1837 3254 1641 
Q 3328 1446 3328 1197 
Q 3328 909 3219 678 
Q 3110 448 2916 285 
Q 2723 122 2452 35 
Q 2182 -51 1856 -51 
z
M 1856 192 
Q 2115 192 2328 264 
Q 2541 336 2694 469 
Q 2848 602 2931 787 
Q 3014 973 3014 1200 
Q 3014 1498 2905 1696 
Q 2797 1894 2627 2012 
Q 2458 2131 2253 2180 
Q 2048 2230 1856 2230 
Q 1664 2230 1459 2180 
Q 1254 2131 1084 2012 
Q 915 1894 806 1696 
Q 698 1498 698 1200 
Q 698 973 781 787 
Q 864 602 1016 469 
Q 1168 336 1382 264 
Q 1597 192 1856 192 
z
M 1856 2477 
Q 2115 2477 2305 2555 
Q 2496 2634 2621 2766 
Q 2746 2899 2805 3068 
Q 2864 3238 2864 3421 
Q 2864 3616 2797 3784 
Q 2730 3952 2600 4077 
Q 2470 4202 2283 4272 
Q 2096 4342 1856 4342 
Q 1616 4342 1427 4272 
Q 1238 4202 1108 4077 
Q 979 3952 912 3784 
Q 845 3616 845 3421 
Q 845 3238 904 3068 
Q 963 2899 1088 2766 
Q 1213 2634 1403 2555 
Q 1594 2477 1856 2477 
z
" transform="scale(0.015625)"/>
       </defs>
       <use xlink:href="#Lato-Light-30"/>
       <use xlink:href="#Lato-Light-2e" transform="translate(58 0)"/>
       <use xlink:href="#Lato-Light-39" transform="translate(81.350006 0)"/>
       <use xlink:href="#Lato-Light-38" transform="translate(139.350006 0)"/>
      </g>
     </g>
    </g>
    <g id="xtick_3">
     <g id="line2d_5">
      <path d="M 242.3625 170.7003 
L 242.3625 7.2 
" clip-path="url(#p8752097b2e)" style="fill: none; stroke-dasharray: 3.7,1.6; stroke-dashoffset: 0; stroke: #b0b0b0; stroke-opacity: 0.3"/>
     </g>
     <g id="line2d_6"/>
     <g id="text_3">
      <!-- 1.00 -->
      <g style="fill: #333333" transform="translate(230.521875 186.4303) scale(0.12 -0.12)">
       <defs>
        <path id="Lato-Light-31" d="M 854 237 
L 1894 237 
L 1894 3910 
Q 1894 4019 1904 4141 
L 906 3254 
Q 861 3216 816 3225 
Q 771 3235 746 3264 
L 653 3392 
L 1962 4547 
L 2202 4547 
L 2202 237 
L 3190 237 
L 3190 0 
L 854 0 
L 854 237 
z
" transform="scale(0.015625)"/>
       </defs>
       <use xlink:href="#Lato-Light-31"/>
       <use xlink:href="#Lato-Light-2e" transform="translate(58 0)"/>
       <use xlink:href="#Lato-Light-30" transform="translate(81.350006 0)"/>
       <use xlink:href="#Lato-Light-30" transform="translate(139.350006 0)"/>
      </g>
     </g>
    </g>
    <g id="xtick_4">
     <g id="line2d_7">
      <path d="M 305.579773 170.7003 
L 305.579773 7.2 
" clip-path="url(#p8752097b2e)" style="fill: none; stroke-dasharray: 3.7,1.6; stroke-dashoffset: 0; stroke: #b0b0b0; stroke-opacity: 0.3"/>
     </g>
     <g id="line2d_8"/>
     <g id="text_4">
      <!-- 1.02 -->
      <g style="fill: #333333" transform="translate(293.739148 186.4303) scale(0.12 -0.12)">
       <defs>
        <path id="Lato-Light-32" d="M 1882 4579 
Q 2141 4579 2376 4504 
Q 2611 4429 2792 4277 
Q 2973 4125 3078 3896 
Q 3184 3667 3184 3360 
Q 3184 3104 3105 2885 
Q 3027 2666 2892 2464 
Q 2758 2262 2580 2072 
Q 2403 1882 2208 1683 
L 790 237 
Q 893 262 1003 275 
Q 1114 288 1226 288 
L 3181 288 
Q 3232 288 3261 257 
Q 3290 227 3290 179 
L 3290 0 
L 368 0 
L 368 109 
Q 368 144 385 181 
Q 403 218 432 243 
L 1978 1808 
Q 2170 2003 2333 2185 
Q 2496 2368 2616 2553 
Q 2736 2739 2803 2934 
Q 2870 3130 2870 3350 
Q 2870 3600 2787 3784 
Q 2704 3968 2566 4086 
Q 2429 4205 2246 4262 
Q 2064 4320 1869 4320 
Q 1654 4320 1473 4254 
Q 1293 4189 1153 4072 
Q 1014 3955 923 3793 
Q 832 3632 797 3440 
Q 774 3370 737 3347 
Q 701 3325 637 3331 
L 480 3357 
Q 522 3648 640 3875 
Q 758 4102 940 4259 
Q 1123 4416 1363 4497 
Q 1603 4579 1882 4579 
z
" transform="scale(0.015625)"/>
       </defs>
       <use xlink:href="#Lato-Light-31"/>
       <use xlink:href="#Lato-Light-2e" transform="translate(58 0)"/>
       <use xlink:href="#Lato-Light-30" transform="translate(81.350006 0)"/>
       <use xlink:href="#Lato-Light-32" transform="translate(139.350006 0)"/>
      </g>
     </g>
    </g>
    <g id="xtick_5">
     <g id="line2d_9">
      <path d="M 368.797045 170.7003 
L 368.797045 7.2 
" clip-path="url(#p8752097b2e)" style="fill: none; stroke-dasharray: 3.7,1.6; stroke-dashoffset: 0; stroke: #b0b0b0; stroke-opacity: 0.3"/>
     </g>
     <g id="line2d_10"/>
     <g id="text_5">
      <!-- 1.04 -->
      <g style="fill: #333333" transform="translate(356.95642 186.4303) scale(0.12 -0.12)">
       <defs>
        <path id="Lato-Light-34" d="M 2678 1542 
L 3507 1542 
L 3507 1376 
Q 3507 1341 3486 1320 
Q 3466 1299 3421 1299 
L 2678 1299 
L 2678 0 
L 2410 0 
L 2410 1299 
L 269 1299 
Q 221 1299 195 1320 
Q 170 1341 160 1376 
L 131 1526 
L 2406 4534 
L 2678 4534 
L 2678 1542 
z
M 2410 3914 
Q 2410 3968 2414 4032 
Q 2419 4096 2426 4163 
L 464 1542 
L 2410 1542 
L 2410 3914 
z
" transform="scale(0.015625)"/>
       </defs>
       <use xlink:href="#Lato-Light-31"/>
       <use xlink:href="#Lato-Light-2e" transform="translate(58 0)"/>
       <use xlink:href="#Lato-Light-30" transform="translate(81.350006 0)"/>
       <use xlink:href="#Lato-Light-34" transform="translate(139.350006 0)"/>
      </g>
     </g>
    </g>
    <g id="text_6">
     <!-- # of Ensemble Members -->
     <g style="fill: #333333" transform="translate(168.087031 202.853425) scale(0.14 -0.14)">
      <defs>
       <path id="Lato-Regular-23" d="M 2538 1354 
L 2269 0 
L 2010 0 
Q 1968 0 1933 19 
Q 1898 38 1874 70 
Q 1850 102 1840 147 
Q 1830 192 1840 246 
L 2067 1354 
L 1277 1354 
L 1050 218 
Q 1030 99 956 49 
Q 883 0 790 0 
L 534 0 
L 806 1354 
L 339 1354 
Q 250 1354 210 1406 
Q 170 1459 189 1590 
L 214 1773 
L 867 1773 
L 1075 2816 
L 333 2816 
L 374 3053 
Q 390 3146 449 3190 
Q 509 3235 630 3235 
L 1136 3235 
L 1366 4381 
Q 1386 4477 1454 4531 
Q 1523 4586 1619 4586 
L 1875 4586 
L 1606 3235 
L 2397 3235 
L 2666 4586 
L 2918 4586 
Q 3011 4586 3064 4525 
Q 3117 4464 3101 4371 
L 2867 3235 
L 3546 3235 
L 3504 2995 
Q 3488 2902 3429 2859 
Q 3370 2816 3248 2816 
L 2806 2816 
L 2598 1773 
L 3171 1773 
Q 3264 1773 3304 1720 
Q 3344 1667 3325 1536 
L 3296 1354 
L 2538 1354 
z
M 1338 1773 
L 2128 1773 
L 2336 2816 
L 1546 2816 
L 1338 1773 
z
" transform="scale(0.015625)"/>
       <path id="Lato-Regular-20" transform="scale(0.015625)"/>
       <path id="Lato-Regular-6f" d="M 1818 3293 
Q 2173 3293 2457 3174 
Q 2742 3056 2944 2838 
Q 3146 2621 3253 2312 
Q 3360 2003 3360 1622 
Q 3360 1238 3253 931 
Q 3146 624 2944 406 
Q 2742 189 2457 72 
Q 2173 -45 1818 -45 
Q 1459 -45 1172 72 
Q 886 189 684 406 
Q 483 624 376 931 
Q 269 1238 269 1622 
Q 269 2003 376 2312 
Q 483 2621 684 2838 
Q 886 3056 1172 3174 
Q 1459 3293 1818 3293 
z
M 1818 400 
Q 2298 400 2534 721 
Q 2771 1043 2771 1619 
Q 2771 2198 2534 2521 
Q 2298 2845 1818 2845 
Q 1574 2845 1393 2761 
Q 1213 2678 1093 2521 
Q 973 2365 913 2136 
Q 854 1907 854 1619 
Q 854 1043 1092 721 
Q 1331 400 1818 400 
z
" transform="scale(0.015625)"/>
       <path id="Lato-Regular-66" d="M 662 0 
L 662 2755 
L 304 2797 
Q 237 2813 193 2846 
Q 150 2880 150 2944 
L 150 3178 
L 662 3178 
L 662 3491 
Q 662 3770 740 3986 
Q 819 4202 964 4350 
Q 1110 4499 1315 4576 
Q 1520 4653 1776 4653 
Q 1994 4653 2176 4589 
L 2163 4304 
Q 2157 4227 2078 4220 
Q 2000 4214 1869 4214 
Q 1722 4214 1602 4176 
Q 1482 4138 1395 4051 
Q 1309 3965 1262 3824 
Q 1216 3683 1216 3475 
L 1216 3178 
L 2150 3178 
L 2150 2765 
L 1235 2765 
L 1235 0 
L 662 0 
z
" transform="scale(0.015625)"/>
       <path id="Lato-Regular-45" d="M 3411 4586 
L 3411 4080 
L 1206 4080 
L 1206 2557 
L 2992 2557 
L 2992 2070 
L 1206 2070 
L 1206 506 
L 3414 506 
L 3411 0 
L 586 0 
L 586 4586 
L 3411 4586 
z
" transform="scale(0.015625)"/>
       <path id="Lato-Regular-6e" d="M 451 0 
L 451 3242 
L 794 3242 
Q 915 3242 944 3123 
L 989 2771 
Q 1200 3005 1462 3149 
Q 1725 3293 2067 3293 
Q 2333 3293 2536 3205 
Q 2739 3117 2875 2955 
Q 3011 2794 3081 2566 
Q 3152 2339 3152 2064 
L 3152 0 
L 2579 0 
L 2579 2064 
Q 2579 2432 2411 2635 
Q 2243 2838 1901 2838 
Q 1645 2838 1425 2716 
Q 1206 2595 1024 2387 
L 1024 0 
L 451 0 
z
" transform="scale(0.015625)"/>
       <path id="Lato-Regular-73" d="M 2339 2707 
Q 2301 2637 2221 2637 
Q 2173 2637 2112 2672 
Q 2051 2707 1963 2750 
Q 1875 2794 1753 2830 
Q 1632 2867 1466 2867 
Q 1322 2867 1206 2830 
Q 1091 2794 1009 2730 
Q 928 2666 885 2581 
Q 842 2496 842 2397 
Q 842 2272 914 2189 
Q 986 2106 1104 2045 
Q 1222 1984 1372 1937 
Q 1523 1891 1681 1838 
Q 1840 1786 1990 1722 
Q 2141 1658 2259 1562 
Q 2378 1466 2450 1326 
Q 2522 1187 2522 992 
Q 2522 768 2442 577 
Q 2362 387 2205 248 
Q 2048 109 1821 29 
Q 1594 -51 1296 -51 
Q 957 -51 681 59 
Q 406 170 214 342 
L 349 560 
Q 374 602 409 624 
Q 445 646 499 646 
Q 557 646 621 601 
Q 685 557 776 502 
Q 867 448 998 403 
Q 1130 358 1325 358 
Q 1491 358 1616 401 
Q 1741 445 1824 518 
Q 1907 592 1947 688 
Q 1987 784 1987 893 
Q 1987 1027 1915 1115 
Q 1843 1203 1724 1265 
Q 1606 1328 1454 1374 
Q 1302 1421 1144 1472 
Q 986 1523 834 1588 
Q 682 1654 563 1753 
Q 445 1853 373 1998 
Q 301 2144 301 2352 
Q 301 2538 377 2709 
Q 454 2880 601 3009 
Q 749 3139 963 3216 
Q 1178 3293 1453 3293 
Q 1773 3293 2027 3192 
Q 2282 3091 2467 2915 
L 2339 2707 
z
" transform="scale(0.015625)"/>
       <path id="Lato-Regular-65" d="M 1779 3293 
Q 2070 3293 2318 3195 
Q 2566 3098 2747 2914 
Q 2928 2730 3030 2459 
Q 3133 2189 3133 1843 
Q 3133 1709 3104 1664 
Q 3075 1619 2995 1619 
L 829 1619 
Q 835 1312 912 1085 
Q 989 858 1123 706 
Q 1258 554 1443 478 
Q 1629 403 1859 403 
Q 2074 403 2229 452 
Q 2384 502 2496 560 
Q 2608 618 2683 667 
Q 2758 717 2813 717 
Q 2883 717 2922 662 
L 3082 454 
Q 2976 326 2829 232 
Q 2682 138 2514 77 
Q 2346 16 2166 -14 
Q 1987 -45 1811 -45 
Q 1475 -45 1192 68 
Q 909 182 702 401 
Q 496 621 381 944 
Q 266 1267 266 1686 
Q 266 2026 370 2320 
Q 474 2614 669 2830 
Q 864 3046 1145 3169 
Q 1427 3293 1779 3293 
z
M 1792 2874 
Q 1379 2874 1142 2635 
Q 906 2397 848 1974 
L 2621 1974 
Q 2621 2173 2565 2337 
Q 2509 2502 2401 2622 
Q 2294 2742 2140 2808 
Q 1987 2874 1792 2874 
z
" transform="scale(0.015625)"/>
       <path id="Lato-Regular-6d" d="M 451 0 
L 451 3242 
L 794 3242 
Q 915 3242 944 3123 
L 986 2790 
Q 1165 3011 1389 3152 
Q 1613 3293 1907 3293 
Q 2234 3293 2437 3110 
Q 2640 2928 2730 2618 
Q 2800 2794 2910 2922 
Q 3021 3050 3158 3133 
Q 3296 3216 3451 3254 
Q 3606 3293 3766 3293 
Q 4022 3293 4222 3211 
Q 4422 3130 4561 2973 
Q 4701 2816 4774 2587 
Q 4848 2358 4848 2064 
L 4848 0 
L 4275 0 
L 4275 2064 
Q 4275 2445 4108 2641 
Q 3942 2838 3629 2838 
Q 3488 2838 3361 2788 
Q 3235 2739 3139 2643 
Q 3043 2547 2987 2401 
Q 2931 2256 2931 2064 
L 2931 0 
L 2358 0 
L 2358 2064 
Q 2358 2454 2201 2646 
Q 2045 2838 1744 2838 
Q 1533 2838 1353 2724 
Q 1174 2611 1024 2416 
L 1024 0 
L 451 0 
z
" transform="scale(0.015625)"/>
       <path id="Lato-Regular-62" d="M 451 0 
L 451 4714 
L 1024 4714 
L 1024 2771 
Q 1226 3011 1485 3152 
Q 1744 3293 2080 3293 
Q 2365 3293 2593 3184 
Q 2822 3075 2982 2868 
Q 3142 2662 3227 2368 
Q 3312 2074 3312 1706 
Q 3312 1312 3216 989 
Q 3120 666 2939 437 
Q 2758 208 2499 81 
Q 2240 -45 1917 -45 
Q 1597 -45 1377 75 
Q 1158 195 995 416 
L 966 122 
Q 941 0 819 0 
L 451 0 
z
M 1891 2838 
Q 1613 2838 1405 2710 
Q 1197 2582 1024 2349 
L 1024 781 
Q 1181 570 1368 483 
Q 1555 397 1779 397 
Q 2237 397 2480 720 
Q 2723 1043 2723 1683 
Q 2723 2278 2507 2558 
Q 2291 2838 1891 2838 
z
" transform="scale(0.015625)"/>
       <path id="Lato-Regular-6c" d="M 1040 4714 
L 1040 0 
L 470 0 
L 470 4714 
L 1040 4714 
z
" transform="scale(0.015625)"/>
       <path id="Lato-Regular-4d" d="M 2842 1658 
Q 2880 1581 2915 1496 
Q 2950 1411 2986 1328 
Q 3018 1414 3053 1499 
Q 3088 1584 3130 1661 
L 4685 4480 
Q 4723 4554 4769 4570 
Q 4816 4586 4899 4586 
L 5357 4586 
L 5357 0 
L 4813 0 
L 4813 3370 
Q 4813 3437 4816 3513 
Q 4819 3590 4826 3670 
L 3254 803 
Q 3181 659 3030 659 
L 2941 659 
Q 2790 659 2717 803 
L 1110 3680 
Q 1120 3597 1125 3517 
Q 1130 3437 1130 3370 
L 1130 0 
L 586 0 
L 586 4586 
L 1043 4586 
Q 1126 4586 1171 4570 
Q 1216 4554 1258 4480 
L 2842 1658 
L 2842 1658 
z
" transform="scale(0.015625)"/>
       <path id="Lato-Regular-72" d="M 451 0 
L 451 3242 
L 778 3242 
Q 870 3242 905 3206 
Q 941 3171 954 3085 
L 989 2592 
Q 1142 2925 1368 3112 
Q 1594 3299 1917 3299 
Q 2019 3299 2113 3276 
Q 2208 3254 2282 3206 
L 2240 2781 
Q 2221 2701 2144 2701 
Q 2099 2701 2012 2720 
Q 1926 2739 1818 2739 
Q 1664 2739 1542 2692 
Q 1421 2646 1326 2558 
Q 1232 2470 1158 2342 
Q 1085 2214 1024 2048 
L 1024 0 
L 451 0 
z
" transform="scale(0.015625)"/>
      </defs>
      <use xlink:href="#Lato-Regular-23"/>
      <use xlink:href="#Lato-Regular-20" transform="translate(58 0)"/>
      <use xlink:href="#Lato-Regular-6f" transform="translate(83.600006 0)"/>
      <use xlink:href="#Lato-Regular-66" transform="translate(139.175018 0)"/>
      <use xlink:href="#Lato-Regular-20" transform="translate(172.350021 0)"/>
      <use xlink:href="#Lato-Regular-45" transform="translate(197.950027 0)"/>
      <use xlink:href="#Lato-Regular-6e" transform="translate(254.325027 0)"/>
      <use xlink:href="#Lato-Regular-73" transform="translate(310.125031 0)"/>
      <use xlink:href="#Lato-Regular-65" transform="translate(353.425034 0)"/>
      <use xlink:href="#Lato-Regular-6d" transform="translate(406.225037 0)"/>
      <use xlink:href="#Lato-Regular-62" transform="translate(488.475052 0)"/>
      <use xlink:href="#Lato-Regular-6c" transform="translate(544.475052 0)"/>
      <use xlink:href="#Lato-Regular-65" transform="translate(568.075058 0)"/>
      <use xlink:href="#Lato-Regular-20" transform="translate(620.875061 0)"/>
      <use xlink:href="#Lato-Regular-4d" transform="translate(646.475067 0)"/>
      <use xlink:href="#Lato-Regular-65" transform="translate(737.825089 0)"/>
      <use xlink:href="#Lato-Regular-6d" transform="translate(790.625092 0)"/>
      <use xlink:href="#Lato-Regular-62" transform="translate(872.875107 0)"/>
      <use xlink:href="#Lato-Regular-65" transform="translate(928.875107 0)"/>
      <use xlink:href="#Lato-Regular-72" transform="translate(981.67511 0)"/>
      <use xlink:href="#Lato-Regular-73" transform="translate(1017.825119 0)"/>
     </g>
    </g>
   </g>
   <g id="matplotlib.axis_2">
    <g id="ytick_1">
     <g id="line2d_11">
      <path d="M 68.515 168.207707 
L 416.21 168.207707 
" clip-path="url(#p8752097b2e)" style="fill: none; stroke-dasharray: 3.7,1.6; stroke-dashoffset: 0; stroke: #b0b0b0; stroke-opacity: 0.3"/>
     </g>
     <g id="line2d_12"/>
     <g id="text_7">
      <!-- 0.1225 -->
      <g style="fill: #333333" transform="translate(23.91375 172.572707) scale(0.12 -0.12)">
       <defs>
        <path id="Lato-Light-35" d="M 3078 4397 
Q 3078 4333 3035 4289 
Q 2992 4246 2899 4246 
L 1261 4246 
L 989 2736 
Q 1203 2790 1395 2814 
Q 1587 2838 1760 2838 
Q 2115 2838 2384 2737 
Q 2653 2637 2833 2456 
Q 3014 2275 3105 2025 
Q 3197 1776 3197 1482 
Q 3197 1123 3073 840 
Q 2950 557 2736 358 
Q 2522 160 2237 54 
Q 1952 -51 1632 -51 
Q 1446 -51 1275 -17 
Q 1104 16 955 72 
Q 806 128 680 201 
Q 554 275 458 352 
L 550 477 
Q 579 525 640 525 
Q 682 525 760 477 
Q 838 429 961 371 
Q 1085 314 1254 266 
Q 1424 218 1648 218 
Q 1910 218 2137 302 
Q 2365 387 2531 547 
Q 2698 707 2792 942 
Q 2886 1178 2886 1475 
Q 2886 1718 2814 1923 
Q 2742 2128 2596 2273 
Q 2451 2419 2228 2500 
Q 2006 2582 1706 2582 
Q 1523 2582 1318 2553 
Q 1114 2525 883 2461 
L 688 2522 
L 1040 4528 
L 3078 4528 
L 3078 4397 
z
" transform="scale(0.015625)"/>
       </defs>
       <use xlink:href="#Lato-Light-30"/>
       <use xlink:href="#Lato-Light-2e" transform="translate(58 0)"/>
       <use xlink:href="#Lato-Light-31" transform="translate(81.350006 0)"/>
       <use xlink:href="#Lato-Light-32" transform="translate(139.350006 0)"/>
       <use xlink:href="#Lato-Light-32" transform="translate(197.350006 0)"/>
       <use xlink:href="#Lato-Light-35" transform="translate(255.350006 0)"/>
      </g>
     </g>
    </g>
    <g id="ytick_2">
     <g id="line2d_13">
      <path d="M 68.515 139.491201 
L 416.21 139.491201 
" clip-path="url(#p8752097b2e)" style="fill: none; stroke-dasharray: 3.7,1.6; stroke-dashoffset: 0; stroke: #b0b0b0; stroke-opacity: 0.3"/>
     </g>
     <g id="line2d_14"/>
     <g id="text_8">
      <!-- 0.1250 -->
      <g style="fill: #333333" transform="translate(23.91375 143.856201) scale(0.12 -0.12)">
       <use xlink:href="#Lato-Light-30"/>
       <use xlink:href="#Lato-Light-2e" transform="translate(58 0)"/>
       <use xlink:href="#Lato-Light-31" transform="translate(81.350006 0)"/>
       <use xlink:href="#Lato-Light-32" transform="translate(139.350006 0)"/>
       <use xlink:href="#Lato-Light-35" transform="translate(197.350006 0)"/>
       <use xlink:href="#Lato-Light-30" transform="translate(255.350006 0)"/>
      </g>
     </g>
    </g>
    <g id="ytick_3">
     <g id="line2d_15">
      <path d="M 68.515 110.774694 
L 416.21 110.774694 
" clip-path="url(#p8752097b2e)" style="fill: none; stroke-dasharray: 3.7,1.6; stroke-dashoffset: 0; stroke: #b0b0b0; stroke-opacity: 0.3"/>
     </g>
     <g id="line2d_16"/>
     <g id="text_9">
      <!-- 0.1275 -->
      <g style="fill: #333333" transform="translate(23.91375 115.139694) scale(0.12 -0.12)">
       <defs>
        <path id="Lato-Light-37" d="M 3414 4528 
L 3414 4390 
Q 3414 4336 3401 4296 
Q 3389 4256 3373 4227 
L 1299 115 
Q 1274 64 1230 32 
Q 1187 0 1117 0 
L 906 0 
L 2998 4096 
Q 3021 4141 3045 4176 
Q 3069 4211 3094 4246 
L 486 4246 
Q 451 4246 425 4272 
Q 400 4298 400 4333 
L 400 4528 
L 3414 4528 
z
" transform="scale(0.015625)"/>
       </defs>
       <use xlink:href="#Lato-Light-30"/>
       <use xlink:href="#Lato-Light-2e" transform="translate(58 0)"/>
       <use xlink:href="#Lato-Light-31" transform="translate(81.350006 0)"/>
       <use xlink:href="#Lato-Light-32" transform="translate(139.350006 0)"/>
       <use xlink:href="#Lato-Light-37" transform="translate(197.350006 0)"/>
       <use xlink:href="#Lato-Light-35" transform="translate(255.350006 0)"/>
      </g>
     </g>
    </g>
    <g id="ytick_4">
     <g id="line2d_17">
      <path d="M 68.515 82.058188 
L 416.21 82.058188 
" clip-path="url(#p8752097b2e)" style="fill: none; stroke-dasharray: 3.7,1.6; stroke-dashoffset: 0; stroke: #b0b0b0; stroke-opacity: 0.3"/>
     </g>
     <g id="line2d_18"/>
     <g id="text_10">
      <!-- 0.1300 -->
      <g style="fill: #333333" transform="translate(23.91375 86.423188) scale(0.12 -0.12)">
       <defs>
        <path id="Lato-Light-33" d="M 1901 4579 
Q 2160 4579 2390 4507 
Q 2621 4435 2795 4291 
Q 2970 4147 3070 3932 
Q 3171 3718 3171 3437 
Q 3171 3216 3102 3038 
Q 3034 2861 2914 2726 
Q 2794 2592 2630 2501 
Q 2467 2410 2275 2362 
Q 2774 2269 3030 1976 
Q 3286 1683 3286 1245 
Q 3286 966 3174 728 
Q 3062 490 2867 317 
Q 2672 144 2406 46 
Q 2141 -51 1830 -51 
Q 1443 -51 1185 53 
Q 928 157 761 323 
Q 595 490 502 696 
Q 410 902 352 1107 
L 474 1158 
Q 525 1181 581 1171 
Q 637 1162 662 1098 
Q 678 1059 705 977 
Q 733 896 784 797 
Q 835 698 916 594 
Q 998 490 1121 403 
Q 1245 317 1417 262 
Q 1590 208 1827 208 
Q 2115 208 2331 304 
Q 2547 400 2692 549 
Q 2838 698 2910 882 
Q 2982 1066 2982 1238 
Q 2982 1446 2916 1625 
Q 2851 1805 2697 1934 
Q 2544 2064 2293 2139 
Q 2042 2214 1674 2214 
L 1674 2435 
Q 1968 2442 2192 2514 
Q 2416 2586 2566 2710 
Q 2717 2835 2793 3008 
Q 2870 3181 2870 3389 
Q 2870 3629 2790 3805 
Q 2710 3981 2576 4096 
Q 2442 4211 2262 4265 
Q 2083 4320 1888 4320 
Q 1674 4320 1491 4254 
Q 1309 4189 1169 4072 
Q 1030 3955 937 3793 
Q 845 3632 810 3440 
Q 790 3370 755 3347 
Q 720 3325 656 3331 
L 499 3357 
Q 541 3648 659 3875 
Q 778 4102 960 4259 
Q 1142 4416 1382 4497 
Q 1622 4579 1901 4579 
z
" transform="scale(0.015625)"/>
       </defs>
       <use xlink:href="#Lato-Light-30"/>
       <use xlink:href="#Lato-Light-2e" transform="translate(58 0)"/>
       <use xlink:href="#Lato-Light-31" transform="translate(81.350006 0)"/>
       <use xlink:href="#Lato-Light-33" transform="translate(139.350006 0)"/>
       <use xlink:href="#Lato-Light-30" transform="translate(197.350006 0)"/>
       <use xlink:href="#Lato-Light-30" transform="translate(255.350006 0)"/>
      </g>
     </g>
    </g>
    <g id="ytick_5">
     <g id="line2d_19">
      <path d="M 68.515 53.341682 
L 416.21 53.341682 
" clip-path="url(#p8752097b2e)" style="fill: none; stroke-dasharray: 3.7,1.6; stroke-dashoffset: 0; stroke: #b0b0b0; stroke-opacity: 0.3"/>
     </g>
     <g id="line2d_20"/>
     <g id="text_11">
      <!-- 0.1325 -->
      <g style="fill: #333333" transform="translate(23.91375 57.706682) scale(0.12 -0.12)">
       <use xlink:href="#Lato-Light-30"/>
       <use xlink:href="#Lato-Light-2e" transform="translate(58 0)"/>
       <use xlink:href="#Lato-Light-31" transform="translate(81.350006 0)"/>
       <use xlink:href="#Lato-Light-33" transform="translate(139.350006 0)"/>
       <use xlink:href="#Lato-Light-32" transform="translate(197.350006 0)"/>
       <use xlink:href="#Lato-Light-35" transform="translate(255.350006 0)"/>
      </g>
     </g>
    </g>
    <g id="ytick_6">
     <g id="line2d_21">
      <path d="M 68.515 24.625176 
L 416.21 24.625176 
" clip-path="url(#p8752097b2e)" style="fill: none; stroke-dasharray: 3.7,1.6; stroke-dashoffset: 0; stroke: #b0b0b0; stroke-opacity: 0.3"/>
     </g>
     <g id="line2d_22"/>
     <g id="text_12">
      <!-- 0.1350 -->
      <g style="fill: #333333" transform="translate(23.91375 28.990176) scale(0.12 -0.12)">
       <use xlink:href="#Lato-Light-30"/>
       <use xlink:href="#Lato-Light-2e" transform="translate(58 0)"/>
       <use xlink:href="#Lato-Light-31" transform="translate(81.350006 0)"/>
       <use xlink:href="#Lato-Light-33" transform="translate(139.350006 0)"/>
       <use xlink:href="#Lato-Light-35" transform="translate(197.350006 0)"/>
       <use xlink:href="#Lato-Light-30" transform="translate(255.350006 0)"/>
      </g>
     </g>
    </g>
    <g id="text_13">
     <!-- Test Acc. -->
     <g style="fill: #333333" transform="translate(17.511875 115.93515) rotate(-90) scale(0.14 -0.14)">
      <defs>
       <path id="Lato-Regular-54" d="M 3686 4586 
L 3686 4064 
L 2202 4064 
L 2202 0 
L 1584 0 
L 1584 4064 
L 96 4064 
L 96 4586 
L 3686 4586 
z
" transform="scale(0.015625)"/>
       <path id="Lato-Regular-74" d="M 1446 -51 
Q 1062 -51 856 163 
Q 650 378 650 781 
L 650 2765 
L 259 2765 
Q 208 2765 173 2795 
Q 138 2826 138 2890 
L 138 3117 
L 669 3184 
L 800 4186 
Q 810 4234 843 4264 
Q 877 4294 931 4294 
L 1219 4294 
L 1219 3178 
L 2157 3178 
L 2157 2765 
L 1219 2765 
L 1219 819 
Q 1219 614 1318 515 
Q 1418 416 1574 416 
Q 1664 416 1729 440 
Q 1795 464 1843 493 
Q 1891 522 1924 546 
Q 1958 570 1984 570 
Q 2029 570 2064 515 
L 2230 243 
Q 2083 106 1875 27 
Q 1667 -51 1446 -51 
z
" transform="scale(0.015625)"/>
       <path id="Lato-Regular-41" d="M 4314 0 
L 3834 0 
Q 3750 0 3699 41 
Q 3648 83 3622 147 
L 3194 1254 
L 1136 1254 
L 707 147 
Q 688 90 633 45 
Q 579 0 499 0 
L 19 0 
L 1853 4586 
L 2480 4586 
L 4314 0 
z
M 1309 1702 
L 3021 1702 
L 2301 3568 
Q 2266 3651 2232 3760 
Q 2198 3869 2163 3994 
Q 2131 3869 2097 3758 
Q 2064 3648 2029 3565 
L 1309 1702 
z
" transform="scale(0.015625)"/>
       <path id="Lato-Regular-63" d="M 2707 2666 
Q 2682 2630 2656 2611 
Q 2630 2592 2586 2592 
Q 2538 2592 2480 2632 
Q 2422 2672 2337 2720 
Q 2253 2768 2129 2808 
Q 2006 2848 1827 2848 
Q 1587 2848 1404 2763 
Q 1222 2678 1099 2518 
Q 976 2358 913 2131 
Q 851 1904 851 1622 
Q 851 1328 918 1099 
Q 986 870 1109 715 
Q 1232 560 1406 478 
Q 1581 397 1798 397 
Q 2006 397 2140 446 
Q 2275 496 2363 557 
Q 2451 618 2510 667 
Q 2570 717 2627 717 
Q 2698 717 2736 662 
L 2896 454 
Q 2790 323 2656 230 
Q 2522 138 2366 75 
Q 2211 13 2041 -16 
Q 1872 -45 1696 -45 
Q 1392 -45 1131 67 
Q 870 179 678 392 
Q 486 605 377 915 
Q 269 1226 269 1622 
Q 269 1984 369 2291 
Q 470 2598 664 2820 
Q 858 3043 1141 3168 
Q 1424 3293 1792 3293 
Q 2134 3293 2395 3182 
Q 2656 3072 2858 2870 
L 2707 2666 
z
" transform="scale(0.015625)"/>
       <path id="Lato-Regular-2e" d="M 355 352 
Q 355 435 385 508 
Q 416 582 469 636 
Q 522 691 595 723 
Q 669 755 752 755 
Q 835 755 908 723 
Q 982 691 1036 636 
Q 1091 582 1123 508 
Q 1155 435 1155 352 
Q 1155 266 1123 194 
Q 1091 122 1036 67 
Q 982 13 908 -17 
Q 835 -48 752 -48 
Q 669 -48 595 -17 
Q 522 13 469 67 
Q 416 122 385 194 
Q 355 266 355 352 
z
" transform="scale(0.015625)"/>
      </defs>
      <use xlink:href="#Lato-Regular-54"/>
      <use xlink:href="#Lato-Regular-65" transform="translate(46.800003 0)"/>
      <use xlink:href="#Lato-Regular-73" transform="translate(99.600006 0)"/>
      <use xlink:href="#Lato-Regular-74" transform="translate(142.900009 0)"/>
      <use xlink:href="#Lato-Regular-20" transform="translate(178.750015 0)"/>
      <use xlink:href="#Lato-Regular-41" transform="translate(200.975021 0)"/>
      <use xlink:href="#Lato-Regular-63" transform="translate(267.300034 0)"/>
      <use xlink:href="#Lato-Regular-63" transform="translate(314.175034 0)"/>
      <use xlink:href="#Lato-Regular-2e" transform="translate(361.925034 0)"/>
     </g>
    </g>
   </g>
   <g id="line2d_23">
    <path d="M 242.3625 88.95015 
" clip-path="url(#p8752097b2e)" style="fill: none; stroke: #368dff; stroke-width: 2.5; stroke-linecap: round"/>
   </g>
   <g id="line2d_24">
    <path d="M 242.3625 88.95015 
" clip-path="url(#p8752097b2e)" style="fill: none; stroke: #ff6495; stroke-width: 2.5; stroke-linecap: round"/>
   </g>
   <g id="line2d_25">
    <path d="M 242.3625 88.95015 
" clip-path="url(#p8752097b2e)" style="fill: none; stroke: #3dd598; stroke-width: 2.5; stroke-linecap: round"/>
   </g>
   <g id="line2d_26">
    <path d="M 68.515 88.95015 
L 416.21 88.95015 
" clip-path="url(#p8752097b2e)" style="fill: none; stroke-dasharray: 2.5,4.125; stroke-dashoffset: 0; stroke: #ffa500; stroke-width: 2.5"/>
   </g>
   <g id="legend_1">
    <g id="line2d_27">
     <path d="M 78.942187 222.425991 
L 90.942187 222.425991 
L 102.942187 222.425991 
" style="fill: none; stroke: #368dff; stroke-width: 2.5; stroke-linecap: round"/>
    </g>
    <g id="text_14">
     <!-- Ascending (Worst First) -->
     <g style="fill: #333333" transform="translate(112.542187 226.625991) scale(0.12 -0.12)">
      <defs>
       <path id="Lato-Light-41" d="M 4112 0 
L 3859 0 
Q 3814 0 3785 24 
Q 3757 48 3741 86 
L 3210 1402 
L 986 1402 
L 454 86 
Q 442 51 410 25 
Q 378 0 333 0 
L 83 0 
L 1936 4528 
L 2259 4528 
L 4112 0 
z
M 1082 1645 
L 3110 1645 
L 2189 3933 
Q 2141 4045 2096 4202 
Q 2074 4125 2051 4054 
Q 2029 3984 2006 3930 
L 1082 1645 
z
" transform="scale(0.015625)"/>
       <path id="Lato-Light-73" d="M 2275 2790 
Q 2250 2746 2202 2746 
Q 2166 2746 2112 2786 
Q 2058 2826 1966 2875 
Q 1875 2925 1740 2965 
Q 1606 3005 1414 3005 
Q 1242 3005 1099 2955 
Q 957 2906 856 2822 
Q 755 2739 700 2628 
Q 646 2518 646 2397 
Q 646 2246 723 2147 
Q 800 2048 923 1977 
Q 1046 1907 1206 1856 
Q 1366 1805 1531 1753 
Q 1696 1702 1856 1640 
Q 2016 1578 2139 1485 
Q 2262 1392 2339 1257 
Q 2416 1123 2416 931 
Q 2416 723 2342 544 
Q 2269 365 2126 233 
Q 1984 102 1776 25 
Q 1568 -51 1299 -51 
Q 963 -51 720 56 
Q 477 163 285 336 
L 355 445 
Q 371 470 392 483 
Q 413 496 448 496 
Q 490 496 549 445 
Q 608 394 707 334 
Q 806 275 952 224 
Q 1098 173 1312 173 
Q 1514 173 1667 229 
Q 1821 285 1923 381 
Q 2026 477 2078 606 
Q 2131 736 2131 880 
Q 2131 1040 2054 1145 
Q 1978 1251 1853 1324 
Q 1728 1398 1569 1449 
Q 1411 1501 1244 1552 
Q 1078 1603 920 1664 
Q 762 1725 637 1817 
Q 512 1910 435 2043 
Q 358 2176 358 2374 
Q 358 2544 432 2701 
Q 506 2858 642 2976 
Q 778 3094 973 3164 
Q 1168 3235 1411 3235 
Q 1702 3235 1928 3152 
Q 2154 3069 2339 2896 
L 2275 2790 
z
" transform="scale(0.015625)"/>
       <path id="Lato-Light-63" d="M 2666 2758 
Q 2650 2742 2635 2731 
Q 2621 2720 2595 2720 
Q 2563 2720 2508 2763 
Q 2454 2806 2361 2857 
Q 2269 2909 2129 2952 
Q 1990 2995 1792 2995 
Q 1517 2995 1304 2897 
Q 1091 2800 944 2617 
Q 797 2435 721 2176 
Q 646 1917 646 1594 
Q 646 1258 724 998 
Q 803 739 947 561 
Q 1091 384 1296 291 
Q 1501 198 1750 198 
Q 1981 198 2136 252 
Q 2291 307 2392 371 
Q 2493 435 2550 489 
Q 2608 544 2646 544 
Q 2685 544 2710 512 
L 2790 410 
Q 2717 314 2605 230 
Q 2493 147 2352 86 
Q 2211 26 2046 -8 
Q 1882 -42 1702 -42 
Q 1398 -42 1147 68 
Q 896 179 715 388 
Q 534 598 433 902 
Q 333 1206 333 1594 
Q 333 1958 429 2259 
Q 525 2560 710 2777 
Q 896 2995 1163 3115 
Q 1430 3235 1776 3235 
Q 2086 3235 2326 3136 
Q 2566 3037 2746 2867 
L 2666 2758 
z
" transform="scale(0.015625)"/>
       <path id="Lato-Light-65" d="M 1770 3235 
Q 2038 3235 2268 3142 
Q 2499 3050 2668 2872 
Q 2838 2694 2936 2435 
Q 3034 2176 3034 1840 
Q 3034 1770 3014 1744 
Q 2995 1718 2950 1718 
L 634 1718 
L 634 1658 
Q 634 1299 717 1027 
Q 800 755 953 571 
Q 1107 387 1324 294 
Q 1542 202 1811 202 
Q 2051 202 2227 254 
Q 2403 307 2523 372 
Q 2643 438 2713 491 
Q 2784 544 2816 544 
Q 2858 544 2880 512 
L 2963 410 
Q 2886 314 2760 230 
Q 2634 147 2478 88 
Q 2323 29 2145 -6 
Q 1968 -42 1789 -42 
Q 1462 -42 1193 72 
Q 925 186 733 403 
Q 541 621 437 936 
Q 333 1251 333 1658 
Q 333 2000 430 2289 
Q 528 2579 712 2788 
Q 896 2998 1163 3116 
Q 1430 3235 1770 3235 
z
M 1773 3008 
Q 1526 3008 1331 2931 
Q 1136 2854 993 2710 
Q 851 2566 763 2364 
Q 675 2163 646 1914 
L 2758 1914 
Q 2758 2170 2686 2373 
Q 2614 2576 2483 2717 
Q 2352 2858 2171 2933 
Q 1990 3008 1773 3008 
z
" transform="scale(0.015625)"/>
       <path id="Lato-Light-6e" d="M 525 0 
L 525 3184 
L 694 3184 
Q 774 3184 787 3104 
L 816 2624 
Q 1037 2902 1325 3068 
Q 1613 3235 1971 3235 
Q 2234 3235 2434 3152 
Q 2634 3069 2765 2912 
Q 2896 2755 2963 2534 
Q 3030 2314 3030 2035 
L 3030 0 
L 2723 0 
L 2723 2035 
Q 2723 2483 2518 2737 
Q 2314 2992 1894 2992 
Q 1581 2992 1312 2833 
Q 1043 2675 832 2394 
L 832 0 
L 525 0 
z
" transform="scale(0.015625)"/>
       <path id="Lato-Light-64" d="M 2835 0 
Q 2752 0 2739 83 
L 2707 586 
Q 2496 298 2214 128 
Q 1933 -42 1581 -42 
Q 992 -42 665 364 
Q 339 771 339 1584 
Q 339 1933 430 2235 
Q 522 2538 698 2760 
Q 874 2982 1131 3110 
Q 1389 3238 1725 3238 
Q 2048 3238 2285 3118 
Q 2522 2998 2698 2768 
L 2698 4656 
L 3002 4656 
L 3002 0 
L 2835 0 
z
M 1667 205 
Q 1981 205 2238 368 
Q 2496 531 2698 826 
L 2698 2496 
Q 2515 2771 2292 2884 
Q 2070 2998 1786 2998 
Q 1504 2998 1293 2896 
Q 1082 2794 939 2606 
Q 797 2419 725 2158 
Q 653 1898 653 1584 
Q 653 874 913 539 
Q 1174 205 1667 205 
z
" transform="scale(0.015625)"/>
       <path id="Lato-Light-69" d="M 864 3184 
L 864 0 
L 560 0 
L 560 3184 
L 864 3184 
z
M 995 4282 
Q 995 4224 971 4174 
Q 947 4125 908 4086 
Q 870 4048 819 4025 
Q 768 4003 710 4003 
Q 653 4003 601 4025 
Q 550 4048 512 4086 
Q 474 4125 451 4174 
Q 429 4224 429 4282 
Q 429 4339 451 4392 
Q 474 4445 512 4483 
Q 550 4522 601 4544 
Q 653 4566 710 4566 
Q 768 4566 819 4544 
Q 870 4522 908 4483 
Q 947 4445 971 4392 
Q 995 4339 995 4282 
z
" transform="scale(0.015625)"/>
       <path id="Lato-Light-67" d="M 1565 3238 
Q 1776 3238 1952 3187 
Q 2128 3136 2272 3043 
L 3088 3043 
L 3088 2938 
Q 3088 2867 2998 2851 
L 2512 2816 
Q 2602 2694 2650 2542 
Q 2698 2390 2698 2218 
Q 2698 1987 2616 1800 
Q 2534 1613 2385 1480 
Q 2237 1347 2027 1273 
Q 1818 1200 1565 1200 
Q 1290 1200 1069 1283 
Q 934 1203 856 1099 
Q 778 995 778 896 
Q 778 758 875 684 
Q 973 611 1131 577 
Q 1290 544 1493 534 
Q 1696 525 1907 513 
Q 2118 502 2321 473 
Q 2525 445 2683 373 
Q 2842 301 2939 171 
Q 3037 42 3037 -173 
Q 3037 -371 2937 -553 
Q 2838 -736 2651 -877 
Q 2464 -1018 2198 -1102 
Q 1933 -1187 1603 -1187 
Q 1267 -1187 1014 -1118 
Q 762 -1050 590 -933 
Q 419 -816 332 -662 
Q 246 -509 246 -336 
Q 246 -83 412 97 
Q 579 278 867 381 
Q 704 435 608 537 
Q 512 640 512 822 
Q 512 890 537 963 
Q 563 1037 614 1109 
Q 666 1181 739 1245 
Q 813 1309 906 1360 
Q 678 1491 552 1708 
Q 426 1926 426 2218 
Q 426 2448 507 2635 
Q 589 2822 739 2956 
Q 890 3091 1099 3164 
Q 1309 3238 1565 3238 
z
M 2755 -214 
Q 2755 -64 2676 27 
Q 2598 118 2467 169 
Q 2336 221 2163 240 
Q 1990 259 1804 270 
Q 1619 282 1430 291 
Q 1242 301 1075 330 
Q 954 282 851 218 
Q 749 154 675 75 
Q 602 -3 560 -97 
Q 518 -192 518 -301 
Q 518 -442 590 -562 
Q 662 -682 801 -770 
Q 941 -858 1142 -909 
Q 1344 -960 1606 -960 
Q 1850 -960 2059 -905 
Q 2269 -851 2424 -752 
Q 2579 -653 2667 -515 
Q 2755 -378 2755 -214 
z
M 1565 1408 
Q 1770 1408 1930 1467 
Q 2090 1526 2198 1632 
Q 2307 1738 2364 1885 
Q 2422 2032 2422 2211 
Q 2422 2390 2363 2539 
Q 2304 2688 2193 2793 
Q 2083 2899 1924 2956 
Q 1766 3014 1565 3014 
Q 1363 3014 1204 2956 
Q 1046 2899 936 2793 
Q 826 2688 768 2539 
Q 710 2390 710 2211 
Q 710 2032 768 1885 
Q 826 1738 936 1632 
Q 1046 1526 1204 1467 
Q 1363 1408 1565 1408 
z
" transform="scale(0.015625)"/>
       <path id="Lato-Light-20" transform="scale(0.015625)"/>
       <path id="Lato-Light-28" d="M 621 2016 
Q 621 1299 814 641 
Q 1008 -16 1392 -627 
Q 1424 -682 1409 -715 
Q 1395 -749 1370 -765 
L 1235 -848 
Q 989 -470 821 -116 
Q 653 237 549 587 
Q 445 938 398 1290 
Q 352 1642 352 2016 
Q 352 2390 398 2744 
Q 445 3098 549 3448 
Q 653 3798 821 4152 
Q 989 4506 1235 4883 
L 1370 4800 
Q 1395 4784 1409 4750 
Q 1424 4717 1392 4662 
Q 1008 4051 814 3393 
Q 621 2736 621 2016 
z
" transform="scale(0.015625)"/>
       <path id="Lato-Light-57" d="M 150 4528 
L 422 4528 
Q 515 4528 541 4442 
L 1683 720 
Q 1718 592 1747 429 
Q 1763 509 1779 582 
Q 1795 656 1818 720 
L 3098 4442 
Q 3110 4477 3142 4502 
Q 3174 4528 3219 4528 
L 3309 4528 
Q 3354 4528 3382 4504 
Q 3411 4480 3427 4442 
L 4707 720 
Q 4730 656 4747 585 
Q 4765 515 4781 435 
Q 4797 512 4811 584 
Q 4826 656 4842 720 
L 5984 4442 
Q 5994 4477 6027 4502 
Q 6061 4528 6106 4528 
L 6355 4528 
L 4931 0 
L 4637 0 
L 3299 3930 
Q 3274 4006 3254 4093 
Q 3235 4006 3210 3930 
L 1869 0 
L 1578 0 
L 150 4528 
z
" transform="scale(0.015625)"/>
       <path id="Lato-Light-6f" d="M 1786 3235 
Q 2128 3235 2398 3118 
Q 2669 3002 2854 2787 
Q 3040 2573 3137 2270 
Q 3235 1968 3235 1594 
Q 3235 1219 3137 918 
Q 3040 618 2854 403 
Q 2669 189 2398 73 
Q 2128 -42 1786 -42 
Q 1443 -42 1172 73 
Q 902 189 715 403 
Q 528 618 430 918 
Q 333 1219 333 1594 
Q 333 1968 430 2270 
Q 528 2573 715 2787 
Q 902 3002 1172 3118 
Q 1443 3235 1786 3235 
z
M 1786 198 
Q 2070 198 2283 296 
Q 2496 394 2638 576 
Q 2781 758 2851 1016 
Q 2922 1274 2922 1594 
Q 2922 1910 2851 2169 
Q 2781 2429 2638 2613 
Q 2496 2797 2283 2896 
Q 2070 2995 1786 2995 
Q 1501 2995 1288 2896 
Q 1075 2797 932 2613 
Q 790 2429 718 2169 
Q 646 1910 646 1594 
Q 646 1274 718 1016 
Q 790 758 932 576 
Q 1075 394 1288 296 
Q 1501 198 1786 198 
z
" transform="scale(0.015625)"/>
       <path id="Lato-Light-72" d="M 525 0 
L 525 3184 
L 688 3184 
Q 742 3184 764 3161 
Q 787 3139 794 3085 
L 816 2416 
Q 890 2611 984 2763 
Q 1078 2915 1201 3020 
Q 1325 3126 1477 3182 
Q 1629 3238 1814 3238 
Q 1914 3238 2010 3220 
Q 2106 3203 2179 3158 
L 2154 2947 
Q 2138 2896 2093 2896 
Q 2054 2896 1976 2918 
Q 1898 2941 1770 2941 
Q 1584 2941 1440 2883 
Q 1296 2826 1184 2715 
Q 1072 2605 987 2440 
Q 902 2275 832 2061 
L 832 0 
L 525 0 
z
" transform="scale(0.015625)"/>
       <path id="Lato-Light-74" d="M 1395 -51 
Q 1072 -51 891 128 
Q 710 307 710 682 
L 710 2858 
L 253 2858 
Q 218 2858 195 2877 
Q 173 2896 173 2931 
L 173 3050 
L 717 3088 
L 794 4227 
Q 800 4256 819 4278 
Q 838 4301 874 4301 
L 1018 4301 
L 1018 3085 
L 2022 3085 
L 2022 2858 
L 1018 2858 
L 1018 698 
Q 1018 566 1051 472 
Q 1085 378 1144 317 
Q 1203 256 1283 227 
Q 1363 198 1456 198 
Q 1571 198 1654 232 
Q 1738 266 1798 306 
Q 1859 346 1897 379 
Q 1936 413 1958 413 
Q 1984 413 2010 381 
L 2093 246 
Q 1971 112 1784 30 
Q 1597 -51 1395 -51 
z
" transform="scale(0.015625)"/>
       <path id="Lato-Light-46" d="M 3382 4528 
L 3382 4256 
L 998 4256 
L 998 2352 
L 3062 2352 
L 3062 2080 
L 998 2080 
L 998 0 
L 669 0 
L 669 4528 
L 3382 4528 
z
" transform="scale(0.015625)"/>
       <path id="Lato-Light-29" d="M 1030 2016 
Q 1030 2736 836 3393 
Q 643 4051 259 4662 
Q 227 4717 241 4750 
Q 256 4784 282 4800 
L 416 4883 
Q 662 4506 830 4152 
Q 998 3798 1102 3448 
Q 1206 3098 1252 2744 
Q 1299 2390 1299 2016 
Q 1299 1642 1252 1290 
Q 1206 938 1102 587 
Q 998 237 830 -116 
Q 662 -470 416 -848 
L 282 -765 
Q 256 -749 241 -715 
Q 227 -682 259 -627 
Q 643 -16 836 641 
Q 1030 1299 1030 2016 
z
" transform="scale(0.015625)"/>
      </defs>
      <use xlink:href="#Lato-Light-41"/>
      <use xlink:href="#Lato-Light-73" transform="translate(65.550003 0)"/>
      <use xlink:href="#Lato-Light-63" transform="translate(108.050003 0)"/>
      <use xlink:href="#Lato-Light-65" transform="translate(154.200012 0)"/>
      <use xlink:href="#Lato-Light-6e" transform="translate(206.350021 0)"/>
      <use xlink:href="#Lato-Light-64" transform="translate(261.350021 0)"/>
      <use xlink:href="#Lato-Light-69" transform="translate(316.450027 0)"/>
      <use xlink:href="#Lato-Light-6e" transform="translate(338.700027 0)"/>
      <use xlink:href="#Lato-Light-67" transform="translate(393.700027 0)"/>
      <use xlink:href="#Lato-Light-20" transform="translate(444.750031 0)"/>
      <use xlink:href="#Lato-Light-28" transform="translate(471.900024 0)"/>
      <use xlink:href="#Lato-Light-57" transform="translate(497.700027 0)"/>
      <use xlink:href="#Lato-Light-6f" transform="translate(594.40004 0)"/>
      <use xlink:href="#Lato-Light-72" transform="translate(650.200043 0)"/>
      <use xlink:href="#Lato-Light-73" transform="translate(685.050049 0)"/>
      <use xlink:href="#Lato-Light-74" transform="translate(727.550049 0)"/>
      <use xlink:href="#Lato-Light-20" transform="translate(761.800049 0)"/>
      <use xlink:href="#Lato-Light-46" transform="translate(788.950043 0)"/>
      <use xlink:href="#Lato-Light-69" transform="translate(845.025055 0)"/>
      <use xlink:href="#Lato-Light-72" transform="translate(867.275055 0)"/>
      <use xlink:href="#Lato-Light-73" transform="translate(902.125061 0)"/>
      <use xlink:href="#Lato-Light-74" transform="translate(944.625061 0)"/>
      <use xlink:href="#Lato-Light-29" transform="translate(978.875061 0)"/>
     </g>
    </g>
    <g id="line2d_28">
     <path d="M 78.942187 239.807241 
L 90.942187 239.807241 
L 102.942187 239.807241 
" style="fill: none; stroke: #ff6495; stroke-width: 2.5; stroke-linecap: round"/>
    </g>
    <g id="text_15">
     <!-- Descending (Best First) -->
     <g style="fill: #333333" transform="translate(112.542187 244.007241) scale(0.12 -0.12)">
      <defs>
       <path id="Lato-Light-44" d="M 4483 2266 
Q 4483 1741 4326 1321 
Q 4170 902 3885 608 
Q 3600 314 3201 157 
Q 2803 0 2323 0 
L 669 0 
L 669 4528 
L 2323 4528 
Q 2803 4528 3201 4371 
Q 3600 4214 3885 3920 
Q 4170 3626 4326 3206 
Q 4483 2787 4483 2266 
z
M 4144 2266 
Q 4144 2739 4013 3110 
Q 3882 3482 3642 3738 
Q 3402 3994 3066 4128 
Q 2730 4262 2323 4262 
L 998 4262 
L 998 266 
L 2323 266 
Q 2730 266 3066 400 
Q 3402 534 3642 790 
Q 3882 1046 4013 1417 
Q 4144 1789 4144 2266 
z
" transform="scale(0.015625)"/>
       <path id="Lato-Light-42" d="M 669 0 
L 669 4528 
L 1971 4528 
Q 2358 4528 2643 4451 
Q 2928 4374 3113 4225 
Q 3299 4077 3388 3862 
Q 3478 3648 3478 3376 
Q 3478 3197 3416 3030 
Q 3354 2864 3235 2723 
Q 3117 2582 2945 2478 
Q 2774 2374 2557 2320 
Q 3091 2240 3377 1963 
Q 3664 1686 3664 1238 
Q 3664 950 3561 720 
Q 3459 490 3264 330 
Q 3069 170 2784 85 
Q 2499 0 2138 0 
L 669 0 
z
M 998 2170 
L 998 262 
L 2134 262 
Q 2730 262 3035 520 
Q 3341 778 3341 1245 
Q 3341 1459 3259 1630 
Q 3178 1802 3024 1922 
Q 2870 2042 2646 2106 
Q 2422 2170 2138 2170 
L 998 2170 
z
M 998 2410 
L 1978 2410 
Q 2291 2410 2513 2490 
Q 2736 2570 2878 2701 
Q 3021 2832 3088 2998 
Q 3155 3165 3155 3341 
Q 3155 3798 2865 4033 
Q 2576 4269 1971 4269 
L 998 4269 
L 998 2410 
z
" transform="scale(0.015625)"/>
      </defs>
      <use xlink:href="#Lato-Light-44"/>
      <use xlink:href="#Lato-Light-65" transform="translate(75.250015 0)"/>
      <use xlink:href="#Lato-Light-73" transform="translate(127.400024 0)"/>
      <use xlink:href="#Lato-Light-63" transform="translate(169.900024 0)"/>
      <use xlink:href="#Lato-Light-65" transform="translate(216.050034 0)"/>
      <use xlink:href="#Lato-Light-6e" transform="translate(268.200043 0)"/>
      <use xlink:href="#Lato-Light-64" transform="translate(323.200043 0)"/>
      <use xlink:href="#Lato-Light-69" transform="translate(378.300049 0)"/>
      <use xlink:href="#Lato-Light-6e" transform="translate(400.550049 0)"/>
      <use xlink:href="#Lato-Light-67" transform="translate(455.550049 0)"/>
      <use xlink:href="#Lato-Light-20" transform="translate(506.600052 0)"/>
      <use xlink:href="#Lato-Light-28" transform="translate(533.750046 0)"/>
      <use xlink:href="#Lato-Light-42" transform="translate(559.550049 0)"/>
      <use xlink:href="#Lato-Light-65" transform="translate(622.000061 0)"/>
      <use xlink:href="#Lato-Light-73" transform="translate(674.15007 0)"/>
      <use xlink:href="#Lato-Light-74" transform="translate(716.65007 0)"/>
      <use xlink:href="#Lato-Light-20" transform="translate(750.90007 0)"/>
      <use xlink:href="#Lato-Light-46" transform="translate(778.050064 0)"/>
      <use xlink:href="#Lato-Light-69" transform="translate(834.125076 0)"/>
      <use xlink:href="#Lato-Light-72" transform="translate(856.375076 0)"/>
      <use xlink:href="#Lato-Light-73" transform="translate(891.225082 0)"/>
      <use xlink:href="#Lato-Light-74" transform="translate(933.725082 0)"/>
      <use xlink:href="#Lato-Light-29" transform="translate(967.975082 0)"/>
     </g>
    </g>
    <g id="line2d_29">
     <path d="M 257.102812 222.425991 
L 269.102812 222.425991 
L 281.102812 222.425991 
" style="fill: none; stroke: #3dd598; stroke-width: 2.5; stroke-linecap: round"/>
    </g>
    <g id="text_16">
     <!-- Original Order -->
     <g style="fill: #333333" transform="translate(290.702812 226.625991) scale(0.12 -0.12)">
      <defs>
       <path id="Lato-Light-4f" d="M 4691 2266 
Q 4691 1741 4534 1313 
Q 4378 886 4093 584 
Q 3808 282 3409 117 
Q 3011 -48 2531 -48 
Q 2051 -48 1654 117 
Q 1258 282 973 584 
Q 688 886 531 1313 
Q 374 1741 374 2266 
Q 374 2787 531 3214 
Q 688 3642 973 3944 
Q 1258 4246 1654 4412 
Q 2051 4579 2531 4579 
Q 3011 4579 3409 4414 
Q 3808 4250 4093 3946 
Q 4378 3642 4534 3214 
Q 4691 2787 4691 2266 
z
M 4352 2266 
Q 4352 2739 4221 3116 
Q 4090 3494 3850 3756 
Q 3610 4019 3274 4158 
Q 2938 4298 2531 4298 
Q 2128 4298 1792 4158 
Q 1456 4019 1214 3756 
Q 973 3494 840 3116 
Q 707 2739 707 2266 
Q 707 1789 840 1413 
Q 973 1037 1214 774 
Q 1456 512 1792 374 
Q 2128 237 2531 237 
Q 2938 237 3274 374 
Q 3610 512 3850 774 
Q 4090 1037 4221 1413 
Q 4352 1789 4352 2266 
z
" transform="scale(0.015625)"/>
       <path id="Lato-Light-61" d="M 2483 0 
Q 2387 0 2365 90 
L 2320 496 
Q 2189 368 2059 265 
Q 1930 163 1789 92 
Q 1648 22 1485 -14 
Q 1322 -51 1126 -51 
Q 963 -51 809 -3 
Q 656 45 536 144 
Q 416 243 344 398 
Q 272 554 272 771 
Q 272 973 387 1145 
Q 502 1318 748 1446 
Q 995 1574 1380 1651 
Q 1766 1728 2307 1741 
L 2307 2074 
Q 2307 2515 2116 2753 
Q 1926 2992 1552 2992 
Q 1322 2992 1160 2928 
Q 998 2864 886 2787 
Q 774 2710 704 2646 
Q 634 2582 586 2582 
Q 550 2582 528 2598 
Q 506 2614 490 2640 
L 435 2733 
Q 685 2982 960 3110 
Q 1235 3238 1584 3238 
Q 1840 3238 2032 3156 
Q 2224 3075 2350 2923 
Q 2477 2771 2541 2555 
Q 2605 2339 2605 2074 
L 2605 0 
L 2483 0 
z
M 1203 170 
Q 1389 170 1544 210 
Q 1699 250 1832 322 
Q 1965 394 2080 493 
Q 2195 592 2307 707 
L 2307 1536 
Q 1853 1523 1523 1467 
Q 1194 1411 981 1315 
Q 768 1219 667 1086 
Q 566 954 566 784 
Q 566 624 619 507 
Q 672 390 760 315 
Q 848 240 963 205 
Q 1078 170 1203 170 
z
" transform="scale(0.015625)"/>
       <path id="Lato-Light-6c" d="M 861 4656 
L 861 0 
L 554 0 
L 554 4656 
L 861 4656 
z
" transform="scale(0.015625)"/>
      </defs>
      <use xlink:href="#Lato-Light-4f"/>
      <use xlink:href="#Lato-Light-72" transform="translate(78.025009 0)"/>
      <use xlink:href="#Lato-Light-69" transform="translate(113.375015 0)"/>
      <use xlink:href="#Lato-Light-67" transform="translate(135.625015 0)"/>
      <use xlink:href="#Lato-Light-69" transform="translate(186.675018 0)"/>
      <use xlink:href="#Lato-Light-6e" transform="translate(208.925018 0)"/>
      <use xlink:href="#Lato-Light-61" transform="translate(263.925018 0)"/>
      <use xlink:href="#Lato-Light-6c" transform="translate(312.325027 0)"/>
      <use xlink:href="#Lato-Light-20" transform="translate(334.425034 0)"/>
      <use xlink:href="#Lato-Light-4f" transform="translate(361.575027 0)"/>
      <use xlink:href="#Lato-Light-72" transform="translate(439.600037 0)"/>
      <use xlink:href="#Lato-Light-64" transform="translate(472.200043 0)"/>
      <use xlink:href="#Lato-Light-65" transform="translate(527.300049 0)"/>
      <use xlink:href="#Lato-Light-72" transform="translate(579.450058 0)"/>
     </g>
    </g>
    <g id="line2d_30">
     <path d="M 257.102812 239.381616 
L 269.102812 239.381616 
L 281.102812 239.381616 
" style="fill: none; stroke-dasharray: 2.5,4.125; stroke-dashoffset: 0; stroke: #ffa500; stroke-width: 2.5"/>
    </g>
    <g id="text_17">
     <!-- Full Ensemble: 0.1294 -->
     <g style="fill: #333333" transform="translate(290.702812 243.581616) scale(0.12 -0.12)">
      <defs>
       <path id="Lato-Light-75" d="M 797 3184 
L 797 1149 
Q 797 701 1001 446 
Q 1206 192 1626 192 
Q 1936 192 2205 350 
Q 2474 509 2688 790 
L 2688 3184 
L 2995 3184 
L 2995 0 
L 2826 0 
Q 2746 0 2733 83 
L 2704 557 
Q 2483 282 2193 115 
Q 1904 -51 1549 -51 
Q 1283 -51 1084 32 
Q 886 115 755 272 
Q 624 429 557 649 
Q 490 870 490 1149 
L 490 3184 
L 797 3184 
z
" transform="scale(0.015625)"/>
       <path id="Lato-Light-45" d="M 3382 4528 
L 3382 4256 
L 998 4256 
L 998 2426 
L 2982 2426 
L 2982 2160 
L 998 2160 
L 998 272 
L 3389 272 
L 3382 0 
L 669 0 
L 669 4528 
L 3382 4528 
z
" transform="scale(0.015625)"/>
       <path id="Lato-Light-6d" d="M 525 0 
L 525 3184 
L 694 3184 
Q 774 3184 787 3104 
L 816 2643 
Q 1002 2909 1242 3072 
Q 1482 3235 1782 3235 
Q 2131 3235 2340 3033 
Q 2550 2832 2624 2474 
Q 2682 2669 2786 2813 
Q 2890 2957 3024 3051 
Q 3158 3146 3316 3190 
Q 3475 3235 3642 3235 
Q 3878 3235 4067 3156 
Q 4256 3078 4387 2924 
Q 4518 2771 4588 2547 
Q 4659 2323 4659 2035 
L 4659 0 
L 4355 0 
L 4355 2035 
Q 4355 2502 4153 2747 
Q 3952 2992 3578 2992 
Q 3411 2992 3259 2931 
Q 3107 2870 2990 2750 
Q 2874 2630 2805 2451 
Q 2736 2272 2736 2035 
L 2736 0 
L 2429 0 
L 2429 2035 
Q 2429 2499 2245 2745 
Q 2061 2992 1706 2992 
Q 1446 2992 1225 2838 
Q 1005 2685 832 2413 
L 832 0 
L 525 0 
z
" transform="scale(0.015625)"/>
       <path id="Lato-Light-62" d="M 525 0 
L 525 4656 
L 832 4656 
L 832 2630 
Q 1040 2912 1318 3073 
Q 1597 3235 1965 3235 
Q 2253 3235 2480 3129 
Q 2707 3024 2865 2825 
Q 3024 2627 3107 2337 
Q 3190 2048 3190 1680 
Q 3190 1293 3097 974 
Q 3005 656 2827 430 
Q 2650 205 2394 81 
Q 2138 -42 1808 -42 
Q 1469 -42 1229 88 
Q 989 218 816 470 
L 797 80 
Q 787 0 710 0 
L 525 0 
z
M 1878 2992 
Q 1536 2992 1283 2829 
Q 1030 2666 832 2374 
L 832 694 
Q 1018 419 1238 308 
Q 1459 198 1741 198 
Q 2026 198 2238 300 
Q 2451 403 2593 593 
Q 2736 784 2806 1056 
Q 2877 1328 2877 1667 
Q 2877 2326 2614 2659 
Q 2352 2992 1878 2992 
z
" transform="scale(0.015625)"/>
       <path id="Lato-Light-3a" d="M 470 0 
L 470 0 
z
M 471 246 
Q 471 307 493 361 
Q 515 416 555 456 
Q 595 496 648 520 
Q 701 544 765 544 
Q 826 544 880 520 
Q 935 496 975 456 
Q 1015 416 1039 361 
Q 1063 307 1063 246 
Q 1063 182 1039 129 
Q 1015 77 975 37 
Q 935 -3 880 -25 
Q 826 -48 765 -48 
Q 640 -48 555 37 
Q 471 122 471 246 
z
M 471 2796 
Q 471 2857 493 2911 
Q 515 2966 555 3006 
Q 595 3046 648 3070 
Q 701 3094 765 3094 
Q 826 3094 880 3070 
Q 935 3046 975 3006 
Q 1015 2966 1039 2911 
Q 1063 2857 1063 2796 
Q 1063 2732 1039 2679 
Q 1015 2627 975 2587 
Q 935 2547 880 2524 
Q 826 2502 765 2502 
Q 640 2502 555 2587 
Q 471 2672 471 2796 
z
" transform="scale(0.015625)"/>
      </defs>
      <use xlink:href="#Lato-Light-46"/>
      <use xlink:href="#Lato-Light-75" transform="translate(52.450012 0)"/>
      <use xlink:href="#Lato-Light-6c" transform="translate(107.400024 0)"/>
      <use xlink:href="#Lato-Light-6c" transform="translate(129.500031 0)"/>
      <use xlink:href="#Lato-Light-20" transform="translate(151.600037 0)"/>
      <use xlink:href="#Lato-Light-45" transform="translate(178.750031 0)"/>
      <use xlink:href="#Lato-Light-6e" transform="translate(235.000031 0)"/>
      <use xlink:href="#Lato-Light-73" transform="translate(290.000031 0)"/>
      <use xlink:href="#Lato-Light-65" transform="translate(332.500031 0)"/>
      <use xlink:href="#Lato-Light-6d" transform="translate(384.65004 0)"/>
      <use xlink:href="#Lato-Light-62" transform="translate(465.150055 0)"/>
      <use xlink:href="#Lato-Light-6c" transform="translate(520.250061 0)"/>
      <use xlink:href="#Lato-Light-65" transform="translate(542.350067 0)"/>
      <use xlink:href="#Lato-Light-3a" transform="translate(594.500076 0)"/>
      <use xlink:href="#Lato-Light-20" transform="translate(618.500076 0)"/>
      <use xlink:href="#Lato-Light-30" transform="translate(645.65007 0)"/>
      <use xlink:href="#Lato-Light-2e" transform="translate(703.65007 0)"/>
      <use xlink:href="#Lato-Light-31" transform="translate(727.000076 0)"/>
      <use xlink:href="#Lato-Light-32" transform="translate(785.000076 0)"/>
      <use xlink:href="#Lato-Light-39" transform="translate(843.000076 0)"/>
      <use xlink:href="#Lato-Light-34" transform="translate(901.000076 0)"/>
     </g>
    </g>
   </g>
  </g>
 </g>
 <defs>
  <clipPath id="p8752097b2e">
   <rect x="68.515" y="7.2" width="347.695" height="163.5003"/>
  </clipPath>
 </defs>
</svg>
