<?xml version="1.0" encoding="utf-8" standalone="no"?>
<!DOCTYPE svg PUBLIC "-//W3C//DTD SVG 1.1//EN"
  "http://www.w3.org/Graphics/SVG/1.1/DTD/svg11.dtd">
<svg xmlns:xlink="http://www.w3.org/1999/xlink" width="416.435pt" height="258.232866pt" viewBox="0 0 416.435 258.232866" xmlns="http://www.w3.org/2000/svg" version="1.1">
 <metadata>
  <rdf:RDF xmlns:dc="http://purl.org/dc/elements/1.1/" xmlns:cc="http://creativecommons.org/ns#" xmlns:rdf="http://www.w3.org/1999/02/22-rdf-syntax-ns#">
   <cc:Work>
    <dc:type rdf:resource="http://purl.org/dc/dcmitype/StillImage"/>
    <dc:date>2026-03-20T17:06:55.863902</dc:date>
    <dc:format>image/svg+xml</dc:format>
    <dc:creator>
     <cc:Agent>
      <dc:title>Matplotlib v3.10.7, https://matplotlib.org/</dc:title>
     </cc:Agent>
    </dc:creator>
   </cc:Work>
  </rdf:RDF>
 </metadata>
 <defs>
  <style type="text/css">*{stroke-linejoin: round; stroke-linecap: butt}</style>
 </defs>
 <g id="figure_1">
  <g id="patch_1">
   <path d="M 0 258.232866 
L 416.435 258.232866 
L 416.435 0 
L 0 0 
z
" style="fill: #ffffff"/>
  </g>
  <g id="axes_1">
   <g id="patch_2">
    <path d="M 47.635 170.7003 
L 409.235 170.7003 
L 409.235 7.2 
L 47.635 7.2 
z
" style="fill: #ffffff"/>
   </g>
   <g id="matplotlib.axis_1">
    <g id="xtick_1">
     <g id="line2d_1">
      <path d="M 63.750027 170.7003 
L 63.750027 7.2 
" clip-path="url(#pe92a555382)" style="fill: none; stroke-dasharray: 3.7,1.6; stroke-dashoffset: 0; stroke: #b0b0b0; stroke-opacity: 0.3"/>
     </g>
     <g id="line2d_2"/>
     <g id="text_1">
      <!-- 0 -->
      <g style="fill: #333333" transform="translate(60.270027 186.4303) scale(0.12 -0.12)">
       <defs>
        <path id="Lato-Light-30" d="M 3478 2266 
Q 3478 1670 3350 1235 
Q 3222 800 3001 515 
Q 2781 230 2485 91 
Q 2189 -48 1853 -48 
Q 1517 -48 1222 91 
Q 928 230 707 515 
Q 486 800 360 1235 
Q 234 1670 234 2266 
Q 234 2861 360 3296 
Q 486 3731 707 4016 
Q 928 4301 1222 4440 
Q 1517 4579 1853 4579 
Q 2189 4579 2485 4440 
Q 2781 4301 3001 4016 
Q 3222 3731 3350 3296 
Q 3478 2861 3478 2266 
z
M 3158 2266 
Q 3158 2816 3052 3206 
Q 2947 3597 2769 3845 
Q 2592 4093 2353 4208 
Q 2115 4323 1853 4323 
Q 1590 4323 1353 4208 
Q 1117 4093 937 3845 
Q 758 3597 652 3206 
Q 547 2816 547 2266 
Q 547 1712 652 1323 
Q 758 934 937 686 
Q 1117 438 1353 324 
Q 1590 211 1853 211 
Q 2115 211 2353 324 
Q 2592 438 2769 686 
Q 2947 934 3052 1323 
Q 3158 1712 3158 2266 
z
" transform="scale(0.015625)"/>
       </defs>
       <use xlink:href="#Lato-Light-30"/>
      </g>
     </g>
    </g>
    <g id="xtick_2">
     <g id="line2d_3">
      <path d="M 128.017334 170.7003 
L 128.017334 7.2 
" clip-path="url(#pe92a555382)" style="fill: none; stroke-dasharray: 3.7,1.6; stroke-dashoffset: 0; stroke: #b0b0b0; stroke-opacity: 0.3"/>
     </g>
     <g id="line2d_4"/>
     <g id="text_2">
      <!-- 200 -->
      <g style="fill: #333333" transform="translate(117.577334 186.4303) scale(0.12 -0.12)">
       <defs>
        <path id="Lato-Light-32" d="M 1882 4579 
Q 2141 4579 2376 4504 
Q 2611 4429 2792 4277 
Q 2973 4125 3078 3896 
Q 3184 3667 3184 3360 
Q 3184 3104 3105 2885 
Q 3027 2666 2892 2464 
Q 2758 2262 2580 2072 
Q 2403 1882 2208 1683 
L 790 237 
Q 893 262 1003 275 
Q 1114 288 1226 288 
L 3181 288 
Q 3232 288 3261 257 
Q 3290 227 3290 179 
L 3290 0 
L 368 0 
L 368 109 
Q 368 144 385 181 
Q 403 218 432 243 
L 1978 1808 
Q 2170 2003 2333 2185 
Q 2496 2368 2616 2553 
Q 2736 2739 2803 2934 
Q 2870 3130 2870 3350 
Q 2870 3600 2787 3784 
Q 2704 3968 2566 4086 
Q 2429 4205 2246 4262 
Q 2064 4320 1869 4320 
Q 1654 4320 1473 4254 
Q 1293 4189 1153 4072 
Q 1014 3955 923 3793 
Q 832 3632 797 3440 
Q 774 3370 737 3347 
Q 701 3325 637 3331 
L 480 3357 
Q 522 3648 640 3875 
Q 758 4102 940 4259 
Q 1123 4416 1363 4497 
Q 1603 4579 1882 4579 
z
" transform="scale(0.015625)"/>
       </defs>
       <use xlink:href="#Lato-Light-32"/>
       <use xlink:href="#Lato-Light-30" transform="translate(58 0)"/>
       <use xlink:href="#Lato-Light-30" transform="translate(116 0)"/>
      </g>
     </g>
    </g>
    <g id="xtick_3">
     <g id="line2d_5">
      <path d="M 192.28464 170.7003 
L 192.28464 7.2 
" clip-path="url(#pe92a555382)" style="fill: none; stroke-dasharray: 3.7,1.6; stroke-dashoffset: 0; stroke: #b0b0b0; stroke-opacity: 0.3"/>
     </g>
     <g id="line2d_6"/>
     <g id="text_3">
      <!-- 400 -->
      <g style="fill: #333333" transform="translate(181.84464 186.4303) scale(0.12 -0.12)">
       <defs>
        <path id="Lato-Light-34" d="M 2678 1542 
L 3507 1542 
L 3507 1376 
Q 3507 1341 3486 1320 
Q 3466 1299 3421 1299 
L 2678 1299 
L 2678 0 
L 2410 0 
L 2410 1299 
L 269 1299 
Q 221 1299 195 1320 
Q 170 1341 160 1376 
L 131 1526 
L 2406 4534 
L 2678 4534 
L 2678 1542 
z
M 2410 3914 
Q 2410 3968 2414 4032 
Q 2419 4096 2426 4163 
L 464 1542 
L 2410 1542 
L 2410 3914 
z
" transform="scale(0.015625)"/>
       </defs>
       <use xlink:href="#Lato-Light-34"/>
       <use xlink:href="#Lato-Light-30" transform="translate(58 0)"/>
       <use xlink:href="#Lato-Light-30" transform="translate(116 0)"/>
      </g>
     </g>
    </g>
    <g id="xtick_4">
     <g id="line2d_7">
      <path d="M 256.551947 170.7003 
L 256.551947 7.2 
" clip-path="url(#pe92a555382)" style="fill: none; stroke-dasharray: 3.7,1.6; stroke-dashoffset: 0; stroke: #b0b0b0; stroke-opacity: 0.3"/>
     </g>
     <g id="line2d_8"/>
     <g id="text_4">
      <!-- 600 -->
      <g style="fill: #333333" transform="translate(246.111947 186.4303) scale(0.12 -0.12)">
       <defs>
        <path id="Lato-Light-36" d="M 1328 2765 
Q 1229 2634 1145 2518 
Q 1062 2403 995 2291 
Q 1184 2486 1443 2596 
Q 1702 2707 2010 2707 
Q 2301 2707 2547 2611 
Q 2794 2515 2971 2340 
Q 3149 2166 3249 1918 
Q 3350 1670 3350 1363 
Q 3350 1056 3240 797 
Q 3130 538 2933 349 
Q 2736 160 2461 54 
Q 2186 -51 1856 -51 
Q 1539 -51 1276 51 
Q 1014 154 827 346 
Q 640 538 537 814 
Q 435 1091 435 1440 
Q 435 1706 569 2040 
Q 704 2374 1011 2790 
L 2246 4454 
Q 2301 4528 2410 4528 
L 2678 4528 
L 1328 2765 
z
M 733 1366 
Q 733 1114 811 899 
Q 890 685 1034 529 
Q 1178 374 1386 288 
Q 1594 202 1853 202 
Q 2128 202 2349 288 
Q 2570 374 2725 526 
Q 2880 678 2963 888 
Q 3046 1098 3046 1344 
Q 3046 1603 2964 1812 
Q 2883 2022 2734 2168 
Q 2586 2314 2381 2392 
Q 2176 2470 1926 2470 
Q 1645 2470 1422 2372 
Q 1200 2275 1046 2120 
Q 893 1965 813 1766 
Q 733 1568 733 1366 
z
" transform="scale(0.015625)"/>
       </defs>
       <use xlink:href="#Lato-Light-36"/>
       <use xlink:href="#Lato-Light-30" transform="translate(58 0)"/>
       <use xlink:href="#Lato-Light-30" transform="translate(116 0)"/>
      </g>
     </g>
    </g>
    <g id="xtick_5">
     <g id="line2d_9">
      <path d="M 320.819253 170.7003 
L 320.819253 7.2 
" clip-path="url(#pe92a555382)" style="fill: none; stroke-dasharray: 3.7,1.6; stroke-dashoffset: 0; stroke: #b0b0b0; stroke-opacity: 0.3"/>
     </g>
     <g id="line2d_10"/>
     <g id="text_5">
      <!-- 800 -->
      <g style="fill: #333333" transform="translate(310.379253 186.4303) scale(0.12 -0.12)">
       <defs>
        <path id="Lato-Light-38" d="M 1856 -51 
Q 1530 -51 1259 35 
Q 989 122 795 285 
Q 602 448 493 678 
Q 384 909 384 1197 
Q 384 1446 456 1641 
Q 528 1837 659 1981 
Q 790 2125 971 2221 
Q 1152 2317 1370 2365 
Q 1171 2422 1017 2521 
Q 864 2621 760 2758 
Q 656 2896 601 3064 
Q 547 3232 547 3424 
Q 547 3664 638 3875 
Q 730 4086 899 4243 
Q 1069 4400 1310 4489 
Q 1552 4579 1856 4579 
Q 2157 4579 2398 4489 
Q 2640 4400 2811 4243 
Q 2982 4086 3073 3875 
Q 3165 3664 3165 3424 
Q 3165 3232 3110 3064 
Q 3056 2896 2950 2758 
Q 2845 2621 2691 2521 
Q 2538 2422 2339 2365 
Q 2557 2317 2737 2221 
Q 2918 2125 3049 1981 
Q 3181 1837 3254 1641 
Q 3328 1446 3328 1197 
Q 3328 909 3219 678 
Q 3110 448 2916 285 
Q 2723 122 2452 35 
Q 2182 -51 1856 -51 
z
M 1856 192 
Q 2115 192 2328 264 
Q 2541 336 2694 469 
Q 2848 602 2931 787 
Q 3014 973 3014 1200 
Q 3014 1498 2905 1696 
Q 2797 1894 2627 2012 
Q 2458 2131 2253 2180 
Q 2048 2230 1856 2230 
Q 1664 2230 1459 2180 
Q 1254 2131 1084 2012 
Q 915 1894 806 1696 
Q 698 1498 698 1200 
Q 698 973 781 787 
Q 864 602 1016 469 
Q 1168 336 1382 264 
Q 1597 192 1856 192 
z
M 1856 2477 
Q 2115 2477 2305 2555 
Q 2496 2634 2621 2766 
Q 2746 2899 2805 3068 
Q 2864 3238 2864 3421 
Q 2864 3616 2797 3784 
Q 2730 3952 2600 4077 
Q 2470 4202 2283 4272 
Q 2096 4342 1856 4342 
Q 1616 4342 1427 4272 
Q 1238 4202 1108 4077 
Q 979 3952 912 3784 
Q 845 3616 845 3421 
Q 845 3238 904 3068 
Q 963 2899 1088 2766 
Q 1213 2634 1403 2555 
Q 1594 2477 1856 2477 
z
" transform="scale(0.015625)"/>
       </defs>
       <use xlink:href="#Lato-Light-38"/>
       <use xlink:href="#Lato-Light-30" transform="translate(58 0)"/>
       <use xlink:href="#Lato-Light-30" transform="translate(116 0)"/>
      </g>
     </g>
    </g>
    <g id="xtick_6">
     <g id="line2d_11">
      <path d="M 385.08656 170.7003 
L 385.08656 7.2 
" clip-path="url(#pe92a555382)" style="fill: none; stroke-dasharray: 3.7,1.6; stroke-dashoffset: 0; stroke: #b0b0b0; stroke-opacity: 0.3"/>
     </g>
     <g id="line2d_12"/>
     <g id="text_6">
      <!-- 1000 -->
      <g style="fill: #333333" transform="translate(371.16656 186.4303) scale(0.12 -0.12)">
       <defs>
        <path id="Lato-Light-31" d="M 854 237 
L 1894 237 
L 1894 3910 
Q 1894 4019 1904 4141 
L 906 3254 
Q 861 3216 816 3225 
Q 771 3235 746 3264 
L 653 3392 
L 1962 4547 
L 2202 4547 
L 2202 237 
L 3190 237 
L 3190 0 
L 854 0 
L 854 237 
z
" transform="scale(0.015625)"/>
       </defs>
       <use xlink:href="#Lato-Light-31"/>
       <use xlink:href="#Lato-Light-30" transform="translate(58 0)"/>
       <use xlink:href="#Lato-Light-30" transform="translate(116 0)"/>
       <use xlink:href="#Lato-Light-30" transform="translate(174 0)"/>
      </g>
     </g>
    </g>
    <g id="text_7">
     <!-- # of Ensemble Members -->
     <g style="fill: #333333" transform="translate(154.159531 202.853425) scale(0.14 -0.14)">
      <defs>
       <path id="Lato-Regular-23" d="M 2538 1354 
L 2269 0 
L 2010 0 
Q 1968 0 1933 19 
Q 1898 38 1874 70 
Q 1850 102 1840 147 
Q 1830 192 1840 246 
L 2067 1354 
L 1277 1354 
L 1050 218 
Q 1030 99 956 49 
Q 883 0 790 0 
L 534 0 
L 806 1354 
L 339 1354 
Q 250 1354 210 1406 
Q 170 1459 189 1590 
L 214 1773 
L 867 1773 
L 1075 2816 
L 333 2816 
L 374 3053 
Q 390 3146 449 3190 
Q 509 3235 630 3235 
L 1136 3235 
L 1366 4381 
Q 1386 4477 1454 4531 
Q 1523 4586 1619 4586 
L 1875 4586 
L 1606 3235 
L 2397 3235 
L 2666 4586 
L 2918 4586 
Q 3011 4586 3064 4525 
Q 3117 4464 3101 4371 
L 2867 3235 
L 3546 3235 
L 3504 2995 
Q 3488 2902 3429 2859 
Q 3370 2816 3248 2816 
L 2806 2816 
L 2598 1773 
L 3171 1773 
Q 3264 1773 3304 1720 
Q 3344 1667 3325 1536 
L 3296 1354 
L 2538 1354 
z
M 1338 1773 
L 2128 1773 
L 2336 2816 
L 1546 2816 
L 1338 1773 
z
" transform="scale(0.015625)"/>
       <path id="Lato-Regular-20" transform="scale(0.015625)"/>
       <path id="Lato-Regular-6f" d="M 1818 3293 
Q 2173 3293 2457 3174 
Q 2742 3056 2944 2838 
Q 3146 2621 3253 2312 
Q 3360 2003 3360 1622 
Q 3360 1238 3253 931 
Q 3146 624 2944 406 
Q 2742 189 2457 72 
Q 2173 -45 1818 -45 
Q 1459 -45 1172 72 
Q 886 189 684 406 
Q 483 624 376 931 
Q 269 1238 269 1622 
Q 269 2003 376 2312 
Q 483 2621 684 2838 
Q 886 3056 1172 3174 
Q 1459 3293 1818 3293 
z
M 1818 400 
Q 2298 400 2534 721 
Q 2771 1043 2771 1619 
Q 2771 2198 2534 2521 
Q 2298 2845 1818 2845 
Q 1574 2845 1393 2761 
Q 1213 2678 1093 2521 
Q 973 2365 913 2136 
Q 854 1907 854 1619 
Q 854 1043 1092 721 
Q 1331 400 1818 400 
z
" transform="scale(0.015625)"/>
       <path id="Lato-Regular-66" d="M 662 0 
L 662 2755 
L 304 2797 
Q 237 2813 193 2846 
Q 150 2880 150 2944 
L 150 3178 
L 662 3178 
L 662 3491 
Q 662 3770 740 3986 
Q 819 4202 964 4350 
Q 1110 4499 1315 4576 
Q 1520 4653 1776 4653 
Q 1994 4653 2176 4589 
L 2163 4304 
Q 2157 4227 2078 4220 
Q 2000 4214 1869 4214 
Q 1722 4214 1602 4176 
Q 1482 4138 1395 4051 
Q 1309 3965 1262 3824 
Q 1216 3683 1216 3475 
L 1216 3178 
L 2150 3178 
L 2150 2765 
L 1235 2765 
L 1235 0 
L 662 0 
z
" transform="scale(0.015625)"/>
       <path id="Lato-Regular-45" d="M 3411 4586 
L 3411 4080 
L 1206 4080 
L 1206 2557 
L 2992 2557 
L 2992 2070 
L 1206 2070 
L 1206 506 
L 3414 506 
L 3411 0 
L 586 0 
L 586 4586 
L 3411 4586 
z
" transform="scale(0.015625)"/>
       <path id="Lato-Regular-6e" d="M 451 0 
L 451 3242 
L 794 3242 
Q 915 3242 944 3123 
L 989 2771 
Q 1200 3005 1462 3149 
Q 1725 3293 2067 3293 
Q 2333 3293 2536 3205 
Q 2739 3117 2875 2955 
Q 3011 2794 3081 2566 
Q 3152 2339 3152 2064 
L 3152 0 
L 2579 0 
L 2579 2064 
Q 2579 2432 2411 2635 
Q 2243 2838 1901 2838 
Q 1645 2838 1425 2716 
Q 1206 2595 1024 2387 
L 1024 0 
L 451 0 
z
" transform="scale(0.015625)"/>
       <path id="Lato-Regular-73" d="M 2339 2707 
Q 2301 2637 2221 2637 
Q 2173 2637 2112 2672 
Q 2051 2707 1963 2750 
Q 1875 2794 1753 2830 
Q 1632 2867 1466 2867 
Q 1322 2867 1206 2830 
Q 1091 2794 1009 2730 
Q 928 2666 885 2581 
Q 842 2496 842 2397 
Q 842 2272 914 2189 
Q 986 2106 1104 2045 
Q 1222 1984 1372 1937 
Q 1523 1891 1681 1838 
Q 1840 1786 1990 1722 
Q 2141 1658 2259 1562 
Q 2378 1466 2450 1326 
Q 2522 1187 2522 992 
Q 2522 768 2442 577 
Q 2362 387 2205 248 
Q 2048 109 1821 29 
Q 1594 -51 1296 -51 
Q 957 -51 681 59 
Q 406 170 214 342 
L 349 560 
Q 374 602 409 624 
Q 445 646 499 646 
Q 557 646 621 601 
Q 685 557 776 502 
Q 867 448 998 403 
Q 1130 358 1325 358 
Q 1491 358 1616 401 
Q 1741 445 1824 518 
Q 1907 592 1947 688 
Q 1987 784 1987 893 
Q 1987 1027 1915 1115 
Q 1843 1203 1724 1265 
Q 1606 1328 1454 1374 
Q 1302 1421 1144 1472 
Q 986 1523 834 1588 
Q 682 1654 563 1753 
Q 445 1853 373 1998 
Q 301 2144 301 2352 
Q 301 2538 377 2709 
Q 454 2880 601 3009 
Q 749 3139 963 3216 
Q 1178 3293 1453 3293 
Q 1773 3293 2027 3192 
Q 2282 3091 2467 2915 
L 2339 2707 
z
" transform="scale(0.015625)"/>
       <path id="Lato-Regular-65" d="M 1779 3293 
Q 2070 3293 2318 3195 
Q 2566 3098 2747 2914 
Q 2928 2730 3030 2459 
Q 3133 2189 3133 1843 
Q 3133 1709 3104 1664 
Q 3075 1619 2995 1619 
L 829 1619 
Q 835 1312 912 1085 
Q 989 858 1123 706 
Q 1258 554 1443 478 
Q 1629 403 1859 403 
Q 2074 403 2229 452 
Q 2384 502 2496 560 
Q 2608 618 2683 667 
Q 2758 717 2813 717 
Q 2883 717 2922 662 
L 3082 454 
Q 2976 326 2829 232 
Q 2682 138 2514 77 
Q 2346 16 2166 -14 
Q 1987 -45 1811 -45 
Q 1475 -45 1192 68 
Q 909 182 702 401 
Q 496 621 381 944 
Q 266 1267 266 1686 
Q 266 2026 370 2320 
Q 474 2614 669 2830 
Q 864 3046 1145 3169 
Q 1427 3293 1779 3293 
z
M 1792 2874 
Q 1379 2874 1142 2635 
Q 906 2397 848 1974 
L 2621 1974 
Q 2621 2173 2565 2337 
Q 2509 2502 2401 2622 
Q 2294 2742 2140 2808 
Q 1987 2874 1792 2874 
z
" transform="scale(0.015625)"/>
       <path id="Lato-Regular-6d" d="M 451 0 
L 451 3242 
L 794 3242 
Q 915 3242 944 3123 
L 986 2790 
Q 1165 3011 1389 3152 
Q 1613 3293 1907 3293 
Q 2234 3293 2437 3110 
Q 2640 2928 2730 2618 
Q 2800 2794 2910 2922 
Q 3021 3050 3158 3133 
Q 3296 3216 3451 3254 
Q 3606 3293 3766 3293 
Q 4022 3293 4222 3211 
Q 4422 3130 4561 2973 
Q 4701 2816 4774 2587 
Q 4848 2358 4848 2064 
L 4848 0 
L 4275 0 
L 4275 2064 
Q 4275 2445 4108 2641 
Q 3942 2838 3629 2838 
Q 3488 2838 3361 2788 
Q 3235 2739 3139 2643 
Q 3043 2547 2987 2401 
Q 2931 2256 2931 2064 
L 2931 0 
L 2358 0 
L 2358 2064 
Q 2358 2454 2201 2646 
Q 2045 2838 1744 2838 
Q 1533 2838 1353 2724 
Q 1174 2611 1024 2416 
L 1024 0 
L 451 0 
z
" transform="scale(0.015625)"/>
       <path id="Lato-Regular-62" d="M 451 0 
L 451 4714 
L 1024 4714 
L 1024 2771 
Q 1226 3011 1485 3152 
Q 1744 3293 2080 3293 
Q 2365 3293 2593 3184 
Q 2822 3075 2982 2868 
Q 3142 2662 3227 2368 
Q 3312 2074 3312 1706 
Q 3312 1312 3216 989 
Q 3120 666 2939 437 
Q 2758 208 2499 81 
Q 2240 -45 1917 -45 
Q 1597 -45 1377 75 
Q 1158 195 995 416 
L 966 122 
Q 941 0 819 0 
L 451 0 
z
M 1891 2838 
Q 1613 2838 1405 2710 
Q 1197 2582 1024 2349 
L 1024 781 
Q 1181 570 1368 483 
Q 1555 397 1779 397 
Q 2237 397 2480 720 
Q 2723 1043 2723 1683 
Q 2723 2278 2507 2558 
Q 2291 2838 1891 2838 
z
" transform="scale(0.015625)"/>
       <path id="Lato-Regular-6c" d="M 1040 4714 
L 1040 0 
L 470 0 
L 470 4714 
L 1040 4714 
z
" transform="scale(0.015625)"/>
       <path id="Lato-Regular-4d" d="M 2842 1658 
Q 2880 1581 2915 1496 
Q 2950 1411 2986 1328 
Q 3018 1414 3053 1499 
Q 3088 1584 3130 1661 
L 4685 4480 
Q 4723 4554 4769 4570 
Q 4816 4586 4899 4586 
L 5357 4586 
L 5357 0 
L 4813 0 
L 4813 3370 
Q 4813 3437 4816 3513 
Q 4819 3590 4826 3670 
L 3254 803 
Q 3181 659 3030 659 
L 2941 659 
Q 2790 659 2717 803 
L 1110 3680 
Q 1120 3597 1125 3517 
Q 1130 3437 1130 3370 
L 1130 0 
L 586 0 
L 586 4586 
L 1043 4586 
Q 1126 4586 1171 4570 
Q 1216 4554 1258 4480 
L 2842 1658 
L 2842 1658 
z
" transform="scale(0.015625)"/>
       <path id="Lato-Regular-72" d="M 451 0 
L 451 3242 
L 778 3242 
Q 870 3242 905 3206 
Q 941 3171 954 3085 
L 989 2592 
Q 1142 2925 1368 3112 
Q 1594 3299 1917 3299 
Q 2019 3299 2113 3276 
Q 2208 3254 2282 3206 
L 2240 2781 
Q 2221 2701 2144 2701 
Q 2099 2701 2012 2720 
Q 1926 2739 1818 2739 
Q 1664 2739 1542 2692 
Q 1421 2646 1326 2558 
Q 1232 2470 1158 2342 
Q 1085 2214 1024 2048 
L 1024 0 
L 451 0 
z
" transform="scale(0.015625)"/>
      </defs>
      <use xlink:href="#Lato-Regular-23"/>
      <use xlink:href="#Lato-Regular-20" transform="translate(58 0)"/>
      <use xlink:href="#Lato-Regular-6f" transform="translate(83.600006 0)"/>
      <use xlink:href="#Lato-Regular-66" transform="translate(139.175018 0)"/>
      <use xlink:href="#Lato-Regular-20" transform="translate(172.350021 0)"/>
      <use xlink:href="#Lato-Regular-45" transform="translate(197.950027 0)"/>
      <use xlink:href="#Lato-Regular-6e" transform="translate(254.325027 0)"/>
      <use xlink:href="#Lato-Regular-73" transform="translate(310.125031 0)"/>
      <use xlink:href="#Lato-Regular-65" transform="translate(353.425034 0)"/>
      <use xlink:href="#Lato-Regular-6d" transform="translate(406.225037 0)"/>
      <use xlink:href="#Lato-Regular-62" transform="translate(488.475052 0)"/>
      <use xlink:href="#Lato-Regular-6c" transform="translate(544.475052 0)"/>
      <use xlink:href="#Lato-Regular-65" transform="translate(568.075058 0)"/>
      <use xlink:href="#Lato-Regular-20" transform="translate(620.875061 0)"/>
      <use xlink:href="#Lato-Regular-4d" transform="translate(646.475067 0)"/>
      <use xlink:href="#Lato-Regular-65" transform="translate(737.825089 0)"/>
      <use xlink:href="#Lato-Regular-6d" transform="translate(790.625092 0)"/>
      <use xlink:href="#Lato-Regular-62" transform="translate(872.875107 0)"/>
      <use xlink:href="#Lato-Regular-65" transform="translate(928.875107 0)"/>
      <use xlink:href="#Lato-Regular-72" transform="translate(981.67511 0)"/>
      <use xlink:href="#Lato-Regular-73" transform="translate(1017.825119 0)"/>
     </g>
    </g>
   </g>
   <g id="matplotlib.axis_2">
    <g id="ytick_1">
     <g id="line2d_13">
      <path d="M 47.635 164.619301 
L 409.235 164.619301 
" clip-path="url(#pe92a555382)" style="fill: none; stroke-dasharray: 3.7,1.6; stroke-dashoffset: 0; stroke: #b0b0b0; stroke-opacity: 0.3"/>
     </g>
     <g id="line2d_14"/>
     <g id="text_8">
      <!-- 0.0 -->
      <g style="fill: #333333" transform="translate(23.91375 168.984301) scale(0.12 -0.12)">
       <defs>
        <path id="Lato-Light-2e" d="M 451 246 
Q 451 307 473 361 
Q 496 416 536 456 
Q 576 496 629 520 
Q 682 544 746 544 
Q 806 544 860 520 
Q 915 496 955 456 
Q 995 416 1019 361 
Q 1043 307 1043 246 
Q 1043 182 1019 129 
Q 995 77 955 37 
Q 915 -3 860 -25 
Q 806 -48 746 -48 
Q 621 -48 536 37 
Q 451 122 451 246 
z
" transform="scale(0.015625)"/>
       </defs>
       <use xlink:href="#Lato-Light-30"/>
       <use xlink:href="#Lato-Light-2e" transform="translate(58 0)"/>
       <use xlink:href="#Lato-Light-30" transform="translate(81.350006 0)"/>
      </g>
     </g>
    </g>
    <g id="ytick_2">
     <g id="line2d_15">
      <path d="M 47.635 119.59154 
L 409.235 119.59154 
" clip-path="url(#pe92a555382)" style="fill: none; stroke-dasharray: 3.7,1.6; stroke-dashoffset: 0; stroke: #b0b0b0; stroke-opacity: 0.3"/>
     </g>
     <g id="line2d_16"/>
     <g id="text_9">
      <!-- 0.2 -->
      <g style="fill: #333333" transform="translate(23.91375 123.95654) scale(0.12 -0.12)">
       <use xlink:href="#Lato-Light-30"/>
       <use xlink:href="#Lato-Light-2e" transform="translate(58 0)"/>
       <use xlink:href="#Lato-Light-32" transform="translate(81.350006 0)"/>
      </g>
     </g>
    </g>
    <g id="ytick_3">
     <g id="line2d_17">
      <path d="M 47.635 74.563778 
L 409.235 74.563778 
" clip-path="url(#pe92a555382)" style="fill: none; stroke-dasharray: 3.7,1.6; stroke-dashoffset: 0; stroke: #b0b0b0; stroke-opacity: 0.3"/>
     </g>
     <g id="line2d_18"/>
     <g id="text_10">
      <!-- 0.4 -->
      <g style="fill: #333333" transform="translate(23.91375 78.928778) scale(0.12 -0.12)">
       <use xlink:href="#Lato-Light-30"/>
       <use xlink:href="#Lato-Light-2e" transform="translate(58 0)"/>
       <use xlink:href="#Lato-Light-34" transform="translate(81.350006 0)"/>
      </g>
     </g>
    </g>
    <g id="ytick_4">
     <g id="line2d_19">
      <path d="M 47.635 29.536017 
L 409.235 29.536017 
" clip-path="url(#pe92a555382)" style="fill: none; stroke-dasharray: 3.7,1.6; stroke-dashoffset: 0; stroke: #b0b0b0; stroke-opacity: 0.3"/>
     </g>
     <g id="line2d_20"/>
     <g id="text_11">
      <!-- 0.6 -->
      <g style="fill: #333333" transform="translate(23.91375 33.901017) scale(0.12 -0.12)">
       <use xlink:href="#Lato-Light-30"/>
       <use xlink:href="#Lato-Light-2e" transform="translate(58 0)"/>
       <use xlink:href="#Lato-Light-36" transform="translate(81.350006 0)"/>
      </g>
     </g>
    </g>
    <g id="text_12">
     <!-- Test Acc. -->
     <g style="fill: #333333" transform="translate(17.511875 115.93515) rotate(-90) scale(0.14 -0.14)">
      <defs>
       <path id="Lato-Regular-54" d="M 3686 4586 
L 3686 4064 
L 2202 4064 
L 2202 0 
L 1584 0 
L 1584 4064 
L 96 4064 
L 96 4586 
L 3686 4586 
z
" transform="scale(0.015625)"/>
       <path id="Lato-Regular-74" d="M 1446 -51 
Q 1062 -51 856 163 
Q 650 378 650 781 
L 650 2765 
L 259 2765 
Q 208 2765 173 2795 
Q 138 2826 138 2890 
L 138 3117 
L 669 3184 
L 800 4186 
Q 810 4234 843 4264 
Q 877 4294 931 4294 
L 1219 4294 
L 1219 3178 
L 2157 3178 
L 2157 2765 
L 1219 2765 
L 1219 819 
Q 1219 614 1318 515 
Q 1418 416 1574 416 
Q 1664 416 1729 440 
Q 1795 464 1843 493 
Q 1891 522 1924 546 
Q 1958 570 1984 570 
Q 2029 570 2064 515 
L 2230 243 
Q 2083 106 1875 27 
Q 1667 -51 1446 -51 
z
" transform="scale(0.015625)"/>
       <path id="Lato-Regular-41" d="M 4314 0 
L 3834 0 
Q 3750 0 3699 41 
Q 3648 83 3622 147 
L 3194 1254 
L 1136 1254 
L 707 147 
Q 688 90 633 45 
Q 579 0 499 0 
L 19 0 
L 1853 4586 
L 2480 4586 
L 4314 0 
z
M 1309 1702 
L 3021 1702 
L 2301 3568 
Q 2266 3651 2232 3760 
Q 2198 3869 2163 3994 
Q 2131 3869 2097 3758 
Q 2064 3648 2029 3565 
L 1309 1702 
z
" transform="scale(0.015625)"/>
       <path id="Lato-Regular-63" d="M 2707 2666 
Q 2682 2630 2656 2611 
Q 2630 2592 2586 2592 
Q 2538 2592 2480 2632 
Q 2422 2672 2337 2720 
Q 2253 2768 2129 2808 
Q 2006 2848 1827 2848 
Q 1587 2848 1404 2763 
Q 1222 2678 1099 2518 
Q 976 2358 913 2131 
Q 851 1904 851 1622 
Q 851 1328 918 1099 
Q 986 870 1109 715 
Q 1232 560 1406 478 
Q 1581 397 1798 397 
Q 2006 397 2140 446 
Q 2275 496 2363 557 
Q 2451 618 2510 667 
Q 2570 717 2627 717 
Q 2698 717 2736 662 
L 2896 454 
Q 2790 323 2656 230 
Q 2522 138 2366 75 
Q 2211 13 2041 -16 
Q 1872 -45 1696 -45 
Q 1392 -45 1131 67 
Q 870 179 678 392 
Q 486 605 377 915 
Q 269 1226 269 1622 
Q 269 1984 369 2291 
Q 470 2598 664 2820 
Q 858 3043 1141 3168 
Q 1424 3293 1792 3293 
Q 2134 3293 2395 3182 
Q 2656 3072 2858 2870 
L 2707 2666 
z
" transform="scale(0.015625)"/>
       <path id="Lato-Regular-2e" d="M 355 352 
Q 355 435 385 508 
Q 416 582 469 636 
Q 522 691 595 723 
Q 669 755 752 755 
Q 835 755 908 723 
Q 982 691 1036 636 
Q 1091 582 1123 508 
Q 1155 435 1155 352 
Q 1155 266 1123 194 
Q 1091 122 1036 67 
Q 982 13 908 -17 
Q 835 -48 752 -48 
Q 669 -48 595 -17 
Q 522 13 469 67 
Q 416 122 385 194 
Q 355 266 355 352 
z
" transform="scale(0.015625)"/>
      </defs>
      <use xlink:href="#Lato-Regular-54"/>
      <use xlink:href="#Lato-Regular-65" transform="translate(46.800003 0)"/>
      <use xlink:href="#Lato-Regular-73" transform="translate(99.600006 0)"/>
      <use xlink:href="#Lato-Regular-74" transform="translate(142.900009 0)"/>
      <use xlink:href="#Lato-Regular-20" transform="translate(178.750015 0)"/>
      <use xlink:href="#Lato-Regular-41" transform="translate(200.975021 0)"/>
      <use xlink:href="#Lato-Regular-63" transform="translate(267.300034 0)"/>
      <use xlink:href="#Lato-Regular-63" transform="translate(314.175034 0)"/>
      <use xlink:href="#Lato-Regular-2e" transform="translate(361.925034 0)"/>
     </g>
    </g>
   </g>
   <g id="line2d_21">
    <path d="M 64.071364 163.245954 
L 64.3927 163.268468 
L 64.714037 161.760038 
L 65.035373 161.692496 
L 65.35671 161.850094 
L 65.678046 161.692496 
L 65.999383 161.197191 
L 66.320719 160.364178 
L 66.642056 160.61183 
L 66.963392 159.035858 
L 67.284729 158.945803 
L 67.606065 158.518039 
L 67.927402 157.414859 
L 68.570075 156.694415 
L 68.891412 156.78447 
L 69.534085 155.501179 
L 69.855421 155.118444 
L 70.498094 153.700069 
L 70.819431 154.330458 
L 71.140767 153.835152 
L 71.462104 153.790125 
L 71.78344 153.857666 
L 72.426113 152.101584 
L 72.74745 151.921472 
L 73.71146 151.853931 
L 74.032796 150.840806 
L 74.675469 150.097849 
L 76.282152 150.075334 
L 86.564921 150.030306 
L 86.886257 149.715111 
L 102.631748 149.782654 
L 103.595757 149.827681 
L 139.264112 149.737626 
L 140.870795 149.715111 
L 142.798814 149.76014 
L 153.40292 149.670084 
L 153.724256 149.64757 
L 154.045593 150.030306 
L 228.917005 150.05282 
L 229.238341 150.187904 
L 232.773043 150.277959 
L 234.058389 150.277959 
L 250.125216 150.345501 
L 251.089226 150.390529 
L 259.443975 150.480584 
L 261.371995 150.525611 
L 270.369417 150.57064 
L 270.690754 150.007792 
L 273.582783 150.007792 
L 273.904119 149.332376 
L 274.225456 149.24232 
L 274.868129 148.296738 
L 275.510802 148.116627 
L 275.832139 147.891488 
L 276.474812 147.891488 
L 276.796148 148.13914 
L 277.117485 146.518142 
L 278.402831 146.315517 
L 279.045504 145.369933 
L 279.36684 145.6401 
L 279.688177 145.347418 
L 280.33085 144.24424 
L 280.973523 142.713295 
L 281.29486 142.488156 
L 281.937533 141.317434 
L 282.258869 142.375586 
L 282.580206 141.092295 
L 282.901542 140.844643 
L 283.222879 139.876547 
L 284.186888 139.201131 
L 284.508225 138.908448 
L 284.829561 138.278061 
L 285.150898 138.188006 
L 285.472235 138.593256 
L 285.793571 137.917838 
L 286.436244 137.670186 
L 286.757581 137.039797 
L 287.078917 137.152366 
L 287.400254 136.904714 
L 287.72159 135.66645 
L 288.042927 135.103604 
L 288.364263 134.991032 
L 288.6856 135.148632 
L 289.006936 134.495729 
L 289.328273 134.248075 
L 289.649609 132.627075 
L 289.970946 131.974175 
L 290.934956 131.749036 
L 291.256292 129.430107 
L 291.577629 129.34005 
L 291.898965 126.976093 
L 292.220302 125.8504 
L 292.541638 125.670289 
L 292.862975 124.994871 
L 293.184311 125.197496 
L 293.505648 125.580232 
L 293.826984 124.882303 
L 294.148321 122.720968 
L 294.790994 120.649692 
L 295.11233 120.064332 
L 295.755004 120.131871 
L 296.07634 119.681596 
L 296.397677 118.420817 
L 296.719013 117.857971 
L 297.361686 117.520264 
L 297.683023 117.002442 
L 298.004359 117.069985 
L 298.325696 116.259485 
L 298.647032 115.854235 
L 298.968369 115.854235 
L 299.289705 113.918042 
L 299.611042 112.81486 
L 299.932378 112.657264 
L 300.575052 110.676042 
L 300.896388 109.235153 
L 301.217725 108.537224 
L 302.181734 107.726724 
L 303.46708 104.349645 
L 303.788417 104.237071 
L 304.109753 103.944395 
L 304.43109 104.417185 
L 304.752426 103.449088 
L 305.3951 102.548531 
L 305.716436 102.480992 
L 306.037773 101.940656 
L 306.359109 99.374077 
L 306.680446 98.833742 
L 307.001782 98.721174 
L 307.323119 99.036367 
L 307.644455 98.451003 
L 307.965792 98.203356 
L 308.287128 97.73056 
L 308.608465 96.965088 
L 309.251138 96.222134 
L 309.572474 96.267156 
L 309.893811 95.614259 
L 310.215148 95.771856 
L 310.857821 94.916327 
L 311.179157 94.983867 
L 311.500494 94.285935 
L 311.82183 94.01577 
L 312.143167 93.542981 
L 312.464503 92.709963 
L 312.78584 92.642424 
L 313.107176 92.754992 
L 313.428513 91.831924 
L 314.071186 91.719356 
L 315.035196 90.391038 
L 315.356532 89.55802 
L 315.677869 89.512992 
L 315.999205 89.107748 
L 316.320542 89.760645 
L 316.641878 89.377913 
L 316.963215 88.702498 
L 317.284551 88.950145 
L 318.248561 86.383566 
L 318.569897 86.496134 
L 320.497917 84.177202 
L 320.819253 84.492402 
L 321.14059 83.997095 
L 321.461926 84.109663 
L 321.783263 82.91643 
L 322.104599 82.826373 
L 322.425936 82.128441 
L 322.747272 81.723191 
L 323.389945 79.832027 
L 323.711282 79.922084 
L 324.032618 79.786998 
L 324.353955 78.953987 
L 324.996628 77.963373 
L 325.317965 75.261709 
L 325.639301 75.036573 
L 325.960638 74.40618 
L 326.281974 74.293612 
L 326.603311 73.618198 
L 326.924647 73.59568 
L 327.245984 73.393055 
L 327.56732 73.393055 
L 327.888657 73.145402 
L 328.209993 73.122891 
L 328.852666 72.042227 
L 329.174003 72.515016 
L 329.495339 72.78518 
L 329.816676 71.929652 
L 330.138013 71.591948 
L 331.102022 69.745805 
L 331.423359 69.45313 
L 331.744695 69.678266 
L 332.387368 68.800227 
L 332.708705 67.899669 
L 333.030041 67.877159 
L 333.351378 67.291794 
L 333.672714 67.224255 
L 334.315387 65.378112 
L 335.279397 64.500073 
L 335.600734 64.387505 
L 335.92207 63.824659 
L 336.243407 63.869687 
L 336.88608 62.698966 
L 337.207416 62.653937 
L 337.528753 62.136119 
L 337.850089 61.843437 
L 338.171426 61.978516 
L 338.492762 61.190534 
L 338.814099 60.762773 
L 339.135435 59.839698 
L 339.456772 59.276851 
L 339.778109 58.961658 
L 340.420782 57.813448 
L 340.742118 58.128648 
L 341.063455 58.263726 
L 341.384791 57.025466 
L 342.027464 56.507648 
L 342.348801 56.822841 
L 342.991474 55.58458 
L 343.31281 55.134301 
L 343.634147 54.931676 
L 344.27682 55.26938 
L 344.598156 55.359437 
L 344.919493 54.819108 
L 345.24083 55.134301 
L 345.562166 55.089273 
L 345.883503 55.224351 
L 346.204839 54.39134 
L 346.526176 54.638994 
L 346.847512 53.851005 
L 347.168849 53.715926 
L 347.490185 53.400733 
L 347.811522 53.24313 
L 348.132858 52.860398 
L 348.454195 52.905426 
L 348.775531 53.085533 
L 349.096868 52.387608 
L 349.418204 51.329455 
L 350.382214 50.676551 
L 350.703551 50.136222 
L 351.024887 50.316323 
L 351.346224 50.271301 
L 351.988897 49.775994 
L 352.310233 48.402648 
L 352.952906 47.637183 
L 353.595579 46.466455 
L 354.238252 45.94863 
L 355.202262 44.125012 
L 355.844935 43.607187 
L 356.166272 43.719762 
L 356.487608 43.494626 
L 356.808945 43.111893 
L 357.130281 42.391437 
L 357.772954 41.738547 
L 358.415627 39.644744 
L 358.736964 39.644744 
L 359.0583 37.821126 
L 359.379637 38.091297 
L 359.700974 37.866147 
L 360.664983 36.425262 
L 360.98632 36.560354 
L 361.307656 36.335204 
L 361.950329 35.434647 
L 362.271666 35.299569 
L 362.593002 34.511586 
L 363.557012 34.241415 
L 363.878348 34.489069 
L 364.199685 34.128854 
L 364.842358 33.858683 
L 365.163695 33.160757 
L 365.485031 32.778011 
L 365.806368 32.642933 
L 366.127704 32.192661 
L 366.449041 32.2602 
L 367.091714 31.629814 
L 367.41305 31.224564 
L 367.734387 31.089472 
L 368.055723 31.224564 
L 368.698396 30.414064 
L 369.019733 30.188915 
L 369.341069 30.369029 
L 369.662406 30.30149 
L 370.947752 28.905626 
L 371.269089 28.545411 
L 371.911762 28.297757 
L 372.554435 27.757415 
L 372.875771 27.644854 
L 373.518444 26.631722 
L 373.839781 26.474126 
L 374.482454 26.451621 
L 374.803791 26.158933 
L 375.125127 26.474126 
L 375.446464 26.271507 
L 375.7678 25.708661 
L 376.089137 25.393468 
L 376.410473 25.235871 
L 376.73181 25.325915 
L 377.374483 24.763068 
L 377.695819 24.695529 
L 378.017156 24.290279 
L 378.659829 23.142068 
L 378.981165 22.961968 
L 379.302502 23.00699 
L 379.623839 22.781854 
L 379.945175 23.052025 
L 380.587848 22.714314 
L 380.909185 22.624257 
L 381.873194 22.916933 
L 382.515867 22.241525 
L 382.837204 21.250911 
L 383.15854 20.935718 
L 383.479877 19.855047 
L 383.801213 19.562371 
L 384.12255 19.472314 
L 384.443887 19.517336 
L 384.765223 18.661814 
L 385.08656 18.706836 
L 385.407896 18.189025 
L 386.050569 18.031428 
L 387.014579 17.130871 
L 387.335915 17.040814 
L 387.657252 16.793161 
L 387.978588 16.162775 
L 388.621261 16.11774 
L 388.942598 16.252832 
L 389.906608 15.262218 
L 390.227944 15.262218 
L 390.549281 14.969542 
L 390.870617 14.856968 
L 391.51329 15.217182 
L 392.4773 14.631832 
L 392.798636 14.856968 
L 392.798636 14.856968 
" clip-path="url(#pe92a555382)" style="fill: none; stroke: #368dff; stroke-width: 2.5; stroke-linecap: round"/>
   </g>
   <g id="line2d_22">
    <path d="M 64.071364 159.756303 
L 64.3927 159.035858 
L 64.714037 157.910165 
L 65.035373 155.613749 
L 65.678046 152.731972 
L 65.999383 152.799514 
L 66.320719 151.493709 
L 66.642056 149.535001 
L 66.963392 148.386793 
L 67.284729 146.585683 
L 68.570075 142.488156 
L 69.212748 138.728338 
L 69.534085 138.593256 
L 69.855421 135.418797 
L 70.176758 134.608297 
L 70.498094 132.356911 
L 70.819431 131.77155 
L 71.140767 130.420718 
L 71.462104 132.334396 
L 71.78344 131.006078 
L 72.104777 130.285632 
L 72.426113 129.249993 
L 72.74745 128.867257 
L 73.068787 128.236871 
L 73.390123 126.143078 
L 73.71146 125.017385 
L 74.032796 124.432025 
L 74.354133 123.373871 
L 75.318142 117.835457 
L 75.639479 117.49775 
L 76.282152 114.976192 
L 76.603488 114.660999 
L 76.924825 114.660999 
L 77.567498 112.544696 
L 78.210171 110.54096 
L 78.852844 108.582253 
L 79.495517 106.781139 
L 80.13819 106.195781 
L 80.459527 105.655446 
L 81.1022 104.034446 
L 81.423536 103.629196 
L 81.744873 102.638588 
L 82.066209 100.657367 
L 82.387546 100.477253 
L 82.708883 100.477253 
L 83.030219 100.072003 
L 83.351556 99.936924 
L 83.672892 99.058878 
L 83.994229 97.550452 
L 84.315565 97.73056 
L 84.958238 96.289674 
L 85.279575 96.875031 
L 85.600911 96.402242 
L 85.922248 95.524202 
L 86.243584 93.993259 
L 86.564921 93.813145 
L 86.886257 92.754992 
L 87.207594 92.214663 
L 87.528931 90.863827 
L 88.171604 89.422941 
L 88.49294 89.175288 
L 88.814277 86.766299 
L 89.135613 85.910777 
L 89.45695 85.595577 
L 90.099623 84.649998 
L 90.420959 84.94268 
L 90.742296 84.064634 
L 91.063632 83.952066 
L 91.706305 83.096538 
L 92.027642 81.925816 
L 92.348978 82.060902 
L 92.670315 81.137834 
L 92.991652 81.002748 
L 93.634325 79.021527 
L 93.955661 77.918345 
L 94.919671 76.90522 
L 95.241007 75.847066 
L 95.562344 75.644441 
L 95.88368 74.226073 
L 96.205017 73.843334 
L 96.526353 73.280487 
L 96.84769 73.888362 
L 97.169026 73.25797 
L 97.490363 73.077862 
L 97.8117 72.672612 
L 98.133036 72.582555 
L 98.775709 71.141669 
L 99.097046 69.993459 
L 99.418382 69.813352 
L 100.382392 67.967209 
L 100.703728 68.32743 
L 101.025065 67.291794 
L 101.346401 66.886544 
L 102.310411 64.229909 
L 102.631748 64.004766 
L 102.953084 63.622034 
L 103.274421 62.96913 
L 103.595757 62.001034 
L 103.917094 61.708351 
L 104.23843 60.987909 
L 104.559767 60.875341 
L 104.881103 60.335005 
L 105.20244 60.222437 
L 105.523776 59.164283 
L 106.166449 57.948533 
L 106.487786 57.858476 
L 106.809122 57.903505 
L 107.130459 57.813448 
L 107.451796 57.340658 
L 107.773132 56.462619 
L 108.415805 56.07988 
L 109.058478 55.336926 
L 109.379815 54.77408 
L 110.022488 54.121176 
L 110.343824 54.166205 
L 110.665161 53.873523 
L 110.986497 53.760955 
L 111.62917 53.355705 
L 111.950507 53.288158 
L 112.271844 52.34258 
L 112.59318 52.275033 
L 112.914517 52.02738 
L 113.235853 51.937323 
L 113.55719 51.351972 
L 113.878526 51.396994 
L 114.199863 51.126823 
L 114.842536 50.046165 
L 115.163872 49.821029 
L 115.485209 49.415779 
L 115.806545 49.483319 
L 116.127882 49.235665 
L 116.449218 49.303205 
L 116.770555 48.425165 
L 117.091891 48.965494 
L 117.413228 48.335108 
L 118.377238 47.321976 
L 118.698574 47.56963 
L 119.019911 47.074336 
L 119.341247 46.984279 
L 119.98392 46.466455 
L 120.305257 45.971147 
L 120.626593 46.106226 
L 120.94793 45.903608 
L 121.269266 44.912994 
L 121.590603 44.305126 
L 121.911939 44.012437 
L 122.233276 44.147529 
L 122.554613 43.832336 
L 122.875949 43.697244 
L 123.197286 43.809819 
L 123.839959 42.796687 
L 124.161295 42.481494 
L 124.803968 42.368933 
L 125.125305 42.008705 
L 125.446641 41.941165 
L 125.767978 41.198204 
L 126.731987 41.670994 
L 127.053324 41.063126 
L 128.017334 40.43274 
L 128.33867 40.43274 
L 128.660007 39.39709 
L 128.981343 39.081897 
L 129.30268 38.361454 
L 129.624016 38.33895 
L 129.945353 37.505933 
L 130.266689 37.393358 
L 130.588026 36.920569 
L 130.909362 36.853029 
L 131.230699 36.988108 
L 131.552035 36.740454 
L 131.873372 36.853029 
L 132.516045 36.853029 
L 132.837382 36.537836 
L 133.158718 35.929954 
L 133.480055 35.749854 
L 134.122728 35.659797 
L 134.444064 35.457165 
L 134.765401 35.592257 
L 135.408074 35.277051 
L 135.72941 34.061301 
L 136.372083 33.971257 
L 136.69342 33.723604 
L 137.014757 33.791143 
L 137.336093 34.038797 
L 137.65743 34.128854 
L 137.978766 33.813661 
L 138.300103 33.971257 
L 138.621439 33.858683 
L 138.942776 33.408411 
L 139.264112 33.273319 
L 139.585449 33.54349 
L 139.906785 33.115722 
L 140.228122 33.003161 
L 140.870795 32.125108 
L 141.192131 31.967511 
L 141.513468 32.215165 
L 142.156141 31.899972 
L 142.798814 31.674836 
L 143.120151 31.269586 
L 143.441487 31.292104 
L 144.405497 29.918757 
L 144.726833 29.986297 
L 145.369506 29.8287 
L 145.690843 29.716126 
L 146.012179 29.153279 
L 146.333516 29.288358 
L 146.654852 28.973165 
L 147.297526 29.108257 
L 148.261535 28.815569 
L 148.904208 28.590433 
L 149.225545 29.220819 
L 149.546881 29.310876 
L 149.868218 28.455354 
L 150.189554 28.635468 
L 150.510891 28.410318 
L 150.832227 28.410318 
L 151.153564 28.297757 
L 151.4749 27.80245 
L 151.796237 27.892507 
L 152.43891 27.847472 
L 152.760247 28.072608 
L 153.081583 27.960047 
L 153.40292 27.644854 
L 154.045593 27.689876 
L 154.366929 27.442222 
L 154.688266 27.036972 
L 155.009602 26.924411 
L 155.652275 26.226472 
L 155.973612 26.068876 
L 156.616285 25.325915 
L 156.937622 25.213354 
L 157.580295 24.447876 
L 157.901631 23.862525 
L 158.222968 23.727433 
L 158.865641 23.704928 
L 159.186977 23.479779 
L 159.508314 23.74995 
L 160.150987 23.00699 
L 160.472323 22.826876 
L 160.79366 22.804371 
L 161.114996 22.5342 
L 161.436333 22.624257 
L 161.75767 22.241525 
L 162.079006 22.354086 
L 162.400343 21.948836 
L 162.721679 22.083928 
L 163.685689 21.543586 
L 164.328362 21.633643 
L 164.649698 21.273428 
L 164.971035 21.611125 
L 165.292371 21.363472 
L 165.613708 21.363472 
L 165.935044 20.98074 
L 166.577717 20.620525 
L 166.899054 20.800625 
L 167.220391 20.57549 
L 167.541727 20.50795 
L 168.1844 20.778121 
L 168.505737 20.485433 
L 169.469746 20.462928 
L 170.112419 19.76499 
L 170.433756 20.147722 
L 170.755092 19.855047 
L 171.076429 20.080183 
L 171.397765 20.012643 
L 172.040439 19.517336 
L 172.361775 19.134604 
L 172.683112 19.089582 
L 173.004448 19.247178 
L 173.325785 19.067064 
L 173.647121 19.157121 
L 174.289794 18.459183 
L 174.611131 18.436678 
L 175.253804 18.256564 
L 175.896477 18.324104 
L 176.53915 17.918854 
L 176.860487 18.008911 
L 177.824496 17.6712 
L 178.145833 17.513604 
L 178.467169 17.6712 
L 179.109842 17.581143 
L 179.431179 17.536121 
L 179.752515 17.6712 
L 180.073852 17.423547 
L 180.395188 17.423547 
L 180.716525 17.310985 
L 181.037861 16.973275 
L 181.680535 16.725621 
L 182.001871 17.018297 
L 182.323208 16.590529 
L 182.965881 16.45545 
L 260.729322 16.432933 
L 261.371995 16.342889 
L 327.245984 16.410428 
L 328.209993 16.45545 
L 355.844935 16.545507 
L 356.166272 16.230314 
L 357.451618 16.252832 
L 359.0583 16.230314 
L 381.873194 16.252832 
L 382.194531 15.960143 
L 383.15854 16.140257 
L 383.801213 16.162775 
L 384.12255 16.365393 
L 384.443887 16.095235 
L 384.765223 16.342889 
L 385.08656 16.140257 
L 385.407896 16.11774 
L 385.729233 16.230314 
L 386.371906 16.0502 
L 386.693242 15.622432 
L 387.335915 15.735007 
L 387.657252 15.487354 
L 387.978588 15.509871 
L 388.299925 15.194678 
L 388.621261 15.442332 
L 388.942598 15.194678 
L 389.585271 15.194678 
L 389.906608 14.811932 
L 390.227944 14.924507 
L 390.870617 14.811932 
L 391.51329 15.014564 
L 392.155963 14.744393 
L 392.4773 14.924507 
L 392.798636 14.856968 
L 392.798636 14.856968 
" clip-path="url(#pe92a555382)" style="fill: none; stroke: #ff6495; stroke-width: 2.5; stroke-linecap: round"/>
   </g>
   <g id="line2d_23">
    <path d="M 64.071364 162.367913 
L 64.3927 160.836969 
L 64.714037 160.836969 
L 65.035373 160.274122 
L 66.642056 160.31915 
L 66.963392 159.080887 
L 68.570075 159.058372 
L 68.891412 156.89704 
L 69.855421 156.829498 
L 70.498094 157.18972 
L 71.462104 157.18972 
L 71.78344 156.311679 
L 72.104777 155.816374 
L 73.390123 155.861402 
L 73.71146 155.433637 
L 74.032796 154.105319 
L 74.354133 154.375486 
L 75.318142 154.397999 
L 75.639479 154.172861 
L 76.924825 154.195374 
L 77.567498 152.056556 
L 77.888835 149.264834 
L 79.174181 149.264834 
L 79.816854 149.377404 
L 80.13819 149.174779 
L 80.459527 149.174779 
L 80.780863 148.02657 
L 81.744873 148.049084 
L 82.066209 147.73389 
L 82.387546 147.756404 
L 82.708883 146.428086 
L 83.030219 146.428086 
L 83.351556 145.505016 
L 83.672892 145.482502 
L 83.994229 144.626975 
L 84.315565 143.2086 
L 84.958238 143.2086 
L 85.600911 141.565088 
L 88.171604 141.790225 
L 88.49294 140.59699 
L 89.45695 140.574477 
L 89.778286 138.863422 
L 90.099623 138.863422 
L 90.742296 137.625157 
L 91.063632 137.625157 
L 91.384969 137.219909 
L 92.348978 137.264936 
L 92.670315 136.612034 
L 92.991652 134.85595 
L 94.598334 134.878464 
L 94.919671 134.405672 
L 95.241007 133.482604 
L 96.84769 133.482604 
L 97.490363 134.135507 
L 97.8117 134.180536 
L 98.133036 132.1768 
L 98.454373 132.1768 
L 98.775709 132.041714 
L 99.097046 132.041714 
L 99.418382 130.780939 
L 99.739719 130.780939 
L 100.061055 130.578314 
L 100.703728 130.578314 
L 101.025065 130.308146 
L 101.346401 130.308146 
L 101.667738 129.902896 
L 101.989074 129.925411 
L 102.310411 128.957314 
L 102.631748 126.143078 
L 103.595757 126.165593 
L 104.23843 124.769732 
L 105.523776 124.792246 
L 105.845113 124.567107 
L 106.166449 124.567107 
L 106.487786 124.40951 
L 106.809122 123.4189 
L 108.737142 123.351357 
L 109.379815 123.328843 
L 110.022488 123.328843 
L 110.343824 123.576496 
L 110.665161 123.576496 
L 110.986497 123.463928 
L 111.307834 122.856053 
L 112.59318 122.856053 
L 112.914517 122.180635 
L 113.235853 120.829803 
L 113.55719 120.829803 
L 113.878526 119.524 
L 114.521199 119.524 
L 114.842536 119.276346 
L 115.163872 119.208803 
L 115.485209 119.411428 
L 115.806545 119.411428 
L 116.127882 119.186289 
L 116.449218 119.186289 
L 116.770555 118.353275 
L 117.734565 118.398303 
L 118.055901 118.398303 
L 118.698574 118.510875 
L 119.019911 118.510875 
L 119.662584 116.889875 
L 121.269266 116.912389 
L 121.590603 117.317639 
L 121.911939 115.358932 
L 122.233276 115.358932 
L 122.554613 115.133792 
L 122.875949 115.133792 
L 123.197286 114.615971 
L 123.839959 114.638485 
L 124.161295 113.580335 
L 124.803968 113.580335 
L 125.446641 111.148835 
L 125.767978 110.811128 
L 126.731987 110.811128 
L 127.053324 110.518446 
L 127.695997 110.608503 
L 128.33867 110.631014 
L 128.660007 109.460292 
L 129.624016 109.482807 
L 129.945353 108.312088 
L 131.230699 108.312088 
L 131.552035 108.177003 
L 132.516045 108.177003 
L 132.837382 108.289571 
L 133.480055 108.26706 
L 133.801391 108.086946 
L 134.444064 108.086946 
L 135.086737 106.691088 
L 135.72941 103.674224 
L 136.050747 103.674224 
L 136.372083 103.516628 
L 137.014757 101.760549 
L 137.978766 101.670492 
L 138.300103 101.265242 
L 138.621439 101.265242 
L 138.942776 100.859992 
L 140.228122 100.859992 
L 140.549458 99.75681 
L 140.870795 99.75681 
L 141.192131 99.329049 
L 141.834804 99.396588 
L 142.477478 99.464128 
L 142.798814 98.991338 
L 143.441487 96.177106 
L 143.762824 95.974481 
L 144.08416 95.974481 
L 144.405497 94.938838 
L 144.726833 94.443538 
L 145.04817 94.443538 
L 145.369506 94.060799 
L 146.333516 94.038288 
L 146.654852 93.790634 
L 147.297526 93.790634 
L 147.940199 92.642424 
L 148.261535 92.237174 
L 148.582872 92.237174 
L 148.904208 91.944492 
L 149.225545 91.404163 
L 150.510891 91.359134 
L 151.153564 90.953884 
L 151.4749 90.976395 
L 151.796237 90.728742 
L 152.43891 90.706231 
L 152.760247 89.603049 
L 153.081583 89.603049 
L 153.724256 89.242827 
L 154.045593 87.891998 
L 154.366929 87.689373 
L 154.688266 87.689373 
L 155.009602 86.833845 
L 156.937622 86.878873 
L 157.580295 86.856356 
L 157.901631 86.676248 
L 158.222968 86.698759 
L 158.544304 86.428595 
L 158.865641 85.798202 
L 159.186977 85.798202 
L 159.508314 85.483009 
L 160.472323 85.483009 
L 160.79366 84.042123 
L 161.75767 83.884527 
L 162.079006 81.160345 
L 162.400343 81.070288 
L 162.721679 81.36297 
L 163.685689 81.385481 
L 164.007025 81.475538 
L 164.328362 80.665038 
L 164.649698 80.89018 
L 167.220391 80.935209 
L 167.863064 78.86393 
L 168.1844 78.436163 
L 168.505737 78.436163 
L 169.14841 77.332987 
L 171.397765 77.400527 
L 171.719102 76.81517 
L 172.040439 76.81517 
L 172.361775 77.963373 
L 173.004448 77.963373 
L 173.325785 76.43243 
L 174.289794 76.454941 
L 174.611131 75.937123 
L 174.932467 74.766402 
L 175.253804 74.946516 
L 176.860487 74.923998 
L 177.824496 74.901487 
L 178.145833 74.721373 
L 178.467169 74.721373 
L 178.788506 73.59568 
L 179.431179 73.753277 
L 180.073852 73.66322 
L 182.323208 73.66322 
L 182.644544 73.775794 
L 182.965881 73.280487 
L 185.215236 73.325516 
L 185.536573 72.830209 
L 186.179246 72.830209 
L 186.500583 72.560044 
L 188.749938 72.515016 
L 189.071275 71.591948 
L 190.035284 71.546919 
L 190.356621 70.488766 
L 191.963304 70.511277 
L 192.28464 69.993459 
L 192.605977 69.993459 
L 192.927313 68.372459 
L 193.569986 68.304919 
L 193.891323 68.32743 
L 194.212659 68.147323 
L 194.533996 67.764584 
L 195.176669 67.787102 
L 195.498005 68.372459 
L 197.426025 68.440005 
L 197.747361 68.417487 
L 198.390034 67.989727 
L 199.032707 67.899669 
L 199.354044 67.854641 
L 199.67538 67.471909 
L 200.318053 67.944698 
L 200.63939 67.92218 
L 200.960726 66.593862 
L 201.6034 66.593862 
L 201.924736 66.21113 
L 202.246073 65.580737 
L 203.210082 65.580737 
L 203.852755 65.378112 
L 204.174092 65.378112 
L 204.495428 65.152976 
L 204.816765 65.152976 
L 205.459438 64.545101 
L 205.780774 64.545101 
L 206.102111 64.207391 
L 206.423448 63.149237 
L 206.744784 62.631419 
L 208.99414 62.586391 
L 209.315476 61.978516 
L 211.564832 61.978516 
L 211.886169 62.406284 
L 212.528842 62.406284 
L 212.850178 62.226169 
L 213.171515 62.248687 
L 213.492851 61.708351 
L 213.814188 60.582658 
L 214.135524 60.582658 
L 214.456861 60.470091 
L 214.778197 60.560148 
L 215.099534 60.312494 
L 215.42087 59.209312 
L 216.706217 59.209312 
L 217.027553 58.533898 
L 217.670226 58.533898 
L 217.991563 57.790937 
L 218.312899 56.552676 
L 219.276909 56.530158 
L 219.598245 55.607091 
L 220.240918 55.539551 
L 221.847601 55.58458 
L 222.168938 55.764687 
L 223.132947 55.787205 
L 223.454284 55.472005 
L 223.77562 55.472005 
L 224.096957 54.931676 
L 225.060966 54.36883 
L 225.703639 54.36883 
L 226.024976 54.05363 
L 226.667649 54.05363 
L 226.988986 53.693408 
L 227.310322 53.693408 
L 227.631659 53.490783 
L 227.952995 52.905426 
L 228.274332 52.77034 
L 228.595668 52.77034 
L 229.238341 51.284419 
L 229.881014 51.261915 
L 230.202351 50.991744 
L 231.166361 50.991744 
L 231.487697 50.879169 
L 231.809034 50.541472 
L 232.773043 50.541472 
L 233.09438 49.438283 
L 233.415716 49.438283 
L 233.737053 48.897955 
L 235.022399 48.087455 
L 235.343735 48.087455 
L 235.665072 47.412033 
L 235.986409 47.592147 
L 237.271755 47.592147 
L 237.593091 47.119358 
L 237.914428 45.791033 
L 243.055812 45.88109 
L 243.698485 45.385783 
L 244.341158 45.385783 
L 244.662495 44.958029 
L 245.947841 44.822937 
L 246.269178 44.32763 
L 247.233187 44.32763 
L 247.554524 43.539647 
L 247.87586 43.134397 
L 252.053235 43.134397 
L 252.374572 42.706643 
L 252.695908 42.684126 
L 253.017245 42.301393 
L 253.338581 42.301393 
L 253.981254 41.851108 
L 255.2666 41.851108 
L 256.23061 41.378319 
L 256.551947 41.400836 
L 257.19462 41.310779 
L 258.801302 41.333297 
L 259.122639 41.198204 
L 259.443975 41.198204 
L 259.765312 40.477762 
L 260.729322 40.477762 
L 261.050658 40.140051 
L 261.371995 40.140051 
L 261.693331 39.824858 
L 262.336004 39.779836 
L 262.978677 39.689779 
L 263.62135 39.689779 
L 264.264023 38.901797 
L 266.513379 38.879279 
L 266.834716 38.676647 
L 267.798725 38.676647 
L 268.120062 38.271397 
L 268.762735 38.271397 
L 269.405408 38.068779 
L 269.726744 38.091297 
L 270.048081 37.686047 
L 270.369417 36.582858 
L 270.690754 36.672915 
L 271.012091 36.537836 
L 272.297437 36.560354 
L 272.618773 36.335204 
L 273.582783 36.335204 
L 273.904119 36.155104 
L 274.546792 36.245147 
L 275.189465 36.020012 
L 275.832139 36.087551 
L 276.153475 36.087551 
L 276.474812 35.704819 
L 276.796148 35.727336 
L 277.117485 35.929954 
L 277.438821 35.884933 
L 277.760158 35.344604 
L 278.724167 35.389626 
L 279.36684 34.399011 
L 279.688177 34.421529 
L 280.009513 34.826779 
L 280.33085 34.466551 
L 281.616196 34.489069 
L 281.937533 33.678569 
L 282.258869 33.47595 
L 282.580206 32.552876 
L 282.901542 32.552876 
L 283.222879 32.350257 
L 284.508225 32.372761 
L 285.150898 32.350257 
L 285.472235 32.485336 
L 286.436244 32.395279 
L 286.757581 31.787411 
L 287.400254 31.787411 
L 287.72159 31.629814 
L 290.292283 31.809915 
L 290.613619 31.247069 
L 293.505648 31.247069 
L 293.826984 30.571661 
L 294.790994 30.594165 
L 295.11233 30.459086 
L 295.755004 29.468472 
L 296.07634 29.153279 
L 296.719013 29.153279 
L 297.04035 29.288358 
L 297.361686 29.288358 
L 297.683023 29.08574 
L 298.325696 29.130761 
L 298.647032 28.432836 
L 299.932378 28.432836 
L 300.253715 28.297757 
L 300.575052 28.297757 
L 300.896388 28.117643 
L 301.217725 28.117643 
L 301.539061 27.937529 
L 301.860398 28.117643 
L 302.503071 28.117643 
L 302.824407 28.387814 
L 303.788417 28.387814 
L 304.109753 28.005068 
L 306.037773 28.050104 
L 306.680446 28.005068 
L 307.001782 28.252722 
L 309.572474 28.342779 
L 309.893811 27.982564 
L 310.215148 27.982564 
L 310.536484 27.847472 
L 310.857821 27.847472 
L 312.143167 27.487257 
L 312.464503 27.487257 
L 312.78584 26.766814 
L 313.749849 26.811836 
L 314.071186 26.609218 
L 315.999205 26.609218 
L 316.641878 26.316529 
L 316.963215 25.933797 
L 317.605888 25.933797 
L 317.927224 25.618604 
L 319.533907 25.596086 
L 319.855243 25.596086 
L 320.819253 25.821222 
L 321.14059 25.821222 
L 321.461926 25.235871 
L 323.711282 25.213354 
L 324.353955 25.100779 
L 324.675291 25.100779 
L 324.996628 25.213354 
L 325.317965 24.875643 
L 327.245984 24.853126 
L 327.56732 24.605472 
L 327.888657 24.200222 
L 328.209993 24.200222 
L 328.53133 24.042626 
L 328.852666 23.502297 
L 329.495339 23.614871 
L 331.102022 23.524814 
L 331.423359 23.41224 
L 331.744695 23.052025 
L 332.066032 23.074529 
L 332.387368 22.5342 
L 332.708705 22.5342 
L 333.030041 22.19649 
L 334.636724 22.241525 
L 335.279397 22.331568 
L 336.243407 22.331568 
L 336.88608 22.444143 
L 337.528753 22.444143 
L 337.850089 22.016375 
L 338.171426 22.016375 
L 338.814099 21.363472 
L 339.135435 21.746218 
L 339.456772 21.768722 
L 339.778109 21.903814 
L 340.099445 21.903814 
L 340.420782 21.431025 
L 343.31281 21.453529 
L 343.634147 21.025775 
L 344.598156 21.025775 
L 344.919493 20.598007 
L 345.562166 20.417893 
L 345.883503 20.552972 
L 346.526176 20.552972 
L 346.847512 19.652428 
L 347.168849 19.967621 
L 348.132858 19.855047 
L 348.454195 20.012643 
L 349.418204 20.012643 
L 349.739541 19.877564 
L 350.060878 20.012643 
L 350.382214 19.314718 
L 350.703551 19.539854 
L 351.66756 19.539854 
L 351.988897 19.314718 
L 355.202262 19.337235 
L 355.523599 19.494832 
L 355.844935 19.494832 
L 356.166272 19.35974 
L 356.487608 19.35974 
L 357.130281 18.95449 
L 357.772954 18.95449 
L 358.094291 18.661814 
L 360.02231 18.706836 
L 361.307656 18.706836 
L 361.628993 18.346621 
L 364.199685 18.4817 
L 364.521022 18.346621 
L 364.842358 18.346621 
L 365.163695 18.211529 
L 366.127704 18.256564 
L 366.449041 18.07645 
L 366.770377 17.581143 
L 367.41305 17.581143 
L 368.37706 17.108354 
L 369.983743 17.108354 
L 370.305079 16.815678 
L 371.269089 16.748139 
L 372.233098 16.703104 
L 372.554435 16.725621 
L 372.875771 16.297854 
L 373.197108 16.297854 
L 373.518444 16.590529 
L 376.73181 16.658082 
L 377.053146 16.432933 
L 377.374483 16.432933 
L 377.695819 16.11774 
L 378.659829 16.11774 
L 378.981165 16.545507 
L 380.587848 16.545507 
L 380.909185 16.095235 
L 381.551858 16.0502 
L 381.873194 15.735007 
L 384.12255 15.667468 
L 384.443887 15.509871 
L 385.729233 15.509871 
L 386.371906 15.2397 
L 386.693242 15.262218 
L 387.014579 15.622432 
L 391.834627 15.667468 
L 392.155963 14.947025 
L 392.4773 14.969542 
L 392.798636 14.856968 
L 392.798636 14.856968 
" clip-path="url(#pe92a555382)" style="fill: none; stroke: #3dd598; stroke-width: 2.5; stroke-linecap: round"/>
   </g>
   <g id="line2d_24">
    <path d="M 47.635 14.856968 
L 409.235 14.856968 
" clip-path="url(#pe92a555382)" style="fill: none; stroke-dasharray: 2.5,4.125; stroke-dashoffset: 0; stroke: #ffa500; stroke-width: 2.5"/>
   </g>
   <g id="legend_1">
    <g id="line2d_25">
     <path d="M 65.014687 222.425991 
L 77.014687 222.425991 
L 89.014687 222.425991 
" style="fill: none; stroke: #368dff; stroke-width: 2.5; stroke-linecap: round"/>
    </g>
    <g id="text_13">
     <!-- Ascending (Worst First) -->
     <g style="fill: #333333" transform="translate(98.614687 226.625991) scale(0.12 -0.12)">
      <defs>
       <path id="Lato-Light-41" d="M 4112 0 
L 3859 0 
Q 3814 0 3785 24 
Q 3757 48 3741 86 
L 3210 1402 
L 986 1402 
L 454 86 
Q 442 51 410 25 
Q 378 0 333 0 
L 83 0 
L 1936 4528 
L 2259 4528 
L 4112 0 
z
M 1082 1645 
L 3110 1645 
L 2189 3933 
Q 2141 4045 2096 4202 
Q 2074 4125 2051 4054 
Q 2029 3984 2006 3930 
L 1082 1645 
z
" transform="scale(0.015625)"/>
       <path id="Lato-Light-73" d="M 2275 2790 
Q 2250 2746 2202 2746 
Q 2166 2746 2112 2786 
Q 2058 2826 1966 2875 
Q 1875 2925 1740 2965 
Q 1606 3005 1414 3005 
Q 1242 3005 1099 2955 
Q 957 2906 856 2822 
Q 755 2739 700 2628 
Q 646 2518 646 2397 
Q 646 2246 723 2147 
Q 800 2048 923 1977 
Q 1046 1907 1206 1856 
Q 1366 1805 1531 1753 
Q 1696 1702 1856 1640 
Q 2016 1578 2139 1485 
Q 2262 1392 2339 1257 
Q 2416 1123 2416 931 
Q 2416 723 2342 544 
Q 2269 365 2126 233 
Q 1984 102 1776 25 
Q 1568 -51 1299 -51 
Q 963 -51 720 56 
Q 477 163 285 336 
L 355 445 
Q 371 470 392 483 
Q 413 496 448 496 
Q 490 496 549 445 
Q 608 394 707 334 
Q 806 275 952 224 
Q 1098 173 1312 173 
Q 1514 173 1667 229 
Q 1821 285 1923 381 
Q 2026 477 2078 606 
Q 2131 736 2131 880 
Q 2131 1040 2054 1145 
Q 1978 1251 1853 1324 
Q 1728 1398 1569 1449 
Q 1411 1501 1244 1552 
Q 1078 1603 920 1664 
Q 762 1725 637 1817 
Q 512 1910 435 2043 
Q 358 2176 358 2374 
Q 358 2544 432 2701 
Q 506 2858 642 2976 
Q 778 3094 973 3164 
Q 1168 3235 1411 3235 
Q 1702 3235 1928 3152 
Q 2154 3069 2339 2896 
L 2275 2790 
z
" transform="scale(0.015625)"/>
       <path id="Lato-Light-63" d="M 2666 2758 
Q 2650 2742 2635 2731 
Q 2621 2720 2595 2720 
Q 2563 2720 2508 2763 
Q 2454 2806 2361 2857 
Q 2269 2909 2129 2952 
Q 1990 2995 1792 2995 
Q 1517 2995 1304 2897 
Q 1091 2800 944 2617 
Q 797 2435 721 2176 
Q 646 1917 646 1594 
Q 646 1258 724 998 
Q 803 739 947 561 
Q 1091 384 1296 291 
Q 1501 198 1750 198 
Q 1981 198 2136 252 
Q 2291 307 2392 371 
Q 2493 435 2550 489 
Q 2608 544 2646 544 
Q 2685 544 2710 512 
L 2790 410 
Q 2717 314 2605 230 
Q 2493 147 2352 86 
Q 2211 26 2046 -8 
Q 1882 -42 1702 -42 
Q 1398 -42 1147 68 
Q 896 179 715 388 
Q 534 598 433 902 
Q 333 1206 333 1594 
Q 333 1958 429 2259 
Q 525 2560 710 2777 
Q 896 2995 1163 3115 
Q 1430 3235 1776 3235 
Q 2086 3235 2326 3136 
Q 2566 3037 2746 2867 
L 2666 2758 
z
" transform="scale(0.015625)"/>
       <path id="Lato-Light-65" d="M 1770 3235 
Q 2038 3235 2268 3142 
Q 2499 3050 2668 2872 
Q 2838 2694 2936 2435 
Q 3034 2176 3034 1840 
Q 3034 1770 3014 1744 
Q 2995 1718 2950 1718 
L 634 1718 
L 634 1658 
Q 634 1299 717 1027 
Q 800 755 953 571 
Q 1107 387 1324 294 
Q 1542 202 1811 202 
Q 2051 202 2227 254 
Q 2403 307 2523 372 
Q 2643 438 2713 491 
Q 2784 544 2816 544 
Q 2858 544 2880 512 
L 2963 410 
Q 2886 314 2760 230 
Q 2634 147 2478 88 
Q 2323 29 2145 -6 
Q 1968 -42 1789 -42 
Q 1462 -42 1193 72 
Q 925 186 733 403 
Q 541 621 437 936 
Q 333 1251 333 1658 
Q 333 2000 430 2289 
Q 528 2579 712 2788 
Q 896 2998 1163 3116 
Q 1430 3235 1770 3235 
z
M 1773 3008 
Q 1526 3008 1331 2931 
Q 1136 2854 993 2710 
Q 851 2566 763 2364 
Q 675 2163 646 1914 
L 2758 1914 
Q 2758 2170 2686 2373 
Q 2614 2576 2483 2717 
Q 2352 2858 2171 2933 
Q 1990 3008 1773 3008 
z
" transform="scale(0.015625)"/>
       <path id="Lato-Light-6e" d="M 525 0 
L 525 3184 
L 694 3184 
Q 774 3184 787 3104 
L 816 2624 
Q 1037 2902 1325 3068 
Q 1613 3235 1971 3235 
Q 2234 3235 2434 3152 
Q 2634 3069 2765 2912 
Q 2896 2755 2963 2534 
Q 3030 2314 3030 2035 
L 3030 0 
L 2723 0 
L 2723 2035 
Q 2723 2483 2518 2737 
Q 2314 2992 1894 2992 
Q 1581 2992 1312 2833 
Q 1043 2675 832 2394 
L 832 0 
L 525 0 
z
" transform="scale(0.015625)"/>
       <path id="Lato-Light-64" d="M 2835 0 
Q 2752 0 2739 83 
L 2707 586 
Q 2496 298 2214 128 
Q 1933 -42 1581 -42 
Q 992 -42 665 364 
Q 339 771 339 1584 
Q 339 1933 430 2235 
Q 522 2538 698 2760 
Q 874 2982 1131 3110 
Q 1389 3238 1725 3238 
Q 2048 3238 2285 3118 
Q 2522 2998 2698 2768 
L 2698 4656 
L 3002 4656 
L 3002 0 
L 2835 0 
z
M 1667 205 
Q 1981 205 2238 368 
Q 2496 531 2698 826 
L 2698 2496 
Q 2515 2771 2292 2884 
Q 2070 2998 1786 2998 
Q 1504 2998 1293 2896 
Q 1082 2794 939 2606 
Q 797 2419 725 2158 
Q 653 1898 653 1584 
Q 653 874 913 539 
Q 1174 205 1667 205 
z
" transform="scale(0.015625)"/>
       <path id="Lato-Light-69" d="M 864 3184 
L 864 0 
L 560 0 
L 560 3184 
L 864 3184 
z
M 995 4282 
Q 995 4224 971 4174 
Q 947 4125 908 4086 
Q 870 4048 819 4025 
Q 768 4003 710 4003 
Q 653 4003 601 4025 
Q 550 4048 512 4086 
Q 474 4125 451 4174 
Q 429 4224 429 4282 
Q 429 4339 451 4392 
Q 474 4445 512 4483 
Q 550 4522 601 4544 
Q 653 4566 710 4566 
Q 768 4566 819 4544 
Q 870 4522 908 4483 
Q 947 4445 971 4392 
Q 995 4339 995 4282 
z
" transform="scale(0.015625)"/>
       <path id="Lato-Light-67" d="M 1565 3238 
Q 1776 3238 1952 3187 
Q 2128 3136 2272 3043 
L 3088 3043 
L 3088 2938 
Q 3088 2867 2998 2851 
L 2512 2816 
Q 2602 2694 2650 2542 
Q 2698 2390 2698 2218 
Q 2698 1987 2616 1800 
Q 2534 1613 2385 1480 
Q 2237 1347 2027 1273 
Q 1818 1200 1565 1200 
Q 1290 1200 1069 1283 
Q 934 1203 856 1099 
Q 778 995 778 896 
Q 778 758 875 684 
Q 973 611 1131 577 
Q 1290 544 1493 534 
Q 1696 525 1907 513 
Q 2118 502 2321 473 
Q 2525 445 2683 373 
Q 2842 301 2939 171 
Q 3037 42 3037 -173 
Q 3037 -371 2937 -553 
Q 2838 -736 2651 -877 
Q 2464 -1018 2198 -1102 
Q 1933 -1187 1603 -1187 
Q 1267 -1187 1014 -1118 
Q 762 -1050 590 -933 
Q 419 -816 332 -662 
Q 246 -509 246 -336 
Q 246 -83 412 97 
Q 579 278 867 381 
Q 704 435 608 537 
Q 512 640 512 822 
Q 512 890 537 963 
Q 563 1037 614 1109 
Q 666 1181 739 1245 
Q 813 1309 906 1360 
Q 678 1491 552 1708 
Q 426 1926 426 2218 
Q 426 2448 507 2635 
Q 589 2822 739 2956 
Q 890 3091 1099 3164 
Q 1309 3238 1565 3238 
z
M 2755 -214 
Q 2755 -64 2676 27 
Q 2598 118 2467 169 
Q 2336 221 2163 240 
Q 1990 259 1804 270 
Q 1619 282 1430 291 
Q 1242 301 1075 330 
Q 954 282 851 218 
Q 749 154 675 75 
Q 602 -3 560 -97 
Q 518 -192 518 -301 
Q 518 -442 590 -562 
Q 662 -682 801 -770 
Q 941 -858 1142 -909 
Q 1344 -960 1606 -960 
Q 1850 -960 2059 -905 
Q 2269 -851 2424 -752 
Q 2579 -653 2667 -515 
Q 2755 -378 2755 -214 
z
M 1565 1408 
Q 1770 1408 1930 1467 
Q 2090 1526 2198 1632 
Q 2307 1738 2364 1885 
Q 2422 2032 2422 2211 
Q 2422 2390 2363 2539 
Q 2304 2688 2193 2793 
Q 2083 2899 1924 2956 
Q 1766 3014 1565 3014 
Q 1363 3014 1204 2956 
Q 1046 2899 936 2793 
Q 826 2688 768 2539 
Q 710 2390 710 2211 
Q 710 2032 768 1885 
Q 826 1738 936 1632 
Q 1046 1526 1204 1467 
Q 1363 1408 1565 1408 
z
" transform="scale(0.015625)"/>
       <path id="Lato-Light-20" transform="scale(0.015625)"/>
       <path id="Lato-Light-28" d="M 621 2016 
Q 621 1299 814 641 
Q 1008 -16 1392 -627 
Q 1424 -682 1409 -715 
Q 1395 -749 1370 -765 
L 1235 -848 
Q 989 -470 821 -116 
Q 653 237 549 587 
Q 445 938 398 1290 
Q 352 1642 352 2016 
Q 352 2390 398 2744 
Q 445 3098 549 3448 
Q 653 3798 821 4152 
Q 989 4506 1235 4883 
L 1370 4800 
Q 1395 4784 1409 4750 
Q 1424 4717 1392 4662 
Q 1008 4051 814 3393 
Q 621 2736 621 2016 
z
" transform="scale(0.015625)"/>
       <path id="Lato-Light-57" d="M 150 4528 
L 422 4528 
Q 515 4528 541 4442 
L 1683 720 
Q 1718 592 1747 429 
Q 1763 509 1779 582 
Q 1795 656 1818 720 
L 3098 4442 
Q 3110 4477 3142 4502 
Q 3174 4528 3219 4528 
L 3309 4528 
Q 3354 4528 3382 4504 
Q 3411 4480 3427 4442 
L 4707 720 
Q 4730 656 4747 585 
Q 4765 515 4781 435 
Q 4797 512 4811 584 
Q 4826 656 4842 720 
L 5984 4442 
Q 5994 4477 6027 4502 
Q 6061 4528 6106 4528 
L 6355 4528 
L 4931 0 
L 4637 0 
L 3299 3930 
Q 3274 4006 3254 4093 
Q 3235 4006 3210 3930 
L 1869 0 
L 1578 0 
L 150 4528 
z
" transform="scale(0.015625)"/>
       <path id="Lato-Light-6f" d="M 1786 3235 
Q 2128 3235 2398 3118 
Q 2669 3002 2854 2787 
Q 3040 2573 3137 2270 
Q 3235 1968 3235 1594 
Q 3235 1219 3137 918 
Q 3040 618 2854 403 
Q 2669 189 2398 73 
Q 2128 -42 1786 -42 
Q 1443 -42 1172 73 
Q 902 189 715 403 
Q 528 618 430 918 
Q 333 1219 333 1594 
Q 333 1968 430 2270 
Q 528 2573 715 2787 
Q 902 3002 1172 3118 
Q 1443 3235 1786 3235 
z
M 1786 198 
Q 2070 198 2283 296 
Q 2496 394 2638 576 
Q 2781 758 2851 1016 
Q 2922 1274 2922 1594 
Q 2922 1910 2851 2169 
Q 2781 2429 2638 2613 
Q 2496 2797 2283 2896 
Q 2070 2995 1786 2995 
Q 1501 2995 1288 2896 
Q 1075 2797 932 2613 
Q 790 2429 718 2169 
Q 646 1910 646 1594 
Q 646 1274 718 1016 
Q 790 758 932 576 
Q 1075 394 1288 296 
Q 1501 198 1786 198 
z
" transform="scale(0.015625)"/>
       <path id="Lato-Light-72" d="M 525 0 
L 525 3184 
L 688 3184 
Q 742 3184 764 3161 
Q 787 3139 794 3085 
L 816 2416 
Q 890 2611 984 2763 
Q 1078 2915 1201 3020 
Q 1325 3126 1477 3182 
Q 1629 3238 1814 3238 
Q 1914 3238 2010 3220 
Q 2106 3203 2179 3158 
L 2154 2947 
Q 2138 2896 2093 2896 
Q 2054 2896 1976 2918 
Q 1898 2941 1770 2941 
Q 1584 2941 1440 2883 
Q 1296 2826 1184 2715 
Q 1072 2605 987 2440 
Q 902 2275 832 2061 
L 832 0 
L 525 0 
z
" transform="scale(0.015625)"/>
       <path id="Lato-Light-74" d="M 1395 -51 
Q 1072 -51 891 128 
Q 710 307 710 682 
L 710 2858 
L 253 2858 
Q 218 2858 195 2877 
Q 173 2896 173 2931 
L 173 3050 
L 717 3088 
L 794 4227 
Q 800 4256 819 4278 
Q 838 4301 874 4301 
L 1018 4301 
L 1018 3085 
L 2022 3085 
L 2022 2858 
L 1018 2858 
L 1018 698 
Q 1018 566 1051 472 
Q 1085 378 1144 317 
Q 1203 256 1283 227 
Q 1363 198 1456 198 
Q 1571 198 1654 232 
Q 1738 266 1798 306 
Q 1859 346 1897 379 
Q 1936 413 1958 413 
Q 1984 413 2010 381 
L 2093 246 
Q 1971 112 1784 30 
Q 1597 -51 1395 -51 
z
" transform="scale(0.015625)"/>
       <path id="Lato-Light-46" d="M 3382 4528 
L 3382 4256 
L 998 4256 
L 998 2352 
L 3062 2352 
L 3062 2080 
L 998 2080 
L 998 0 
L 669 0 
L 669 4528 
L 3382 4528 
z
" transform="scale(0.015625)"/>
       <path id="Lato-Light-29" d="M 1030 2016 
Q 1030 2736 836 3393 
Q 643 4051 259 4662 
Q 227 4717 241 4750 
Q 256 4784 282 4800 
L 416 4883 
Q 662 4506 830 4152 
Q 998 3798 1102 3448 
Q 1206 3098 1252 2744 
Q 1299 2390 1299 2016 
Q 1299 1642 1252 1290 
Q 1206 938 1102 587 
Q 998 237 830 -116 
Q 662 -470 416 -848 
L 282 -765 
Q 256 -749 241 -715 
Q 227 -682 259 -627 
Q 643 -16 836 641 
Q 1030 1299 1030 2016 
z
" transform="scale(0.015625)"/>
      </defs>
      <use xlink:href="#Lato-Light-41"/>
      <use xlink:href="#Lato-Light-73" transform="translate(65.550003 0)"/>
      <use xlink:href="#Lato-Light-63" transform="translate(108.050003 0)"/>
      <use xlink:href="#Lato-Light-65" transform="translate(154.200012 0)"/>
      <use xlink:href="#Lato-Light-6e" transform="translate(206.350021 0)"/>
      <use xlink:href="#Lato-Light-64" transform="translate(261.350021 0)"/>
      <use xlink:href="#Lato-Light-69" transform="translate(316.450027 0)"/>
      <use xlink:href="#Lato-Light-6e" transform="translate(338.700027 0)"/>
      <use xlink:href="#Lato-Light-67" transform="translate(393.700027 0)"/>
      <use xlink:href="#Lato-Light-20" transform="translate(444.750031 0)"/>
      <use xlink:href="#Lato-Light-28" transform="translate(471.900024 0)"/>
      <use xlink:href="#Lato-Light-57" transform="translate(497.700027 0)"/>
      <use xlink:href="#Lato-Light-6f" transform="translate(594.40004 0)"/>
      <use xlink:href="#Lato-Light-72" transform="translate(650.200043 0)"/>
      <use xlink:href="#Lato-Light-73" transform="translate(685.050049 0)"/>
      <use xlink:href="#Lato-Light-74" transform="translate(727.550049 0)"/>
      <use xlink:href="#Lato-Light-20" transform="translate(761.800049 0)"/>
      <use xlink:href="#Lato-Light-46" transform="translate(788.950043 0)"/>
      <use xlink:href="#Lato-Light-69" transform="translate(845.025055 0)"/>
      <use xlink:href="#Lato-Light-72" transform="translate(867.275055 0)"/>
      <use xlink:href="#Lato-Light-73" transform="translate(902.125061 0)"/>
      <use xlink:href="#Lato-Light-74" transform="translate(944.625061 0)"/>
      <use xlink:href="#Lato-Light-29" transform="translate(978.875061 0)"/>
     </g>
    </g>
    <g id="line2d_26">
     <path d="M 65.014687 239.807241 
L 77.014687 239.807241 
L 89.014687 239.807241 
" style="fill: none; stroke: #ff6495; stroke-width: 2.5; stroke-linecap: round"/>
    </g>
    <g id="text_14">
     <!-- Descending (Best First) -->
     <g style="fill: #333333" transform="translate(98.614687 244.007241) scale(0.12 -0.12)">
      <defs>
       <path id="Lato-Light-44" d="M 4483 2266 
Q 4483 1741 4326 1321 
Q 4170 902 3885 608 
Q 3600 314 3201 157 
Q 2803 0 2323 0 
L 669 0 
L 669 4528 
L 2323 4528 
Q 2803 4528 3201 4371 
Q 3600 4214 3885 3920 
Q 4170 3626 4326 3206 
Q 4483 2787 4483 2266 
z
M 4144 2266 
Q 4144 2739 4013 3110 
Q 3882 3482 3642 3738 
Q 3402 3994 3066 4128 
Q 2730 4262 2323 4262 
L 998 4262 
L 998 266 
L 2323 266 
Q 2730 266 3066 400 
Q 3402 534 3642 790 
Q 3882 1046 4013 1417 
Q 4144 1789 4144 2266 
z
" transform="scale(0.015625)"/>
       <path id="Lato-Light-42" d="M 669 0 
L 669 4528 
L 1971 4528 
Q 2358 4528 2643 4451 
Q 2928 4374 3113 4225 
Q 3299 4077 3388 3862 
Q 3478 3648 3478 3376 
Q 3478 3197 3416 3030 
Q 3354 2864 3235 2723 
Q 3117 2582 2945 2478 
Q 2774 2374 2557 2320 
Q 3091 2240 3377 1963 
Q 3664 1686 3664 1238 
Q 3664 950 3561 720 
Q 3459 490 3264 330 
Q 3069 170 2784 85 
Q 2499 0 2138 0 
L 669 0 
z
M 998 2170 
L 998 262 
L 2134 262 
Q 2730 262 3035 520 
Q 3341 778 3341 1245 
Q 3341 1459 3259 1630 
Q 3178 1802 3024 1922 
Q 2870 2042 2646 2106 
Q 2422 2170 2138 2170 
L 998 2170 
z
M 998 2410 
L 1978 2410 
Q 2291 2410 2513 2490 
Q 2736 2570 2878 2701 
Q 3021 2832 3088 2998 
Q 3155 3165 3155 3341 
Q 3155 3798 2865 4033 
Q 2576 4269 1971 4269 
L 998 4269 
L 998 2410 
z
" transform="scale(0.015625)"/>
      </defs>
      <use xlink:href="#Lato-Light-44"/>
      <use xlink:href="#Lato-Light-65" transform="translate(75.250015 0)"/>
      <use xlink:href="#Lato-Light-73" transform="translate(127.400024 0)"/>
      <use xlink:href="#Lato-Light-63" transform="translate(169.900024 0)"/>
      <use xlink:href="#Lato-Light-65" transform="translate(216.050034 0)"/>
      <use xlink:href="#Lato-Light-6e" transform="translate(268.200043 0)"/>
      <use xlink:href="#Lato-Light-64" transform="translate(323.200043 0)"/>
      <use xlink:href="#Lato-Light-69" transform="translate(378.300049 0)"/>
      <use xlink:href="#Lato-Light-6e" transform="translate(400.550049 0)"/>
      <use xlink:href="#Lato-Light-67" transform="translate(455.550049 0)"/>
      <use xlink:href="#Lato-Light-20" transform="translate(506.600052 0)"/>
      <use xlink:href="#Lato-Light-28" transform="translate(533.750046 0)"/>
      <use xlink:href="#Lato-Light-42" transform="translate(559.550049 0)"/>
      <use xlink:href="#Lato-Light-65" transform="translate(622.000061 0)"/>
      <use xlink:href="#Lato-Light-73" transform="translate(674.15007 0)"/>
      <use xlink:href="#Lato-Light-74" transform="translate(716.65007 0)"/>
      <use xlink:href="#Lato-Light-20" transform="translate(750.90007 0)"/>
      <use xlink:href="#Lato-Light-46" transform="translate(778.050064 0)"/>
      <use xlink:href="#Lato-Light-69" transform="translate(834.125076 0)"/>
      <use xlink:href="#Lato-Light-72" transform="translate(856.375076 0)"/>
      <use xlink:href="#Lato-Light-73" transform="translate(891.225082 0)"/>
      <use xlink:href="#Lato-Light-74" transform="translate(933.725082 0)"/>
      <use xlink:href="#Lato-Light-29" transform="translate(967.975082 0)"/>
     </g>
    </g>
    <g id="line2d_27">
     <path d="M 243.175312 222.425991 
L 255.175312 222.425991 
L 267.175312 222.425991 
" style="fill: none; stroke: #3dd598; stroke-width: 2.5; stroke-linecap: round"/>
    </g>
    <g id="text_15">
     <!-- Original Order -->
     <g style="fill: #333333" transform="translate(276.775312 226.625991) scale(0.12 -0.12)">
      <defs>
       <path id="Lato-Light-4f" d="M 4691 2266 
Q 4691 1741 4534 1313 
Q 4378 886 4093 584 
Q 3808 282 3409 117 
Q 3011 -48 2531 -48 
Q 2051 -48 1654 117 
Q 1258 282 973 584 
Q 688 886 531 1313 
Q 374 1741 374 2266 
Q 374 2787 531 3214 
Q 688 3642 973 3944 
Q 1258 4246 1654 4412 
Q 2051 4579 2531 4579 
Q 3011 4579 3409 4414 
Q 3808 4250 4093 3946 
Q 4378 3642 4534 3214 
Q 4691 2787 4691 2266 
z
M 4352 2266 
Q 4352 2739 4221 3116 
Q 4090 3494 3850 3756 
Q 3610 4019 3274 4158 
Q 2938 4298 2531 4298 
Q 2128 4298 1792 4158 
Q 1456 4019 1214 3756 
Q 973 3494 840 3116 
Q 707 2739 707 2266 
Q 707 1789 840 1413 
Q 973 1037 1214 774 
Q 1456 512 1792 374 
Q 2128 237 2531 237 
Q 2938 237 3274 374 
Q 3610 512 3850 774 
Q 4090 1037 4221 1413 
Q 4352 1789 4352 2266 
z
" transform="scale(0.015625)"/>
       <path id="Lato-Light-61" d="M 2483 0 
Q 2387 0 2365 90 
L 2320 496 
Q 2189 368 2059 265 
Q 1930 163 1789 92 
Q 1648 22 1485 -14 
Q 1322 -51 1126 -51 
Q 963 -51 809 -3 
Q 656 45 536 144 
Q 416 243 344 398 
Q 272 554 272 771 
Q 272 973 387 1145 
Q 502 1318 748 1446 
Q 995 1574 1380 1651 
Q 1766 1728 2307 1741 
L 2307 2074 
Q 2307 2515 2116 2753 
Q 1926 2992 1552 2992 
Q 1322 2992 1160 2928 
Q 998 2864 886 2787 
Q 774 2710 704 2646 
Q 634 2582 586 2582 
Q 550 2582 528 2598 
Q 506 2614 490 2640 
L 435 2733 
Q 685 2982 960 3110 
Q 1235 3238 1584 3238 
Q 1840 3238 2032 3156 
Q 2224 3075 2350 2923 
Q 2477 2771 2541 2555 
Q 2605 2339 2605 2074 
L 2605 0 
L 2483 0 
z
M 1203 170 
Q 1389 170 1544 210 
Q 1699 250 1832 322 
Q 1965 394 2080 493 
Q 2195 592 2307 707 
L 2307 1536 
Q 1853 1523 1523 1467 
Q 1194 1411 981 1315 
Q 768 1219 667 1086 
Q 566 954 566 784 
Q 566 624 619 507 
Q 672 390 760 315 
Q 848 240 963 205 
Q 1078 170 1203 170 
z
" transform="scale(0.015625)"/>
       <path id="Lato-Light-6c" d="M 861 4656 
L 861 0 
L 554 0 
L 554 4656 
L 861 4656 
z
" transform="scale(0.015625)"/>
      </defs>
      <use xlink:href="#Lato-Light-4f"/>
      <use xlink:href="#Lato-Light-72" transform="translate(78.025009 0)"/>
      <use xlink:href="#Lato-Light-69" transform="translate(113.375015 0)"/>
      <use xlink:href="#Lato-Light-67" transform="translate(135.625015 0)"/>
      <use xlink:href="#Lato-Light-69" transform="translate(186.675018 0)"/>
      <use xlink:href="#Lato-Light-6e" transform="translate(208.925018 0)"/>
      <use xlink:href="#Lato-Light-61" transform="translate(263.925018 0)"/>
      <use xlink:href="#Lato-Light-6c" transform="translate(312.325027 0)"/>
      <use xlink:href="#Lato-Light-20" transform="translate(334.425034 0)"/>
      <use xlink:href="#Lato-Light-4f" transform="translate(361.575027 0)"/>
      <use xlink:href="#Lato-Light-72" transform="translate(439.600037 0)"/>
      <use xlink:href="#Lato-Light-64" transform="translate(472.200043 0)"/>
      <use xlink:href="#Lato-Light-65" transform="translate(527.300049 0)"/>
      <use xlink:href="#Lato-Light-72" transform="translate(579.450058 0)"/>
     </g>
    </g>
    <g id="line2d_28">
     <path d="M 243.175312 239.381616 
L 255.175312 239.381616 
L 267.175312 239.381616 
" style="fill: none; stroke-dasharray: 2.5,4.125; stroke-dashoffset: 0; stroke: #ffa500; stroke-width: 2.5"/>
    </g>
    <g id="text_16">
     <!-- Full Ensemble: 0.6652 -->
     <g style="fill: #333333" transform="translate(276.775312 243.581616) scale(0.12 -0.12)">
      <defs>
       <path id="Lato-Light-75" d="M 797 3184 
L 797 1149 
Q 797 701 1001 446 
Q 1206 192 1626 192 
Q 1936 192 2205 350 
Q 2474 509 2688 790 
L 2688 3184 
L 2995 3184 
L 2995 0 
L 2826 0 
Q 2746 0 2733 83 
L 2704 557 
Q 2483 282 2193 115 
Q 1904 -51 1549 -51 
Q 1283 -51 1084 32 
Q 886 115 755 272 
Q 624 429 557 649 
Q 490 870 490 1149 
L 490 3184 
L 797 3184 
z
" transform="scale(0.015625)"/>
       <path id="Lato-Light-45" d="M 3382 4528 
L 3382 4256 
L 998 4256 
L 998 2426 
L 2982 2426 
L 2982 2160 
L 998 2160 
L 998 272 
L 3389 272 
L 3382 0 
L 669 0 
L 669 4528 
L 3382 4528 
z
" transform="scale(0.015625)"/>
       <path id="Lato-Light-6d" d="M 525 0 
L 525 3184 
L 694 3184 
Q 774 3184 787 3104 
L 816 2643 
Q 1002 2909 1242 3072 
Q 1482 3235 1782 3235 
Q 2131 3235 2340 3033 
Q 2550 2832 2624 2474 
Q 2682 2669 2786 2813 
Q 2890 2957 3024 3051 
Q 3158 3146 3316 3190 
Q 3475 3235 3642 3235 
Q 3878 3235 4067 3156 
Q 4256 3078 4387 2924 
Q 4518 2771 4588 2547 
Q 4659 2323 4659 2035 
L 4659 0 
L 4355 0 
L 4355 2035 
Q 4355 2502 4153 2747 
Q 3952 2992 3578 2992 
Q 3411 2992 3259 2931 
Q 3107 2870 2990 2750 
Q 2874 2630 2805 2451 
Q 2736 2272 2736 2035 
L 2736 0 
L 2429 0 
L 2429 2035 
Q 2429 2499 2245 2745 
Q 2061 2992 1706 2992 
Q 1446 2992 1225 2838 
Q 1005 2685 832 2413 
L 832 0 
L 525 0 
z
" transform="scale(0.015625)"/>
       <path id="Lato-Light-62" d="M 525 0 
L 525 4656 
L 832 4656 
L 832 2630 
Q 1040 2912 1318 3073 
Q 1597 3235 1965 3235 
Q 2253 3235 2480 3129 
Q 2707 3024 2865 2825 
Q 3024 2627 3107 2337 
Q 3190 2048 3190 1680 
Q 3190 1293 3097 974 
Q 3005 656 2827 430 
Q 2650 205 2394 81 
Q 2138 -42 1808 -42 
Q 1469 -42 1229 88 
Q 989 218 816 470 
L 797 80 
Q 787 0 710 0 
L 525 0 
z
M 1878 2992 
Q 1536 2992 1283 2829 
Q 1030 2666 832 2374 
L 832 694 
Q 1018 419 1238 308 
Q 1459 198 1741 198 
Q 2026 198 2238 300 
Q 2451 403 2593 593 
Q 2736 784 2806 1056 
Q 2877 1328 2877 1667 
Q 2877 2326 2614 2659 
Q 2352 2992 1878 2992 
z
" transform="scale(0.015625)"/>
       <path id="Lato-Light-3a" d="M 470 0 
L 470 0 
z
M 471 246 
Q 471 307 493 361 
Q 515 416 555 456 
Q 595 496 648 520 
Q 701 544 765 544 
Q 826 544 880 520 
Q 935 496 975 456 
Q 1015 416 1039 361 
Q 1063 307 1063 246 
Q 1063 182 1039 129 
Q 1015 77 975 37 
Q 935 -3 880 -25 
Q 826 -48 765 -48 
Q 640 -48 555 37 
Q 471 122 471 246 
z
M 471 2796 
Q 471 2857 493 2911 
Q 515 2966 555 3006 
Q 595 3046 648 3070 
Q 701 3094 765 3094 
Q 826 3094 880 3070 
Q 935 3046 975 3006 
Q 1015 2966 1039 2911 
Q 1063 2857 1063 2796 
Q 1063 2732 1039 2679 
Q 1015 2627 975 2587 
Q 935 2547 880 2524 
Q 826 2502 765 2502 
Q 640 2502 555 2587 
Q 471 2672 471 2796 
z
" transform="scale(0.015625)"/>
       <path id="Lato-Light-35" d="M 3078 4397 
Q 3078 4333 3035 4289 
Q 2992 4246 2899 4246 
L 1261 4246 
L 989 2736 
Q 1203 2790 1395 2814 
Q 1587 2838 1760 2838 
Q 2115 2838 2384 2737 
Q 2653 2637 2833 2456 
Q 3014 2275 3105 2025 
Q 3197 1776 3197 1482 
Q 3197 1123 3073 840 
Q 2950 557 2736 358 
Q 2522 160 2237 54 
Q 1952 -51 1632 -51 
Q 1446 -51 1275 -17 
Q 1104 16 955 72 
Q 806 128 680 201 
Q 554 275 458 352 
L 550 477 
Q 579 525 640 525 
Q 682 525 760 477 
Q 838 429 961 371 
Q 1085 314 1254 266 
Q 1424 218 1648 218 
Q 1910 218 2137 302 
Q 2365 387 2531 547 
Q 2698 707 2792 942 
Q 2886 1178 2886 1475 
Q 2886 1718 2814 1923 
Q 2742 2128 2596 2273 
Q 2451 2419 2228 2500 
Q 2006 2582 1706 2582 
Q 1523 2582 1318 2553 
Q 1114 2525 883 2461 
L 688 2522 
L 1040 4528 
L 3078 4528 
L 3078 4397 
z
" transform="scale(0.015625)"/>
      </defs>
      <use xlink:href="#Lato-Light-46"/>
      <use xlink:href="#Lato-Light-75" transform="translate(52.450012 0)"/>
      <use xlink:href="#Lato-Light-6c" transform="translate(107.400024 0)"/>
      <use xlink:href="#Lato-Light-6c" transform="translate(129.500031 0)"/>
      <use xlink:href="#Lato-Light-20" transform="translate(151.600037 0)"/>
      <use xlink:href="#Lato-Light-45" transform="translate(178.750031 0)"/>
      <use xlink:href="#Lato-Light-6e" transform="translate(235.000031 0)"/>
      <use xlink:href="#Lato-Light-73" transform="translate(290.000031 0)"/>
      <use xlink:href="#Lato-Light-65" transform="translate(332.500031 0)"/>
      <use xlink:href="#Lato-Light-6d" transform="translate(384.65004 0)"/>
      <use xlink:href="#Lato-Light-62" transform="translate(465.150055 0)"/>
      <use xlink:href="#Lato-Light-6c" transform="translate(520.250061 0)"/>
      <use xlink:href="#Lato-Light-65" transform="translate(542.350067 0)"/>
      <use xlink:href="#Lato-Light-3a" transform="translate(594.500076 0)"/>
      <use xlink:href="#Lato-Light-20" transform="translate(618.500076 0)"/>
      <use xlink:href="#Lato-Light-30" transform="translate(645.65007 0)"/>
      <use xlink:href="#Lato-Light-2e" transform="translate(703.65007 0)"/>
      <use xlink:href="#Lato-Light-36" transform="translate(727.000076 0)"/>
      <use xlink:href="#Lato-Light-36" transform="translate(785.000076 0)"/>
      <use xlink:href="#Lato-Light-35" transform="translate(843.000076 0)"/>
      <use xlink:href="#Lato-Light-32" transform="translate(901.000076 0)"/>
     </g>
    </g>
   </g>
  </g>
 </g>
 <defs>
  <clipPath id="pe92a555382">
   <rect x="47.635" y="7.2" width="361.6" height="163.5003"/>
  </clipPath>
 </defs>
</svg>
