<?xml version="1.0" encoding="utf-8" standalone="no"?>
<!DOCTYPE svg PUBLIC "-//W3C//DTD SVG 1.1//EN"
  "http://www.w3.org/Graphics/SVG/1.1/DTD/svg11.dtd">
<svg xmlns:xlink="http://www.w3.org/1999/xlink" width="506.4875pt" height="387.837525pt" viewBox="0 0 506.4875 387.837525" xmlns="http://www.w3.org/2000/svg" version="1.1">
 <metadata>
  <rdf:RDF xmlns:dc="http://purl.org/dc/elements/1.1/" xmlns:cc="http://creativecommons.org/ns#" xmlns:rdf="http://www.w3.org/1999/02/22-rdf-syntax-ns#">
   <cc:Work>
    <dc:type rdf:resource="http://purl.org/dc/dcmitype/StillImage"/>
    <dc:date>2026-03-20T17:06:53.049392</dc:date>
    <dc:format>image/svg+xml</dc:format>
    <dc:creator>
     <cc:Agent>
      <dc:title>Matplotlib v3.10.7, https://matplotlib.org/</dc:title>
     </cc:Agent>
    </dc:creator>
   </cc:Work>
  </rdf:RDF>
 </metadata>
 <defs>
  <style type="text/css">*{stroke-linejoin: round; stroke-linecap: butt}</style>
 </defs>
 <g id="figure_1">
  <g id="patch_1">
   <path d="M 0 387.837525 
L 506.4875 387.837525 
L 506.4875 0 
L 0 0 
z
" style="fill: #ffffff"/>
  </g>
  <g id="axes_1">
   <g id="patch_2">
    <path d="M 52.8875 228.96 
L 499.2875 228.96 
L 499.2875 7.2 
L 52.8875 7.2 
z
" style="fill: #ffffff"/>
   </g>
   <g id="matplotlib.axis_1">
    <g id="xtick_1">
     <g id="line2d_1">
      <path d="M 73.178409 228.96 
L 73.178409 7.2 
" clip-path="url(#pd1697d6ac1)" style="fill: none; stroke-dasharray: 3.7,1.6; stroke-dashoffset: 0; stroke: #b0b0b0; stroke-opacity: 0.3"/>
     </g>
     <g id="line2d_2"/>
     <g id="text_1">
      <!-- relu -->
      <g style="fill: #333333" transform="translate(76.212003 253.757656) rotate(-90) scale(0.11 -0.11)">
       <defs>
        <path id="Lato-Light-72" d="M 525 0 
L 525 3184 
L 688 3184 
Q 742 3184 764 3161 
Q 787 3139 794 3085 
L 816 2416 
Q 890 2611 984 2763 
Q 1078 2915 1201 3020 
Q 1325 3126 1477 3182 
Q 1629 3238 1814 3238 
Q 1914 3238 2010 3220 
Q 2106 3203 2179 3158 
L 2154 2947 
Q 2138 2896 2093 2896 
Q 2054 2896 1976 2918 
Q 1898 2941 1770 2941 
Q 1584 2941 1440 2883 
Q 1296 2826 1184 2715 
Q 1072 2605 987 2440 
Q 902 2275 832 2061 
L 832 0 
L 525 0 
z
" transform="scale(0.015625)"/>
        <path id="Lato-Light-65" d="M 1770 3235 
Q 2038 3235 2268 3142 
Q 2499 3050 2668 2872 
Q 2838 2694 2936 2435 
Q 3034 2176 3034 1840 
Q 3034 1770 3014 1744 
Q 2995 1718 2950 1718 
L 634 1718 
L 634 1658 
Q 634 1299 717 1027 
Q 800 755 953 571 
Q 1107 387 1324 294 
Q 1542 202 1811 202 
Q 2051 202 2227 254 
Q 2403 307 2523 372 
Q 2643 438 2713 491 
Q 2784 544 2816 544 
Q 2858 544 2880 512 
L 2963 410 
Q 2886 314 2760 230 
Q 2634 147 2478 88 
Q 2323 29 2145 -6 
Q 1968 -42 1789 -42 
Q 1462 -42 1193 72 
Q 925 186 733 403 
Q 541 621 437 936 
Q 333 1251 333 1658 
Q 333 2000 430 2289 
Q 528 2579 712 2788 
Q 896 2998 1163 3116 
Q 1430 3235 1770 3235 
z
M 1773 3008 
Q 1526 3008 1331 2931 
Q 1136 2854 993 2710 
Q 851 2566 763 2364 
Q 675 2163 646 1914 
L 2758 1914 
Q 2758 2170 2686 2373 
Q 2614 2576 2483 2717 
Q 2352 2858 2171 2933 
Q 1990 3008 1773 3008 
z
" transform="scale(0.015625)"/>
        <path id="Lato-Light-6c" d="M 861 4656 
L 861 0 
L 554 0 
L 554 4656 
L 861 4656 
z
" transform="scale(0.015625)"/>
        <path id="Lato-Light-75" d="M 797 3184 
L 797 1149 
Q 797 701 1001 446 
Q 1206 192 1626 192 
Q 1936 192 2205 350 
Q 2474 509 2688 790 
L 2688 3184 
L 2995 3184 
L 2995 0 
L 2826 0 
Q 2746 0 2733 83 
L 2704 557 
Q 2483 282 2193 115 
Q 1904 -51 1549 -51 
Q 1283 -51 1084 32 
Q 886 115 755 272 
Q 624 429 557 649 
Q 490 870 490 1149 
L 490 3184 
L 797 3184 
z
" transform="scale(0.015625)"/>
       </defs>
       <use xlink:href="#Lato-Light-72"/>
       <use xlink:href="#Lato-Light-65" transform="translate(32.600006 0)"/>
       <use xlink:href="#Lato-Light-6c" transform="translate(84.750015 0)"/>
       <use xlink:href="#Lato-Light-75" transform="translate(106.850021 0)"/>
      </g>
     </g>
    </g>
    <g id="xtick_2">
     <g id="line2d_3">
      <path d="M 123.905682 228.96 
L 123.905682 7.2 
" clip-path="url(#pd1697d6ac1)" style="fill: none; stroke-dasharray: 3.7,1.6; stroke-dashoffset: 0; stroke: #b0b0b0; stroke-opacity: 0.3"/>
     </g>
     <g id="line2d_4"/>
     <g id="text_2">
      <!-- layer1.0.relu -->
      <g style="fill: #333333" transform="translate(126.939276 294.330469) rotate(-90) scale(0.11 -0.11)">
       <defs>
        <path id="Lato-Light-61" d="M 2483 0 
Q 2387 0 2365 90 
L 2320 496 
Q 2189 368 2059 265 
Q 1930 163 1789 92 
Q 1648 22 1485 -14 
Q 1322 -51 1126 -51 
Q 963 -51 809 -3 
Q 656 45 536 144 
Q 416 243 344 398 
Q 272 554 272 771 
Q 272 973 387 1145 
Q 502 1318 748 1446 
Q 995 1574 1380 1651 
Q 1766 1728 2307 1741 
L 2307 2074 
Q 2307 2515 2116 2753 
Q 1926 2992 1552 2992 
Q 1322 2992 1160 2928 
Q 998 2864 886 2787 
Q 774 2710 704 2646 
Q 634 2582 586 2582 
Q 550 2582 528 2598 
Q 506 2614 490 2640 
L 435 2733 
Q 685 2982 960 3110 
Q 1235 3238 1584 3238 
Q 1840 3238 2032 3156 
Q 2224 3075 2350 2923 
Q 2477 2771 2541 2555 
Q 2605 2339 2605 2074 
L 2605 0 
L 2483 0 
z
M 1203 170 
Q 1389 170 1544 210 
Q 1699 250 1832 322 
Q 1965 394 2080 493 
Q 2195 592 2307 707 
L 2307 1536 
Q 1853 1523 1523 1467 
Q 1194 1411 981 1315 
Q 768 1219 667 1086 
Q 566 954 566 784 
Q 566 624 619 507 
Q 672 390 760 315 
Q 848 240 963 205 
Q 1078 170 1203 170 
z
" transform="scale(0.015625)"/>
        <path id="Lato-Light-79" d="M 1267 -1024 
Q 1248 -1069 1217 -1097 
Q 1187 -1126 1130 -1126 
L 912 -1126 
L 1472 118 
L 125 3184 
L 378 3184 
Q 426 3184 454 3160 
Q 483 3136 493 3107 
L 1565 630 
Q 1584 582 1598 532 
Q 1613 483 1626 432 
Q 1642 483 1659 532 
Q 1677 582 1696 630 
L 2755 3107 
Q 2771 3142 2800 3163 
Q 2829 3184 2864 3184 
L 3098 3184 
L 1267 -1024 
z
" transform="scale(0.015625)"/>
        <path id="Lato-Light-31" d="M 854 237 
L 1894 237 
L 1894 3910 
Q 1894 4019 1904 4141 
L 906 3254 
Q 861 3216 816 3225 
Q 771 3235 746 3264 
L 653 3392 
L 1962 4547 
L 2202 4547 
L 2202 237 
L 3190 237 
L 3190 0 
L 854 0 
L 854 237 
z
" transform="scale(0.015625)"/>
        <path id="Lato-Light-2e" d="M 451 246 
Q 451 307 473 361 
Q 496 416 536 456 
Q 576 496 629 520 
Q 682 544 746 544 
Q 806 544 860 520 
Q 915 496 955 456 
Q 995 416 1019 361 
Q 1043 307 1043 246 
Q 1043 182 1019 129 
Q 995 77 955 37 
Q 915 -3 860 -25 
Q 806 -48 746 -48 
Q 621 -48 536 37 
Q 451 122 451 246 
z
" transform="scale(0.015625)"/>
        <path id="Lato-Light-30" d="M 3478 2266 
Q 3478 1670 3350 1235 
Q 3222 800 3001 515 
Q 2781 230 2485 91 
Q 2189 -48 1853 -48 
Q 1517 -48 1222 91 
Q 928 230 707 515 
Q 486 800 360 1235 
Q 234 1670 234 2266 
Q 234 2861 360 3296 
Q 486 3731 707 4016 
Q 928 4301 1222 4440 
Q 1517 4579 1853 4579 
Q 2189 4579 2485 4440 
Q 2781 4301 3001 4016 
Q 3222 3731 3350 3296 
Q 3478 2861 3478 2266 
z
M 3158 2266 
Q 3158 2816 3052 3206 
Q 2947 3597 2769 3845 
Q 2592 4093 2353 4208 
Q 2115 4323 1853 4323 
Q 1590 4323 1353 4208 
Q 1117 4093 937 3845 
Q 758 3597 652 3206 
Q 547 2816 547 2266 
Q 547 1712 652 1323 
Q 758 934 937 686 
Q 1117 438 1353 324 
Q 1590 211 1853 211 
Q 2115 211 2353 324 
Q 2592 438 2769 686 
Q 2947 934 3052 1323 
Q 3158 1712 3158 2266 
z
" transform="scale(0.015625)"/>
       </defs>
       <use xlink:href="#Lato-Light-6c"/>
       <use xlink:href="#Lato-Light-61" transform="translate(22.100006 0)"/>
       <use xlink:href="#Lato-Light-79" transform="translate(69.625015 0)"/>
       <use xlink:href="#Lato-Light-65" transform="translate(118.650024 0)"/>
       <use xlink:href="#Lato-Light-72" transform="translate(170.800034 0)"/>
       <use xlink:href="#Lato-Light-31" transform="translate(206.15004 0)"/>
       <use xlink:href="#Lato-Light-2e" transform="translate(264.15004 0)"/>
       <use xlink:href="#Lato-Light-30" transform="translate(287.500046 0)"/>
       <use xlink:href="#Lato-Light-2e" transform="translate(345.500046 0)"/>
       <use xlink:href="#Lato-Light-72" transform="translate(368.850052 0)"/>
       <use xlink:href="#Lato-Light-65" transform="translate(401.450058 0)"/>
       <use xlink:href="#Lato-Light-6c" transform="translate(453.600067 0)"/>
       <use xlink:href="#Lato-Light-75" transform="translate(475.700073 0)"/>
      </g>
     </g>
    </g>
    <g id="xtick_3">
     <g id="line2d_5">
      <path d="M 174.632955 228.96 
L 174.632955 7.2 
" clip-path="url(#pd1697d6ac1)" style="fill: none; stroke-dasharray: 3.7,1.6; stroke-dashoffset: 0; stroke: #b0b0b0; stroke-opacity: 0.3"/>
     </g>
     <g id="line2d_6"/>
     <g id="text_3">
      <!-- layer1.1.relu -->
      <g style="fill: #333333" transform="translate(177.666548 294.330469) rotate(-90) scale(0.11 -0.11)">
       <use xlink:href="#Lato-Light-6c"/>
       <use xlink:href="#Lato-Light-61" transform="translate(22.100006 0)"/>
       <use xlink:href="#Lato-Light-79" transform="translate(69.625015 0)"/>
       <use xlink:href="#Lato-Light-65" transform="translate(118.650024 0)"/>
       <use xlink:href="#Lato-Light-72" transform="translate(170.800034 0)"/>
       <use xlink:href="#Lato-Light-31" transform="translate(206.15004 0)"/>
       <use xlink:href="#Lato-Light-2e" transform="translate(264.15004 0)"/>
       <use xlink:href="#Lato-Light-31" transform="translate(287.500046 0)"/>
       <use xlink:href="#Lato-Light-2e" transform="translate(345.500046 0)"/>
       <use xlink:href="#Lato-Light-72" transform="translate(368.850052 0)"/>
       <use xlink:href="#Lato-Light-65" transform="translate(401.450058 0)"/>
       <use xlink:href="#Lato-Light-6c" transform="translate(453.600067 0)"/>
       <use xlink:href="#Lato-Light-75" transform="translate(475.700073 0)"/>
      </g>
     </g>
    </g>
    <g id="xtick_4">
     <g id="line2d_7">
      <path d="M 225.360227 228.96 
L 225.360227 7.2 
" clip-path="url(#pd1697d6ac1)" style="fill: none; stroke-dasharray: 3.7,1.6; stroke-dashoffset: 0; stroke: #b0b0b0; stroke-opacity: 0.3"/>
     </g>
     <g id="line2d_8"/>
     <g id="text_4">
      <!-- layer2.0.relu -->
      <g style="fill: #333333" transform="translate(228.393821 294.330469) rotate(-90) scale(0.11 -0.11)">
       <defs>
        <path id="Lato-Light-32" d="M 1882 4579 
Q 2141 4579 2376 4504 
Q 2611 4429 2792 4277 
Q 2973 4125 3078 3896 
Q 3184 3667 3184 3360 
Q 3184 3104 3105 2885 
Q 3027 2666 2892 2464 
Q 2758 2262 2580 2072 
Q 2403 1882 2208 1683 
L 790 237 
Q 893 262 1003 275 
Q 1114 288 1226 288 
L 3181 288 
Q 3232 288 3261 257 
Q 3290 227 3290 179 
L 3290 0 
L 368 0 
L 368 109 
Q 368 144 385 181 
Q 403 218 432 243 
L 1978 1808 
Q 2170 2003 2333 2185 
Q 2496 2368 2616 2553 
Q 2736 2739 2803 2934 
Q 2870 3130 2870 3350 
Q 2870 3600 2787 3784 
Q 2704 3968 2566 4086 
Q 2429 4205 2246 4262 
Q 2064 4320 1869 4320 
Q 1654 4320 1473 4254 
Q 1293 4189 1153 4072 
Q 1014 3955 923 3793 
Q 832 3632 797 3440 
Q 774 3370 737 3347 
Q 701 3325 637 3331 
L 480 3357 
Q 522 3648 640 3875 
Q 758 4102 940 4259 
Q 1123 4416 1363 4497 
Q 1603 4579 1882 4579 
z
" transform="scale(0.015625)"/>
       </defs>
       <use xlink:href="#Lato-Light-6c"/>
       <use xlink:href="#Lato-Light-61" transform="translate(22.100006 0)"/>
       <use xlink:href="#Lato-Light-79" transform="translate(69.625015 0)"/>
       <use xlink:href="#Lato-Light-65" transform="translate(118.650024 0)"/>
       <use xlink:href="#Lato-Light-72" transform="translate(170.800034 0)"/>
       <use xlink:href="#Lato-Light-32" transform="translate(206.15004 0)"/>
       <use xlink:href="#Lato-Light-2e" transform="translate(264.15004 0)"/>
       <use xlink:href="#Lato-Light-30" transform="translate(287.500046 0)"/>
       <use xlink:href="#Lato-Light-2e" transform="translate(345.500046 0)"/>
       <use xlink:href="#Lato-Light-72" transform="translate(368.850052 0)"/>
       <use xlink:href="#Lato-Light-65" transform="translate(401.450058 0)"/>
       <use xlink:href="#Lato-Light-6c" transform="translate(453.600067 0)"/>
       <use xlink:href="#Lato-Light-75" transform="translate(475.700073 0)"/>
      </g>
     </g>
    </g>
    <g id="xtick_5">
     <g id="line2d_9">
      <path d="M 276.0875 228.96 
L 276.0875 7.2 
" clip-path="url(#pd1697d6ac1)" style="fill: none; stroke-dasharray: 3.7,1.6; stroke-dashoffset: 0; stroke: #b0b0b0; stroke-opacity: 0.3"/>
     </g>
     <g id="line2d_10"/>
     <g id="text_5">
      <!-- layer2.1.relu -->
      <g style="fill: #333333" transform="translate(279.121094 294.330469) rotate(-90) scale(0.11 -0.11)">
       <use xlink:href="#Lato-Light-6c"/>
       <use xlink:href="#Lato-Light-61" transform="translate(22.100006 0)"/>
       <use xlink:href="#Lato-Light-79" transform="translate(69.625015 0)"/>
       <use xlink:href="#Lato-Light-65" transform="translate(118.650024 0)"/>
       <use xlink:href="#Lato-Light-72" transform="translate(170.800034 0)"/>
       <use xlink:href="#Lato-Light-32" transform="translate(206.15004 0)"/>
       <use xlink:href="#Lato-Light-2e" transform="translate(264.15004 0)"/>
       <use xlink:href="#Lato-Light-31" transform="translate(287.500046 0)"/>
       <use xlink:href="#Lato-Light-2e" transform="translate(345.500046 0)"/>
       <use xlink:href="#Lato-Light-72" transform="translate(368.850052 0)"/>
       <use xlink:href="#Lato-Light-65" transform="translate(401.450058 0)"/>
       <use xlink:href="#Lato-Light-6c" transform="translate(453.600067 0)"/>
       <use xlink:href="#Lato-Light-75" transform="translate(475.700073 0)"/>
      </g>
     </g>
    </g>
    <g id="xtick_6">
     <g id="line2d_11">
      <path d="M 326.814773 228.96 
L 326.814773 7.2 
" clip-path="url(#pd1697d6ac1)" style="fill: none; stroke-dasharray: 3.7,1.6; stroke-dashoffset: 0; stroke: #b0b0b0; stroke-opacity: 0.3"/>
     </g>
     <g id="line2d_12"/>
     <g id="text_6">
      <!-- layer3.0.relu -->
      <g style="fill: #333333" transform="translate(329.848366 294.330469) rotate(-90) scale(0.11 -0.11)">
       <defs>
        <path id="Lato-Light-33" d="M 1901 4579 
Q 2160 4579 2390 4507 
Q 2621 4435 2795 4291 
Q 2970 4147 3070 3932 
Q 3171 3718 3171 3437 
Q 3171 3216 3102 3038 
Q 3034 2861 2914 2726 
Q 2794 2592 2630 2501 
Q 2467 2410 2275 2362 
Q 2774 2269 3030 1976 
Q 3286 1683 3286 1245 
Q 3286 966 3174 728 
Q 3062 490 2867 317 
Q 2672 144 2406 46 
Q 2141 -51 1830 -51 
Q 1443 -51 1185 53 
Q 928 157 761 323 
Q 595 490 502 696 
Q 410 902 352 1107 
L 474 1158 
Q 525 1181 581 1171 
Q 637 1162 662 1098 
Q 678 1059 705 977 
Q 733 896 784 797 
Q 835 698 916 594 
Q 998 490 1121 403 
Q 1245 317 1417 262 
Q 1590 208 1827 208 
Q 2115 208 2331 304 
Q 2547 400 2692 549 
Q 2838 698 2910 882 
Q 2982 1066 2982 1238 
Q 2982 1446 2916 1625 
Q 2851 1805 2697 1934 
Q 2544 2064 2293 2139 
Q 2042 2214 1674 2214 
L 1674 2435 
Q 1968 2442 2192 2514 
Q 2416 2586 2566 2710 
Q 2717 2835 2793 3008 
Q 2870 3181 2870 3389 
Q 2870 3629 2790 3805 
Q 2710 3981 2576 4096 
Q 2442 4211 2262 4265 
Q 2083 4320 1888 4320 
Q 1674 4320 1491 4254 
Q 1309 4189 1169 4072 
Q 1030 3955 937 3793 
Q 845 3632 810 3440 
Q 790 3370 755 3347 
Q 720 3325 656 3331 
L 499 3357 
Q 541 3648 659 3875 
Q 778 4102 960 4259 
Q 1142 4416 1382 4497 
Q 1622 4579 1901 4579 
z
" transform="scale(0.015625)"/>
       </defs>
       <use xlink:href="#Lato-Light-6c"/>
       <use xlink:href="#Lato-Light-61" transform="translate(22.100006 0)"/>
       <use xlink:href="#Lato-Light-79" transform="translate(69.625015 0)"/>
       <use xlink:href="#Lato-Light-65" transform="translate(118.650024 0)"/>
       <use xlink:href="#Lato-Light-72" transform="translate(170.800034 0)"/>
       <use xlink:href="#Lato-Light-33" transform="translate(206.15004 0)"/>
       <use xlink:href="#Lato-Light-2e" transform="translate(264.15004 0)"/>
       <use xlink:href="#Lato-Light-30" transform="translate(287.500046 0)"/>
       <use xlink:href="#Lato-Light-2e" transform="translate(345.500046 0)"/>
       <use xlink:href="#Lato-Light-72" transform="translate(368.850052 0)"/>
       <use xlink:href="#Lato-Light-65" transform="translate(401.450058 0)"/>
       <use xlink:href="#Lato-Light-6c" transform="translate(453.600067 0)"/>
       <use xlink:href="#Lato-Light-75" transform="translate(475.700073 0)"/>
      </g>
     </g>
    </g>
    <g id="xtick_7">
     <g id="line2d_13">
      <path d="M 377.542045 228.96 
L 377.542045 7.2 
" clip-path="url(#pd1697d6ac1)" style="fill: none; stroke-dasharray: 3.7,1.6; stroke-dashoffset: 0; stroke: #b0b0b0; stroke-opacity: 0.3"/>
     </g>
     <g id="line2d_14"/>
     <g id="text_7">
      <!-- layer3.1.relu -->
      <g style="fill: #333333" transform="translate(380.575639 294.330469) rotate(-90) scale(0.11 -0.11)">
       <use xlink:href="#Lato-Light-6c"/>
       <use xlink:href="#Lato-Light-61" transform="translate(22.100006 0)"/>
       <use xlink:href="#Lato-Light-79" transform="translate(69.625015 0)"/>
       <use xlink:href="#Lato-Light-65" transform="translate(118.650024 0)"/>
       <use xlink:href="#Lato-Light-72" transform="translate(170.800034 0)"/>
       <use xlink:href="#Lato-Light-33" transform="translate(206.15004 0)"/>
       <use xlink:href="#Lato-Light-2e" transform="translate(264.15004 0)"/>
       <use xlink:href="#Lato-Light-31" transform="translate(287.500046 0)"/>
       <use xlink:href="#Lato-Light-2e" transform="translate(345.500046 0)"/>
       <use xlink:href="#Lato-Light-72" transform="translate(368.850052 0)"/>
       <use xlink:href="#Lato-Light-65" transform="translate(401.450058 0)"/>
       <use xlink:href="#Lato-Light-6c" transform="translate(453.600067 0)"/>
       <use xlink:href="#Lato-Light-75" transform="translate(475.700073 0)"/>
      </g>
     </g>
    </g>
    <g id="xtick_8">
     <g id="line2d_15">
      <path d="M 428.269318 228.96 
L 428.269318 7.2 
" clip-path="url(#pd1697d6ac1)" style="fill: none; stroke-dasharray: 3.7,1.6; stroke-dashoffset: 0; stroke: #b0b0b0; stroke-opacity: 0.3"/>
     </g>
     <g id="line2d_16"/>
     <g id="text_8">
      <!-- layer4.0.relu -->
      <g style="fill: #333333" transform="translate(431.302912 294.330469) rotate(-90) scale(0.11 -0.11)">
       <defs>
        <path id="Lato-Light-34" d="M 2678 1542 
L 3507 1542 
L 3507 1376 
Q 3507 1341 3486 1320 
Q 3466 1299 3421 1299 
L 2678 1299 
L 2678 0 
L 2410 0 
L 2410 1299 
L 269 1299 
Q 221 1299 195 1320 
Q 170 1341 160 1376 
L 131 1526 
L 2406 4534 
L 2678 4534 
L 2678 1542 
z
M 2410 3914 
Q 2410 3968 2414 4032 
Q 2419 4096 2426 4163 
L 464 1542 
L 2410 1542 
L 2410 3914 
z
" transform="scale(0.015625)"/>
       </defs>
       <use xlink:href="#Lato-Light-6c"/>
       <use xlink:href="#Lato-Light-61" transform="translate(22.100006 0)"/>
       <use xlink:href="#Lato-Light-79" transform="translate(69.625015 0)"/>
       <use xlink:href="#Lato-Light-65" transform="translate(118.650024 0)"/>
       <use xlink:href="#Lato-Light-72" transform="translate(170.800034 0)"/>
       <use xlink:href="#Lato-Light-34" transform="translate(206.15004 0)"/>
       <use xlink:href="#Lato-Light-2e" transform="translate(264.15004 0)"/>
       <use xlink:href="#Lato-Light-30" transform="translate(287.500046 0)"/>
       <use xlink:href="#Lato-Light-2e" transform="translate(345.500046 0)"/>
       <use xlink:href="#Lato-Light-72" transform="translate(368.850052 0)"/>
       <use xlink:href="#Lato-Light-65" transform="translate(401.450058 0)"/>
       <use xlink:href="#Lato-Light-6c" transform="translate(453.600067 0)"/>
       <use xlink:href="#Lato-Light-75" transform="translate(475.700073 0)"/>
      </g>
     </g>
    </g>
    <g id="xtick_9">
     <g id="line2d_17">
      <path d="M 478.996591 228.96 
L 478.996591 7.2 
" clip-path="url(#pd1697d6ac1)" style="fill: none; stroke-dasharray: 3.7,1.6; stroke-dashoffset: 0; stroke: #b0b0b0; stroke-opacity: 0.3"/>
     </g>
     <g id="line2d_18"/>
     <g id="text_9">
      <!-- layer4.1.relu -->
      <g style="fill: #333333" transform="translate(482.030185 294.330469) rotate(-90) scale(0.11 -0.11)">
       <use xlink:href="#Lato-Light-6c"/>
       <use xlink:href="#Lato-Light-61" transform="translate(22.100006 0)"/>
       <use xlink:href="#Lato-Light-79" transform="translate(69.625015 0)"/>
       <use xlink:href="#Lato-Light-65" transform="translate(118.650024 0)"/>
       <use xlink:href="#Lato-Light-72" transform="translate(170.800034 0)"/>
       <use xlink:href="#Lato-Light-34" transform="translate(206.15004 0)"/>
       <use xlink:href="#Lato-Light-2e" transform="translate(264.15004 0)"/>
       <use xlink:href="#Lato-Light-31" transform="translate(287.500046 0)"/>
       <use xlink:href="#Lato-Light-2e" transform="translate(345.500046 0)"/>
       <use xlink:href="#Lato-Light-72" transform="translate(368.850052 0)"/>
       <use xlink:href="#Lato-Light-65" transform="translate(401.450058 0)"/>
       <use xlink:href="#Lato-Light-6c" transform="translate(453.600067 0)"/>
       <use xlink:href="#Lato-Light-75" transform="translate(475.700073 0)"/>
      </g>
     </g>
    </g>
    <g id="text_10">
     <!-- Layer Name -->
     <g style="fill: #333333" transform="translate(236.919922 309.378906) scale(0.15 -0.15)">
      <defs>
       <path id="Lato-Regular-4c" d="M 1203 522 
L 3187 522 
L 3187 0 
L 586 0 
L 586 4586 
L 1203 4586 
L 1203 522 
z
" transform="scale(0.015625)"/>
       <path id="Lato-Regular-61" d="M 2512 0 
Q 2429 0 2384 27 
Q 2339 54 2314 134 
L 2250 438 
Q 2122 323 1998 232 
Q 1875 141 1742 78 
Q 1610 16 1458 -17 
Q 1306 -51 1120 -51 
Q 931 -51 764 1 
Q 598 54 475 160 
Q 352 266 280 427 
Q 208 589 208 810 
Q 208 1002 313 1179 
Q 419 1357 656 1494 
Q 893 1632 1273 1720 
Q 1654 1808 2208 1821 
L 2208 2074 
Q 2208 2451 2045 2644 
Q 1882 2838 1568 2838 
Q 1357 2838 1214 2785 
Q 1072 2733 968 2667 
Q 864 2602 789 2549 
Q 714 2496 640 2496 
Q 582 2496 540 2526 
Q 499 2557 470 2602 
L 368 2784 
Q 637 3043 947 3171 
Q 1258 3299 1635 3299 
Q 1907 3299 2118 3209 
Q 2330 3120 2474 2960 
Q 2618 2800 2691 2573 
Q 2765 2346 2765 2074 
L 2765 0 
L 2512 0 
z
M 1290 349 
Q 1440 349 1565 379 
Q 1690 410 1800 466 
Q 1910 522 2011 603 
Q 2112 685 2208 787 
L 2208 1459 
Q 1814 1446 1537 1396 
Q 1261 1347 1086 1267 
Q 912 1187 833 1078 
Q 755 970 755 835 
Q 755 707 796 614 
Q 838 522 910 462 
Q 982 403 1080 376 
Q 1178 349 1290 349 
z
" transform="scale(0.015625)"/>
       <path id="Lato-Regular-79" d="M 1440 -957 
Q 1411 -1021 1368 -1059 
Q 1325 -1098 1235 -1098 
L 813 -1098 
L 1405 189 
L 67 3242 
L 560 3242 
Q 634 3242 677 3205 
Q 720 3168 736 3123 
L 1603 1082 
Q 1629 1008 1651 939 
Q 1674 870 1690 797 
Q 1731 941 1786 1085 
L 2627 3123 
Q 2646 3174 2692 3208 
Q 2739 3242 2797 3242 
L 3248 3242 
L 1440 -957 
z
" transform="scale(0.015625)"/>
       <path id="Lato-Regular-65" d="M 1779 3293 
Q 2070 3293 2318 3195 
Q 2566 3098 2747 2914 
Q 2928 2730 3030 2459 
Q 3133 2189 3133 1843 
Q 3133 1709 3104 1664 
Q 3075 1619 2995 1619 
L 829 1619 
Q 835 1312 912 1085 
Q 989 858 1123 706 
Q 1258 554 1443 478 
Q 1629 403 1859 403 
Q 2074 403 2229 452 
Q 2384 502 2496 560 
Q 2608 618 2683 667 
Q 2758 717 2813 717 
Q 2883 717 2922 662 
L 3082 454 
Q 2976 326 2829 232 
Q 2682 138 2514 77 
Q 2346 16 2166 -14 
Q 1987 -45 1811 -45 
Q 1475 -45 1192 68 
Q 909 182 702 401 
Q 496 621 381 944 
Q 266 1267 266 1686 
Q 266 2026 370 2320 
Q 474 2614 669 2830 
Q 864 3046 1145 3169 
Q 1427 3293 1779 3293 
z
M 1792 2874 
Q 1379 2874 1142 2635 
Q 906 2397 848 1974 
L 2621 1974 
Q 2621 2173 2565 2337 
Q 2509 2502 2401 2622 
Q 2294 2742 2140 2808 
Q 1987 2874 1792 2874 
z
" transform="scale(0.015625)"/>
       <path id="Lato-Regular-72" d="M 451 0 
L 451 3242 
L 778 3242 
Q 870 3242 905 3206 
Q 941 3171 954 3085 
L 989 2592 
Q 1142 2925 1368 3112 
Q 1594 3299 1917 3299 
Q 2019 3299 2113 3276 
Q 2208 3254 2282 3206 
L 2240 2781 
Q 2221 2701 2144 2701 
Q 2099 2701 2012 2720 
Q 1926 2739 1818 2739 
Q 1664 2739 1542 2692 
Q 1421 2646 1326 2558 
Q 1232 2470 1158 2342 
Q 1085 2214 1024 2048 
L 1024 0 
L 451 0 
z
" transform="scale(0.015625)"/>
       <path id="Lato-Regular-20" transform="scale(0.015625)"/>
       <path id="Lato-Regular-4e" d="M 906 4586 
Q 947 4586 976 4581 
Q 1005 4576 1027 4565 
Q 1050 4554 1072 4533 
Q 1094 4512 1120 4480 
L 3773 1027 
Q 3766 1110 3761 1188 
Q 3757 1267 3757 1338 
L 3757 4586 
L 4301 4586 
L 4301 0 
L 3990 0 
Q 3917 0 3867 25 
Q 3818 51 3770 112 
L 1117 3565 
Q 1123 3485 1126 3408 
Q 1130 3331 1130 3267 
L 1130 0 
L 586 0 
L 586 4586 
L 906 4586 
L 906 4586 
z
" transform="scale(0.015625)"/>
       <path id="Lato-Regular-6d" d="M 451 0 
L 451 3242 
L 794 3242 
Q 915 3242 944 3123 
L 986 2790 
Q 1165 3011 1389 3152 
Q 1613 3293 1907 3293 
Q 2234 3293 2437 3110 
Q 2640 2928 2730 2618 
Q 2800 2794 2910 2922 
Q 3021 3050 3158 3133 
Q 3296 3216 3451 3254 
Q 3606 3293 3766 3293 
Q 4022 3293 4222 3211 
Q 4422 3130 4561 2973 
Q 4701 2816 4774 2587 
Q 4848 2358 4848 2064 
L 4848 0 
L 4275 0 
L 4275 2064 
Q 4275 2445 4108 2641 
Q 3942 2838 3629 2838 
Q 3488 2838 3361 2788 
Q 3235 2739 3139 2643 
Q 3043 2547 2987 2401 
Q 2931 2256 2931 2064 
L 2931 0 
L 2358 0 
L 2358 2064 
Q 2358 2454 2201 2646 
Q 2045 2838 1744 2838 
Q 1533 2838 1353 2724 
Q 1174 2611 1024 2416 
L 1024 0 
L 451 0 
z
" transform="scale(0.015625)"/>
      </defs>
      <use xlink:href="#Lato-Regular-4c"/>
      <use xlink:href="#Lato-Regular-61" transform="translate(51.350006 0)"/>
      <use xlink:href="#Lato-Regular-79" transform="translate(99.800018 0)"/>
      <use xlink:href="#Lato-Regular-65" transform="translate(149.975021 0)"/>
      <use xlink:href="#Lato-Regular-72" transform="translate(202.775024 0)"/>
      <use xlink:href="#Lato-Regular-20" transform="translate(237.050034 0)"/>
      <use xlink:href="#Lato-Regular-4e" transform="translate(262.65004 0)"/>
      <use xlink:href="#Lato-Regular-61" transform="translate(337.500046 0)"/>
      <use xlink:href="#Lato-Regular-6d" transform="translate(387.200058 0)"/>
      <use xlink:href="#Lato-Regular-65" transform="translate(469.450073 0)"/>
     </g>
    </g>
   </g>
   <g id="matplotlib.axis_2">
    <g id="ytick_1">
     <g id="line2d_19">
      <path d="M 52.8875 220.394089 
L 499.2875 220.394089 
" clip-path="url(#pd1697d6ac1)" style="fill: none; stroke-dasharray: 3.7,1.6; stroke-dashoffset: 0; stroke: #b0b0b0; stroke-opacity: 0.3"/>
     </g>
     <g id="line2d_20"/>
     <g id="text_11">
      <!-- 0.0 -->
      <g style="fill: #333333" transform="translate(24.985938 225.850339) scale(0.15 -0.15)">
       <use xlink:href="#Lato-Light-30"/>
       <use xlink:href="#Lato-Light-2e" transform="translate(58 0)"/>
       <use xlink:href="#Lato-Light-30" transform="translate(81.350006 0)"/>
      </g>
     </g>
    </g>
    <g id="ytick_2">
     <g id="line2d_21">
      <path d="M 52.8875 159.413968 
L 499.2875 159.413968 
" clip-path="url(#pd1697d6ac1)" style="fill: none; stroke-dasharray: 3.7,1.6; stroke-dashoffset: 0; stroke: #b0b0b0; stroke-opacity: 0.3"/>
     </g>
     <g id="line2d_22"/>
     <g id="text_12">
      <!-- 0.5 -->
      <g style="fill: #333333" transform="translate(24.985938 164.870218) scale(0.15 -0.15)">
       <defs>
        <path id="Lato-Light-35" d="M 3078 4397 
Q 3078 4333 3035 4289 
Q 2992 4246 2899 4246 
L 1261 4246 
L 989 2736 
Q 1203 2790 1395 2814 
Q 1587 2838 1760 2838 
Q 2115 2838 2384 2737 
Q 2653 2637 2833 2456 
Q 3014 2275 3105 2025 
Q 3197 1776 3197 1482 
Q 3197 1123 3073 840 
Q 2950 557 2736 358 
Q 2522 160 2237 54 
Q 1952 -51 1632 -51 
Q 1446 -51 1275 -17 
Q 1104 16 955 72 
Q 806 128 680 201 
Q 554 275 458 352 
L 550 477 
Q 579 525 640 525 
Q 682 525 760 477 
Q 838 429 961 371 
Q 1085 314 1254 266 
Q 1424 218 1648 218 
Q 1910 218 2137 302 
Q 2365 387 2531 547 
Q 2698 707 2792 942 
Q 2886 1178 2886 1475 
Q 2886 1718 2814 1923 
Q 2742 2128 2596 2273 
Q 2451 2419 2228 2500 
Q 2006 2582 1706 2582 
Q 1523 2582 1318 2553 
Q 1114 2525 883 2461 
L 688 2522 
L 1040 4528 
L 3078 4528 
L 3078 4397 
z
" transform="scale(0.015625)"/>
       </defs>
       <use xlink:href="#Lato-Light-30"/>
       <use xlink:href="#Lato-Light-2e" transform="translate(58 0)"/>
       <use xlink:href="#Lato-Light-35" transform="translate(81.350006 0)"/>
      </g>
     </g>
    </g>
    <g id="ytick_3">
     <g id="line2d_23">
      <path d="M 52.8875 98.433846 
L 499.2875 98.433846 
" clip-path="url(#pd1697d6ac1)" style="fill: none; stroke-dasharray: 3.7,1.6; stroke-dashoffset: 0; stroke: #b0b0b0; stroke-opacity: 0.3"/>
     </g>
     <g id="line2d_24"/>
     <g id="text_13">
      <!-- 1.0 -->
      <g style="fill: #333333" transform="translate(24.985938 103.890096) scale(0.15 -0.15)">
       <use xlink:href="#Lato-Light-31"/>
       <use xlink:href="#Lato-Light-2e" transform="translate(58 0)"/>
       <use xlink:href="#Lato-Light-30" transform="translate(81.350006 0)"/>
      </g>
     </g>
    </g>
    <g id="ytick_4">
     <g id="line2d_25">
      <path d="M 52.8875 37.453725 
L 499.2875 37.453725 
" clip-path="url(#pd1697d6ac1)" style="fill: none; stroke-dasharray: 3.7,1.6; stroke-dashoffset: 0; stroke: #b0b0b0; stroke-opacity: 0.3"/>
     </g>
     <g id="line2d_26"/>
     <g id="text_14">
      <!-- 1.5 -->
      <g style="fill: #333333" transform="translate(24.985938 42.909975) scale(0.15 -0.15)">
       <use xlink:href="#Lato-Light-31"/>
       <use xlink:href="#Lato-Light-2e" transform="translate(58 0)"/>
       <use xlink:href="#Lato-Light-35" transform="translate(81.350006 0)"/>
      </g>
     </g>
    </g>
    <g id="text_15">
     <!-- Magnitude -->
     <g style="fill: #333333" transform="translate(18.248438 153.572578) rotate(-90) scale(0.15 -0.15)">
      <defs>
       <path id="Lato-Regular-4d" d="M 2842 1658 
Q 2880 1581 2915 1496 
Q 2950 1411 2986 1328 
Q 3018 1414 3053 1499 
Q 3088 1584 3130 1661 
L 4685 4480 
Q 4723 4554 4769 4570 
Q 4816 4586 4899 4586 
L 5357 4586 
L 5357 0 
L 4813 0 
L 4813 3370 
Q 4813 3437 4816 3513 
Q 4819 3590 4826 3670 
L 3254 803 
Q 3181 659 3030 659 
L 2941 659 
Q 2790 659 2717 803 
L 1110 3680 
Q 1120 3597 1125 3517 
Q 1130 3437 1130 3370 
L 1130 0 
L 586 0 
L 586 4586 
L 1043 4586 
Q 1126 4586 1171 4570 
Q 1216 4554 1258 4480 
L 2842 1658 
L 2842 1658 
z
" transform="scale(0.015625)"/>
       <path id="Lato-Regular-67" d="M 1581 3296 
Q 1792 3296 1974 3249 
Q 2157 3203 2307 3114 
L 3187 3114 
L 3187 2902 
Q 3187 2797 3053 2768 
L 2685 2717 
Q 2794 2509 2794 2253 
Q 2794 2016 2702 1822 
Q 2611 1629 2451 1491 
Q 2291 1354 2067 1280 
Q 1843 1206 1581 1206 
Q 1350 1206 1149 1261 
Q 1046 1197 993 1123 
Q 941 1050 941 979 
Q 941 864 1035 805 
Q 1130 746 1283 720 
Q 1437 694 1633 688 
Q 1830 682 2036 667 
Q 2243 653 2440 617 
Q 2637 582 2790 502 
Q 2944 422 3038 281 
Q 3133 141 3133 -83 
Q 3133 -291 3029 -486 
Q 2925 -682 2729 -834 
Q 2534 -986 2251 -1077 
Q 1968 -1168 1613 -1168 
Q 1258 -1168 992 -1097 
Q 726 -1027 550 -908 
Q 374 -790 286 -635 
Q 198 -480 198 -310 
Q 198 -70 348 96 
Q 499 262 758 362 
Q 614 426 531 533 
Q 448 640 448 822 
Q 448 893 473 968 
Q 499 1043 552 1116 
Q 605 1190 681 1257 
Q 758 1325 861 1376 
Q 621 1510 486 1734 
Q 352 1958 352 2253 
Q 352 2490 443 2683 
Q 534 2877 697 3013 
Q 861 3149 1086 3222 
Q 1312 3296 1581 3296 
z
M 2608 -176 
Q 2608 -58 2541 16 
Q 2474 90 2360 131 
Q 2246 173 2096 190 
Q 1946 208 1778 217 
Q 1610 227 1437 236 
Q 1264 246 1104 269 
Q 925 186 811 61 
Q 698 -64 698 -237 
Q 698 -346 754 -440 
Q 810 -534 925 -603 
Q 1040 -672 1214 -712 
Q 1389 -752 1626 -752 
Q 1856 -752 2038 -710 
Q 2221 -669 2347 -592 
Q 2474 -515 2541 -409 
Q 2608 -304 2608 -176 
z
M 1581 1584 
Q 1754 1584 1885 1632 
Q 2016 1680 2105 1766 
Q 2195 1853 2240 1973 
Q 2285 2093 2285 2237 
Q 2285 2534 2104 2710 
Q 1923 2886 1581 2886 
Q 1235 2886 1054 2710 
Q 874 2534 874 2237 
Q 874 2093 920 1973 
Q 966 1853 1056 1766 
Q 1146 1680 1277 1632 
Q 1408 1584 1581 1584 
z
" transform="scale(0.015625)"/>
       <path id="Lato-Regular-6e" d="M 451 0 
L 451 3242 
L 794 3242 
Q 915 3242 944 3123 
L 989 2771 
Q 1200 3005 1462 3149 
Q 1725 3293 2067 3293 
Q 2333 3293 2536 3205 
Q 2739 3117 2875 2955 
Q 3011 2794 3081 2566 
Q 3152 2339 3152 2064 
L 3152 0 
L 2579 0 
L 2579 2064 
Q 2579 2432 2411 2635 
Q 2243 2838 1901 2838 
Q 1645 2838 1425 2716 
Q 1206 2595 1024 2387 
L 1024 0 
L 451 0 
z
" transform="scale(0.015625)"/>
       <path id="Lato-Regular-69" d="M 1053 3242 
L 1053 0 
L 483 0 
L 483 3242 
L 1053 3242 
z
M 1174 4259 
Q 1174 4176 1140 4104 
Q 1107 4032 1051 3976 
Q 995 3920 920 3888 
Q 845 3856 762 3856 
Q 678 3856 606 3888 
Q 534 3920 480 3976 
Q 426 4032 394 4104 
Q 362 4176 362 4259 
Q 362 4342 394 4417 
Q 426 4493 480 4549 
Q 534 4605 606 4637 
Q 678 4669 762 4669 
Q 845 4669 920 4637 
Q 995 4605 1051 4549 
Q 1107 4493 1140 4417 
Q 1174 4342 1174 4259 
z
" transform="scale(0.015625)"/>
       <path id="Lato-Regular-74" d="M 1446 -51 
Q 1062 -51 856 163 
Q 650 378 650 781 
L 650 2765 
L 259 2765 
Q 208 2765 173 2795 
Q 138 2826 138 2890 
L 138 3117 
L 669 3184 
L 800 4186 
Q 810 4234 843 4264 
Q 877 4294 931 4294 
L 1219 4294 
L 1219 3178 
L 2157 3178 
L 2157 2765 
L 1219 2765 
L 1219 819 
Q 1219 614 1318 515 
Q 1418 416 1574 416 
Q 1664 416 1729 440 
Q 1795 464 1843 493 
Q 1891 522 1924 546 
Q 1958 570 1984 570 
Q 2029 570 2064 515 
L 2230 243 
Q 2083 106 1875 27 
Q 1667 -51 1446 -51 
z
" transform="scale(0.015625)"/>
       <path id="Lato-Regular-75" d="M 989 3242 
L 989 1174 
Q 989 806 1157 604 
Q 1325 403 1670 403 
Q 1920 403 2141 521 
Q 2362 640 2547 851 
L 2547 3242 
L 3117 3242 
L 3117 0 
L 2778 0 
Q 2656 0 2624 118 
L 2579 467 
Q 2368 234 2105 91 
Q 1843 -51 1504 -51 
Q 1238 -51 1035 37 
Q 832 125 694 285 
Q 557 445 488 672 
Q 419 899 419 1174 
L 419 3242 
L 989 3242 
z
" transform="scale(0.015625)"/>
       <path id="Lato-Regular-64" d="M 2794 0 
Q 2672 0 2640 118 
L 2589 512 
Q 2381 259 2113 107 
Q 1846 -45 1501 -45 
Q 1222 -45 995 62 
Q 768 170 608 378 
Q 448 586 361 896 
Q 275 1206 275 1610 
Q 275 1968 371 2277 
Q 467 2586 646 2813 
Q 826 3040 1086 3169 
Q 1347 3299 1674 3299 
Q 1971 3299 2184 3198 
Q 2397 3098 2563 2915 
L 2563 4714 
L 3133 4714 
L 3133 0 
L 2794 0 
z
M 1686 416 
Q 1968 416 2177 544 
Q 2387 672 2563 906 
L 2563 2470 
Q 2403 2682 2217 2768 
Q 2032 2854 1802 2854 
Q 1350 2854 1107 2531 
Q 864 2208 864 1610 
Q 864 1293 918 1067 
Q 973 842 1078 696 
Q 1184 550 1337 483 
Q 1491 416 1686 416 
z
" transform="scale(0.015625)"/>
      </defs>
      <use xlink:href="#Lato-Regular-4d"/>
      <use xlink:href="#Lato-Regular-61" transform="translate(91.350021 0)"/>
      <use xlink:href="#Lato-Regular-67" transform="translate(141.050034 0)"/>
      <use xlink:href="#Lato-Regular-6e" transform="translate(193.050034 0)"/>
      <use xlink:href="#Lato-Regular-69" transform="translate(248.850037 0)"/>
      <use xlink:href="#Lato-Regular-74" transform="translate(272.850037 0)"/>
      <use xlink:href="#Lato-Regular-75" transform="translate(308.700043 0)"/>
      <use xlink:href="#Lato-Regular-64" transform="translate(364.450043 0)"/>
      <use xlink:href="#Lato-Regular-65" transform="translate(420.450043 0)"/>
     </g>
    </g>
   </g>
   <g id="line2d_27">
    <path d="M 73.178409 216.659504 
L 123.905682 216.019381 
L 174.632955 217.143282 
L 225.360227 213.370412 
L 276.0875 215.196649 
L 326.814773 215.837254 
L 377.542045 216.707714 
L 428.269318 218.740272 
L 478.996591 189.055944 
" clip-path="url(#pd1697d6ac1)" style="fill: none; stroke: #368dff; stroke-width: 1.5; stroke-linecap: round"/>
    <defs>
     <path id="md14e3066e1" d="M 0 3 
C 0.795609 3 1.55874 2.683901 2.12132 2.12132 
C 2.683901 1.55874 3 0.795609 3 0 
C 3 -0.795609 2.683901 -1.55874 2.12132 -2.12132 
C 1.55874 -2.683901 0.795609 -3 0 -3 
C -0.795609 -3 -1.55874 -2.683901 -2.12132 -2.12132 
C -2.683901 -1.55874 -3 -0.795609 -3 0 
C -3 0.795609 -2.683901 1.55874 -2.12132 2.12132 
C -1.55874 2.683901 -0.795609 3 0 3 
z
" style="stroke: #368dff"/>
    </defs>
    <g clip-path="url(#pd1697d6ac1)">
     <use xlink:href="#md14e3066e1" x="73.178409" y="216.659504" style="fill: #368dff; stroke: #368dff"/>
     <use xlink:href="#md14e3066e1" x="123.905682" y="216.019381" style="fill: #368dff; stroke: #368dff"/>
     <use xlink:href="#md14e3066e1" x="174.632955" y="217.143282" style="fill: #368dff; stroke: #368dff"/>
     <use xlink:href="#md14e3066e1" x="225.360227" y="213.370412" style="fill: #368dff; stroke: #368dff"/>
     <use xlink:href="#md14e3066e1" x="276.0875" y="215.196649" style="fill: #368dff; stroke: #368dff"/>
     <use xlink:href="#md14e3066e1" x="326.814773" y="215.837254" style="fill: #368dff; stroke: #368dff"/>
     <use xlink:href="#md14e3066e1" x="377.542045" y="216.707714" style="fill: #368dff; stroke: #368dff"/>
     <use xlink:href="#md14e3066e1" x="428.269318" y="218.740272" style="fill: #368dff; stroke: #368dff"/>
     <use xlink:href="#md14e3066e1" x="478.996591" y="189.055944" style="fill: #368dff; stroke: #368dff"/>
    </g>
   </g>
   <g id="line2d_28">
    <path d="M 73.178409 217.486596 
L 123.905682 217.169668 
L 174.632955 216.682401 
L 225.360227 218.105708 
L 276.0875 217.633951 
L 326.814773 218.88 
L 377.542045 218.392207 
L 428.269318 99.247626 
L 478.996591 36.915179 
" clip-path="url(#pd1697d6ac1)" style="fill: none; stroke-dasharray: 5.55,2.4; stroke-dashoffset: 0; stroke: #368dff; stroke-width: 1.5"/>
    <g clip-path="url(#pd1697d6ac1)">
     <use xlink:href="#md14e3066e1" x="73.178409" y="217.486596" style="fill: #368dff; stroke: #368dff"/>
     <use xlink:href="#md14e3066e1" x="123.905682" y="217.169668" style="fill: #368dff; stroke: #368dff"/>
     <use xlink:href="#md14e3066e1" x="174.632955" y="216.682401" style="fill: #368dff; stroke: #368dff"/>
     <use xlink:href="#md14e3066e1" x="225.360227" y="218.105708" style="fill: #368dff; stroke: #368dff"/>
     <use xlink:href="#md14e3066e1" x="276.0875" y="217.633951" style="fill: #368dff; stroke: #368dff"/>
     <use xlink:href="#md14e3066e1" x="326.814773" y="218.88" style="fill: #368dff; stroke: #368dff"/>
     <use xlink:href="#md14e3066e1" x="377.542045" y="218.392207" style="fill: #368dff; stroke: #368dff"/>
     <use xlink:href="#md14e3066e1" x="428.269318" y="99.247626" style="fill: #368dff; stroke: #368dff"/>
     <use xlink:href="#md14e3066e1" x="478.996591" y="36.915179" style="fill: #368dff; stroke: #368dff"/>
    </g>
   </g>
   <g id="line2d_29">
    <path d="M 73.178409 209.750932 
L 123.905682 211.304613 
L 174.632955 212.925536 
L 225.360227 209.69052 
L 276.0875 212.465347 
L 326.814773 209.654435 
L 377.542045 210.855479 
L 428.269318 214.793342 
L 478.996591 198.520623 
" clip-path="url(#pd1697d6ac1)" style="fill: none; stroke: #ff6495; stroke-width: 1.5; stroke-linecap: round"/>
    <defs>
     <path id="mf37480266a" d="M 0 3 
C 0.795609 3 1.55874 2.683901 2.12132 2.12132 
C 2.683901 1.55874 3 0.795609 3 0 
C 3 -0.795609 2.683901 -1.55874 2.12132 -2.12132 
C 1.55874 -2.683901 0.795609 -3 0 -3 
C -0.795609 -3 -1.55874 -2.683901 -2.12132 -2.12132 
C -2.683901 -1.55874 -3 -0.795609 -3 0 
C -3 0.795609 -2.683901 1.55874 -2.12132 2.12132 
C -1.55874 2.683901 -0.795609 3 0 3 
z
" style="stroke: #ff6495"/>
    </defs>
    <g clip-path="url(#pd1697d6ac1)">
     <use xlink:href="#mf37480266a" x="73.178409" y="209.750932" style="fill: #ff6495; stroke: #ff6495"/>
     <use xlink:href="#mf37480266a" x="123.905682" y="211.304613" style="fill: #ff6495; stroke: #ff6495"/>
     <use xlink:href="#mf37480266a" x="174.632955" y="212.925536" style="fill: #ff6495; stroke: #ff6495"/>
     <use xlink:href="#mf37480266a" x="225.360227" y="209.69052" style="fill: #ff6495; stroke: #ff6495"/>
     <use xlink:href="#mf37480266a" x="276.0875" y="212.465347" style="fill: #ff6495; stroke: #ff6495"/>
     <use xlink:href="#mf37480266a" x="326.814773" y="209.654435" style="fill: #ff6495; stroke: #ff6495"/>
     <use xlink:href="#mf37480266a" x="377.542045" y="210.855479" style="fill: #ff6495; stroke: #ff6495"/>
     <use xlink:href="#mf37480266a" x="428.269318" y="214.793342" style="fill: #ff6495; stroke: #ff6495"/>
     <use xlink:href="#mf37480266a" x="478.996591" y="198.520623" style="fill: #ff6495; stroke: #ff6495"/>
    </g>
   </g>
   <g id="line2d_30">
    <path d="M 73.178409 211.666823 
L 123.905682 209.440257 
L 174.632955 207.233395 
L 225.360227 211.039297 
L 276.0875 208.503839 
L 326.814773 213.674368 
L 377.542045 210.977474 
L 428.269318 83.957889 
L 478.996591 17.28 
" clip-path="url(#pd1697d6ac1)" style="fill: none; stroke-dasharray: 5.55,2.4; stroke-dashoffset: 0; stroke: #ff6495; stroke-width: 1.5"/>
    <g clip-path="url(#pd1697d6ac1)">
     <use xlink:href="#mf37480266a" x="73.178409" y="211.666823" style="fill: #ff6495; stroke: #ff6495"/>
     <use xlink:href="#mf37480266a" x="123.905682" y="209.440257" style="fill: #ff6495; stroke: #ff6495"/>
     <use xlink:href="#mf37480266a" x="174.632955" y="207.233395" style="fill: #ff6495; stroke: #ff6495"/>
     <use xlink:href="#mf37480266a" x="225.360227" y="211.039297" style="fill: #ff6495; stroke: #ff6495"/>
     <use xlink:href="#mf37480266a" x="276.0875" y="208.503839" style="fill: #ff6495; stroke: #ff6495"/>
     <use xlink:href="#mf37480266a" x="326.814773" y="213.674368" style="fill: #ff6495; stroke: #ff6495"/>
     <use xlink:href="#mf37480266a" x="377.542045" y="210.977474" style="fill: #ff6495; stroke: #ff6495"/>
     <use xlink:href="#mf37480266a" x="428.269318" y="83.957889" style="fill: #ff6495; stroke: #ff6495"/>
     <use xlink:href="#mf37480266a" x="478.996591" y="17.28" style="fill: #ff6495; stroke: #ff6495"/>
    </g>
   </g>
   <g id="legend_1">
    <g id="line2d_31">
     <path d="M 127.160937 345.6969 
L 142.160937 345.6969 
L 157.160937 345.6969 
" style="fill: none; stroke: #368dff; stroke-width: 1.5; stroke-linecap: round"/>
     <g>
      <use xlink:href="#md14e3066e1" x="142.160937" y="345.6969" style="fill: #368dff; stroke: #368dff"/>
     </g>
    </g>
    <g id="text_16">
     <!-- IPC=500, r=1 -->
     <g style="fill: #333333" transform="translate(169.160937 350.9469) scale(0.15 -0.15)">
      <defs>
       <path id="Lato-Light-49" d="M 998 0 
L 669 0 
L 669 4528 
L 998 4528 
L 998 0 
z
" transform="scale(0.015625)"/>
       <path id="Lato-Light-50" d="M 998 1824 
L 998 0 
L 669 0 
L 669 4528 
L 1840 4528 
Q 2637 4528 3041 4179 
Q 3446 3830 3446 3184 
Q 3446 2886 3334 2636 
Q 3222 2387 3014 2206 
Q 2806 2026 2508 1925 
Q 2211 1824 1840 1824 
L 998 1824 
z
M 998 2086 
L 1840 2086 
Q 2138 2086 2374 2169 
Q 2611 2253 2776 2400 
Q 2941 2547 3029 2747 
Q 3117 2947 3117 3184 
Q 3117 3706 2797 3987 
Q 2477 4269 1840 4269 
L 998 4269 
L 998 2086 
z
" transform="scale(0.015625)"/>
       <path id="Lato-Light-43" d="M 3936 762 
Q 3968 762 3990 739 
L 4118 602 
Q 3978 451 3813 331 
Q 3648 211 3451 126 
Q 3254 42 3019 -4 
Q 2784 -51 2502 -51 
Q 2032 -51 1640 113 
Q 1248 278 966 580 
Q 685 883 529 1312 
Q 374 1741 374 2266 
Q 374 2781 534 3206 
Q 694 3632 982 3937 
Q 1270 4243 1673 4411 
Q 2077 4579 2563 4579 
Q 3027 4579 3385 4435 
Q 3744 4291 4038 4029 
L 3939 3885 
Q 3914 3846 3859 3846 
Q 3821 3846 3734 3916 
Q 3648 3987 3494 4072 
Q 3341 4157 3112 4227 
Q 2883 4298 2563 4298 
Q 2154 4298 1813 4157 
Q 1472 4016 1227 3753 
Q 982 3491 844 3113 
Q 707 2736 707 2266 
Q 707 1786 846 1408 
Q 986 1030 1229 769 
Q 1472 509 1803 369 
Q 2134 230 2518 230 
Q 2762 230 2952 262 
Q 3142 294 3302 358 
Q 3462 422 3600 515 
Q 3738 608 3872 733 
Q 3888 746 3904 754 
Q 3920 762 3936 762 
z
" transform="scale(0.015625)"/>
       <path id="Lato-Light-3d" d="M 531 1779 
L 3181 1779 
L 3181 1542 
L 531 1542 
L 531 1779 
z
M 531 2781 
L 3181 2781 
L 3181 2544 
L 531 2544 
L 531 2781 
z
" transform="scale(0.015625)"/>
       <path id="Lato-Light-2c" d="M 426 272 
Q 426 384 502 464 
Q 579 544 704 544 
Q 842 544 917 449 
Q 992 355 992 202 
Q 992 70 958 -66 
Q 925 -202 861 -333 
Q 797 -464 707 -585 
Q 618 -707 509 -810 
L 461 -762 
Q 445 -749 440 -736 
Q 435 -723 435 -707 
Q 435 -688 461 -656 
Q 490 -624 539 -561 
Q 589 -499 641 -414 
Q 694 -330 736 -224 
Q 778 -118 790 0 
Q 771 -6 747 -9 
Q 723 -13 694 -13 
Q 576 -13 501 67 
Q 426 147 426 272 
z
" transform="scale(0.015625)"/>
       <path id="Lato-Light-20" transform="scale(0.015625)"/>
      </defs>
      <use xlink:href="#Lato-Light-49"/>
      <use xlink:href="#Lato-Light-50" transform="translate(26.050003 0)"/>
      <use xlink:href="#Lato-Light-43" transform="translate(83.850006 0)"/>
      <use xlink:href="#Lato-Light-3d" transform="translate(151.450012 0)"/>
      <use xlink:href="#Lato-Light-35" transform="translate(209.450012 0)"/>
      <use xlink:href="#Lato-Light-30" transform="translate(267.450012 0)"/>
      <use xlink:href="#Lato-Light-30" transform="translate(325.450012 0)"/>
      <use xlink:href="#Lato-Light-2c" transform="translate(383.450012 0)"/>
      <use xlink:href="#Lato-Light-20" transform="translate(405.350006 0)"/>
      <use xlink:href="#Lato-Light-72" transform="translate(432.5 0)"/>
      <use xlink:href="#Lato-Light-3d" transform="translate(467.850006 0)"/>
      <use xlink:href="#Lato-Light-31" transform="translate(525.850006 0)"/>
     </g>
    </g>
    <g id="line2d_32">
     <path d="M 127.160937 366.748462 
L 142.160937 366.748462 
L 157.160937 366.748462 
" style="fill: none; stroke-dasharray: 5.55,2.4; stroke-dashoffset: 0; stroke: #368dff; stroke-width: 1.5"/>
     <g>
      <use xlink:href="#md14e3066e1" x="142.160937" y="366.748462" style="fill: #368dff; stroke: #368dff"/>
     </g>
    </g>
    <g id="text_17">
     <!-- IPC=500, r=32 -->
     <g style="fill: #333333" transform="translate(169.160937 371.998462) scale(0.15 -0.15)">
      <use xlink:href="#Lato-Light-49"/>
      <use xlink:href="#Lato-Light-50" transform="translate(26.050003 0)"/>
      <use xlink:href="#Lato-Light-43" transform="translate(83.850006 0)"/>
      <use xlink:href="#Lato-Light-3d" transform="translate(151.450012 0)"/>
      <use xlink:href="#Lato-Light-35" transform="translate(209.450012 0)"/>
      <use xlink:href="#Lato-Light-30" transform="translate(267.450012 0)"/>
      <use xlink:href="#Lato-Light-30" transform="translate(325.450012 0)"/>
      <use xlink:href="#Lato-Light-2c" transform="translate(383.450012 0)"/>
      <use xlink:href="#Lato-Light-20" transform="translate(405.350006 0)"/>
      <use xlink:href="#Lato-Light-72" transform="translate(432.5 0)"/>
      <use xlink:href="#Lato-Light-3d" transform="translate(467.850006 0)"/>
      <use xlink:href="#Lato-Light-33" transform="translate(525.850006 0)"/>
      <use xlink:href="#Lato-Light-32" transform="translate(583.850006 0)"/>
     </g>
    </g>
    <g id="line2d_33">
     <path d="M 295.4375 345.6969 
L 310.4375 345.6969 
L 325.4375 345.6969 
" style="fill: none; stroke: #ff6495; stroke-width: 1.5; stroke-linecap: round"/>
     <g>
      <use xlink:href="#mf37480266a" x="310.4375" y="345.6969" style="fill: #ff6495; stroke: #ff6495"/>
     </g>
    </g>
    <g id="text_18">
     <!-- IPC=10, r=1 -->
     <g style="fill: #333333" transform="translate(337.4375 350.9469) scale(0.15 -0.15)">
      <use xlink:href="#Lato-Light-49"/>
      <use xlink:href="#Lato-Light-50" transform="translate(26.050003 0)"/>
      <use xlink:href="#Lato-Light-43" transform="translate(83.850006 0)"/>
      <use xlink:href="#Lato-Light-3d" transform="translate(151.450012 0)"/>
      <use xlink:href="#Lato-Light-31" transform="translate(209.450012 0)"/>
      <use xlink:href="#Lato-Light-30" transform="translate(267.450012 0)"/>
      <use xlink:href="#Lato-Light-2c" transform="translate(325.450012 0)"/>
      <use xlink:href="#Lato-Light-20" transform="translate(347.350006 0)"/>
      <use xlink:href="#Lato-Light-72" transform="translate(374.5 0)"/>
      <use xlink:href="#Lato-Light-3d" transform="translate(409.850006 0)"/>
      <use xlink:href="#Lato-Light-31" transform="translate(467.850006 0)"/>
     </g>
    </g>
    <g id="line2d_34">
     <path d="M 295.4375 366.748462 
L 310.4375 366.748462 
L 325.4375 366.748462 
" style="fill: none; stroke-dasharray: 5.55,2.4; stroke-dashoffset: 0; stroke: #ff6495; stroke-width: 1.5"/>
     <g>
      <use xlink:href="#mf37480266a" x="310.4375" y="366.748462" style="fill: #ff6495; stroke: #ff6495"/>
     </g>
    </g>
    <g id="text_19">
     <!-- IPC=10, r=32 -->
     <g style="fill: #333333" transform="translate(337.4375 371.998462) scale(0.15 -0.15)">
      <use xlink:href="#Lato-Light-49"/>
      <use xlink:href="#Lato-Light-50" transform="translate(26.050003 0)"/>
      <use xlink:href="#Lato-Light-43" transform="translate(83.850006 0)"/>
      <use xlink:href="#Lato-Light-3d" transform="translate(151.450012 0)"/>
      <use xlink:href="#Lato-Light-31" transform="translate(209.450012 0)"/>
      <use xlink:href="#Lato-Light-30" transform="translate(267.450012 0)"/>
      <use xlink:href="#Lato-Light-2c" transform="translate(325.450012 0)"/>
      <use xlink:href="#Lato-Light-20" transform="translate(347.350006 0)"/>
      <use xlink:href="#Lato-Light-72" transform="translate(374.5 0)"/>
      <use xlink:href="#Lato-Light-3d" transform="translate(409.850006 0)"/>
      <use xlink:href="#Lato-Light-33" transform="translate(467.850006 0)"/>
      <use xlink:href="#Lato-Light-32" transform="translate(525.850006 0)"/>
     </g>
    </g>
   </g>
  </g>
 </g>
 <defs>
  <clipPath id="pd1697d6ac1">
   <rect x="52.8875" y="7.2" width="446.4" height="221.76"/>
  </clipPath>
 </defs>
</svg>
